  0
SECTION
  2
HEADER
  9
$ACADVER
  1
AC1027
  9
$ACADMAINTVER
 70
   105
  9
$DWGCODEPAGE
  3
ANSI_1252
  9
$REQUIREDVERSIONS
160
                 0
  9
$LASTSAVEDBY
  1
devel0
  9
$INSBASE
 10
0.0
 20
0.0
 30
0.0
  9
$EXTMIN
 10
79.89398601398602
 20
-178.77696725
 30
0.0
  9
$EXTMAX
 10
279.893986013986
 20
61.55986013986012
 30
0.0
  9
$LIMMIN
 10
0.0
 20
0.0
  9
$LIMMAX
 10
420.0
 20
297.0
  9
$ORTHOMODE
 70
     1
  9
$REGENMODE
 70
     1
  9
$FILLMODE
 70
     1
  9
$QTEXTMODE
 70
     0
  9
$MIRRTEXT
 70
     0
  9
$LTSCALE
 40
1.0
  9
$ATTMODE
 70
     1
  9
$TEXTSIZE
 40
2.5
  9
$TRACEWID
 40
1.0
  9
$TEXTSTYLE
  7
Standard
  9
$CLAYER
  8
0
  9
$CELTYPE
  6
ByLayer
  9
$CECOLOR
 62
     6
  9
$CELTSCALE
 40
1.0
  9
$DISPSILH
 70
     0
  9
$DIMSCALE
 40
1.0
  9
$DIMASZ
 40
2.5
  9
$DIMEXO
 40
0.625
  9
$DIMDLI
 40
3.75
  9
$DIMRND
 40
0.0
  9
$DIMDLE
 40
0.0
  9
$DIMEXE
 40
1.25
  9
$DIMTP
 40
0.0
  9
$DIMTM
 40
0.0
  9
$DIMTXT
 40
2.5
  9
$DIMCEN
 40
2.5
  9
$DIMTSZ
 40
0.0
  9
$DIMTOL
 70
     0
  9
$DIMLIM
 70
     0
  9
$DIMTIH
 70
     0
  9
$DIMTOH
 70
     0
  9
$DIMSE1
 70
     0
  9
$DIMSE2
 70
     0
  9
$DIMTAD
 70
     1
  9
$DIMZIN
 70
     8
  9
$DIMBLK
  1

  9
$DIMASO
 70
     1
  9
$DIMSHO
 70
     1
  9
$DIMPOST
  1

  9
$DIMAPOST
  1

  9
$DIMALT
 70
     0
  9
$DIMALTD
 70
     3
  9
$DIMALTF
 40
0.03937007874016
  9
$DIMLFAC
 40
1.0
  9
$DIMTOFL
 70
     1
  9
$DIMTVP
 40
0.0
  9
$DIMTIX
 70
     0
  9
$DIMSOXD
 70
     0
  9
$DIMSAH
 70
     0
  9
$DIMBLK1
  1

  9
$DIMBLK2
  1

  9
$DIMSTYLE
  2
ISO-25
  9
$DIMCLRD
 70
     0
  9
$DIMCLRE
 70
     0
  9
$DIMCLRT
 70
     0
  9
$DIMTFAC
 40
1.0
  9
$DIMGAP
 40
0.625
  9
$DIMJUST
 70
     0
  9
$DIMSD1
 70
     0
  9
$DIMSD2
 70
     0
  9
$DIMTOLJ
 70
     0
  9
$DIMTZIN
 70
     8
  9
$DIMALTZ
 70
     0
  9
$DIMALTTZ
 70
     0
  9
$DIMUPT
 70
     0
  9
$DIMDEC
 70
     2
  9
$DIMTDEC
 70
     2
  9
$DIMALTU
 70
     2
  9
$DIMALTTD
 70
     3
  9
$DIMTXSTY
  7
Standard
  9
$DIMAUNIT
 70
     0
  9
$DIMADEC
 70
     0
  9
$DIMALTRND
 40
0.0
  9
$DIMAZIN
 70
     0
  9
$DIMDSEP
 70
    44
  9
$DIMATFIT
 70
     3
  9
$DIMFRAC
 70
     0
  9
$DIMLDRBLK
  1

  9
$DIMLUNIT
 70
     2
  9
$DIMLWD
 70
    -2
  9
$DIMLWE
 70
    -2
  9
$DIMTMOVE
 70
     0
  9
$DIMFXL
 40
1.0
  9
$DIMFXLON
 70
     0
  9
$DIMJOGANG
 40
0.7853981633974483
  9
$DIMTFILL
 70
     0
  9
$DIMTFILLCLR
 70
     0
  9
$DIMARCSYM
 70
     0
  9
$DIMLTYPE
  6

  9
$DIMLTEX1
  6

  9
$DIMLTEX2
  6

  9
$DIMTXTDIRECTION
 70
     0
  9
$LUNITS
 70
     2
  9
$LUPREC
 70
     3
  9
$SKETCHINC
 40
1.0
  9
$FILLETRAD
 40
10.0
  9
$AUNITS
 70
     0
  9
$AUPREC
 70
     0
  9
$MENU
  1
.
  9
$ELEVATION
 40
0.0
  9
$PELEVATION
 40
0.0
  9
$THICKNESS
 40
0.0
  9
$LIMCHECK
 70
     0
  9
$CHAMFERA
 40
10.0
  9
$CHAMFERB
 40
10.0
  9
$CHAMFERC
 40
20.0
  9
$CHAMFERD
 40
0.0
  9
$SKPOLY
 70
     0
  9
$TDCREATE
 40
2455022.67902618
  9
$TDUCREATE
 40
2455022.637359514
  9
$TDUPDATE
 40
2458476.476327165
  9
$TDUUPDATE
 40
2458476.434660498
  9
$TDINDWG
 40
0.0000001852
  9
$TDUSRTIMER
 40
0.003757037
  9
$USRTIMER
 70
     1
  9
$ANGBASE
 50
0.0
  9
$ANGDIR
 70
     0
  9
$PDMODE
 70
     0
  9
$PDSIZE
 40
0.0
  9
$PLINEWID
 40
0.0
  9
$SPLFRAME
 70
     0
  9
$SPLINETYPE
 70
     6
  9
$SPLINESEGS
 70
     8
  9
$HANDSEED
  5
1189
  9
$SURFTAB1
 70
     6
  9
$SURFTAB2
 70
     6
  9
$SURFTYPE
 70
     6
  9
$SURFU
 70
     6
  9
$SURFV
 70
     6
  9
$UCSBASE
  2

  9
$UCSNAME
  2

  9
$UCSORG
 10
0.0
 20
0.0
 30
0.0
  9
$UCSXDIR
 10
1.0
 20
0.0
 30
0.0
  9
$UCSYDIR
 10
0.0
 20
1.0
 30
0.0
  9
$UCSORTHOREF
  2

  9
$UCSORTHOVIEW
 70
     0
  9
$UCSORGTOP
 10
0.0
 20
0.0
 30
0.0
  9
$UCSORGBOTTOM
 10
0.0
 20
0.0
 30
0.0
  9
$UCSORGLEFT
 10
0.0
 20
0.0
 30
0.0
  9
$UCSORGRIGHT
 10
0.0
 20
0.0
 30
0.0
  9
$UCSORGFRONT
 10
0.0
 20
0.0
 30
0.0
  9
$UCSORGBACK
 10
0.0
 20
0.0
 30
0.0
  9
$PUCSBASE
  2

  9
$PUCSNAME
  2

  9
$PUCSORG
 10
0.0
 20
0.0
 30
0.0
  9
$PUCSXDIR
 10
1.0
 20
0.0
 30
0.0
  9
$PUCSYDIR
 10
0.0
 20
1.0
 30
0.0
  9
$PUCSORTHOREF
  2

  9
$PUCSORTHOVIEW
 70
     0
  9
$PUCSORGTOP
 10
0.0
 20
0.0
 30
0.0
  9
$PUCSORGBOTTOM
 10
0.0
 20
0.0
 30
0.0
  9
$PUCSORGLEFT
 10
0.0
 20
0.0
 30
0.0
  9
$PUCSORGRIGHT
 10
0.0
 20
0.0
 30
0.0
  9
$PUCSORGFRONT
 10
0.0
 20
0.0
 30
0.0
  9
$PUCSORGBACK
 10
0.0
 20
0.0
 30
0.0
  9
$USERI1
 70
     0
  9
$USERI2
 70
     0
  9
$USERI3
 70
     0
  9
$USERI4
 70
     0
  9
$USERI5
 70
     0
  9
$USERR1
 40
0.0
  9
$USERR2
 40
0.0
  9
$USERR3
 40
0.0
  9
$USERR4
 40
0.0
  9
$USERR5
 40
0.0
  9
$WORLDVIEW
 70
     1
  9
$SHADEDGE
 70
     3
  9
$SHADEDIF
 70
    70
  9
$TILEMODE
 70
     1
  9
$MAXACTVP
 70
    64
  9
$PINSBASE
 10
0.0
 20
0.0
 30
0.0
  9
$PLIMCHECK
 70
     0
  9
$PEXTMIN
 10
40.5
 20
25.69999999999999
 30
0.0
  9
$PEXTMAX
 10
364.5
 20
231.3
 30
0.0
  9
$PLIMMIN
 10
-7.5
 20
-20.0
  9
$PLIMMAX
 10
412.5
 20
277.0
  9
$UNITMODE
 70
     0
  9
$VISRETAIN
 70
     1
  9
$PLINEGEN
 70
     0
  9
$PSLTSCALE
 70
     1
  9
$TREEDEPTH
 70
  3020
  9
$CMLSTYLE
  2
Standard
  9
$CMLJUST
 70
     0
  9
$CMLSCALE
 40
20.0
  9
$PROXYGRAPHICS
 70
     1
  9
$MEASUREMENT
 70
     1
  9
$CELWEIGHT
370
    -1
  9
$ENDCAPS
280
     0
  9
$JOINSTYLE
280
     0
  9
$LWDISPLAY
290
     0
  9
$INSUNITS
 70
     4
  9
$HYPERLINKBASE
  1

  9
$STYLESHEET
  1

  9
$XEDIT
290
     1
  9
$CEPSNTYPE
380
     0
  9
$PSTYLEMODE
290
     1
  9
$FINGERPRINTGUID
  2
{EC6BB858-51AA-46EC-B484-6C9CC7AB3E2E}
  9
$VERSIONGUID
  2
{FAEB1C32-E019-11D5-929B-00C0DF256EC4}
  9
$EXTNAMES
290
     1
  9
$PSVPSCALE
 40
0.0
  9
$OLESTARTUP
290
     0
  9
$SORTENTS
280
   127
  9
$INDEXCTL
280
     0
  9
$HIDETEXT
280
     1
  9
$XCLIPFRAME
280
     0
  9
$HALOGAP
280
     0
  9
$OBSCOLOR
 70
   257
  9
$OBSLTYPE
280
     0
  9
$INTERSECTIONDISPLAY
280
     0
  9
$INTERSECTIONCOLOR
 70
   257
  9
$DIMASSOC
280
     2
  9
$PROJECTNAME
  1

  9
$CAMERADISPLAY
290
     0
  9
$LENSLENGTH
 40
50.0
  9
$CAMERAHEIGHT
 40
0.0
  9
$STEPSPERSEC
 40
2.0
  9
$STEPSIZE
 40
6.0
  9
$3DDWFPREC
 40
2.0
  9
$PSOLWIDTH
 40
5.0
  9
$PSOLHEIGHT
 40
80.0
  9
$LOFTANG1
 40
1.570796326794897
  9
$LOFTANG2
 40
1.570796326794897
  9
$LOFTMAG1
 40
0.0
  9
$LOFTMAG2
 40
0.0
  9
$LOFTPARAM
 70
     7
  9
$LOFTNORMALS
280
     1
  9
$LATITUDE
 40
37.795
  9
$LONGITUDE
 40
-122.394
  9
$NORTHDIRECTION
 40
0.0
  9
$TIMEZONE
 70
 -8000
  9
$LIGHTGLYPHDISPLAY
280
     1
  9
$TILEMODELIGHTSYNCH
280
     1
  9
$SOLIDHIST
280
     1
  9
$SHOWHIST
280
     1
  9
$DWFFRAME
280
     2
  9
$DGNFRAME
280
     2
  9
$REALWORLDSCALE
290
     1
  9
$INTERFERECOLOR
 62
   256
  9
$CSHADOW
280
     0
  9
$SHADOWPLANELOCATION
 40
0.0
  0
ENDSEC
  0
SECTION
  2
CLASSES
  0
CLASS
  1
ACDBDICTIONARYWDFLT
  2
AcDbDictionaryWithDefault
  3
ObjectDBX Classes
 90
        0
 91
        9
280
     0
281
     0
  0
CLASS
  1
VISUALSTYLE
  2
AcDbVisualStyle
  3
ObjectDBX Classes
 90
     4095
 91
        9
280
     0
281
     0
  0
CLASS
  1
TABLESTYLE
  2
AcDbTableStyle
  3
ObjectDBX Classes
 90
     4095
 91
        9
280
     0
281
     0
  0
CLASS
  1
DICTIONARYVAR
  2
AcDbDictionaryVar
  3
ObjectDBX Classes
 90
        0
 91
        9
280
     0
281
     0
  0
CLASS
  1
SCALE
  2
AcDbScale
  3
ObjectDBX Classes
 90
     1153
 91
        9
280
     0
281
     0
  0
CLASS
  1
CELLSTYLEMAP
  2
AcDbCellStyleMap
  3
ObjectDBX Classes
 90
     1152
 91
        9
280
     0
281
     0
  0
CLASS
  1
RASTERVARIABLES
  2
AcDbRasterVariables
  3
ISM
 90
        0
 91
        9
280
     0
281
     0
  0
CLASS
  1
MATERIAL
  2
AcDbMaterial
  3
ObjectDBX Classes
 90
     1153
 91
        9
280
     0
281
     0
  0
CLASS
  1
SUN
  2
AcDbSun
  3
SCENEOE
 90
     1153
 91
        9
280
     0
281
     0
  0
CLASS
  1
MLEADERSTYLE
  2
AcDbMLeaderStyle
  3
ACDB_MLEADERSTYLE_CLASS
 90
     4095
 91
        9
280
     0
281
     0
  0
CLASS
  1
IMAGEDEF
  2
AcDbRasterImageDef
  3
ISM
 90
        0
 91
        4
280
     0
281
     0
  0
CLASS
  1
IMAGE
  2
AcDbRasterImage
  3
ISM
 90
      127
 91
        5
280
     0
281
     1
  0
CLASS
  1
IMAGEDEF_REACTOR
  2
AcDbRasterImageDefReactor
  3
ISM
 90
        1
 91
        4
280
     0
281
     0
  0
ENDSEC
  0
SECTION
  2
TABLES
  0
TABLE
  2
VPORT
  5
8
330
0
100
AcDbSymbolTable
 70
     1
  0
VPORT
  5
29
330
8
100
AcDbSymbolTableRecord
100
AcDbViewportTableRecord
  2
*Active
 70
     0
 10
0.0
 20
0.0
 11
1.0
 21
1.0
 12
252.9225324945984
 22
-135.6355521576889
 13
0.0
 23
0.0
 14
10.0
 24
10.0
 15
10.0
 25
10.0
 16
0.0
 26
0.0
 36
1.0
 17
-134.1869158878507
 27
0.0
 37
0.0
 40
142.7999999999999
 41
1.73006993006993
 42
50.0
 43
0.0
 44
0.0
 50
0.0
 51
0.0
 71
    16
 72
  1000
 73
     1
 74
     3
 75
     0
 76
     0
 77
     0
 78
     0
281
     0
 65
     1
110
0.0
120
0.0
130
0.0
111
1.0
121
0.0
131
0.0
112
0.0
122
1.0
132
0.0
 79
     0
146
0.0
348
2F
 60
     3
 61
     5
292
     1
282
     1
141
0.0
142
0.0
 63
   256
361
80
  0
ENDTAB
  0
TABLE
  2
LTYPE
  5
5
330
0
100
AcDbSymbolTable
 70
     1
  0
LTYPE
  5
14
330
5
100
AcDbSymbolTableRecord
100
AcDbLinetypeTableRecord
  2
ByBlock
 70
     0
  3

 72
    65
 73
     0
 40
0.0
  0
LTYPE
  5
15
330
5
100
AcDbSymbolTableRecord
100
AcDbLinetypeTableRecord
  2
ByLayer
 70
     0
  3

 72
    65
 73
     0
 40
0.0
  0
LTYPE
  5
16
330
5
100
AcDbSymbolTableRecord
100
AcDbLinetypeTableRecord
  2
Continuous
 70
     0
  3
Solid line
 72
    65
 73
     0
 40
0.0
  0
ENDTAB
  0
TABLE
  2
LAYER
  5
2
330
0
100
AcDbSymbolTable
 70
     1
  0
LAYER
  5
10
330
2
100
AcDbSymbolTableRecord
100
AcDbLayerTableRecord
  2
0
 70
     0
 62
     7
  6
Continuous
370
    -3
390
F
347
75
348
0
  0
ENDTAB
  0
TABLE
  2
STYLE
  5
3
330
0
100
AcDbSymbolTable
 70
     2
  0
STYLE
  5
11
330
3
100
AcDbSymbolTableRecord
100
AcDbTextStyleTableRecord
  2
Standard
 70
     0
 40
0.0
 41
1.0
 50
0.0
 71
     0
 42
2.5
  3
arial.ttf
  4

1001
ACAD
1000
Arial
1071
        0
  0
STYLE
  5
B8
330
3
100
AcDbSymbolTableRecord
100
AcDbTextStyleTableRecord
  2
Annotative
 70
     0
 40
0.0
 41
1.0
 50
0.0
 71
     0
 42
2.5
  3
arial.ttf
  4

1001
ACAD
1000
Arial
1071
        0
1001
AcadAnnotative
1000
AnnotativeData
1002
{
1070
     1
1070
     1
1002
}
  0
ENDTAB
  0
TABLE
  2
VIEW
  5
6
330
0
100
AcDbSymbolTable
 70
     0
  0
ENDTAB
  0
TABLE
  2
UCS
  5
7
330
0
100
AcDbSymbolTable
 70
     0
  0
ENDTAB
  0
TABLE
  2
APPID
  5
9
330
0
100
AcDbSymbolTable
 70
     2
  0
APPID
  5
12
330
9
100
AcDbSymbolTableRecord
100
AcDbRegAppTableRecord
  2
ACAD
 70
     0
  0
APPID
  5
B9
330
9
100
AcDbSymbolTableRecord
100
AcDbRegAppTableRecord
  2
AcadAnnotative
 70
     0
  0
ENDTAB
  0
TABLE
  2
DIMSTYLE
  5
A
330
0
100
AcDbSymbolTable
 70
     2
100
AcDbDimStyleTable
  0
DIMSTYLE
105
27
330
A
100
AcDbSymbolTableRecord
100
AcDbDimStyleTableRecord
  2
ISO-25
 70
     0
 41
2.5
 42
0.625
 43
3.75
 44
1.25
 73
     0
 74
     0
 77
     1
 78
     8
140
2.5
141
2.5
143
0.03937007874016
147
0.625
171
     3
172
     1
178
     0
271
     2
272
     2
274
     3
278
    44
283
     0
284
     8
340
11
  0
DIMSTYLE
105
BA
330
A
100
AcDbSymbolTableRecord
100
AcDbDimStyleTableRecord
  2
Annotative
 70
     0
 40
0.0
 41
2.5
 42
0.625
 43
3.75
 44
1.25
 73
     0
 74
     0
 77
     1
 78
     8
140
2.5
141
2.5
143
0.03937007874016
147
0.625
171
     3
172
     1
178
     0
271
     2
272
     2
274
     3
278
    44
283
     0
284
     8
340
11
1001
AcadAnnotative
1000
AnnotativeData
1002
{
1070
     1
1070
     1
1002
}
  0
ENDTAB
  0
TABLE
  2
BLOCK_RECORD
  5
1
330
0
100
AcDbSymbolTable
 70
    89
  0
BLOCK_RECORD
  5
1F
330
1
100
AcDbSymbolTableRecord
100
AcDbBlockTableRecord
  2
*Model_Space
340
22
 70
     0
280
     1
281
     0
  0
BLOCK_RECORD
  5
1B
330
1
100
AcDbSymbolTableRecord
100
AcDbBlockTableRecord
  2
*Paper_Space
340
1E
 70
     0
280
     1
281
     0
  0
BLOCK_RECORD
  5
23
330
1
100
AcDbSymbolTableRecord
100
AcDbBlockTableRecord
  2
*Paper_Space0
340
26
 70
     0
280
     1
281
     0
  0
ENDTAB
  0
ENDSEC
  0
SECTION
  2
BLOCKS
  0
BLOCK
  5
20
330
1F
100
AcDbEntity
  8
0
100
AcDbBlockBegin
  2
*Model_Space
 70
     0
 10
0.0
 20
0.0
 30
0.0
  3
*Model_Space
  1

  0
ENDBLK
  5
21
330
1F
100
AcDbEntity
  8
0
100
AcDbBlockEnd
  0
BLOCK
  5
1C
330
1B
100
AcDbEntity
 67
     1
  8
0
100
AcDbBlockBegin
  2
*Paper_Space
 70
     0
 10
0.0
 20
0.0
 30
0.0
  3
*Paper_Space
  1

  0
ENDBLK
  5
1D
330
1B
100
AcDbEntity
 67
     1
  8
0
100
AcDbBlockEnd
  0
BLOCK
  5
24
330
23
100
AcDbEntity
  8
0
100
AcDbBlockBegin
  2
*Paper_Space0
 70
     0
 10
0.0
 20
0.0
 30
0.0
  3
*Paper_Space0
  1

  0
ENDBLK
  5
25
330
23
100
AcDbEntity
  8
0
100
AcDbBlockEnd
  0
ENDSEC
  0
SECTION
  2
ENTITIES
  0
LWPOLYLINE
  5
BD
330
1F
100
AcDbEntity
  8
0
100
AcDbPolyline
 90
        4
 70
     1
 43
0.0
 10
79.89398601398602
 20
41.55986013986012
 10
79.89398601398602
 20
61.55986013986012
 10
99.89398601398602
 20
61.55986013986012
 10
99.89398601398602
 20
41.55986013986012
  0
CIRCLE
  5
BE
330
1F
100
AcDbEntity
  8
0
100
AcDbCircle
 10
84.89398601398602
 20
46.55986013986013
 30
0.0
 40
0.75
  0
CIRCLE
  5
BF
330
1F
100
AcDbEntity
  8
0
100
AcDbCircle
 10
84.89398601398602
 20
56.55986013986013
 30
0.0
 40
0.75
  0
CIRCLE
  5
C0
330
1F
100
AcDbEntity
  8
0
100
AcDbCircle
 10
94.89398601398602
 20
46.55986013986013
 30
0.0
 40
0.75
  0
CIRCLE
  5
C1
330
1F
100
AcDbEntity
  8
0
100
AcDbCircle
 10
94.89398601398602
 20
56.55986013986013
 30
0.0
 40
0.75
  0
CIRCLE
  5
C2
330
1F
100
AcDbEntity
  8
0
100
AcDbCircle
 10
89.89398601398601
 20
51.55986013986013
 30
0.0
 40
0.75
  0
LWPOLYLINE
  5
155
330
1F
100
AcDbEntity
  8
0
100
AcDbPolyline
 90
        4
 70
     1
 43
0.0
 10
99.89398601398602
 20
41.55986013986012
 10
99.89398601398602
 20
61.55986013986012
 10
119.893986013986
 20
61.55986013986012
 10
119.893986013986
 20
41.55986013986012
  0
CIRCLE
  5
156
330
1F
100
AcDbEntity
  8
0
100
AcDbCircle
 10
104.893986013986
 20
46.55986013986013
 30
0.0
 40
0.75
  0
CIRCLE
  5
157
330
1F
100
AcDbEntity
  8
0
100
AcDbCircle
 10
104.893986013986
 20
56.55986013986013
 30
0.0
 40
0.75
  0
CIRCLE
  5
158
330
1F
100
AcDbEntity
  8
0
100
AcDbCircle
 10
114.893986013986
 20
46.55986013986013
 30
0.0
 40
0.75
  0
CIRCLE
  5
159
330
1F
100
AcDbEntity
  8
0
100
AcDbCircle
 10
114.893986013986
 20
56.55986013986013
 30
0.0
 40
0.75
  0
CIRCLE
  5
15A
330
1F
100
AcDbEntity
  8
0
100
AcDbCircle
 10
109.893986013986
 20
51.55986013986013
 30
0.0
 40
0.75
  0
LWPOLYLINE
  5
168
330
1F
100
AcDbEntity
  8
0
100
AcDbPolyline
 90
        4
 70
     1
 43
0.0
 10
79.89398601398602
 20
1.55986013986012
 10
79.89398601398602
 20
21.55986013986012
 10
99.89398601398602
 20
21.55986013986012
 10
99.89398601398602
 20
1.55986013986012
  0
CIRCLE
  5
169
330
1F
100
AcDbEntity
  8
0
100
AcDbCircle
 10
84.89398601398602
 20
6.559860139860128
 30
0.0
 40
0.75
  0
CIRCLE
  5
16A
330
1F
100
AcDbEntity
  8
0
100
AcDbCircle
 10
84.89398601398602
 20
16.55986013986013
 30
0.0
 40
0.75
  0
CIRCLE
  5
16B
330
1F
100
AcDbEntity
  8
0
100
AcDbCircle
 10
94.89398601398602
 20
6.559860139860128
 30
0.0
 40
0.75
  0
CIRCLE
  5
16C
330
1F
100
AcDbEntity
  8
0
100
AcDbCircle
 10
94.89398601398602
 20
16.55986013986013
 30
0.0
 40
0.75
  0
CIRCLE
  5
16D
330
1F
100
AcDbEntity
  8
0
100
AcDbCircle
 10
89.89398601398601
 20
11.55986013986013
 30
0.0
 40
0.75
  0
LWPOLYLINE
  5
16E
330
1F
100
AcDbEntity
  8
0
100
AcDbPolyline
 90
        4
 70
     1
 43
0.0
 10
99.89398601398602
 20
1.55986013986012
 10
99.89398601398602
 20
21.55986013986012
 10
119.893986013986
 20
21.55986013986012
 10
119.893986013986
 20
1.55986013986012
  0
CIRCLE
  5
16F
330
1F
100
AcDbEntity
  8
0
100
AcDbCircle
 10
104.893986013986
 20
6.559860139860128
 30
0.0
 40
0.75
  0
CIRCLE
  5
170
330
1F
100
AcDbEntity
  8
0
100
AcDbCircle
 10
104.893986013986
 20
16.55986013986013
 30
0.0
 40
0.75
  0
CIRCLE
  5
171
330
1F
100
AcDbEntity
  8
0
100
AcDbCircle
 10
114.893986013986
 20
6.559860139860128
 30
0.0
 40
0.75
  0
CIRCLE
  5
172
330
1F
100
AcDbEntity
  8
0
100
AcDbCircle
 10
114.893986013986
 20
16.55986013986013
 30
0.0
 40
0.75
  0
CIRCLE
  5
173
330
1F
100
AcDbEntity
  8
0
100
AcDbCircle
 10
109.893986013986
 20
11.55986013986013
 30
0.0
 40
0.75
  0
LWPOLYLINE
  5
180
330
1F
100
AcDbEntity
  8
0
100
AcDbPolyline
 90
        4
 70
     1
 43
0.0
 10
159.893986013986
 20
41.55986013986012
 10
159.893986013986
 20
61.55986013986012
 10
179.893986013986
 20
61.55986013986012
 10
179.893986013986
 20
41.55986013986012
  0
CIRCLE
  5
181
330
1F
100
AcDbEntity
  8
0
100
AcDbCircle
 10
164.893986013986
 20
46.55986013986013
 30
0.0
 40
0.75
  0
CIRCLE
  5
182
330
1F
100
AcDbEntity
  8
0
100
AcDbCircle
 10
164.893986013986
 20
56.55986013986013
 30
0.0
 40
0.75
  0
CIRCLE
  5
183
330
1F
100
AcDbEntity
  8
0
100
AcDbCircle
 10
174.893986013986
 20
46.55986013986013
 30
0.0
 40
0.75
  0
CIRCLE
  5
184
330
1F
100
AcDbEntity
  8
0
100
AcDbCircle
 10
174.893986013986
 20
56.55986013986013
 30
0.0
 40
0.75
  0
CIRCLE
  5
185
330
1F
100
AcDbEntity
  8
0
100
AcDbCircle
 10
169.893986013986
 20
51.55986013986013
 30
0.0
 40
0.75
  0
LWPOLYLINE
  5
186
330
1F
100
AcDbEntity
  8
0
100
AcDbPolyline
 90
        4
 70
     1
 43
0.0
 10
179.893986013986
 20
41.55986013986012
 10
179.893986013986
 20
61.55986013986012
 10
199.893986013986
 20
61.55986013986012
 10
199.893986013986
 20
41.55986013986012
  0
CIRCLE
  5
187
330
1F
100
AcDbEntity
  8
0
100
AcDbCircle
 10
184.893986013986
 20
46.55986013986013
 30
0.0
 40
0.75
  0
CIRCLE
  5
188
330
1F
100
AcDbEntity
  8
0
100
AcDbCircle
 10
184.893986013986
 20
56.55986013986013
 30
0.0
 40
0.75
  0
CIRCLE
  5
189
330
1F
100
AcDbEntity
  8
0
100
AcDbCircle
 10
194.893986013986
 20
46.55986013986013
 30
0.0
 40
0.75
  0
CIRCLE
  5
18A
330
1F
100
AcDbEntity
  8
0
100
AcDbCircle
 10
194.893986013986
 20
56.55986013986013
 30
0.0
 40
0.75
  0
CIRCLE
  5
18B
330
1F
100
AcDbEntity
  8
0
100
AcDbCircle
 10
189.893986013986
 20
51.55986013986013
 30
0.0
 40
0.75
  0
LWPOLYLINE
  5
18C
330
1F
100
AcDbEntity
  8
0
100
AcDbPolyline
 90
        4
 70
     1
 43
0.0
 10
159.893986013986
 20
1.55986013986012
 10
159.893986013986
 20
21.55986013986012
 10
179.893986013986
 20
21.55986013986012
 10
179.893986013986
 20
1.55986013986012
  0
CIRCLE
  5
18D
330
1F
100
AcDbEntity
  8
0
100
AcDbCircle
 10
164.893986013986
 20
6.559860139860128
 30
0.0
 40
0.75
  0
CIRCLE
  5
18E
330
1F
100
AcDbEntity
  8
0
100
AcDbCircle
 10
164.893986013986
 20
16.55986013986013
 30
0.0
 40
0.75
  0
CIRCLE
  5
18F
330
1F
100
AcDbEntity
  8
0
100
AcDbCircle
 10
174.893986013986
 20
6.559860139860128
 30
0.0
 40
0.75
  0
CIRCLE
  5
190
330
1F
100
AcDbEntity
  8
0
100
AcDbCircle
 10
174.893986013986
 20
16.55986013986013
 30
0.0
 40
0.75
  0
CIRCLE
  5
191
330
1F
100
AcDbEntity
  8
0
100
AcDbCircle
 10
169.893986013986
 20
11.55986013986013
 30
0.0
 40
0.75
  0
LWPOLYLINE
  5
192
330
1F
100
AcDbEntity
  8
0
100
AcDbPolyline
 90
        4
 70
     1
 43
0.0
 10
179.893986013986
 20
1.55986013986012
 10
179.893986013986
 20
21.55986013986012
 10
199.893986013986
 20
21.55986013986012
 10
199.893986013986
 20
1.55986013986012
  0
CIRCLE
  5
193
330
1F
100
AcDbEntity
  8
0
100
AcDbCircle
 10
184.893986013986
 20
6.559860139860128
 30
0.0
 40
0.75
  0
CIRCLE
  5
194
330
1F
100
AcDbEntity
  8
0
100
AcDbCircle
 10
184.893986013986
 20
16.55986013986013
 30
0.0
 40
0.75
  0
CIRCLE
  5
195
330
1F
100
AcDbEntity
  8
0
100
AcDbCircle
 10
194.893986013986
 20
6.559860139860128
 30
0.0
 40
0.75
  0
CIRCLE
  5
196
330
1F
100
AcDbEntity
  8
0
100
AcDbCircle
 10
194.893986013986
 20
16.55986013986013
 30
0.0
 40
0.75
  0
CIRCLE
  5
197
330
1F
100
AcDbEntity
  8
0
100
AcDbCircle
 10
189.893986013986
 20
11.55986013986013
 30
0.0
 40
0.75
  0
LWPOLYLINE
  5
198
330
1F
100
AcDbEntity
  8
0
100
AcDbPolyline
 90
        4
 70
     1
 43
0.0
 10
79.89398601398602
 20
-38.44013986013988
 10
79.89398601398602
 20
-18.44013986013988
 10
99.89398601398602
 20
-18.44013986013988
 10
99.89398601398602
 20
-38.44013986013988
  0
CIRCLE
  5
199
330
1F
100
AcDbEntity
  8
0
100
AcDbCircle
 10
84.89398601398602
 20
-33.44013986013987
 30
0.0
 40
0.75
  0
CIRCLE
  5
19A
330
1F
100
AcDbEntity
  8
0
100
AcDbCircle
 10
84.89398601398602
 20
-23.44013986013987
 30
0.0
 40
0.75
  0
CIRCLE
  5
19B
330
1F
100
AcDbEntity
  8
0
100
AcDbCircle
 10
94.89398601398602
 20
-33.44013986013987
 30
0.0
 40
0.75
  0
CIRCLE
  5
19C
330
1F
100
AcDbEntity
  8
0
100
AcDbCircle
 10
94.89398601398602
 20
-23.44013986013987
 30
0.0
 40
0.75
  0
CIRCLE
  5
19D
330
1F
100
AcDbEntity
  8
0
100
AcDbCircle
 10
89.89398601398601
 20
-28.44013986013987
 30
0.0
 40
0.75
  0
LWPOLYLINE
  5
19E
330
1F
100
AcDbEntity
  8
0
100
AcDbPolyline
 90
        4
 70
     1
 43
0.0
 10
119.893986013986
 20
-38.44013986013988
 10
119.893986013986
 20
-18.44013986013988
 10
139.893986013986
 20
-18.44013986013988
 10
139.893986013986
 20
-38.44013986013988
  0
CIRCLE
  5
19F
330
1F
100
AcDbEntity
  8
0
100
AcDbCircle
 10
124.893986013986
 20
-33.44013986013987
 30
0.0
 40
0.75
  0
CIRCLE
  5
1A0
330
1F
100
AcDbEntity
  8
0
100
AcDbCircle
 10
124.893986013986
 20
-23.44013986013987
 30
0.0
 40
0.75
  0
CIRCLE
  5
1A1
330
1F
100
AcDbEntity
  8
0
100
AcDbCircle
 10
134.893986013986
 20
-33.44013986013987
 30
0.0
 40
0.75
  0
CIRCLE
  5
1A2
330
1F
100
AcDbEntity
  8
0
100
AcDbCircle
 10
134.893986013986
 20
-23.44013986013987
 30
0.0
 40
0.75
  0
CIRCLE
  5
1A3
330
1F
100
AcDbEntity
  8
0
100
AcDbCircle
 10
129.893986013986
 20
-28.44013986013987
 30
0.0
 40
0.75
  0
LWPOLYLINE
  5
1A4
330
1F
100
AcDbEntity
  8
0
100
AcDbPolyline
 90
        4
 70
     1
 43
0.0
 10
159.893986013986
 20
-38.44013986013988
 10
159.893986013986
 20
-18.44013986013988
 10
179.893986013986
 20
-18.44013986013988
 10
179.893986013986
 20
-38.44013986013988
  0
CIRCLE
  5
1A5
330
1F
100
AcDbEntity
  8
0
100
AcDbCircle
 10
164.893986013986
 20
-33.44013986013987
 30
0.0
 40
0.75
  0
CIRCLE
  5
1A6
330
1F
100
AcDbEntity
  8
0
100
AcDbCircle
 10
164.893986013986
 20
-23.44013986013987
 30
0.0
 40
0.75
  0
CIRCLE
  5
1A7
330
1F
100
AcDbEntity
  8
0
100
AcDbCircle
 10
174.893986013986
 20
-33.44013986013987
 30
0.0
 40
0.75
  0
CIRCLE
  5
1A8
330
1F
100
AcDbEntity
  8
0
100
AcDbCircle
 10
174.893986013986
 20
-23.44013986013987
 30
0.0
 40
0.75
  0
CIRCLE
  5
1A9
330
1F
100
AcDbEntity
  8
0
100
AcDbCircle
 10
169.893986013986
 20
-28.44013986013987
 30
0.0
 40
0.75
  0
LWPOLYLINE
  5
1AA
330
1F
100
AcDbEntity
  8
0
100
AcDbPolyline
 90
        4
 70
     1
 43
0.0
 10
199.893986013986
 20
-38.44013986013988
 10
199.893986013986
 20
-18.44013986013988
 10
219.893986013986
 20
-18.44013986013988
 10
219.893986013986
 20
-38.44013986013988
  0
CIRCLE
  5
1AB
330
1F
100
AcDbEntity
  8
0
100
AcDbCircle
 10
204.893986013986
 20
-33.44013986013987
 30
0.0
 40
0.75
  0
CIRCLE
  5
1AC
330
1F
100
AcDbEntity
  8
0
100
AcDbCircle
 10
204.893986013986
 20
-23.44013986013987
 30
0.0
 40
0.75
  0
CIRCLE
  5
1AD
330
1F
100
AcDbEntity
  8
0
100
AcDbCircle
 10
214.893986013986
 20
-33.44013986013987
 30
0.0
 40
0.75
  0
CIRCLE
  5
1AE
330
1F
100
AcDbEntity
  8
0
100
AcDbCircle
 10
214.893986013986
 20
-23.44013986013987
 30
0.0
 40
0.75
  0
CIRCLE
  5
1AF
330
1F
100
AcDbEntity
  8
0
100
AcDbCircle
 10
209.893986013986
 20
-28.44013986013987
 30
0.0
 40
0.75
  0
LWPOLYLINE
  5
1B0
330
1F
100
AcDbEntity
  8
0
100
AcDbPolyline
 90
        4
 70
     1
 43
0.0
 10
79.89398601398602
 20
-78.44013986013988
 10
79.89398601398602
 20
-58.44013986013988
 10
99.89398601398602
 20
-58.44013986013988
 10
99.89398601398602
 20
-78.44013986013988
  0
CIRCLE
  5
1B1
330
1F
100
AcDbEntity
  8
0
100
AcDbCircle
 10
84.89398601398602
 20
-73.44013986013988
 30
0.0
 40
0.75
  0
CIRCLE
  5
1B2
330
1F
100
AcDbEntity
  8
0
100
AcDbCircle
 10
84.89398601398602
 20
-63.44013986013987
 30
0.0
 40
0.75
  0
CIRCLE
  5
1B3
330
1F
100
AcDbEntity
  8
0
100
AcDbCircle
 10
94.89398601398602
 20
-73.44013986013988
 30
0.0
 40
0.75
  0
CIRCLE
  5
1B4
330
1F
100
AcDbEntity
  8
0
100
AcDbCircle
 10
94.89398601398602
 20
-63.44013986013987
 30
0.0
 40
0.75
  0
CIRCLE
  5
1B5
330
1F
100
AcDbEntity
  8
0
100
AcDbCircle
 10
89.89398601398601
 20
-68.44013986013988
 30
0.0
 40
0.75
  0
LWPOLYLINE
  5
1B6
330
1F
100
AcDbEntity
  8
0
100
AcDbPolyline
 90
        4
 70
     1
 43
0.0
 10
119.893986013986
 20
-78.44013986013988
 10
119.893986013986
 20
-58.44013986013988
 10
139.893986013986
 20
-58.44013986013988
 10
139.893986013986
 20
-78.44013986013988
  0
CIRCLE
  5
1B7
330
1F
100
AcDbEntity
  8
0
100
AcDbCircle
 10
124.893986013986
 20
-73.44013986013988
 30
0.0
 40
0.75
  0
CIRCLE
  5
1B8
330
1F
100
AcDbEntity
  8
0
100
AcDbCircle
 10
124.893986013986
 20
-63.44013986013987
 30
0.0
 40
0.75
  0
CIRCLE
  5
1B9
330
1F
100
AcDbEntity
  8
0
100
AcDbCircle
 10
134.893986013986
 20
-73.44013986013988
 30
0.0
 40
0.75
  0
CIRCLE
  5
1BA
330
1F
100
AcDbEntity
  8
0
100
AcDbCircle
 10
134.893986013986
 20
-63.44013986013987
 30
0.0
 40
0.75
  0
CIRCLE
  5
1BB
330
1F
100
AcDbEntity
  8
0
100
AcDbCircle
 10
129.893986013986
 20
-68.44013986013988
 30
0.0
 40
0.75
  0
LWPOLYLINE
  5
1BC
330
1F
100
AcDbEntity
  8
0
100
AcDbPolyline
 90
        4
 70
     1
 43
0.0
 10
159.893986013986
 20
-78.44013986013988
 10
159.893986013986
 20
-58.44013986013988
 10
179.893986013986
 20
-58.44013986013988
 10
179.893986013986
 20
-78.44013986013988
  0
CIRCLE
  5
1BD
330
1F
100
AcDbEntity
  8
0
100
AcDbCircle
 10
164.893986013986
 20
-73.44013986013988
 30
0.0
 40
0.75
  0
CIRCLE
  5
1BE
330
1F
100
AcDbEntity
  8
0
100
AcDbCircle
 10
164.893986013986
 20
-63.44013986013987
 30
0.0
 40
0.75
  0
CIRCLE
  5
1BF
330
1F
100
AcDbEntity
  8
0
100
AcDbCircle
 10
174.893986013986
 20
-73.44013986013988
 30
0.0
 40
0.75
  0
CIRCLE
  5
1C0
330
1F
100
AcDbEntity
  8
0
100
AcDbCircle
 10
174.893986013986
 20
-63.44013986013987
 30
0.0
 40
0.75
  0
CIRCLE
  5
1C1
330
1F
100
AcDbEntity
  8
0
100
AcDbCircle
 10
169.893986013986
 20
-68.44013986013988
 30
0.0
 40
0.75
  0
LWPOLYLINE
  5
1C2
330
1F
100
AcDbEntity
  8
0
100
AcDbPolyline
 90
        4
 70
     1
 43
0.0
 10
199.893986013986
 20
-78.44013986013988
 10
199.893986013986
 20
-58.44013986013988
 10
219.893986013986
 20
-58.44013986013988
 10
219.893986013986
 20
-78.44013986013988
  0
CIRCLE
  5
1C3
330
1F
100
AcDbEntity
  8
0
100
AcDbCircle
 10
204.893986013986
 20
-73.44013986013988
 30
0.0
 40
0.75
  0
CIRCLE
  5
1C4
330
1F
100
AcDbEntity
  8
0
100
AcDbCircle
 10
204.893986013986
 20
-63.44013986013987
 30
0.0
 40
0.75
  0
CIRCLE
  5
1C5
330
1F
100
AcDbEntity
  8
0
100
AcDbCircle
 10
214.893986013986
 20
-73.44013986013988
 30
0.0
 40
0.75
  0
CIRCLE
  5
1C6
330
1F
100
AcDbEntity
  8
0
100
AcDbCircle
 10
214.893986013986
 20
-63.44013986013987
 30
0.0
 40
0.75
  0
CIRCLE
  5
1C7
330
1F
100
AcDbEntity
  8
0
100
AcDbCircle
 10
209.893986013986
 20
-68.44013986013988
 30
0.0
 40
0.75
  0
LWPOLYLINE
  5
1C8
330
1F
100
AcDbEntity
  8
0
100
AcDbPolyline
 90
        4
 70
     1
 43
0.0
 10
239.893986013986
 20
41.55986013986012
 10
239.893986013986
 20
61.55986013986012
 10
259.893986013986
 20
61.55986013986012
 10
259.893986013986
 20
41.55986013986012
  0
CIRCLE
  5
1C9
330
1F
100
AcDbEntity
  8
0
100
AcDbCircle
 10
244.893986013986
 20
46.55986013986013
 30
0.0
 40
0.75
  0
CIRCLE
  5
1CA
330
1F
100
AcDbEntity
  8
0
100
AcDbCircle
 10
244.893986013986
 20
56.55986013986013
 30
0.0
 40
0.75
  0
CIRCLE
  5
1CB
330
1F
100
AcDbEntity
  8
0
100
AcDbCircle
 10
254.893986013986
 20
46.55986013986013
 30
0.0
 40
0.75
  0
CIRCLE
  5
1CC
330
1F
100
AcDbEntity
  8
0
100
AcDbCircle
 10
254.893986013986
 20
56.55986013986013
 30
0.0
 40
0.75
  0
CIRCLE
  5
1CD
330
1F
100
AcDbEntity
  8
0
100
AcDbCircle
 10
249.893986013986
 20
51.55986013986013
 30
0.0
 40
0.75
  0
LWPOLYLINE
  5
1CE
330
1F
100
AcDbEntity
  8
0
100
AcDbPolyline
 90
        4
 70
     1
 43
0.0
 10
259.893986013986
 20
41.55986013986012
 10
259.893986013986
 20
61.55986013986012
 10
279.893986013986
 20
61.55986013986012
 10
279.893986013986
 20
41.55986013986012
  0
CIRCLE
  5
1CF
330
1F
100
AcDbEntity
  8
0
100
AcDbCircle
 10
264.893986013986
 20
46.55986013986013
 30
0.0
 40
0.75
  0
CIRCLE
  5
1D0
330
1F
100
AcDbEntity
  8
0
100
AcDbCircle
 10
264.893986013986
 20
56.55986013986013
 30
0.0
 40
0.75
  0
CIRCLE
  5
1D1
330
1F
100
AcDbEntity
  8
0
100
AcDbCircle
 10
274.893986013986
 20
46.55986013986013
 30
0.0
 40
0.75
  0
CIRCLE
  5
1D2
330
1F
100
AcDbEntity
  8
0
100
AcDbCircle
 10
274.893986013986
 20
56.55986013986013
 30
0.0
 40
0.75
  0
CIRCLE
  5
1D3
330
1F
100
AcDbEntity
  8
0
100
AcDbCircle
 10
269.893986013986
 20
51.55986013986013
 30
0.0
 40
0.75
  0
LWPOLYLINE
  5
1D4
330
1F
100
AcDbEntity
  8
0
100
AcDbPolyline
 90
        4
 70
     1
 43
0.0
 10
239.893986013986
 20
1.55986013986012
 10
239.893986013986
 20
21.55986013986012
 10
259.893986013986
 20
21.55986013986012
 10
259.893986013986
 20
1.55986013986012
  0
CIRCLE
  5
1D5
330
1F
100
AcDbEntity
  8
0
100
AcDbCircle
 10
244.893986013986
 20
6.559860139860128
 30
0.0
 40
0.75
  0
CIRCLE
  5
1D6
330
1F
100
AcDbEntity
  8
0
100
AcDbCircle
 10
244.893986013986
 20
16.55986013986013
 30
0.0
 40
0.75
  0
CIRCLE
  5
1D7
330
1F
100
AcDbEntity
  8
0
100
AcDbCircle
 10
254.893986013986
 20
6.559860139860128
 30
0.0
 40
0.75
  0
CIRCLE
  5
1D8
330
1F
100
AcDbEntity
  8
0
100
AcDbCircle
 10
254.893986013986
 20
16.55986013986013
 30
0.0
 40
0.75
  0
CIRCLE
  5
1D9
330
1F
100
AcDbEntity
  8
0
100
AcDbCircle
 10
249.893986013986
 20
11.55986013986013
 30
0.0
 40
0.75
  0
LWPOLYLINE
  5
1DA
330
1F
100
AcDbEntity
  8
0
100
AcDbPolyline
 90
        4
 70
     1
 43
0.0
 10
259.893986013986
 20
1.55986013986012
 10
259.893986013986
 20
21.55986013986012
 10
279.893986013986
 20
21.55986013986012
 10
279.893986013986
 20
1.55986013986012
  0
CIRCLE
  5
1DB
330
1F
100
AcDbEntity
  8
0
100
AcDbCircle
 10
264.893986013986
 20
6.559860139860128
 30
0.0
 40
0.75
  0
CIRCLE
  5
1DC
330
1F
100
AcDbEntity
  8
0
100
AcDbCircle
 10
264.893986013986
 20
16.55986013986013
 30
0.0
 40
0.75
  0
CIRCLE
  5
1DD
330
1F
100
AcDbEntity
  8
0
100
AcDbCircle
 10
274.893986013986
 20
6.559860139860128
 30
0.0
 40
0.75
  0
CIRCLE
  5
1DE
330
1F
100
AcDbEntity
  8
0
100
AcDbCircle
 10
274.893986013986
 20
16.55986013986013
 30
0.0
 40
0.75
  0
CIRCLE
  5
1DF
330
1F
100
AcDbEntity
  8
0
100
AcDbCircle
 10
269.893986013986
 20
11.55986013986013
 30
0.0
 40
0.75
  0
LWPOLYLINE
  5
1EC
330
1F
100
AcDbEntity
  8
0
 62
     6
100
AcDbPolyline
 90
        4
 70
     1
 43
0.0
 10
80.50114604720272
 20
-98.80147773951049
 10
80.50114604720272
 20
-178.77696725
 10
160.3642929003496
 20
-178.77696725
 10
160.3642929003496
 20
-98.80147773951049
  0
CIRCLE
  5
1ED
330
1F
100
AcDbEntity
  8
0
 62
     6
100
AcDbCircle
 10
85.25240362482509
 20
-103.2070954066434
 30
0.0
 40
2.5
  0
CIRCLE
  5
1EE
330
1F
100
AcDbEntity
  8
0
 62
     6
100
AcDbCircle
 10
156.7524036248251
 20
-103.2070954066434
 30
0.0
 40
2.5
  0
CIRCLE
  5
1EF
330
1F
100
AcDbEntity
  8
0
 62
     6
100
AcDbCircle
 10
85.25240362482509
 20
-174.7070954066434
 30
0.0
 40
2.5
  0
CIRCLE
  5
1F0
330
1F
100
AcDbEntity
  8
0
 62
     6
100
AcDbCircle
 10
156.7524036248251
 20
-174.7070954066434
 30
0.0
 40
2.5
  0
CIRCLE
  5
1F1
330
1F
100
AcDbEntity
  8
0
 62
     6
100
AcDbCircle
 10
120.8267076695804
 20
-138.3527517982517
 30
0.0
 40
36.92069034965037
  0
CIRCLE
  5
1F2
330
1F
100
AcDbEntity
  8
0
 62
     6
100
AcDbCircle
 10
120.9556660763652
 20
-139.0793520196827
 30
0.0
 40
13.98041958041958
  0
CIRCLE
  5
2C8
330
1F
100
AcDbEntity
  8
0
 62
     2
100
AcDbCircle
 10
106.9556660763652
 20
-174.0793520196827
 30
0.0
 40
2.5
  0
CIRCLE
  5
2C9
330
1F
100
AcDbEntity
  8
0
 62
     2
100
AcDbCircle
 10
113.9556660763652
 20
-174.0793520196827
 30
0.0
 40
2.5
  0
CIRCLE
  5
2CA
330
1F
100
AcDbEntity
  8
0
 62
     2
100
AcDbCircle
 10
120.9556660763652
 20
-174.0793520196827
 30
0.0
 40
2.5
  0
CIRCLE
  5
2CB
330
1F
100
AcDbEntity
  8
0
 62
     2
100
AcDbCircle
 10
127.9556660763652
 20
-174.0793520196827
 30
0.0
 40
2.5
  0
CIRCLE
  5
2CC
330
1F
100
AcDbEntity
  8
0
 62
     2
100
AcDbCircle
 10
134.9556660763652
 20
-174.0793520196827
 30
0.0
 40
2.5
  0
CIRCLE
  5
2D4
330
1F
100
AcDbEntity
  8
0
 62
     2
100
AcDbCircle
 10
99.95566607636525
 20
-167.0793520196827
 30
0.0
 40
2.5
  0
CIRCLE
  5
2D5
330
1F
100
AcDbEntity
  8
0
 62
     2
100
AcDbCircle
 10
106.9556660763652
 20
-167.0793520196827
 30
0.0
 40
2.5
  0
CIRCLE
  5
2D6
330
1F
100
AcDbEntity
  8
0
 62
     2
100
AcDbCircle
 10
113.9556660763652
 20
-167.0793520196827
 30
0.0
 40
2.5
  0
CIRCLE
  5
2D7
330
1F
100
AcDbEntity
  8
0
 62
     2
100
AcDbCircle
 10
120.9556660763652
 20
-167.0793520196827
 30
0.0
 40
2.5
  0
CIRCLE
  5
2D8
330
1F
100
AcDbEntity
  8
0
 62
     2
100
AcDbCircle
 10
127.9556660763652
 20
-167.0793520196827
 30
0.0
 40
2.5
  0
CIRCLE
  5
2D9
330
1F
100
AcDbEntity
  8
0
 62
     2
100
AcDbCircle
 10
134.9556660763652
 20
-167.0793520196827
 30
0.0
 40
2.5
  0
CIRCLE
  5
2DA
330
1F
100
AcDbEntity
  8
0
 62
     2
100
AcDbCircle
 10
141.9556660763652
 20
-167.0793520196827
 30
0.0
 40
2.5
  0
CIRCLE
  5
2E0
330
1F
100
AcDbEntity
  8
0
 62
     2
100
AcDbCircle
 10
92.95566607636525
 20
-160.0793520196827
 30
0.0
 40
2.5
  0
CIRCLE
  5
2E1
330
1F
100
AcDbEntity
  8
0
 62
     2
100
AcDbCircle
 10
99.95566607636525
 20
-160.0793520196827
 30
0.0
 40
2.5
  0
CIRCLE
  5
2E2
330
1F
100
AcDbEntity
  8
0
 62
     2
100
AcDbCircle
 10
106.9556660763652
 20
-160.0793520196827
 30
0.0
 40
2.5
  0
CIRCLE
  5
2E3
330
1F
100
AcDbEntity
  8
0
 62
     2
100
AcDbCircle
 10
113.9556660763652
 20
-160.0793520196827
 30
0.0
 40
2.5
  0
CIRCLE
  5
2E4
330
1F
100
AcDbEntity
  8
0
 62
     2
100
AcDbCircle
 10
120.9556660763652
 20
-160.0793520196827
 30
0.0
 40
2.5
  0
CIRCLE
  5
2E5
330
1F
100
AcDbEntity
  8
0
 62
     2
100
AcDbCircle
 10
127.9556660763652
 20
-160.0793520196827
 30
0.0
 40
2.5
  0
CIRCLE
  5
2E6
330
1F
100
AcDbEntity
  8
0
 62
     2
100
AcDbCircle
 10
134.9556660763652
 20
-160.0793520196827
 30
0.0
 40
2.5
  0
CIRCLE
  5
2E7
330
1F
100
AcDbEntity
  8
0
 62
     2
100
AcDbCircle
 10
141.9556660763652
 20
-160.0793520196827
 30
0.0
 40
2.5
  0
CIRCLE
  5
2E8
330
1F
100
AcDbEntity
  8
0
 62
     2
100
AcDbCircle
 10
148.9556660763652
 20
-160.0793520196827
 30
0.0
 40
2.5
  0
CIRCLE
  5
2EC
330
1F
100
AcDbEntity
  8
0
 62
     2
100
AcDbCircle
 10
85.95566607636525
 20
-153.0793520196827
 30
0.0
 40
2.5
  0
CIRCLE
  5
2ED
330
1F
100
AcDbEntity
  8
0
 62
     2
100
AcDbCircle
 10
92.95566607636525
 20
-153.0793520196827
 30
0.0
 40
2.5
  0
CIRCLE
  5
2EE
330
1F
100
AcDbEntity
  8
0
 62
     2
100
AcDbCircle
 10
99.95566607636525
 20
-153.0793520196827
 30
0.0
 40
2.5
  0
CIRCLE
  5
2EF
330
1F
100
AcDbEntity
  8
0
 62
     2
100
AcDbCircle
 10
106.9556660763652
 20
-153.0793520196827
 30
0.0
 40
2.5
  0
CIRCLE
  5
2F0
330
1F
100
AcDbEntity
  8
0
 62
     2
100
AcDbCircle
 10
113.9556660763652
 20
-153.0793520196827
 30
0.0
 40
2.5
  0
CIRCLE
  5
2F1
330
1F
100
AcDbEntity
  8
0
 62
     2
100
AcDbCircle
 10
120.9556660763652
 20
-153.0793520196827
 30
0.0
 40
2.5
  0
CIRCLE
  5
2F2
330
1F
100
AcDbEntity
  8
0
 62
     2
100
AcDbCircle
 10
127.9556660763652
 20
-153.0793520196827
 30
0.0
 40
2.5
  0
CIRCLE
  5
2F3
330
1F
100
AcDbEntity
  8
0
 62
     2
100
AcDbCircle
 10
134.9556660763652
 20
-153.0793520196827
 30
0.0
 40
2.5
  0
CIRCLE
  5
2F4
330
1F
100
AcDbEntity
  8
0
 62
     2
100
AcDbCircle
 10
141.9556660763652
 20
-153.0793520196827
 30
0.0
 40
2.5
  0
CIRCLE
  5
2F5
330
1F
100
AcDbEntity
  8
0
 62
     2
100
AcDbCircle
 10
148.9556660763652
 20
-153.0793520196827
 30
0.0
 40
2.5
  0
CIRCLE
  5
2F6
330
1F
100
AcDbEntity
  8
0
 62
     2
100
AcDbCircle
 10
155.9556660763652
 20
-153.0793520196827
 30
0.0
 40
2.5
  0
CIRCLE
  5
2F9
330
1F
100
AcDbEntity
  8
0
 62
     2
100
AcDbCircle
 10
85.95566607636525
 20
-146.0793520196827
 30
0.0
 40
2.5
  0
CIRCLE
  5
2FA
330
1F
100
AcDbEntity
  8
0
 62
     2
100
AcDbCircle
 10
92.95566607636525
 20
-146.0793520196827
 30
0.0
 40
2.5
  0
CIRCLE
  5
2FB
330
1F
100
AcDbEntity
  8
0
 62
     2
100
AcDbCircle
 10
99.95566607636525
 20
-146.0793520196827
 30
0.0
 40
2.5
  0
CIRCLE
  5
2FC
330
1F
100
AcDbEntity
  8
0
 62
     2
100
AcDbCircle
 10
106.9556660763652
 20
-146.0793520196827
 30
0.0
 40
2.5
  0
CIRCLE
  5
300
330
1F
100
AcDbEntity
  8
0
 62
     2
100
AcDbCircle
 10
134.9556660763652
 20
-146.0793520196827
 30
0.0
 40
2.5
  0
CIRCLE
  5
301
330
1F
100
AcDbEntity
  8
0
 62
     2
100
AcDbCircle
 10
141.9556660763652
 20
-146.0793520196827
 30
0.0
 40
2.5
  0
CIRCLE
  5
302
330
1F
100
AcDbEntity
  8
0
 62
     2
100
AcDbCircle
 10
148.9556660763652
 20
-146.0793520196827
 30
0.0
 40
2.5
  0
CIRCLE
  5
303
330
1F
100
AcDbEntity
  8
0
 62
     2
100
AcDbCircle
 10
155.9556660763652
 20
-146.0793520196827
 30
0.0
 40
2.5
  0
CIRCLE
  5
306
330
1F
100
AcDbEntity
  8
0
 62
     2
100
AcDbCircle
 10
85.95566607636525
 20
-139.0793520196827
 30
0.0
 40
2.5
  0
CIRCLE
  5
307
330
1F
100
AcDbEntity
  8
0
 62
     2
100
AcDbCircle
 10
92.95566607636525
 20
-139.0793520196827
 30
0.0
 40
2.5
  0
CIRCLE
  5
308
330
1F
100
AcDbEntity
  8
0
 62
     2
100
AcDbCircle
 10
99.95566607636525
 20
-139.0793520196827
 30
0.0
 40
2.5
  0
CIRCLE
  5
309
330
1F
100
AcDbEntity
  8
0
 62
     2
100
AcDbCircle
 10
106.9556660763652
 20
-139.0793520196827
 30
0.0
 40
2.5
  0
CIRCLE
  5
30D
330
1F
100
AcDbEntity
  8
0
 62
     2
100
AcDbCircle
 10
134.9556660763652
 20
-139.0793520196827
 30
0.0
 40
2.5
  0
CIRCLE
  5
30E
330
1F
100
AcDbEntity
  8
0
 62
     2
100
AcDbCircle
 10
141.9556660763652
 20
-139.0793520196827
 30
0.0
 40
2.5
  0
CIRCLE
  5
30F
330
1F
100
AcDbEntity
  8
0
 62
     2
100
AcDbCircle
 10
148.9556660763652
 20
-139.0793520196827
 30
0.0
 40
2.5
  0
CIRCLE
  5
310
330
1F
100
AcDbEntity
  8
0
 62
     2
100
AcDbCircle
 10
155.9556660763652
 20
-139.0793520196827
 30
0.0
 40
2.5
  0
CIRCLE
  5
313
330
1F
100
AcDbEntity
  8
0
 62
     2
100
AcDbCircle
 10
85.95566607636525
 20
-132.0793520196827
 30
0.0
 40
2.5
  0
CIRCLE
  5
314
330
1F
100
AcDbEntity
  8
0
 62
     2
100
AcDbCircle
 10
92.95566607636525
 20
-132.0793520196827
 30
0.0
 40
2.5
  0
CIRCLE
  5
315
330
1F
100
AcDbEntity
  8
0
 62
     2
100
AcDbCircle
 10
99.95566607636525
 20
-132.0793520196827
 30
0.0
 40
2.5
  0
CIRCLE
  5
316
330
1F
100
AcDbEntity
  8
0
 62
     2
100
AcDbCircle
 10
106.9556660763652
 20
-132.0793520196827
 30
0.0
 40
2.5
  0
CIRCLE
  5
31A
330
1F
100
AcDbEntity
  8
0
 62
     2
100
AcDbCircle
 10
134.9556660763652
 20
-132.0793520196827
 30
0.0
 40
2.5
  0
CIRCLE
  5
31B
330
1F
100
AcDbEntity
  8
0
 62
     2
100
AcDbCircle
 10
141.9556660763652
 20
-132.0793520196827
 30
0.0
 40
2.5
  0
CIRCLE
  5
31C
330
1F
100
AcDbEntity
  8
0
 62
     2
100
AcDbCircle
 10
148.9556660763652
 20
-132.0793520196827
 30
0.0
 40
2.5
  0
CIRCLE
  5
31D
330
1F
100
AcDbEntity
  8
0
 62
     2
100
AcDbCircle
 10
155.9556660763652
 20
-132.0793520196827
 30
0.0
 40
2.5
  0
CIRCLE
  5
320
330
1F
100
AcDbEntity
  8
0
 62
     2
100
AcDbCircle
 10
85.95566607636525
 20
-125.0793520196827
 30
0.0
 40
2.5
  0
CIRCLE
  5
321
330
1F
100
AcDbEntity
  8
0
 62
     2
100
AcDbCircle
 10
92.95566607636525
 20
-125.0793520196827
 30
0.0
 40
2.5
  0
CIRCLE
  5
322
330
1F
100
AcDbEntity
  8
0
 62
     2
100
AcDbCircle
 10
99.95566607636525
 20
-125.0793520196827
 30
0.0
 40
2.5
  0
CIRCLE
  5
323
330
1F
100
AcDbEntity
  8
0
 62
     2
100
AcDbCircle
 10
106.9556660763652
 20
-125.0793520196827
 30
0.0
 40
2.5
  0
CIRCLE
  5
324
330
1F
100
AcDbEntity
  8
0
 62
     2
100
AcDbCircle
 10
113.9556660763652
 20
-125.0793520196827
 30
0.0
 40
2.5
  0
CIRCLE
  5
325
330
1F
100
AcDbEntity
  8
0
 62
     2
100
AcDbCircle
 10
120.9556660763652
 20
-125.0793520196827
 30
0.0
 40
2.5
  0
CIRCLE
  5
326
330
1F
100
AcDbEntity
  8
0
 62
     2
100
AcDbCircle
 10
127.9556660763652
 20
-125.0793520196827
 30
0.0
 40
2.5
  0
CIRCLE
  5
327
330
1F
100
AcDbEntity
  8
0
 62
     2
100
AcDbCircle
 10
134.9556660763652
 20
-125.0793520196827
 30
0.0
 40
2.5
  0
CIRCLE
  5
328
330
1F
100
AcDbEntity
  8
0
 62
     2
100
AcDbCircle
 10
141.9556660763652
 20
-125.0793520196827
 30
0.0
 40
2.5
  0
CIRCLE
  5
329
330
1F
100
AcDbEntity
  8
0
 62
     2
100
AcDbCircle
 10
148.9556660763652
 20
-125.0793520196827
 30
0.0
 40
2.5
  0
CIRCLE
  5
32A
330
1F
100
AcDbEntity
  8
0
 62
     2
100
AcDbCircle
 10
155.9556660763652
 20
-125.0793520196827
 30
0.0
 40
2.5
  0
CIRCLE
  5
32E
330
1F
100
AcDbEntity
  8
0
 62
     2
100
AcDbCircle
 10
92.95566607636525
 20
-118.0793520196827
 30
0.0
 40
2.5
  0
CIRCLE
  5
32F
330
1F
100
AcDbEntity
  8
0
 62
     2
100
AcDbCircle
 10
99.95566607636525
 20
-118.0793520196827
 30
0.0
 40
2.5
  0
CIRCLE
  5
330
330
1F
100
AcDbEntity
  8
0
 62
     2
100
AcDbCircle
 10
106.9556660763652
 20
-118.0793520196827
 30
0.0
 40
2.5
  0
CIRCLE
  5
331
330
1F
100
AcDbEntity
  8
0
 62
     2
100
AcDbCircle
 10
113.9556660763652
 20
-118.0793520196827
 30
0.0
 40
2.5
  0
CIRCLE
  5
332
330
1F
100
AcDbEntity
  8
0
 62
     2
100
AcDbCircle
 10
120.9556660763652
 20
-118.0793520196827
 30
0.0
 40
2.5
  0
CIRCLE
  5
333
330
1F
100
AcDbEntity
  8
0
 62
     2
100
AcDbCircle
 10
127.9556660763652
 20
-118.0793520196827
 30
0.0
 40
2.5
  0
CIRCLE
  5
334
330
1F
100
AcDbEntity
  8
0
 62
     2
100
AcDbCircle
 10
134.9556660763652
 20
-118.0793520196827
 30
0.0
 40
2.5
  0
CIRCLE
  5
335
330
1F
100
AcDbEntity
  8
0
 62
     2
100
AcDbCircle
 10
141.9556660763652
 20
-118.0793520196827
 30
0.0
 40
2.5
  0
CIRCLE
  5
336
330
1F
100
AcDbEntity
  8
0
 62
     2
100
AcDbCircle
 10
148.9556660763652
 20
-118.0793520196827
 30
0.0
 40
2.5
  0
CIRCLE
  5
33C
330
1F
100
AcDbEntity
  8
0
 62
     2
100
AcDbCircle
 10
99.95566607636525
 20
-111.0793520196827
 30
0.0
 40
2.5
  0
CIRCLE
  5
33D
330
1F
100
AcDbEntity
  8
0
 62
     2
100
AcDbCircle
 10
106.9556660763652
 20
-111.0793520196827
 30
0.0
 40
2.5
  0
CIRCLE
  5
33E
330
1F
100
AcDbEntity
  8
0
 62
     2
100
AcDbCircle
 10
113.9556660763652
 20
-111.0793520196827
 30
0.0
 40
2.5
  0
CIRCLE
  5
33F
330
1F
100
AcDbEntity
  8
0
 62
     2
100
AcDbCircle
 10
120.9556660763652
 20
-111.0793520196827
 30
0.0
 40
2.5
  0
CIRCLE
  5
340
330
1F
100
AcDbEntity
  8
0
 62
     2
100
AcDbCircle
 10
127.9556660763652
 20
-111.0793520196827
 30
0.0
 40
2.5
  0
CIRCLE
  5
341
330
1F
100
AcDbEntity
  8
0
 62
     2
100
AcDbCircle
 10
134.9556660763652
 20
-111.0793520196827
 30
0.0
 40
2.5
  0
CIRCLE
  5
342
330
1F
100
AcDbEntity
  8
0
 62
     2
100
AcDbCircle
 10
141.9556660763652
 20
-111.0793520196827
 30
0.0
 40
2.5
  0
CIRCLE
  5
34A
330
1F
100
AcDbEntity
  8
0
 62
     2
100
AcDbCircle
 10
106.9556660763652
 20
-104.0793520196827
 30
0.0
 40
2.5
  0
CIRCLE
  5
34B
330
1F
100
AcDbEntity
  8
0
 62
     2
100
AcDbCircle
 10
113.9556660763652
 20
-104.0793520196827
 30
0.0
 40
2.5
  0
CIRCLE
  5
34C
330
1F
100
AcDbEntity
  8
0
 62
     2
100
AcDbCircle
 10
120.9556660763652
 20
-104.0793520196827
 30
0.0
 40
2.5
  0
CIRCLE
  5
34D
330
1F
100
AcDbEntity
  8
0
 62
     2
100
AcDbCircle
 10
127.9556660763652
 20
-104.0793520196827
 30
0.0
 40
2.5
  0
CIRCLE
  5
34E
330
1F
100
AcDbEntity
  8
0
 62
     2
100
AcDbCircle
 10
134.9556660763652
 20
-104.0793520196827
 30
0.0
 40
2.5
  0
LINE
  5
364
330
1F
100
AcDbEntity
  8
0
 62
     6
100
AcDbLine
 10
85.25240362482509
 20
-100.7070954066434
 30
0.0
 11
85.25240362482509
 21
-105.7070954066434
 31
0.0
  0
LINE
  5
365
330
1F
100
AcDbEntity
  8
0
 62
     6
100
AcDbLine
 10
82.75240362482509
 20
-103.2070954066434
 30
0.0
 11
87.75240362482509
 21
-103.2070954066434
 31
0.0
  0
LINE
  5
366
330
1F
100
AcDbEntity
  8
0
 62
     6
100
AcDbLine
 10
85.25240362482509
 20
-172.2070954066434
 30
0.0
 11
85.25240362482509
 21
-177.2070954066434
 31
0.0
  0
LINE
  5
367
330
1F
100
AcDbEntity
  8
0
 62
     6
100
AcDbLine
 10
82.75240362482509
 20
-174.7070954066434
 30
0.0
 11
87.75240362482509
 21
-174.7070954066434
 31
0.0
  0
LINE
  5
368
330
1F
100
AcDbEntity
  8
0
 62
     6
100
AcDbLine
 10
156.7524036248251
 20
-172.2070954066434
 30
0.0
 11
156.7524036248251
 21
-177.2070954066434
 31
0.0
  0
LINE
  5
369
330
1F
100
AcDbEntity
  8
0
 62
     6
100
AcDbLine
 10
154.2524036248251
 20
-174.7070954066434
 30
0.0
 11
159.2524036248251
 21
-174.7070954066434
 31
0.0
  0
LINE
  5
36A
330
1F
100
AcDbEntity
  8
0
 62
     6
100
AcDbLine
 10
156.7524036248251
 20
-100.7070954066434
 30
0.0
 11
156.7524036248251
 21
-105.7070954066434
 31
0.0
  0
LINE
  5
36B
330
1F
100
AcDbEntity
  8
0
 62
     6
100
AcDbLine
 10
154.2524036248251
 20
-103.2070954066434
 30
0.0
 11
159.2524036248251
 21
-103.2070954066434
 31
0.0
  0
LINE
  5
36C
330
1F
100
AcDbEntity
  8
0
 62
     2
100
AcDbLine
 10
106.9556660763652
 20
-101.5793520196827
 30
0.0
 11
106.9556660763652
 21
-106.5793520196827
 31
0.0
  0
LINE
  5
36D
330
1F
100
AcDbEntity
  8
0
 62
     2
100
AcDbLine
 10
104.4556660763652
 20
-104.0793520196827
 30
0.0
 11
109.4556660763652
 21
-104.0793520196827
 31
0.0
  0
LINE
  5
395
330
1F
100
AcDbEntity
  8
0
 62
     2
100
AcDbLine
 10
113.9556660763652
 20
-101.5793520196827
 30
0.0
 11
113.9556660763652
 21
-106.5793520196827
 31
0.0
  0
LINE
  5
396
330
1F
100
AcDbEntity
  8
0
 62
     2
100
AcDbLine
 10
111.4556660763652
 20
-104.0793520196827
 30
0.0
 11
116.4556660763652
 21
-104.0793520196827
 31
0.0
  0
LINE
  5
3BE
330
1F
100
AcDbEntity
  8
0
 62
     2
100
AcDbLine
 10
120.9556660763652
 20
-101.5793520196827
 30
0.0
 11
120.9556660763652
 21
-106.5793520196827
 31
0.0
  0
LINE
  5
3BF
330
1F
100
AcDbEntity
  8
0
 62
     2
100
AcDbLine
 10
118.4556660763652
 20
-104.0793520196827
 30
0.0
 11
123.4556660763652
 21
-104.0793520196827
 31
0.0
  0
LINE
  5
3E7
330
1F
100
AcDbEntity
  8
0
 62
     2
100
AcDbLine
 10
127.9556660763652
 20
-101.5793520196827
 30
0.0
 11
127.9556660763652
 21
-106.5793520196827
 31
0.0
  0
LINE
  5
3E8
330
1F
100
AcDbEntity
  8
0
 62
     2
100
AcDbLine
 10
125.4556660763652
 20
-104.0793520196827
 30
0.0
 11
130.4556660763652
 21
-104.0793520196827
 31
0.0
  0
LINE
  5
410
330
1F
100
AcDbEntity
  8
0
 62
     2
100
AcDbLine
 10
134.9556660763652
 20
-101.5793520196827
 30
0.0
 11
134.9556660763652
 21
-106.5793520196827
 31
0.0
  0
LINE
  5
411
330
1F
100
AcDbEntity
  8
0
 62
     2
100
AcDbLine
 10
132.4556660763652
 20
-104.0793520196827
 30
0.0
 11
137.4556660763652
 21
-104.0793520196827
 31
0.0
  0
LINE
  5
439
330
1F
100
AcDbEntity
  8
0
 62
     2
100
AcDbLine
 10
99.95566607636525
 20
-108.5793520196827
 30
0.0
 11
99.95566607636525
 21
-113.5793520196827
 31
0.0
  0
LINE
  5
43A
330
1F
100
AcDbEntity
  8
0
 62
     2
100
AcDbLine
 10
97.45566607636525
 20
-111.0793520196827
 30
0.0
 11
102.4556660763652
 21
-111.0793520196827
 31
0.0
  0
LINE
  5
462
330
1F
100
AcDbEntity
  8
0
 62
     2
100
AcDbLine
 10
106.9556660763652
 20
-108.5793520196827
 30
0.0
 11
106.9556660763652
 21
-113.5793520196827
 31
0.0
  0
LINE
  5
463
330
1F
100
AcDbEntity
  8
0
 62
     2
100
AcDbLine
 10
104.4556660763652
 20
-111.0793520196827
 30
0.0
 11
109.4556660763652
 21
-111.0793520196827
 31
0.0
  0
LINE
  5
48B
330
1F
100
AcDbEntity
  8
0
 62
     2
100
AcDbLine
 10
113.9556660763652
 20
-108.5793520196827
 30
0.0
 11
113.9556660763652
 21
-113.5793520196827
 31
0.0
  0
LINE
  5
48C
330
1F
100
AcDbEntity
  8
0
 62
     2
100
AcDbLine
 10
111.4556660763652
 20
-111.0793520196827
 30
0.0
 11
116.4556660763652
 21
-111.0793520196827
 31
0.0
  0
LINE
  5
4B4
330
1F
100
AcDbEntity
  8
0
 62
     2
100
AcDbLine
 10
120.9556660763652
 20
-108.5793520196827
 30
0.0
 11
120.9556660763652
 21
-113.5793520196827
 31
0.0
  0
LINE
  5
4B5
330
1F
100
AcDbEntity
  8
0
 62
     2
100
AcDbLine
 10
118.4556660763652
 20
-111.0793520196827
 30
0.0
 11
123.4556660763652
 21
-111.0793520196827
 31
0.0
  0
LINE
  5
4DD
330
1F
100
AcDbEntity
  8
0
 62
     2
100
AcDbLine
 10
127.9556660763652
 20
-108.5793520196827
 30
0.0
 11
127.9556660763652
 21
-113.5793520196827
 31
0.0
  0
LINE
  5
4DE
330
1F
100
AcDbEntity
  8
0
 62
     2
100
AcDbLine
 10
125.4556660763652
 20
-111.0793520196827
 30
0.0
 11
130.4556660763652
 21
-111.0793520196827
 31
0.0
  0
LINE
  5
506
330
1F
100
AcDbEntity
  8
0
 62
     2
100
AcDbLine
 10
134.9556660763652
 20
-108.5793520196827
 30
0.0
 11
134.9556660763652
 21
-113.5793520196827
 31
0.0
  0
LINE
  5
507
330
1F
100
AcDbEntity
  8
0
 62
     2
100
AcDbLine
 10
132.4556660763652
 20
-111.0793520196827
 30
0.0
 11
137.4556660763652
 21
-111.0793520196827
 31
0.0
  0
LINE
  5
52F
330
1F
100
AcDbEntity
  8
0
 62
     2
100
AcDbLine
 10
141.9556660763652
 20
-108.5793520196827
 30
0.0
 11
141.9556660763652
 21
-113.5793520196827
 31
0.0
  0
LINE
  5
530
330
1F
100
AcDbEntity
  8
0
 62
     2
100
AcDbLine
 10
139.4556660763652
 20
-111.0793520196827
 30
0.0
 11
144.4556660763652
 21
-111.0793520196827
 31
0.0
  0
LINE
  5
558
330
1F
100
AcDbEntity
  8
0
 62
     2
100
AcDbLine
 10
92.95566607636525
 20
-115.5793520196827
 30
0.0
 11
92.95566607636525
 21
-120.5793520196827
 31
0.0
  0
LINE
  5
559
330
1F
100
AcDbEntity
  8
0
 62
     2
100
AcDbLine
 10
90.45566607636525
 20
-118.0793520196827
 30
0.0
 11
95.45566607636525
 21
-118.0793520196827
 31
0.0
  0
LINE
  5
581
330
1F
100
AcDbEntity
  8
0
 62
     2
100
AcDbLine
 10
99.95566607636525
 20
-115.5793520196827
 30
0.0
 11
99.95566607636525
 21
-120.5793520196827
 31
0.0
  0
LINE
  5
582
330
1F
100
AcDbEntity
  8
0
 62
     2
100
AcDbLine
 10
97.45566607636525
 20
-118.0793520196827
 30
0.0
 11
102.4556660763652
 21
-118.0793520196827
 31
0.0
  0
LINE
  5
5AA
330
1F
100
AcDbEntity
  8
0
 62
     2
100
AcDbLine
 10
106.9556660763652
 20
-115.5793520196827
 30
0.0
 11
106.9556660763652
 21
-120.5793520196827
 31
0.0
  0
LINE
  5
5AB
330
1F
100
AcDbEntity
  8
0
 62
     2
100
AcDbLine
 10
104.4556660763652
 20
-118.0793520196827
 30
0.0
 11
109.4556660763652
 21
-118.0793520196827
 31
0.0
  0
LINE
  5
5D3
330
1F
100
AcDbEntity
  8
0
 62
     2
100
AcDbLine
 10
113.9556660763652
 20
-115.5793520196827
 30
0.0
 11
113.9556660763652
 21
-120.5793520196827
 31
0.0
  0
LINE
  5
5D4
330
1F
100
AcDbEntity
  8
0
 62
     2
100
AcDbLine
 10
111.4556660763652
 20
-118.0793520196827
 30
0.0
 11
116.4556660763652
 21
-118.0793520196827
 31
0.0
  0
LINE
  5
5FC
330
1F
100
AcDbEntity
  8
0
 62
     2
100
AcDbLine
 10
120.9556660763652
 20
-115.5793520196827
 30
0.0
 11
120.9556660763652
 21
-120.5793520196827
 31
0.0
  0
LINE
  5
5FD
330
1F
100
AcDbEntity
  8
0
 62
     2
100
AcDbLine
 10
118.4556660763652
 20
-118.0793520196827
 30
0.0
 11
123.4556660763652
 21
-118.0793520196827
 31
0.0
  0
LINE
  5
625
330
1F
100
AcDbEntity
  8
0
 62
     2
100
AcDbLine
 10
127.9556660763652
 20
-115.5793520196827
 30
0.0
 11
127.9556660763652
 21
-120.5793520196827
 31
0.0
  0
LINE
  5
626
330
1F
100
AcDbEntity
  8
0
 62
     2
100
AcDbLine
 10
125.4556660763652
 20
-118.0793520196827
 30
0.0
 11
130.4556660763652
 21
-118.0793520196827
 31
0.0
  0
LINE
  5
64E
330
1F
100
AcDbEntity
  8
0
 62
     2
100
AcDbLine
 10
134.9556660763652
 20
-115.5793520196827
 30
0.0
 11
134.9556660763652
 21
-120.5793520196827
 31
0.0
  0
LINE
  5
64F
330
1F
100
AcDbEntity
  8
0
 62
     2
100
AcDbLine
 10
132.4556660763652
 20
-118.0793520196827
 30
0.0
 11
137.4556660763652
 21
-118.0793520196827
 31
0.0
  0
LINE
  5
677
330
1F
100
AcDbEntity
  8
0
 62
     2
100
AcDbLine
 10
141.9556660763652
 20
-115.5793520196827
 30
0.0
 11
141.9556660763652
 21
-120.5793520196827
 31
0.0
  0
LINE
  5
678
330
1F
100
AcDbEntity
  8
0
 62
     2
100
AcDbLine
 10
139.4556660763652
 20
-118.0793520196827
 30
0.0
 11
144.4556660763652
 21
-118.0793520196827
 31
0.0
  0
LINE
  5
6A0
330
1F
100
AcDbEntity
  8
0
 62
     2
100
AcDbLine
 10
148.9556660763652
 20
-115.5793520196827
 30
0.0
 11
148.9556660763652
 21
-120.5793520196827
 31
0.0
  0
LINE
  5
6A1
330
1F
100
AcDbEntity
  8
0
 62
     2
100
AcDbLine
 10
146.4556660763652
 20
-118.0793520196827
 30
0.0
 11
151.4556660763652
 21
-118.0793520196827
 31
0.0
  0
LINE
  5
6C9
330
1F
100
AcDbEntity
  8
0
 62
     2
100
AcDbLine
 10
85.95566607636525
 20
-122.5793520196827
 30
0.0
 11
85.95566607636525
 21
-127.5793520196827
 31
0.0
  0
LINE
  5
6CA
330
1F
100
AcDbEntity
  8
0
 62
     2
100
AcDbLine
 10
83.45566607636525
 20
-125.0793520196827
 30
0.0
 11
88.45566607636525
 21
-125.0793520196827
 31
0.0
  0
LINE
  5
6F2
330
1F
100
AcDbEntity
  8
0
 62
     2
100
AcDbLine
 10
85.95566607636525
 20
-129.5793520196827
 30
0.0
 11
85.95566607636525
 21
-134.5793520196827
 31
0.0
  0
LINE
  5
6F3
330
1F
100
AcDbEntity
  8
0
 62
     2
100
AcDbLine
 10
83.45566607636525
 20
-132.0793520196827
 30
0.0
 11
88.45566607636525
 21
-132.0793520196827
 31
0.0
  0
LINE
  5
71B
330
1F
100
AcDbEntity
  8
0
 62
     2
100
AcDbLine
 10
85.95566607636525
 20
-136.5793520196827
 30
0.0
 11
85.95566607636525
 21
-141.5793520196827
 31
0.0
  0
LINE
  5
71C
330
1F
100
AcDbEntity
  8
0
 62
     2
100
AcDbLine
 10
83.45566607636525
 20
-139.0793520196827
 30
0.0
 11
88.45566607636525
 21
-139.0793520196827
 31
0.0
  0
LINE
  5
744
330
1F
100
AcDbEntity
  8
0
 62
     2
100
AcDbLine
 10
92.95566607636525
 20
-136.5793520196827
 30
0.0
 11
92.95566607636525
 21
-141.5793520196827
 31
0.0
  0
LINE
  5
745
330
1F
100
AcDbEntity
  8
0
 62
     2
100
AcDbLine
 10
90.45566607636525
 20
-139.0793520196827
 30
0.0
 11
95.45566607636525
 21
-139.0793520196827
 31
0.0
  0
LINE
  5
76D
330
1F
100
AcDbEntity
  8
0
 62
     2
100
AcDbLine
 10
92.95566607636525
 20
-129.5793520196827
 30
0.0
 11
92.95566607636525
 21
-134.5793520196827
 31
0.0
  0
LINE
  5
76E
330
1F
100
AcDbEntity
  8
0
 62
     2
100
AcDbLine
 10
90.45566607636525
 20
-132.0793520196827
 30
0.0
 11
95.45566607636525
 21
-132.0793520196827
 31
0.0
  0
LINE
  5
796
330
1F
100
AcDbEntity
  8
0
 62
     2
100
AcDbLine
 10
92.95566607636525
 20
-122.5793520196827
 30
0.0
 11
92.95566607636525
 21
-127.5793520196827
 31
0.0
  0
LINE
  5
797
330
1F
100
AcDbEntity
  8
0
 62
     2
100
AcDbLine
 10
90.45566607636525
 20
-125.0793520196827
 30
0.0
 11
95.45566607636525
 21
-125.0793520196827
 31
0.0
  0
LINE
  5
7BF
330
1F
100
AcDbEntity
  8
0
 62
     2
100
AcDbLine
 10
99.95566607636525
 20
-122.5793520196827
 30
0.0
 11
99.95566607636525
 21
-127.5793520196827
 31
0.0
  0
LINE
  5
7C0
330
1F
100
AcDbEntity
  8
0
 62
     2
100
AcDbLine
 10
97.45566607636525
 20
-125.0793520196827
 30
0.0
 11
102.4556660763652
 21
-125.0793520196827
 31
0.0
  0
LINE
  5
7E8
330
1F
100
AcDbEntity
  8
0
 62
     2
100
AcDbLine
 10
99.95566607636525
 20
-129.5793520196827
 30
0.0
 11
99.95566607636525
 21
-134.5793520196827
 31
0.0
  0
LINE
  5
7E9
330
1F
100
AcDbEntity
  8
0
 62
     2
100
AcDbLine
 10
97.45566607636525
 20
-132.0793520196827
 30
0.0
 11
102.4556660763652
 21
-132.0793520196827
 31
0.0
  0
LINE
  5
811
330
1F
100
AcDbEntity
  8
0
 62
     2
100
AcDbLine
 10
99.95566607636525
 20
-136.5793520196827
 30
0.0
 11
99.95566607636525
 21
-141.5793520196827
 31
0.0
  0
LINE
  5
812
330
1F
100
AcDbEntity
  8
0
 62
     2
100
AcDbLine
 10
97.45566607636525
 20
-139.0793520196827
 30
0.0
 11
102.4556660763652
 21
-139.0793520196827
 31
0.0
  0
LINE
  5
83A
330
1F
100
AcDbEntity
  8
0
 62
     2
100
AcDbLine
 10
106.9556660763652
 20
-136.5793520196827
 30
0.0
 11
106.9556660763652
 21
-141.5793520196827
 31
0.0
  0
LINE
  5
83B
330
1F
100
AcDbEntity
  8
0
 62
     2
100
AcDbLine
 10
104.4556660763652
 20
-139.0793520196827
 30
0.0
 11
109.4556660763652
 21
-139.0793520196827
 31
0.0
  0
LINE
  5
863
330
1F
100
AcDbEntity
  8
0
 62
     2
100
AcDbLine
 10
106.9556660763652
 20
-129.5793520196827
 30
0.0
 11
106.9556660763652
 21
-134.5793520196827
 31
0.0
  0
LINE
  5
864
330
1F
100
AcDbEntity
  8
0
 62
     2
100
AcDbLine
 10
104.4556660763652
 20
-132.0793520196827
 30
0.0
 11
109.4556660763652
 21
-132.0793520196827
 31
0.0
  0
LINE
  5
88C
330
1F
100
AcDbEntity
  8
0
 62
     2
100
AcDbLine
 10
106.9556660763652
 20
-122.5793520196827
 30
0.0
 11
106.9556660763652
 21
-127.5793520196827
 31
0.0
  0
LINE
  5
88D
330
1F
100
AcDbEntity
  8
0
 62
     2
100
AcDbLine
 10
104.4556660763652
 20
-125.0793520196827
 30
0.0
 11
109.4556660763652
 21
-125.0793520196827
 31
0.0
  0
LINE
  5
8B5
330
1F
100
AcDbEntity
  8
0
 62
     2
100
AcDbLine
 10
113.9556660763652
 20
-122.5793520196827
 30
0.0
 11
113.9556660763652
 21
-127.5793520196827
 31
0.0
  0
LINE
  5
8B6
330
1F
100
AcDbEntity
  8
0
 62
     2
100
AcDbLine
 10
111.4556660763652
 20
-125.0793520196827
 30
0.0
 11
116.4556660763652
 21
-125.0793520196827
 31
0.0
  0
LINE
  5
8DE
330
1F
100
AcDbEntity
  8
0
 62
     2
100
AcDbLine
 10
120.9556660763652
 20
-122.5793520196827
 30
0.0
 11
120.9556660763652
 21
-127.5793520196827
 31
0.0
  0
LINE
  5
8DF
330
1F
100
AcDbEntity
  8
0
 62
     2
100
AcDbLine
 10
118.4556660763652
 20
-125.0793520196827
 30
0.0
 11
123.4556660763652
 21
-125.0793520196827
 31
0.0
  0
LINE
  5
907
330
1F
100
AcDbEntity
  8
0
 62
     2
100
AcDbLine
 10
127.9556660763652
 20
-122.5793520196827
 30
0.0
 11
127.9556660763652
 21
-127.5793520196827
 31
0.0
  0
LINE
  5
908
330
1F
100
AcDbEntity
  8
0
 62
     2
100
AcDbLine
 10
125.4556660763652
 20
-125.0793520196827
 30
0.0
 11
130.4556660763652
 21
-125.0793520196827
 31
0.0
  0
LINE
  5
959
330
1F
100
AcDbEntity
  8
0
 62
     2
100
AcDbLine
 10
134.9556660763652
 20
-122.5793520196827
 30
0.0
 11
134.9556660763652
 21
-127.5793520196827
 31
0.0
  0
LINE
  5
95A
330
1F
100
AcDbEntity
  8
0
 62
     2
100
AcDbLine
 10
132.4556660763652
 20
-125.0793520196827
 30
0.0
 11
137.4556660763652
 21
-125.0793520196827
 31
0.0
  0
LINE
  5
982
330
1F
100
AcDbEntity
  8
0
 62
     2
100
AcDbLine
 10
141.9556660763652
 20
-122.5793520196827
 30
0.0
 11
141.9556660763652
 21
-127.5793520196827
 31
0.0
  0
LINE
  5
983
330
1F
100
AcDbEntity
  8
0
 62
     2
100
AcDbLine
 10
139.4556660763652
 20
-125.0793520196827
 30
0.0
 11
144.4556660763652
 21
-125.0793520196827
 31
0.0
  0
LINE
  5
9AB
330
1F
100
AcDbEntity
  8
0
 62
     2
100
AcDbLine
 10
148.9556660763652
 20
-122.5793520196827
 30
0.0
 11
148.9556660763652
 21
-127.5793520196827
 31
0.0
  0
LINE
  5
9AC
330
1F
100
AcDbEntity
  8
0
 62
     2
100
AcDbLine
 10
146.4556660763652
 20
-125.0793520196827
 30
0.0
 11
151.4556660763652
 21
-125.0793520196827
 31
0.0
  0
LINE
  5
9D4
330
1F
100
AcDbEntity
  8
0
 62
     2
100
AcDbLine
 10
155.9556660763652
 20
-122.5793520196827
 30
0.0
 11
155.9556660763652
 21
-127.5793520196827
 31
0.0
  0
LINE
  5
9D5
330
1F
100
AcDbEntity
  8
0
 62
     2
100
AcDbLine
 10
153.4556660763652
 20
-125.0793520196827
 30
0.0
 11
158.4556660763652
 21
-125.0793520196827
 31
0.0
  0
LINE
  5
9FD
330
1F
100
AcDbEntity
  8
0
 62
     2
100
AcDbLine
 10
155.9556660763652
 20
-129.5793520196827
 30
0.0
 11
155.9556660763652
 21
-134.5793520196827
 31
0.0
  0
LINE
  5
9FE
330
1F
100
AcDbEntity
  8
0
 62
     2
100
AcDbLine
 10
153.4556660763652
 20
-132.0793520196827
 30
0.0
 11
158.4556660763652
 21
-132.0793520196827
 31
0.0
  0
LINE
  5
A26
330
1F
100
AcDbEntity
  8
0
 62
     2
100
AcDbLine
 10
148.9556660763652
 20
-129.5793520196827
 30
0.0
 11
148.9556660763652
 21
-134.5793520196827
 31
0.0
  0
LINE
  5
A27
330
1F
100
AcDbEntity
  8
0
 62
     2
100
AcDbLine
 10
146.4556660763652
 20
-132.0793520196827
 30
0.0
 11
151.4556660763652
 21
-132.0793520196827
 31
0.0
  0
LINE
  5
A4F
330
1F
100
AcDbEntity
  8
0
 62
     2
100
AcDbLine
 10
141.9556660763652
 20
-129.5793520196827
 30
0.0
 11
141.9556660763652
 21
-134.5793520196827
 31
0.0
  0
LINE
  5
A50
330
1F
100
AcDbEntity
  8
0
 62
     2
100
AcDbLine
 10
139.4556660763652
 20
-132.0793520196827
 30
0.0
 11
144.4556660763652
 21
-132.0793520196827
 31
0.0
  0
LINE
  5
A78
330
1F
100
AcDbEntity
  8
0
 62
     2
100
AcDbLine
 10
134.9556660763652
 20
-129.5793520196827
 30
0.0
 11
134.9556660763652
 21
-134.5793520196827
 31
0.0
  0
LINE
  5
A79
330
1F
100
AcDbEntity
  8
0
 62
     2
100
AcDbLine
 10
132.4556660763652
 20
-132.0793520196827
 30
0.0
 11
137.4556660763652
 21
-132.0793520196827
 31
0.0
  0
LINE
  5
AA1
330
1F
100
AcDbEntity
  8
0
 62
     2
100
AcDbLine
 10
134.9556660763652
 20
-136.5793520196827
 30
0.0
 11
134.9556660763652
 21
-141.5793520196827
 31
0.0
  0
LINE
  5
AA2
330
1F
100
AcDbEntity
  8
0
 62
     2
100
AcDbLine
 10
132.4556660763652
 20
-139.0793520196827
 30
0.0
 11
137.4556660763652
 21
-139.0793520196827
 31
0.0
  0
LINE
  5
ACA
330
1F
100
AcDbEntity
  8
0
 62
     2
100
AcDbLine
 10
141.9556660763652
 20
-136.5793520196827
 30
0.0
 11
141.9556660763652
 21
-141.5793520196827
 31
0.0
  0
LINE
  5
ACB
330
1F
100
AcDbEntity
  8
0
 62
     2
100
AcDbLine
 10
139.4556660763652
 20
-139.0793520196827
 30
0.0
 11
144.4556660763652
 21
-139.0793520196827
 31
0.0
  0
LINE
  5
AF3
330
1F
100
AcDbEntity
  8
0
 62
     2
100
AcDbLine
 10
148.9556660763652
 20
-136.5793520196827
 30
0.0
 11
148.9556660763652
 21
-141.5793520196827
 31
0.0
  0
LINE
  5
AF4
330
1F
100
AcDbEntity
  8
0
 62
     2
100
AcDbLine
 10
146.4556660763652
 20
-139.0793520196827
 30
0.0
 11
151.4556660763652
 21
-139.0793520196827
 31
0.0
  0
LINE
  5
B1C
330
1F
100
AcDbEntity
  8
0
 62
     2
100
AcDbLine
 10
155.9556660763652
 20
-136.5793520196827
 30
0.0
 11
155.9556660763652
 21
-141.5793520196827
 31
0.0
  0
LINE
  5
B1D
330
1F
100
AcDbEntity
  8
0
 62
     2
100
AcDbLine
 10
153.4556660763652
 20
-139.0793520196827
 30
0.0
 11
158.4556660763652
 21
-139.0793520196827
 31
0.0
  0
LINE
  5
B45
330
1F
100
AcDbEntity
  8
0
 62
     2
100
AcDbLine
 10
155.9556660763652
 20
-143.5793520196827
 30
0.0
 11
155.9556660763652
 21
-148.5793520196827
 31
0.0
  0
LINE
  5
B46
330
1F
100
AcDbEntity
  8
0
 62
     2
100
AcDbLine
 10
153.4556660763652
 20
-146.0793520196827
 30
0.0
 11
158.4556660763652
 21
-146.0793520196827
 31
0.0
  0
LINE
  5
B6E
330
1F
100
AcDbEntity
  8
0
 62
     2
100
AcDbLine
 10
148.9556660763652
 20
-143.5793520196827
 30
0.0
 11
148.9556660763652
 21
-148.5793520196827
 31
0.0
  0
LINE
  5
B6F
330
1F
100
AcDbEntity
  8
0
 62
     2
100
AcDbLine
 10
146.4556660763652
 20
-146.0793520196827
 30
0.0
 11
151.4556660763652
 21
-146.0793520196827
 31
0.0
  0
LINE
  5
B97
330
1F
100
AcDbEntity
  8
0
 62
     2
100
AcDbLine
 10
141.9556660763652
 20
-143.5793520196827
 30
0.0
 11
141.9556660763652
 21
-148.5793520196827
 31
0.0
  0
LINE
  5
B98
330
1F
100
AcDbEntity
  8
0
 62
     2
100
AcDbLine
 10
139.4556660763652
 20
-146.0793520196827
 30
0.0
 11
144.4556660763652
 21
-146.0793520196827
 31
0.0
  0
LINE
  5
BC0
330
1F
100
AcDbEntity
  8
0
 62
     2
100
AcDbLine
 10
134.9556660763652
 20
-143.5793520196827
 30
0.0
 11
134.9556660763652
 21
-148.5793520196827
 31
0.0
  0
LINE
  5
BC1
330
1F
100
AcDbEntity
  8
0
 62
     2
100
AcDbLine
 10
132.4556660763652
 20
-146.0793520196827
 30
0.0
 11
137.4556660763652
 21
-146.0793520196827
 31
0.0
  0
LINE
  5
BE9
330
1F
100
AcDbEntity
  8
0
 62
     2
100
AcDbLine
 10
106.9556660763652
 20
-143.5793520196827
 30
0.0
 11
106.9556660763652
 21
-148.5793520196827
 31
0.0
  0
LINE
  5
BEA
330
1F
100
AcDbEntity
  8
0
 62
     2
100
AcDbLine
 10
104.4556660763652
 20
-146.0793520196827
 30
0.0
 11
109.4556660763652
 21
-146.0793520196827
 31
0.0
  0
LINE
  5
C12
330
1F
100
AcDbEntity
  8
0
 62
     2
100
AcDbLine
 10
99.95566607636525
 20
-143.5793520196827
 30
0.0
 11
99.95566607636525
 21
-148.5793520196827
 31
0.0
  0
LINE
  5
C13
330
1F
100
AcDbEntity
  8
0
 62
     2
100
AcDbLine
 10
97.45566607636525
 20
-146.0793520196827
 30
0.0
 11
102.4556660763652
 21
-146.0793520196827
 31
0.0
  0
LINE
  5
C3B
330
1F
100
AcDbEntity
  8
0
 62
     2
100
AcDbLine
 10
92.95566607636525
 20
-143.5793520196827
 30
0.0
 11
92.95566607636525
 21
-148.5793520196827
 31
0.0
  0
LINE
  5
C3C
330
1F
100
AcDbEntity
  8
0
 62
     2
100
AcDbLine
 10
90.45566607636525
 20
-146.0793520196827
 30
0.0
 11
95.45566607636525
 21
-146.0793520196827
 31
0.0
  0
LINE
  5
C64
330
1F
100
AcDbEntity
  8
0
 62
     2
100
AcDbLine
 10
85.95566607636525
 20
-143.5793520196827
 30
0.0
 11
85.95566607636525
 21
-148.5793520196827
 31
0.0
  0
LINE
  5
C65
330
1F
100
AcDbEntity
  8
0
 62
     2
100
AcDbLine
 10
83.45566607636525
 20
-146.0793520196827
 30
0.0
 11
88.45566607636525
 21
-146.0793520196827
 31
0.0
  0
LINE
  5
C8D
330
1F
100
AcDbEntity
  8
0
 62
     2
100
AcDbLine
 10
85.95566607636525
 20
-150.5793520196827
 30
0.0
 11
85.95566607636525
 21
-155.5793520196827
 31
0.0
  0
LINE
  5
C8E
330
1F
100
AcDbEntity
  8
0
 62
     2
100
AcDbLine
 10
83.45566607636525
 20
-153.0793520196827
 30
0.0
 11
88.45566607636525
 21
-153.0793520196827
 31
0.0
  0
LINE
  5
CB6
330
1F
100
AcDbEntity
  8
0
 62
     2
100
AcDbLine
 10
92.95566607636525
 20
-150.5793520196827
 30
0.0
 11
92.95566607636525
 21
-155.5793520196827
 31
0.0
  0
LINE
  5
CB7
330
1F
100
AcDbEntity
  8
0
 62
     2
100
AcDbLine
 10
90.45566607636525
 20
-153.0793520196827
 30
0.0
 11
95.45566607636525
 21
-153.0793520196827
 31
0.0
  0
LINE
  5
CDF
330
1F
100
AcDbEntity
  8
0
 62
     2
100
AcDbLine
 10
99.95566607636525
 20
-150.5793520196827
 30
0.0
 11
99.95566607636525
 21
-155.5793520196827
 31
0.0
  0
LINE
  5
CE0
330
1F
100
AcDbEntity
  8
0
 62
     2
100
AcDbLine
 10
97.45566607636525
 20
-153.0793520196827
 30
0.0
 11
102.4556660763652
 21
-153.0793520196827
 31
0.0
  0
LINE
  5
D08
330
1F
100
AcDbEntity
  8
0
 62
     2
100
AcDbLine
 10
106.9556660763652
 20
-150.5793520196827
 30
0.0
 11
106.9556660763652
 21
-155.5793520196827
 31
0.0
  0
LINE
  5
D09
330
1F
100
AcDbEntity
  8
0
 62
     2
100
AcDbLine
 10
104.4556660763652
 20
-153.0793520196827
 30
0.0
 11
109.4556660763652
 21
-153.0793520196827
 31
0.0
  0
LINE
  5
D31
330
1F
100
AcDbEntity
  8
0
 62
     2
100
AcDbLine
 10
113.9556660763652
 20
-150.5793520196827
 30
0.0
 11
113.9556660763652
 21
-155.5793520196827
 31
0.0
  0
LINE
  5
D32
330
1F
100
AcDbEntity
  8
0
 62
     2
100
AcDbLine
 10
111.4556660763652
 20
-153.0793520196827
 30
0.0
 11
116.4556660763652
 21
-153.0793520196827
 31
0.0
  0
LINE
  5
D5A
330
1F
100
AcDbEntity
  8
0
 62
     2
100
AcDbLine
 10
120.9556660763652
 20
-150.5793520196827
 30
0.0
 11
120.9556660763652
 21
-155.5793520196827
 31
0.0
  0
LINE
  5
D5B
330
1F
100
AcDbEntity
  8
0
 62
     2
100
AcDbLine
 10
118.4556660763652
 20
-153.0793520196827
 30
0.0
 11
123.4556660763652
 21
-153.0793520196827
 31
0.0
  0
LINE
  5
D83
330
1F
100
AcDbEntity
  8
0
 62
     2
100
AcDbLine
 10
127.9556660763652
 20
-150.5793520196827
 30
0.0
 11
127.9556660763652
 21
-155.5793520196827
 31
0.0
  0
LINE
  5
D84
330
1F
100
AcDbEntity
  8
0
 62
     2
100
AcDbLine
 10
125.4556660763652
 20
-153.0793520196827
 30
0.0
 11
130.4556660763652
 21
-153.0793520196827
 31
0.0
  0
LINE
  5
DAC
330
1F
100
AcDbEntity
  8
0
 62
     2
100
AcDbLine
 10
134.9556660763652
 20
-150.5793520196827
 30
0.0
 11
134.9556660763652
 21
-155.5793520196827
 31
0.0
  0
LINE
  5
DAD
330
1F
100
AcDbEntity
  8
0
 62
     2
100
AcDbLine
 10
132.4556660763652
 20
-153.0793520196827
 30
0.0
 11
137.4556660763652
 21
-153.0793520196827
 31
0.0
  0
LINE
  5
DD5
330
1F
100
AcDbEntity
  8
0
 62
     2
100
AcDbLine
 10
141.9556660763652
 20
-150.5793520196827
 30
0.0
 11
141.9556660763652
 21
-155.5793520196827
 31
0.0
  0
LINE
  5
DD6
330
1F
100
AcDbEntity
  8
0
 62
     2
100
AcDbLine
 10
139.4556660763652
 20
-153.0793520196827
 30
0.0
 11
144.4556660763652
 21
-153.0793520196827
 31
0.0
  0
LINE
  5
DFE
330
1F
100
AcDbEntity
  8
0
 62
     2
100
AcDbLine
 10
148.9556660763652
 20
-150.5793520196827
 30
0.0
 11
148.9556660763652
 21
-155.5793520196827
 31
0.0
  0
LINE
  5
DFF
330
1F
100
AcDbEntity
  8
0
 62
     2
100
AcDbLine
 10
146.4556660763652
 20
-153.0793520196827
 30
0.0
 11
151.4556660763652
 21
-153.0793520196827
 31
0.0
  0
LINE
  5
E27
330
1F
100
AcDbEntity
  8
0
 62
     2
100
AcDbLine
 10
155.9556660763652
 20
-150.5793520196827
 30
0.0
 11
155.9556660763652
 21
-155.5793520196827
 31
0.0
  0
LINE
  5
E28
330
1F
100
AcDbEntity
  8
0
 62
     2
100
AcDbLine
 10
153.4556660763652
 20
-153.0793520196827
 30
0.0
 11
158.4556660763652
 21
-153.0793520196827
 31
0.0
  0
LINE
  5
E50
330
1F
100
AcDbEntity
  8
0
 62
     2
100
AcDbLine
 10
148.9556660763652
 20
-157.5793520196827
 30
0.0
 11
148.9556660763652
 21
-162.5793520196827
 31
0.0
  0
LINE
  5
E51
330
1F
100
AcDbEntity
  8
0
 62
     2
100
AcDbLine
 10
146.4556660763652
 20
-160.0793520196827
 30
0.0
 11
151.4556660763652
 21
-160.0793520196827
 31
0.0
  0
LINE
  5
E79
330
1F
100
AcDbEntity
  8
0
 62
     2
100
AcDbLine
 10
141.9556660763652
 20
-157.5793520196827
 30
0.0
 11
141.9556660763652
 21
-162.5793520196827
 31
0.0
  0
LINE
  5
E7A
330
1F
100
AcDbEntity
  8
0
 62
     2
100
AcDbLine
 10
139.4556660763652
 20
-160.0793520196827
 30
0.0
 11
144.4556660763652
 21
-160.0793520196827
 31
0.0
  0
LINE
  5
EA2
330
1F
100
AcDbEntity
  8
0
 62
     2
100
AcDbLine
 10
134.9556660763652
 20
-157.5793520196827
 30
0.0
 11
134.9556660763652
 21
-162.5793520196827
 31
0.0
  0
LINE
  5
EA3
330
1F
100
AcDbEntity
  8
0
 62
     2
100
AcDbLine
 10
132.4556660763652
 20
-160.0793520196827
 30
0.0
 11
137.4556660763652
 21
-160.0793520196827
 31
0.0
  0
LINE
  5
ECB
330
1F
100
AcDbEntity
  8
0
 62
     2
100
AcDbLine
 10
127.9556660763652
 20
-157.5793520196827
 30
0.0
 11
127.9556660763652
 21
-162.5793520196827
 31
0.0
  0
LINE
  5
ECC
330
1F
100
AcDbEntity
  8
0
 62
     2
100
AcDbLine
 10
125.4556660763652
 20
-160.0793520196827
 30
0.0
 11
130.4556660763652
 21
-160.0793520196827
 31
0.0
  0
LINE
  5
EF4
330
1F
100
AcDbEntity
  8
0
 62
     2
100
AcDbLine
 10
120.9556660763652
 20
-157.5793520196827
 30
0.0
 11
120.9556660763652
 21
-162.5793520196827
 31
0.0
  0
LINE
  5
EF5
330
1F
100
AcDbEntity
  8
0
 62
     2
100
AcDbLine
 10
118.4556660763652
 20
-160.0793520196827
 30
0.0
 11
123.4556660763652
 21
-160.0793520196827
 31
0.0
  0
LINE
  5
F1D
330
1F
100
AcDbEntity
  8
0
 62
     2
100
AcDbLine
 10
113.9556660763652
 20
-157.5793520196827
 30
0.0
 11
113.9556660763652
 21
-162.5793520196827
 31
0.0
  0
LINE
  5
F1E
330
1F
100
AcDbEntity
  8
0
 62
     2
100
AcDbLine
 10
111.4556660763652
 20
-160.0793520196827
 30
0.0
 11
116.4556660763652
 21
-160.0793520196827
 31
0.0
  0
LINE
  5
F46
330
1F
100
AcDbEntity
  8
0
 62
     2
100
AcDbLine
 10
106.9556660763652
 20
-157.5793520196827
 30
0.0
 11
106.9556660763652
 21
-162.5793520196827
 31
0.0
  0
LINE
  5
F47
330
1F
100
AcDbEntity
  8
0
 62
     2
100
AcDbLine
 10
104.4556660763652
 20
-160.0793520196827
 30
0.0
 11
109.4556660763652
 21
-160.0793520196827
 31
0.0
  0
LINE
  5
F6F
330
1F
100
AcDbEntity
  8
0
 62
     2
100
AcDbLine
 10
99.95566607636525
 20
-157.5793520196827
 30
0.0
 11
99.95566607636525
 21
-162.5793520196827
 31
0.0
  0
LINE
  5
F70
330
1F
100
AcDbEntity
  8
0
 62
     2
100
AcDbLine
 10
97.45566607636525
 20
-160.0793520196827
 30
0.0
 11
102.4556660763652
 21
-160.0793520196827
 31
0.0
  0
LINE
  5
F98
330
1F
100
AcDbEntity
  8
0
 62
     2
100
AcDbLine
 10
92.95566607636525
 20
-157.5793520196827
 30
0.0
 11
92.95566607636525
 21
-162.5793520196827
 31
0.0
  0
LINE
  5
F99
330
1F
100
AcDbEntity
  8
0
 62
     2
100
AcDbLine
 10
90.45566607636525
 20
-160.0793520196827
 30
0.0
 11
95.45566607636525
 21
-160.0793520196827
 31
0.0
  0
LINE
  5
FC1
330
1F
100
AcDbEntity
  8
0
 62
     2
100
AcDbLine
 10
99.95566607636525
 20
-164.5793520196827
 30
0.0
 11
99.95566607636525
 21
-169.5793520196827
 31
0.0
  0
LINE
  5
FC2
330
1F
100
AcDbEntity
  8
0
 62
     2
100
AcDbLine
 10
97.45566607636525
 20
-167.0793520196827
 30
0.0
 11
102.4556660763652
 21
-167.0793520196827
 31
0.0
  0
LINE
  5
FEA
330
1F
100
AcDbEntity
  8
0
 62
     2
100
AcDbLine
 10
106.9556660763652
 20
-164.5793520196827
 30
0.0
 11
106.9556660763652
 21
-169.5793520196827
 31
0.0
  0
LINE
  5
FEB
330
1F
100
AcDbEntity
  8
0
 62
     2
100
AcDbLine
 10
104.4556660763652
 20
-167.0793520196827
 30
0.0
 11
109.4556660763652
 21
-167.0793520196827
 31
0.0
  0
LINE
  5
1013
330
1F
100
AcDbEntity
  8
0
 62
     2
100
AcDbLine
 10
113.9556660763652
 20
-164.5793520196827
 30
0.0
 11
113.9556660763652
 21
-169.5793520196827
 31
0.0
  0
LINE
  5
1014
330
1F
100
AcDbEntity
  8
0
 62
     2
100
AcDbLine
 10
111.4556660763652
 20
-167.0793520196827
 30
0.0
 11
116.4556660763652
 21
-167.0793520196827
 31
0.0
  0
LINE
  5
103C
330
1F
100
AcDbEntity
  8
0
 62
     2
100
AcDbLine
 10
120.9556660763652
 20
-164.5793520196827
 30
0.0
 11
120.9556660763652
 21
-169.5793520196827
 31
0.0
  0
LINE
  5
103D
330
1F
100
AcDbEntity
  8
0
 62
     2
100
AcDbLine
 10
118.4556660763652
 20
-167.0793520196827
 30
0.0
 11
123.4556660763652
 21
-167.0793520196827
 31
0.0
  0
LINE
  5
1065
330
1F
100
AcDbEntity
  8
0
 62
     2
100
AcDbLine
 10
127.9556660763652
 20
-164.5793520196827
 30
0.0
 11
127.9556660763652
 21
-169.5793520196827
 31
0.0
  0
LINE
  5
1066
330
1F
100
AcDbEntity
  8
0
 62
     2
100
AcDbLine
 10
125.4556660763652
 20
-167.0793520196827
 30
0.0
 11
130.4556660763652
 21
-167.0793520196827
 31
0.0
  0
LINE
  5
108E
330
1F
100
AcDbEntity
  8
0
 62
     2
100
AcDbLine
 10
134.9556660763652
 20
-164.5793520196827
 30
0.0
 11
134.9556660763652
 21
-169.5793520196827
 31
0.0
  0
LINE
  5
108F
330
1F
100
AcDbEntity
  8
0
 62
     2
100
AcDbLine
 10
132.4556660763652
 20
-167.0793520196827
 30
0.0
 11
137.4556660763652
 21
-167.0793520196827
 31
0.0
  0
LINE
  5
10B7
330
1F
100
AcDbEntity
  8
0
 62
     2
100
AcDbLine
 10
141.9556660763652
 20
-164.5793520196827
 30
0.0
 11
141.9556660763652
 21
-169.5793520196827
 31
0.0
  0
LINE
  5
10B8
330
1F
100
AcDbEntity
  8
0
 62
     2
100
AcDbLine
 10
139.4556660763652
 20
-167.0793520196827
 30
0.0
 11
144.4556660763652
 21
-167.0793520196827
 31
0.0
  0
LINE
  5
10E0
330
1F
100
AcDbEntity
  8
0
 62
     2
100
AcDbLine
 10
134.9556660763652
 20
-171.5793520196827
 30
0.0
 11
134.9556660763652
 21
-176.5793520196827
 31
0.0
  0
LINE
  5
10E1
330
1F
100
AcDbEntity
  8
0
 62
     2
100
AcDbLine
 10
132.4556660763652
 20
-174.0793520196827
 30
0.0
 11
137.4556660763652
 21
-174.0793520196827
 31
0.0
  0
LINE
  5
1109
330
1F
100
AcDbEntity
  8
0
 62
     2
100
AcDbLine
 10
127.9556660763652
 20
-171.5793520196827
 30
0.0
 11
127.9556660763652
 21
-176.5793520196827
 31
0.0
  0
LINE
  5
110A
330
1F
100
AcDbEntity
  8
0
 62
     2
100
AcDbLine
 10
125.4556660763652
 20
-174.0793520196827
 30
0.0
 11
130.4556660763652
 21
-174.0793520196827
 31
0.0
  0
LINE
  5
1132
330
1F
100
AcDbEntity
  8
0
 62
     2
100
AcDbLine
 10
120.9556660763652
 20
-171.5793520196827
 30
0.0
 11
120.9556660763652
 21
-176.5793520196827
 31
0.0
  0
LINE
  5
1133
330
1F
100
AcDbEntity
  8
0
 62
     2
100
AcDbLine
 10
118.4556660763652
 20
-174.0793520196827
 30
0.0
 11
123.4556660763652
 21
-174.0793520196827
 31
0.0
  0
LINE
  5
115B
330
1F
100
AcDbEntity
  8
0
 62
     2
100
AcDbLine
 10
113.9556660763652
 20
-171.5793520196827
 30
0.0
 11
113.9556660763652
 21
-176.5793520196827
 31
0.0
  0
LINE
  5
115C
330
1F
100
AcDbEntity
  8
0
 62
     2
100
AcDbLine
 10
111.4556660763652
 20
-174.0793520196827
 30
0.0
 11
116.4556660763652
 21
-174.0793520196827
 31
0.0
  0
LINE
  5
1184
330
1F
100
AcDbEntity
  8
0
 62
     2
100
AcDbLine
 10
106.9556660763652
 20
-171.5793520196827
 30
0.0
 11
106.9556660763652
 21
-176.5793520196827
 31
0.0
  0
LINE
  5
1185
330
1F
100
AcDbEntity
  8
0
 62
     2
100
AcDbLine
 10
104.4556660763652
 20
-174.0793520196827
 30
0.0
 11
109.4556660763652
 21
-174.0793520196827
 31
0.0
  0
VIEWPORT
  5
14D
330
1B
100
AcDbEntity
 67
     1
  8
0
100
AcDbViewport
 10
202.5
 20
128.5
 30
0.0
 40
441.0
 41
311.85
 68
     1
 69
     1
 12
202.5
 22
128.5
 13
0.0
 23
0.0
 14
0.5
 24
0.5
 15
0.0
 25
0.0
 16
0.0
 26
0.0
 36
1.0
 17
0.0
 27
0.0
 37
0.0
 42
50.0
 43
0.0
 44
0.0
 45
311.85
 50
0.0
 51
0.0
 72
   100
 90
   557152
  1

281
     0
 71
     1
 74
     0
110
0.0
120
0.0
130
0.0
111
1.0
121
0.0
131
0.0
112
0.0
122
1.0
132
0.0
 79
     0
146
0.0
170
     0
 61
     5
348
2F
292
     1
282
     1
141
0.0
142
0.0
 63
   256
361
151
  0
VIEWPORT
  5
14E
102
{ACAD_XDICTIONARY
360
14F
102
}
330
1B
100
AcDbEntity
 67
     1
  8
0
100
AcDbViewport
 10
202.5
 20
128.5
 30
0.0
 40
324.0
 41
205.6
 68
     2
 69
     2
 12
189.8897923062065
 22
-20.06828932872185
 13
0.0
 23
0.0
 14
0.5
 24
0.5
 15
0.0
 25
0.0
 16
0.0
 26
0.0
 36
1.0
 17
0.0
 27
0.0
 37
0.0
 42
50.0
 43
0.0
 44
0.0
 45
166.5214249159072
 50
0.0
 51
0.0
 72
   100
 90
   557152
  1

281
     0
 71
     1
 74
     0
110
0.0
120
0.0
130
0.0
111
1.0
121
0.0
131
0.0
112
0.0
122
1.0
132
0.0
 79
     0
146
0.0
170
     0
 61
     5
348
2F
292
     1
282
     1
141
0.0
142
0.0
 63
   256
  0
ENDSEC
  0
SECTION
  2
OBJECTS
  0
DICTIONARY
  5
C
330
0
100
AcDbDictionary
281
     1
  3
ACAD_DETAILVIEWSTYLE
350
B5
  3
ACAD_GROUP
350
D
  3
ACAD_IMAGE_DICT
350
1E6
  3
ACAD_IMAGE_VARS
350
6A
  3
ACAD_LAYOUT
350
1A
  3
ACAD_MATERIAL
350
72
  3
ACAD_MLEADERSTYLE
350
3F
  3
ACAD_MLINESTYLE
350
17
  3
ACAD_PLOTSETTINGS
350
19
  3
ACAD_PLOTSTYLENAME
350
E
  3
ACAD_SCALELIST
350
40
  3
ACAD_SECTIONVIEWSTYLE
350
B6
  3
ACAD_TABLESTYLE
350
3B
  3
ACAD_VISUALSTYLE
350
2A
  3
ACDB_RECOMPOSE_DATA
350
1188
  3
AcDbVariableDictionary
350
3D
  3
APPDATA
350
71
  0
SUN
  5
80
330
29
100
AcDbSun
 90
        1
290
     0
 63
     7
421
 16777215
 40
1.0
291
     1
 91
  2455826
 92
 54000000
292
     0
 70
     2
 71
   256
280
     1
  0
SUN
  5
151
330
14D
100
AcDbSun
 90
        1
290
     0
 63
     7
421
 16777215
 40
1.0
291
     1
 91
  2455826
 92
 54000000
292
     0
 70
     2
 71
   256
280
     1
  0
DICTIONARY
  5
14F
330
14E
100
AcDbDictionary
280
     1
281
     1
  3
ASDK_XREC_ANNOTATION_SCALE_INFO
360
150
  0
DICTIONARY
  5
B5
102
{ACAD_REACTORS
330
C
102
}
330
C
100
AcDbDictionary
281
     1
  0
DICTIONARY
  5
D
102
{ACAD_REACTORS
330
C
102
}
330
C
100
AcDbDictionary
281
     1
  0
DICTIONARY
  5
1E6
102
{ACAD_REACTORS
330
C
102
}
330
C
100
AcDbDictionary
281
     1
  3
Selection_187
350
1E7
  0
RASTERVARIABLES
  5
6A
102
{ACAD_REACTORS
330
C
102
}
330
C
100
AcDbRasterVariables
 90
        0
 70
     1
 71
     1
 72
     1
  0
DICTIONARY
  5
1A
102
{ACAD_REACTORS
330
C
102
}
330
C
100
AcDbDictionary
281
     1
  3
Model
350
22
  3
Sheet1
350
1E
  3
Sheet2
350
26
  0
DICTIONARY
  5
72
102
{ACAD_REACTORS
330
C
102
}
330
C
100
AcDbDictionary
281
     1
  3
ByBlock
350
74
  3
ByLayer
350
73
  3
Global
350
75
  0
DICTIONARY
  5
3F
102
{ACAD_REACTORS
330
C
102
}
330
C
100
AcDbDictionary
281
     1
  3
Annotative
350
BC
  3
Standard
350
B7
  0
DICTIONARY
  5
17
102
{ACAD_REACTORS
330
C
102
}
330
C
100
AcDbDictionary
281
     1
  3
Standard
350
18
  0
DICTIONARY
  5
19
102
{ACAD_REACTORS
330
C
102
}
330
C
100
AcDbDictionary
281
     1
  0
ACDBDICTIONARYWDFLT
  5
E
102
{ACAD_REACTORS
330
C
102
}
330
C
100
AcDbDictionary
281
     1
  3
Normal
350
F
100
AcDbDictionaryWithDefault
340
F
  0
DICTIONARY
  5
40
102
{ACAD_REACTORS
330
C
102
}
330
C
100
AcDbDictionary
281
     1
  3
A0
350
41
  3
A1
350
42
  3
A2
350
43
  3
A3
350
44
  3
A4
350
45
  3
A5
350
46
  3
A6
350
47
  3
A7
350
48
  3
A8
350
49
  3
A9
350
4A
  3
B0
350
4B
  3
B1
350
4C
  3
B2
350
4D
  3
B3
350
4E
  3
B4
350
4F
  3
B5
350
50
  3
B6
350
51
  3
B7
350
52
  3
B8
350
53
  3
B9
350
54
  3
C0
350
55
  3
C1
350
56
  3
C2
350
57
  3
C3
350
58
  3
C4
350
59
  3
C5
350
5A
  3
C6
350
5B
  3
C7
350
5C
  3
C8
350
5D
  3
C9
350
5E
  3
D0
350
5F
  3
D1
350
60
  3
D2
350
61
  0
DICTIONARY
  5
B6
102
{ACAD_REACTORS
330
C
102
}
330
C
100
AcDbDictionary
281
     1
  0
DICTIONARY
  5
3B
102
{ACAD_REACTORS
330
C
102
}
330
C
100
AcDbDictionary
281
     1
  3
Standard
350
3C
  0
DICTIONARY
  5
2A
102
{ACAD_REACTORS
330
C
102
}
330
C
100
AcDbDictionary
281
     1
  3
2dWireframe
350
2F
  3
3D Hidden
350
31
  3
3dWireframe
350
30
  3
Basic
350
32
  3
Brighten
350
36
  3
ColorChange
350
3A
  3
Conceptual
350
34
  3
Dim
350
35
  3
EdgeColorOff
350
7A
  3
Facepattern
350
39
  3
Flat
350
2B
  3
FlatWithEdges
350
2C
  3
Gouraud
350
2D
  3
GouraudWithEdges
350
2E
  3
Hidden
350
77
  3
JitterOff
350
78
  3
Linepattern
350
38
  3
OverhangOff
350
79
  3
Realistic
350
33
  3
Shaded
350
7F
  3
Shaded with edges
350
7E
  3
Shades of Gray
350
7B
  3
Sketchy
350
7C
  3
Thicken
350
37
  3
Wireframe
350
76
  3
X-Ray
350
7D
  0
XRECORD
  5
1188
102
{ACAD_REACTORS
330
C
102
}
330
C
100
AcDbXrecord
280
     1
 90
        1
330
3C
  0
DICTIONARY
  5
3D
102
{ACAD_REACTORS
330
C
102
}
330
C
100
AcDbDictionary
281
     1
  3
CANNOSCALE
350
62
  3
CMLEADERSTYLE
350
BB
  3
CTABLESTYLE
350
3E
  3
LIGHTSINBLOCKS
350
6F
  3
XCLIPFRAME
350
70
  0
DICTIONARY
  5
71
102
{ACAD_REACTORS
330
C
102
}
330
C
100
AcDbDictionary
281
     1
  0
XRECORD
  5
150
102
{ACAD_REACTORS
330
14F
102
}
330
14F
100
AcDbXrecord
280
     1
 90
        1
340
41
  0
IMAGEDEF
  5
1E7
102
{ACAD_REACTORS
330
1E6
330
1E9
102
}
330
1E6
100
AcDbRasterImageDef
 90
        0
  1
/home/devel0/Pictures/Selection_187.png
 10
335.0
 20
306.0
 11
0.002985074626865672
 21
0.002985074626865672
280
     1
281
     0
  0
LAYOUT
  5
22
102
{ACAD_REACTORS
330
1A
102
}
330
1A
100
AcDbPlotSettings
  1

  2
none_device
  4
ISO_A3_(420.00_x_297.00_MM)
  6

 40
7.5
 41
20.0
 42
7.5
 43
20.0
 44
420.0
 45
297.0
 46
20.78282828282826
 47
0.0
 48
0.0
 49
0.0
140
0.0
141
0.0
142
1.0
143
1.155642023346303
 70
  1204
 72
     1
 73
     0
 74
     1
  7
monochrome.ctb
 75
     0
 76
     0
 77
     2
 78
   300
147
0.8653198653198654
148
-134.1869158878504
149
0.0
100
AcDbLayout
  1
Model
 70
     1
 71
     0
 10
0.0
 20
0.0
 11
420.0
 21
297.0
 12
0.0
 22
0.0
 32
0.0
 14
79.89398601398602
 24
-178.77696725
 34
0.0
 15
279.893986013986
 25
61.55986013986012
 35
0.0
146
0.0
 13
0.0
 23
0.0
 33
0.0
 16
1.0
 26
0.0
 36
0.0
 17
0.0
 27
1.0
 37
0.0
 76
     0
330
1F
331
29
  0
LAYOUT
  5
1E
102
{ACAD_REACTORS
330
1A
102
}
330
1A
100
AcDbPlotSettings
  1

  2
none_device
  4
ISO_A3_(420.00_x_297.00_MM)
  6

 40
7.5
 41
20.0
 42
7.5
 43
20.0
 44
420.0
 45
297.0
 46
0.0
 47
0.0
 48
0.0
 49
0.0
140
0.0
141
0.0
142
1.0
143
1.0
 70
   688
 72
     1
 73
     0
 74
     5
  7

 75
    16
 76
     0
 77
     2
 78
   300
147
1.0
148
0.0
149
0.0
100
AcDbLayout
  1
Sheet1
 70
     1
 71
     1
 10
0.0
 20
0.0
 11
412.5
 21
277.0
 12
0.0
 22
0.0
 32
0.0
 14
40.5
 24
25.69999999999999
 34
0.0
 15
364.5
 25
231.3
 35
0.0
146
0.0
 13
0.0
 23
0.0
 33
0.0
 16
1.0
 26
0.0
 36
0.0
 17
0.0
 27
1.0
 37
0.0
 76
     0
330
1B
331
14D
  0
LAYOUT
  5
26
102
{ACAD_REACTORS
330
1A
102
}
330
1A
100
AcDbPlotSettings
  1

  2
none_device
  4

  6

 40
0.0
 41
0.0
 42
0.0
 43
0.0
 44
0.0
 45
0.0
 46
0.0
 47
0.0
 48
0.0
 49
0.0
140
0.0
141
0.0
142
1.0
143
1.0
 70
   688
 72
     0
 73
     0
 74
     5
  7

 75
    16
 76
     0
 77
     2
 78
   300
147
1.0
148
0.0
149
0.0
100
AcDbLayout
  1
Sheet2
 70
     1
 71
     2
 10
0.0
 20
0.0
 11
0.0
 21
0.0
 12
0.0
 22
0.0
 32
0.0
 14
0.0
 24
0.0
 34
0.0
 15
0.0
 25
0.0
 35
0.0
146
0.0
 13
0.0
 23
0.0
 33
0.0
 16
1.0
 26
0.0
 36
0.0
 17
0.0
 27
1.0
 37
0.0
 76
     0
330
23
  0
MATERIAL
  5
74
102
{ACAD_REACTORS
330
72
102
}
330
72
100
AcDbMaterial
  1
ByBlock
 72
     1
 94
      127
  0
MATERIAL
  5
73
102
{ACAD_REACTORS
330
72
102
}
330
72
100
AcDbMaterial
  1
ByLayer
 72
     1
 94
      127
  0
MATERIAL
  5
75
102
{ACAD_REACTORS
330
72
102
}
330
72
100
AcDbMaterial
  1
Global
 72
     1
 94
      127
  0
MLEADERSTYLE
  5
BC
102
{ACAD_REACTORS
330
3F
102
}
330
3F
100
AcDbMLeaderStyle
179
     2
170
     2
171
     1
172
     0
 90
        2
 40
0.0
 41
0.0
173
     1
 91
-1056964608
340
14
 92
       -2
290
     1
 42
2.0
291
     1
 43
8.0
  3
Annotative
341
0
 44
4.0
300

342
11
174
     1
178
     1
175
     1
176
     0
 93
-1056964608
 45
4.0
292
     0
297
     0
 46
4.0
343
0
 94
-1056964608
 47
1.0
 49
1.0
140
1.0
293
     1
141
0.0
294
     1
177
     0
142
1.0
295
     0
296
     1
143
3.75
271
     0
272
     9
273
     9
298
     0
  0
MLEADERSTYLE
  5
B7
102
{ACAD_REACTORS
330
3F
102
}
330
3F
100
AcDbMLeaderStyle
179
     2
170
     2
171
     1
172
     0
 90
        2
 40
0.0
 41
0.0
173
     1
 91
-1056964608
340
14
 92
       -2
290
     1
 42
2.0
291
     1
 43
8.0
  3
Standard
341
0
 44
4.0
300

342
11
174
     1
178
     6
175
     1
176
     0
 93
-1056964608
 45
4.0
292
     0
297
     0
 46
4.0
343
0
 94
-1056964608
 47
1.0
 49
1.0
140
1.0
293
     1
141
0.0
294
     1
177
     0
142
1.0
295
     0
296
     0
143
3.75
271
     0
272
     9
273
     9
298
     0
  0
MLINESTYLE
  5
18
102
{ACAD_REACTORS
330
17
102
}
330
17
100
AcDbMlineStyle
  2
Standard
 70
     0
  3

 62
   256
 51
90.0
 52
90.0
 71
     2
 49
0.5
 62
   256
  6
BYLAYER
 49
-0.5
 62
   256
  6
BYLAYER
  0
ACDBPLACEHOLDER
  5
F
102
{ACAD_REACTORS
330
E
102
}
330
E
  0
SCALE
  5
41
102
{ACAD_REACTORS
330
40
102
}
330
40
100
AcDbScale
 70
     0
300
1:1
140
1.0
141
1.0
290
     1
  0
SCALE
  5
42
102
{ACAD_REACTORS
330
40
102
}
330
40
100
AcDbScale
 70
     0
300
1:2
140
1.0
141
2.0
290
     0
  0
SCALE
  5
43
102
{ACAD_REACTORS
330
40
102
}
330
40
100
AcDbScale
 70
     0
300
1:4
140
1.0
141
4.0
290
     0
  0
SCALE
  5
44
102
{ACAD_REACTORS
330
40
102
}
330
40
100
AcDbScale
 70
     0
300
1:5
140
1.0
141
5.0
290
     0
  0
SCALE
  5
45
102
{ACAD_REACTORS
330
40
102
}
330
40
100
AcDbScale
 70
     0
300
1:8
140
1.0
141
8.0
290
     0
  0
SCALE
  5
46
102
{ACAD_REACTORS
330
40
102
}
330
40
100
AcDbScale
 70
     0
300
1:10
140
1.0
141
10.0
290
     0
  0
SCALE
  5
47
102
{ACAD_REACTORS
330
40
102
}
330
40
100
AcDbScale
 70
     0
300
1:16
140
1.0
141
16.0
290
     0
  0
SCALE
  5
48
102
{ACAD_REACTORS
330
40
102
}
330
40
100
AcDbScale
 70
     0
300
1:20
140
1.0
141
20.0
290
     0
  0
SCALE
  5
49
102
{ACAD_REACTORS
330
40
102
}
330
40
100
AcDbScale
 70
     0
300
1:30
140
1.0
141
30.0
290
     0
  0
SCALE
  5
4A
102
{ACAD_REACTORS
330
40
102
}
330
40
100
AcDbScale
 70
     0
300
1:40
140
1.0
141
40.0
290
     0
  0
SCALE
  5
4B
102
{ACAD_REACTORS
330
40
102
}
330
40
100
AcDbScale
 70
     0
300
1:50
140
1.0
141
50.0
290
     0
  0
SCALE
  5
4C
102
{ACAD_REACTORS
330
40
102
}
330
40
100
AcDbScale
 70
     0
300
1:100
140
1.0
141
100.0
290
     0
  0
SCALE
  5
4D
102
{ACAD_REACTORS
330
40
102
}
330
40
100
AcDbScale
 70
     0
300
2:1
140
2.0
141
1.0
290
     0
  0
SCALE
  5
4E
102
{ACAD_REACTORS
330
40
102
}
330
40
100
AcDbScale
 70
     0
300
4:1
140
4.0
141
1.0
290
     0
  0
SCALE
  5
4F
102
{ACAD_REACTORS
330
40
102
}
330
40
100
AcDbScale
 70
     0
300
8:1
140
8.0
141
1.0
290
     0
  0
SCALE
  5
50
102
{ACAD_REACTORS
330
40
102
}
330
40
100
AcDbScale
 70
     0
300
10:1
140
10.0
141
1.0
290
     0
  0
SCALE
  5
51
102
{ACAD_REACTORS
330
40
102
}
330
40
100
AcDbScale
 70
     0
300
100:1
140
100.0
141
1.0
290
     0
  0
SCALE
  5
52
102
{ACAD_REACTORS
330
40
102
}
330
40
100
AcDbScale
 70
     0
300
1/128" = 1'-0"
140
0.0078125
141
12.0
290
     0
  0
SCALE
  5
53
102
{ACAD_REACTORS
330
40
102
}
330
40
100
AcDbScale
 70
     0
300
1/64" = 1'-0"
140
0.015625
141
12.0
290
     0
  0
SCALE
  5
54
102
{ACAD_REACTORS
330
40
102
}
330
40
100
AcDbScale
 70
     0
300
1/32" = 1'-0"
140
0.03125
141
12.0
290
     0
  0
SCALE
  5
55
102
{ACAD_REACTORS
330
40
102
}
330
40
100
AcDbScale
 70
     0
300
1/16" = 1'-0"
140
0.0625
141
12.0
290
     0
  0
SCALE
  5
56
102
{ACAD_REACTORS
330
40
102
}
330
40
100
AcDbScale
 70
     0
300
3/32" = 1'-0"
140
0.09375
141
12.0
290
     0
  0
SCALE
  5
57
102
{ACAD_REACTORS
330
40
102
}
330
40
100
AcDbScale
 70
     0
300
1/8" = 1'-0"
140
0.125
141
12.0
290
     0
  0
SCALE
  5
58
102
{ACAD_REACTORS
330
40
102
}
330
40
100
AcDbScale
 70
     0
300
3/16" = 1'-0"
140
0.1875
141
12.0
290
     0
  0
SCALE
  5
59
102
{ACAD_REACTORS
330
40
102
}
330
40
100
AcDbScale
 70
     0
300
1/4" = 1'-0"
140
0.25
141
12.0
290
     0
  0
SCALE
  5
5A
102
{ACAD_REACTORS
330
40
102
}
330
40
100
AcDbScale
 70
     0
300
3/8" = 1'-0"
140
0.375
141
12.0
290
     0
  0
SCALE
  5
5B
102
{ACAD_REACTORS
330
40
102
}
330
40
100
AcDbScale
 70
     0
300
1/2" = 1'-0"
140
0.5
141
12.0
290
     0
  0
SCALE
  5
5C
102
{ACAD_REACTORS
330
40
102
}
330
40
100
AcDbScale
 70
     0
300
3/4" = 1'-0"
140
0.75
141
12.0
290
     0
  0
SCALE
  5
5D
102
{ACAD_REACTORS
330
40
102
}
330
40
100
AcDbScale
 70
     0
300
1" = 1'-0"
140
1.0
141
12.0
290
     0
  0
SCALE
  5
5E
102
{ACAD_REACTORS
330
40
102
}
330
40
100
AcDbScale
 70
     0
300
1-1/2" = 1'-0"
140
1.5
141
12.0
290
     0
  0
SCALE
  5
5F
102
{ACAD_REACTORS
330
40
102
}
330
40
100
AcDbScale
 70
     0
300
3" = 1'-0"
140
3.0
141
12.0
290
     0
  0
SCALE
  5
60
102
{ACAD_REACTORS
330
40
102
}
330
40
100
AcDbScale
 70
     0
300
6" = 1'-0"
140
6.0
141
12.0
290
     0
  0
SCALE
  5
61
102
{ACAD_REACTORS
330
40
102
}
330
40
100
AcDbScale
 70
     0
300
1'-0" = 1'-0"
140
12.0
141
12.0
290
     0
  0
TABLESTYLE
  5
3C
102
{ACAD_REACTORS
330
3B
102
}
102
{ACAD_XDICTIONARY
360
1186
102
}
330
3B
100
AcDbTableStyle
  3
Standard
 70
     0
 71
     0
 40
1.5
 41
1.5
280
     0
281
     0
  7
Standard
140
4.5
170
     2
 62
     0
 63
   257
283
     0
 90
      512
 91
        0
  1

274
    -2
284
     1
 64
     0
275
    -2
285
     1
 65
     0
276
    -2
286
     1
 66
     0
277
    -2
287
     1
 67
     0
278
    -2
288
     1
 68
     0
279
    -2
289
     1
 69
     0
  7
Standard
140
6.0
170
     5
 62
     0
 63
   257
283
     0
 90
      512
 91
        0
  1

274
    -2
284
     1
 64
     0
275
    -2
285
     1
 65
     0
276
    -2
286
     1
 66
     0
277
    -2
287
     1
 67
     0
278
    -2
288
     1
 68
     0
279
    -2
289
     1
 69
     0
  7
Standard
140
4.5
170
     5
 62
     0
 63
   257
283
     0
 90
      512
 91
        0
  1

274
    -2
284
     1
 64
     0
275
    -2
285
     1
 65
     0
276
    -2
286
     1
 66
     0
277
    -2
287
     1
 67
     0
278
    -2
288
     1
 68
     0
279
    -2
289
     1
 69
     0
  0
VISUALSTYLE
  5
2F
102
{ACAD_REACTORS
330
2A
102
}
330
2A
100
AcDbVisualStyle
  2
2dWireframe
 70
     4
177
     3
291
     0
 70
    58
 90
        0
176
     1
 90
        2
176
     1
 90
        0
176
     1
 90
        0
176
     1
 40
-0.6
176
     1
 40
-30.0
176
     1
 62
     7
420
 16777215
176
     1
 90
        1
176
     1
 90
        4
176
     1
 62
     7
176
     1
 62
   257
176
     1
 90
        1
176
     1
 90
        1
176
     1
 40
1.0
176
     1
 90
        0
176
     1
 62
   257
176
     1
 40
1.0
176
     1
 90
        1
176
     1
 90
        6
176
     1
 90
        2
176
     1
 62
     7
176
     1
 90
        5
176
     1
 90
        0
176
     1
 90
        0
176
     1
290
     0
176
     1
 90
        1
176
     1
 40
0.0
176
     1
 90
        0
176
     1
290
     1
176
     1
290
     1
176
     1
290
     0
176
     1
290
     0
176
     1
290
     0
176
     1
290
     0
176
     1
290
     0
176
     1
290
     0
176
     1
290
     0
176
     1
 90
       50
176
     1
 40
0.0
176
     1
 40
1.0
176
     1
 90
        0
176
     1
 62
   178
420
        0
176
     1
 90
       50
176
     1
 90
        3
176
     1
 62
     5
420
      255
176
     1
290
     0
176
     1
 90
       50
176
     1
 90
       50
176
     1
 90
       50
176
     1
290
     0
176
     1
 90
       50
176
     1
 62
   256
176
     0
 40
1.0
176
     0
 90
        2
176
     1
  1
strokes_ogs.tif
176
     1
290
     0
176
     1
 40
1.0
176
     1
 40
1.0
176
     1
  0
VISUALSTYLE
  5
31
102
{ACAD_REACTORS
330
2A
102
}
330
2A
100
AcDbVisualStyle
  2
3D Hidden
 70
     6
177
     3
291
     0
 70
    58
 90
        1
176
     1
 90
        2
176
     1
 90
        2
176
     1
 90
        0
176
     1
 40
-0.6
176
     1
 40
-30.0
176
     1
 62
     7
420
 16777215
176
     1
 90
        2
176
     1
 90
        2
176
     1
 62
     7
176
     1
 62
   257
176
     1
 90
        2
176
     1
 90
        1
176
     1
 40
40.0
176
     1
 90
        0
176
     1
 62
   257
176
     1
 40
1.0
176
     1
 90
        1
176
     1
 90
        6
176
     1
 90
        2
176
     1
 62
     7
176
     1
 90
        3
176
     1
 90
        0
176
     1
 90
        0
176
     1
290
     0
176
     1
 90
        1
176
     1
 40
0.0
176
     1
 90
        0
176
     1
290
     0
176
     1
290
     1
176
     1
290
     1
176
     1
290
     0
176
     1
290
     0
176
     1
290
     0
176
     1
290
     0
176
     1
290
     0
176
     1
290
     0
176
     1
 90
       50
176
     1
 40
0.0
176
     1
 40
1.0
176
     1
 90
        0
176
     1
 62
   178
420
        0
176
     1
 90
       50
176
     1
 90
        3
176
     1
 62
     5
420
      255
176
     1
290
     0
176
     1
 90
       50
176
     1
 90
       50
176
     1
 90
       50
176
     1
290
     0
176
     1
 90
       50
176
     1
 62
   256
176
     0
 40
1.0
176
     0
 90
        2
176
     1
  1
strokes_ogs.tif
176
     1
290
     0
176
     1
 40
1.0
176
     1
 40
1.0
176
     1
  0
VISUALSTYLE
  5
30
102
{ACAD_REACTORS
330
2A
102
}
330
2A
100
AcDbVisualStyle
  2
3dWireframe
 70
     5
177
     3
291
     0
 70
    58
 90
        0
176
     1
 90
        2
176
     1
 90
        0
176
     1
 90
        0
176
     1
 40
-0.6
176
     1
 40
-30.0
176
     1
 62
     7
420
 16777215
176
     1
 90
        1
176
     1
 90
        4
176
     1
 62
     7
176
     1
 62
   257
176
     1
 90
        1
176
     1
 90
        1
176
     1
 40
1.0
176
     1
 90
        0
176
     1
 62
   257
176
     1
 40
1.0
176
     1
 90
        1
176
     1
 90
        6
176
     1
 90
        2
176
     1
 62
     7
176
     1
 90
        5
176
     1
 90
        0
176
     1
 90
        0
176
     1
290
     0
176
     1
 90
        1
176
     1
 40
0.0
176
     1
 90
        0
176
     1
290
     0
176
     1
290
     1
176
     1
290
     1
176
     1
290
     0
176
     1
290
     0
176
     1
290
     0
176
     1
290
     0
176
     1
290
     0
176
     1
290
     0
176
     1
 90
       50
176
     1
 40
0.0
176
     1
 40
1.0
176
     1
 90
        0
176
     1
 62
   178
420
        0
176
     1
 90
       50
176
     1
 90
        3
176
     1
 62
     5
420
      255
176
     1
290
     0
176
     1
 90
       50
176
     1
 90
       50
176
     1
 90
       50
176
     1
290
     0
176
     1
 90
       50
176
     1
 62
   256
176
     0
 40
1.0
176
     0
 90
        2
176
     1
  1
strokes_ogs.tif
176
     1
290
     0
176
     1
 40
1.0
176
     1
 40
1.0
176
     1
  0
VISUALSTYLE
  5
32
102
{ACAD_REACTORS
330
2A
102
}
330
2A
100
AcDbVisualStyle
  2
Basic
 70
     7
177
     3
291
     1
 70
    58
 90
        1
176
     1
 90
        0
176
     1
 90
        1
176
     1
 90
        0
176
     1
 40
-0.6
176
     1
 40
-30.0
176
     1
 62
     7
420
 16777215
176
     1
 90
        0
176
     1
 90
        4
176
     1
 62
     7
176
     1
 62
   257
176
     1
 90
        1
176
     1
 90
        1
176
     1
 40
1.0
176
     1
 90
        8
176
     1
 62
     7
176
     1
 40
1.0
176
     1
 90
        1
176
     1
 90
        6
176
     1
 90
        2
176
     1
 62
     7
176
     1
 90
        5
176
     1
 90
        0
176
     1
 90
        0
176
     1
290
     0
176
     1
 90
        1
176
     1
 40
0.0
176
     1
 90
        0
176
     1
290
     0
176
     1
290
     1
176
     1
290
     1
176
     1
290
     0
176
     1
290
     0
176
     1
290
     0
176
     1
290
     0
176
     1
290
     0
176
     1
290
     0
176
     1
 90
       50
176
     1
 40
0.0
176
     1
 40
1.0
176
     1
 90
        0
176
     1
 62
   178
420
        0
176
     1
 90
       50
176
     1
 90
        3
176
     1
 62
     5
420
      255
176
     1
290
     0
176
     1
 90
       50
176
     1
 90
       50
176
     1
 90
       50
176
     1
290
     0
176
     1
 90
       50
176
     1
 62
   256
176
     0
 40
1.0
176
     0
 90
        2
176
     1
  1
strokes_ogs.tif
176
     1
290
     0
176
     1
 40
1.0
176
     1
 40
1.0
176
     1
  0
VISUALSTYLE
  5
36
102
{ACAD_REACTORS
330
2A
102
}
330
2A
100
AcDbVisualStyle
  2
Brighten
 70
    12
177
     3
291
     1
 70
    58
 90
        2
176
     1
 90
        2
176
     1
 90
        0
176
     1
 90
        0
176
     1
 40
-0.6
176
     1
 40
-30.0
176
     1
 62
     7
420
 16777215
176
     1
 90
        1
176
     1
 90
        4
176
     1
 62
     7
176
     1
 62
   257
176
     1
 90
        1
176
     1
 90
        1
176
     1
 40
1.0
176
     1
 90
        8
176
     1
 62
     7
176
     1
 40
1.0
176
     1
 90
        1
176
     1
 90
        6
176
     1
 90
        2
176
     1
 62
     7
176
     1
 90
        5
176
     1
 90
        0
176
     1
 90
        0
176
     1
290
     0
176
     1
 90
        1
176
     1
 40
50.0
176
     1
 90
        0
176
     1
290
     0
176
     1
290
     1
176
     1
290
     1
176
     1
290
     0
176
     1
290
     0
176
     1
290
     0
176
     1
290
     0
176
     1
290
     0
176
     1
290
     0
176
     1
 90
       50
176
     1
 40
0.0
176
     1
 40
1.0
176
     1
 90
        0
176
     1
 62
   178
420
        0
176
     1
 90
       50
176
     1
 90
        3
176
     1
 62
     5
420
      255
176
     1
290
     0
176
     1
 90
       50
176
     1
 90
       50
176
     1
 90
       50
176
     1
290
     0
176
     1
 90
       50
176
     1
 62
   256
176
     0
 40
1.0
176
     0
 90
        2
176
     1
  1
strokes_ogs.tif
176
     1
290
     0
176
     1
 40
1.0
176
     1
 40
1.0
176
     1
  0
VISUALSTYLE
  5
3A
102
{ACAD_REACTORS
330
2A
102
}
330
2A
100
AcDbVisualStyle
  2
ColorChange
 70
    16
177
     3
291
     1
 70
    58
 90
        2
176
     1
 90
        2
176
     1
 90
        3
176
     1
 90
        0
176
     1
 40
-0.6
176
     1
 40
-30.0
176
     1
 62
     8
420
  8421504
176
     1
 90
        1
176
     1
 90
        4
176
     1
 62
     7
176
     1
 62
   257
176
     1
 90
        1
176
     1
 90
        1
176
     1
 40
1.0
176
     1
 90
        8
176
     1
 62
     8
420
  8421504
176
     1
 40
1.0
176
     1
 90
        1
176
     1
 90
        6
176
     1
 90
        2
176
     1
 62
     7
176
     1
 90
        5
176
     1
 90
        0
176
     1
 90
        0
176
     1
290
     0
176
     1
 90
        1
176
     1
 40
0.0
176
     1
 90
        0
176
     1
290
     0
176
     1
290
     1
176
     1
290
     1
176
     1
290
     0
176
     1
290
     0
176
     1
290
     0
176
     1
290
     0
176
     1
290
     0
176
     1
290
     0
176
     1
 90
       50
176
     1
 40
0.0
176
     1
 40
1.0
176
     1
 90
        0
176
     1
 62
   178
420
        0
176
     1
 90
       50
176
     1
 90
        3
176
     1
 62
     5
420
      255
176
     1
290
     0
176
     1
 90
       50
176
     1
 90
       50
176
     1
 90
       50
176
     1
290
     0
176
     1
 90
       50
176
     1
 62
   256
176
     0
 40
1.0
176
     0
 90
        2
176
     1
  1
strokes_ogs.tif
176
     1
290
     0
176
     1
 40
1.0
176
     1
 40
1.0
176
     1
  0
VISUALSTYLE
  5
34
102
{ACAD_REACTORS
330
2A
102
}
330
2A
100
AcDbVisualStyle
  2
Conceptual
 70
     9
177
     3
291
     0
 70
    58
 90
        3
176
     1
 90
        2
176
     1
 90
        0
176
     1
 90
        0
176
     1
 40
-0.6
176
     1
 40
-30.0
176
     1
 62
     7
420
 16777215
176
     1
 90
        2
176
     1
 90
        2
176
     1
 62
     7
176
     1
 62
   257
176
     1
 90
        1
176
     1
 90
        1
176
     1
 40
40.0
176
     1
 90
        8
176
     1
 62
     7
176
     1
 40
1.0
176
     1
 90
        1
176
     1
 90
        6
176
     1
 90
        2
176
     1
 62
     7
176
     1
 90
        3
176
     1
 90
        0
176
     1
 90
        0
176
     1
290
     0
176
     1
 90
        1
176
     1
 40
0.0
176
     1
 90
        0
176
     1
290
     0
176
     1
290
     1
176
     1
290
     1
176
     1
290
     0
176
     1
290
     0
176
     1
290
     0
176
     1
290
     0
176
     1
290
     0
176
     1
290
     0
176
     1
 90
       50
176
     1
 40
0.0
176
     1
 40
1.0
176
     1
 90
        0
176
     1
 62
   178
420
        0
176
     1
 90
       50
176
     1
 90
        3
176
     1
 62
     5
420
      255
176
     1
290
     0
176
     1
 90
       50
176
     1
 90
       50
176
     1
 90
       50
176
     1
290
     0
176
     1
 90
       50
176
     1
 62
   256
176
     0
 40
1.0
176
     0
 90
        2
176
     1
  1
strokes_ogs.tif
176
     1
290
     0
176
     1
 40
1.0
176
     1
 40
1.0
176
     1
  0
VISUALSTYLE
  5
35
102
{ACAD_REACTORS
330
2A
102
}
330
2A
100
AcDbVisualStyle
  2
Dim
 70
    11
177
     3
291
     1
 70
    58
 90
        2
176
     1
 90
        2
176
     1
 90
        0
176
     1
 90
        0
176
     1
 40
-0.6
176
     1
 40
-30.0
176
     1
 62
     7
420
 16777215
176
     1
 90
        1
176
     1
 90
        4
176
     1
 62
     7
176
     1
 62
   257
176
     1
 90
        1
176
     1
 90
        1
176
     1
 40
1.0
176
     1
 90
        8
176
     1
 62
     7
176
     1
 40
1.0
176
     1
 90
        1
176
     1
 90
        6
176
     1
 90
        2
176
     1
 62
     7
176
     1
 90
        5
176
     1
 90
        0
176
     1
 90
        0
176
     1
290
     0
176
     1
 90
        1
176
     1
 40
-50.0
176
     1
 90
        0
176
     1
290
     0
176
     1
290
     1
176
     1
290
     1
176
     1
290
     0
176
     1
290
     0
176
     1
290
     0
176
     1
290
     0
176
     1
290
     0
176
     1
290
     0
176
     1
 90
       50
176
     1
 40
0.0
176
     1
 40
1.0
176
     1
 90
        0
176
     1
 62
   178
420
        0
176
     1
 90
       50
176
     1
 90
        3
176
     1
 62
     5
420
      255
176
     1
290
     0
176
     1
 90
       50
176
     1
 90
       50
176
     1
 90
       50
176
     1
290
     0
176
     1
 90
       50
176
     1
 62
   256
176
     0
 40
1.0
176
     0
 90
        2
176
     1
  1
strokes_ogs.tif
176
     1
290
     0
176
     1
 40
1.0
176
     1
 40
1.0
176
     1
  0
VISUALSTYLE
  5
7A
102
{ACAD_REACTORS
330
2A
102
}
330
2A
100
AcDbVisualStyle
  2
EdgeColorOff
 70
    22
177
     3
291
     1
 70
    58
 90
        2
176
     0
 90
        2
176
     0
 90
        0
176
     0
 90
        0
176
     0
 40
0.6
176
     0
 40
30.0
176
     0
 62
     7
420
 16777215
176
     0
 90
        1
176
     0
 90
        4
176
     0
 62
     7
176
     0
 62
   257
176
     0
 90
        1
176
     0
 90
        1
176
     0
 40
1.0
176
     0
 90
        8
176
     2
 62
     7
176
     0
 40
1.0
176
     0
 90
        1
176
     0
 90
        6
176
     0
 90
        2
176
     0
 62
     7
176
     0
 90
        5
176
     0
 90
        0
176
     0
 90
        0
176
     0
290
     0
176
     0
 90
        1
176
     0
 40
0.0
176
     0
 90
        0
176
     0
290
     0
176
     0
290
     1
176
     0
290
     1
176
     0
290
     0
176
     0
290
     0
176
     0
290
     0
176
     0
290
     0
176
     0
290
     0
176
     0
290
     0
176
     0
 90
       50
176
     0
 40
0.0
176
     0
 40
1.0
176
     0
 90
        0
176
     0
 62
   178
420
        0
176
     0
 90
       50
176
     0
 90
        3
176
     0
 62
     5
420
      255
176
     0
290
     0
176
     0
 90
       50
176
     0
 90
       50
176
     0
 90
       50
176
     0
290
     0
176
     0
 90
       50
176
     0
 62
   256
176
     0
 40
1.0
176
     0
 90
        2
176
     0
  1
strokes_ogs.tif
176
     0
290
     0
176
     0
 40
1.0
176
     0
 40
1.0
176
     0
  0
VISUALSTYLE
  5
39
102
{ACAD_REACTORS
330
2A
102
}
330
2A
100
AcDbVisualStyle
  2
Facepattern
 70
    15
177
     3
291
     1
 70
    58
 90
        2
176
     1
 90
        2
176
     1
 90
        0
176
     1
 90
        0
176
     1
 40
-0.6
176
     1
 40
-30.0
176
     1
 62
     7
420
 16777215
176
     1
 90
        1
176
     1
 90
        4
176
     1
 62
     7
176
     1
 62
   257
176
     1
 90
        1
176
     1
 90
        1
176
     1
 40
1.0
176
     1
 90
        8
176
     1
 62
     7
176
     1
 40
1.0
176
     1
 90
        1
176
     1
 90
        6
176
     1
 90
        2
176
     1
 62
     7
176
     1
 90
        5
176
     1
 90
        0
176
     1
 90
        0
176
     1
290
     0
176
     1
 90
        1
176
     1
 40
0.0
176
     1
 90
        0
176
     1
290
     0
176
     1
290
     1
176
     1
290
     1
176
     1
290
     0
176
     1
290
     0
176
     1
290
     0
176
     1
290
     0
176
     1
290
     0
176
     1
290
     0
176
     1
 90
       50
176
     1
 40
0.0
176
     1
 40
1.0
176
     1
 90
        0
176
     1
 62
   178
420
        0
176
     1
 90
       50
176
     1
 90
        3
176
     1
 62
     5
420
      255
176
     1
290
     0
176
     1
 90
       50
176
     1
 90
       50
176
     1
 90
       50
176
     1
290
     0
176
     1
 90
       50
176
     1
 62
   256
176
     0
 40
1.0
176
     0
 90
        2
176
     1
  1
strokes_ogs.tif
176
     1
290
     0
176
     1
 40
1.0
176
     1
 40
1.0
176
     1
  0
VISUALSTYLE
  5
2B
102
{ACAD_REACTORS
330
2A
102
}
330
2A
100
AcDbVisualStyle
  2
Flat
 70
     0
177
     3
291
     1
 70
    58
 90
        2
176
     1
 90
        1
176
     1
 90
        1
176
     1
 90
        2
176
     1
 40
-0.6
176
     1
 40
30.0
176
     1
 62
     7
420
 16777215
176
     1
 90
        0
176
     1
 90
        4
176
     1
 62
     7
176
     1
 62
   257
176
     1
 90
        1
176
     1
 90
        1
176
     1
 40
1.0
176
     1
 90
        8
176
     1
 62
     7
176
     1
 40
1.0
176
     1
 90
        1
176
     1
 90
        6
176
     1
 90
        2
176
     1
 62
     7
176
     1
 90
        5
176
     1
 90
        0
176
     1
 90
        0
176
     1
290
     0
176
     1
 90
       13
176
     1
 40
0.0
176
     1
 90
        0
176
     1
290
     0
176
     1
290
     1
176
     1
290
     1
176
     1
290
     0
176
     1
290
     0
176
     1
290
     0
176
     1
290
     0
176
     1
290
     0
176
     1
290
     0
176
     1
 90
       50
176
     1
 40
0.0
176
     1
 40
1.0
176
     1
 90
        0
176
     1
 62
   178
420
        0
176
     1
 90
       50
176
     1
 90
        3
176
     1
 62
     5
420
      255
176
     1
290
     0
176
     1
 90
       50
176
     1
 90
       50
176
     1
 90
       50
176
     1
290
     0
176
     1
 90
       50
176
     1
 62
   256
176
     0
 40
1.0
176
     0
 90
        2
176
     1
  1
strokes_ogs.tif
176
     1
290
     0
176
     1
 40
1.0
176
     1
 40
1.0
176
     1
  0
VISUALSTYLE
  5
2C
102
{ACAD_REACTORS
330
2A
102
}
330
2A
100
AcDbVisualStyle
  2
FlatWithEdges
 70
     1
177
     3
291
     1
 70
    58
 90
        2
176
     1
 90
        1
176
     1
 90
        1
176
     1
 90
        2
176
     1
 40
-0.6
176
     1
 40
30.0
176
     1
 62
     7
420
 16777215
176
     1
 90
        1
176
     1
 90
        4
176
     1
 62
     7
176
     1
 62
   257
176
     1
 90
        1
176
     1
 90
        1
176
     1
 40
1.0
176
     1
 90
        0
176
     1
 62
   257
176
     1
 40
1.0
176
     1
 90
        1
176
     1
 90
        6
176
     1
 90
        2
176
     1
 62
     7
176
     1
 90
        5
176
     1
 90
        0
176
     1
 90
        0
176
     1
290
     0
176
     1
 90
       13
176
     1
 40
0.0
176
     1
 90
        0
176
     1
290
     0
176
     1
290
     1
176
     1
290
     1
176
     1
290
     0
176
     1
290
     0
176
     1
290
     0
176
     1
290
     0
176
     1
290
     0
176
     1
290
     0
176
     1
 90
       50
176
     1
 40
0.0
176
     1
 40
1.0
176
     1
 90
        0
176
     1
 62
   178
420
        0
176
     1
 90
       50
176
     1
 90
        3
176
     1
 62
     5
420
      255
176
     1
290
     0
176
     1
 90
       50
176
     1
 90
       50
176
     1
 90
       50
176
     1
290
     0
176
     1
 90
       50
176
     1
 62
   256
176
     0
 40
1.0
176
     0
 90
        2
176
     1
  1
strokes_ogs.tif
176
     1
290
     0
176
     1
 40
1.0
176
     1
 40
1.0
176
     1
  0
VISUALSTYLE
  5
2D
102
{ACAD_REACTORS
330
2A
102
}
330
2A
100
AcDbVisualStyle
  2
Gouraud
 70
     2
177
     3
291
     1
 70
    58
 90
        2
176
     1
 90
        2
176
     1
 90
        1
176
     1
 90
        2
176
     1
 40
-0.6
176
     1
 40
30.0
176
     1
 62
     7
420
 16777215
176
     1
 90
        0
176
     1
 90
        4
176
     1
 62
     7
176
     1
 62
   257
176
     1
 90
        1
176
     1
 90
        1
176
     1
 40
1.0
176
     1
 90
        0
176
     1
 62
     7
176
     1
 40
1.0
176
     1
 90
        1
176
     1
 90
        6
176
     1
 90
        2
176
     1
 62
     7
176
     1
 90
        5
176
     1
 90
        0
176
     1
 90
        0
176
     1
290
     0
176
     1
 90
       13
176
     1
 40
0.0
176
     1
 90
        0
176
     1
290
     0
176
     1
290
     1
176
     1
290
     1
176
     1
290
     0
176
     1
290
     0
176
     1
290
     0
176
     1
290
     0
176
     1
290
     0
176
     1
290
     0
176
     1
 90
       50
176
     1
 40
0.0
176
     1
 40
1.0
176
     1
 90
        0
176
     1
 62
   178
420
        0
176
     1
 90
       50
176
     1
 90
        3
176
     1
 62
     5
420
      255
176
     1
290
     0
176
     1
 90
       50
176
     1
 90
       50
176
     1
 90
       50
176
     1
290
     0
176
     1
 90
       50
176
     1
 62
   256
176
     0
 40
1.0
176
     0
 90
        2
176
     1
  1
strokes_ogs.tif
176
     1
290
     0
176
     1
 40
1.0
176
     1
 40
1.0
176
     1
  0
VISUALSTYLE
  5
2E
102
{ACAD_REACTORS
330
2A
102
}
330
2A
100
AcDbVisualStyle
  2
GouraudWithEdges
 70
     3
177
     3
291
     1
 70
    58
 90
        2
176
     1
 90
        2
176
     1
 90
        1
176
     1
 90
        2
176
     1
 40
-0.6
176
     1
 40
30.0
176
     1
 62
     7
420
 16777215
176
     1
 90
        1
176
     1
 90
        4
176
     1
 62
     7
176
     1
 62
   257
176
     1
 90
        1
176
     1
 90
        1
176
     1
 40
1.0
176
     1
 90
        0
176
     1
 62
   257
176
     1
 40
1.0
176
     1
 90
        1
176
     1
 90
        6
176
     1
 90
        2
176
     1
 62
     7
176
     1
 90
        5
176
     1
 90
        0
176
     1
 90
        0
176
     1
290
     0
176
     1
 90
       13
176
     1
 40
0.0
176
     1
 90
        0
176
     1
290
     0
176
     1
290
     1
176
     1
290
     1
176
     1
290
     0
176
     1
290
     0
176
     1
290
     0
176
     1
290
     0
176
     1
290
     0
176
     1
290
     0
176
     1
 90
       50
176
     1
 40
0.0
176
     1
 40
1.0
176
     1
 90
        0
176
     1
 62
   178
420
        0
176
     1
 90
       50
176
     1
 90
        3
176
     1
 62
     5
420
      255
176
     1
290
     0
176
     1
 90
       50
176
     1
 90
       50
176
     1
 90
       50
176
     1
290
     0
176
     1
 90
       50
176
     1
 62
   256
176
     0
 40
1.0
176
     0
 90
        2
176
     1
  1
strokes_ogs.tif
176
     1
290
     0
176
     1
 40
1.0
176
     1
 40
1.0
176
     1
  0
VISUALSTYLE
  5
77
102
{ACAD_REACTORS
330
2A
102
}
330
2A
100
AcDbVisualStyle
  2
Hidden
 70
     6
177
     3
291
     0
 70
    58
 90
        1
176
     1
 90
        2
176
     1
 90
        2
176
     1
 90
        0
176
     1
 40
0.6
176
     1
 40
30.0
176
     1
 62
     7
420
 16777215
176
     1
 90
        2
176
     1
 90
        2
176
     1
 62
     7
176
     1
 62
   257
176
     1
 90
        2
176
     1
 90
        1
176
     1
 40
40.0
176
     1
 90
        0
176
     1
 62
   257
176
     1
 40
1.0
176
     1
 90
        1
176
     1
 90
        6
176
     1
 90
        2
176
     1
 62
     7
176
     1
 90
        3
176
     1
 90
        0
176
     1
 90
        0
176
     1
290
     0
176
     1
 90
        1
176
     1
 40
0.0
176
     1
 90
        0
176
     1
290
     0
176
     1
290
     1
176
     1
290
     1
176
     1
290
     0
176
     1
290
     0
176
     1
290
     0
176
     1
290
     0
176
     1
290
     0
176
     1
290
     0
176
     1
 90
       50
176
     1
 40
0.0
176
     1
 40
1.0
176
     1
 90
        0
176
     1
 62
   178
420
        0
176
     1
 90
       50
176
     1
 90
        3
176
     1
 62
     5
420
      255
176
     1
290
     0
176
     1
 90
       50
176
     1
 90
       50
176
     1
 90
       50
176
     1
290
     0
176
     1
 90
       50
176
     1
 62
   256
176
     0
 40
1.0
176
     0
 90
        2
176
     1
  1
strokes_ogs.tif
176
     1
290
     0
176
     1
 40
1.0
176
     1
 40
1.0
176
     1
  0
VISUALSTYLE
  5
78
102
{ACAD_REACTORS
330
2A
102
}
330
2A
100
AcDbVisualStyle
  2
JitterOff
 70
    20
177
     3
291
     1
 70
    58
 90
        2
176
     0
 90
        2
176
     0
 90
        0
176
     0
 90
        0
176
     0
 40
0.6
176
     0
 40
30.0
176
     0
 62
     7
420
 16777215
176
     0
 90
        1
176
     0
 90
        4
176
     0
 62
     7
176
     0
 62
   257
176
     0
 90
        1
176
     0
 90
        1
176
     0
 40
1.0
176
     0
 90
       10
176
     2
 62
     7
176
     0
 40
1.0
176
     0
 90
        1
176
     0
 90
        6
176
     0
 90
        2
176
     0
 62
     7
176
     0
 90
        5
176
     0
 90
        0
176
     0
 90
        0
176
     0
290
     0
176
     0
 90
        1
176
     0
 40
0.0
176
     0
 90
        0
176
     0
290
     0
176
     0
290
     1
176
     0
290
     1
176
     0
290
     0
176
     0
290
     0
176
     0
290
     0
176
     0
290
     0
176
     0
290
     0
176
     0
290
     0
176
     0
 90
       50
176
     0
 40
0.0
176
     0
 40
1.0
176
     0
 90
        0
176
     0
 62
   178
420
        0
176
     0
 90
       50
176
     0
 90
        3
176
     0
 62
     5
420
      255
176
     0
290
     0
176
     0
 90
       50
176
     0
 90
       50
176
     0
 90
       50
176
     0
290
     0
176
     0
 90
       50
176
     0
 62
   256
176
     0
 40
1.0
176
     0
 90
        2
176
     0
  1
strokes_ogs.tif
176
     0
290
     0
176
     0
 40
1.0
176
     0
 40
1.0
176
     0
  0
VISUALSTYLE
  5
38
102
{ACAD_REACTORS
330
2A
102
}
330
2A
100
AcDbVisualStyle
  2
Linepattern
 70
    14
177
     3
291
     1
 70
    58
 90
        2
176
     1
 90
        2
176
     1
 90
        0
176
     1
 90
        0
176
     1
 40
-0.6
176
     1
 40
-30.0
176
     1
 62
     7
420
 16777215
176
     1
 90
        1
176
     1
 90
        4
176
     1
 62
     7
176
     1
 62
   257
176
     1
 90
        7
176
     1
 90
        7
176
     1
 40
1.0
176
     1
 90
        8
176
     1
 62
     7
176
     1
 40
1.0
176
     1
 90
        1
176
     1
 90
        6
176
     1
 90
        2
176
     1
 62
     7
176
     1
 90
        5
176
     1
 90
        0
176
     1
 90
        0
176
     1
290
     0
176
     1
 90
        1
176
     1
 40
0.0
176
     1
 90
        0
176
     1
290
     0
176
     1
290
     1
176
     1
290
     1
176
     1
290
     0
176
     1
290
     0
176
     1
290
     0
176
     1
290
     0
176
     1
290
     0
176
     1
290
     0
176
     1
 90
       50
176
     1
 40
0.0
176
     1
 40
1.0
176
     1
 90
        0
176
     1
 62
   178
420
        0
176
     1
 90
       50
176
     1
 90
        3
176
     1
 62
     5
420
      255
176
     1
290
     0
176
     1
 90
       50
176
     1
 90
       50
176
     1
 90
       50
176
     1
290
     0
176
     1
 90
       50
176
     1
 62
   256
176
     0
 40
1.0
176
     0
 90
        2
176
     1
  1
strokes_ogs.tif
176
     1
290
     0
176
     1
 40
1.0
176
     1
 40
1.0
176
     1
  0
VISUALSTYLE
  5
79
102
{ACAD_REACTORS
330
2A
102
}
330
2A
100
AcDbVisualStyle
  2
OverhangOff
 70
    21
177
     3
291
     1
 70
    58
 90
        2
176
     0
 90
        2
176
     0
 90
        0
176
     0
 90
        0
176
     0
 40
0.6
176
     0
 40
30.0
176
     0
 62
     7
420
 16777215
176
     0
 90
        1
176
     0
 90
        4
176
     0
 62
     7
176
     0
 62
   257
176
     0
 90
        1
176
     0
 90
        1
176
     0
 40
1.0
176
     0
 90
        9
176
     2
 62
     7
176
     0
 40
1.0
176
     0
 90
        1
176
     0
 90
        6
176
     0
 90
        2
176
     0
 62
     7
176
     0
 90
        5
176
     0
 90
        0
176
     0
 90
        0
176
     0
290
     0
176
     0
 90
        1
176
     0
 40
0.0
176
     0
 90
        0
176
     0
290
     0
176
     0
290
     1
176
     0
290
     1
176
     0
290
     0
176
     0
290
     0
176
     0
290
     0
176
     0
290
     0
176
     0
290
     0
176
     0
290
     0
176
     0
 90
       50
176
     0
 40
0.0
176
     0
 40
1.0
176
     0
 90
        0
176
     0
 62
   178
420
        0
176
     0
 90
       50
176
     0
 90
        3
176
     0
 62
     5
420
      255
176
     0
290
     0
176
     0
 90
       50
176
     0
 90
       50
176
     0
 90
       50
176
     0
290
     0
176
     0
 90
       50
176
     0
 62
   256
176
     0
 40
1.0
176
     0
 90
        2
176
     0
  1
strokes_ogs.tif
176
     0
290
     0
176
     0
 40
1.0
176
     0
 40
1.0
176
     0
  0
VISUALSTYLE
  5
33
102
{ACAD_REACTORS
330
2A
102
}
330
2A
100
AcDbVisualStyle
  2
Realistic
 70
     8
177
     3
291
     0
 70
    58
 90
        2
176
     1
 90
        2
176
     1
 90
        0
176
     1
 90
        0
176
     1
 40
-0.6
176
     1
 40
-30.0
176
     1
 62
     7
420
 16777215
176
     1
 90
        1
176
     1
 90
        0
176
     1
 62
     7
176
     1
 62
   257
176
     1
 90
        1
176
     1
 90
        1
176
     1
 40
1.0
176
     1
 90
        8
176
     1
 62
     8
420
  7895160
176
     1
 40
1.0
176
     1
 90
        1
176
     1
 90
        6
176
     1
 90
        2
176
     1
 62
     7
176
     1
 90
        5
176
     1
 90
        0
176
     1
 90
        0
176
     1
290
     0
176
     1
 90
       13
176
     1
 40
0.0
176
     1
 90
        0
176
     1
290
     0
176
     1
290
     1
176
     1
290
     1
176
     1
290
     0
176
     1
290
     0
176
     1
290
     0
176
     1
290
     0
176
     1
290
     0
176
     1
290
     0
176
     1
 90
       50
176
     1
 40
0.0
176
     1
 40
1.0
176
     1
 90
        0
176
     1
 62
   178
420
        0
176
     1
 90
       50
176
     1
 90
        3
176
     1
 62
     5
420
      255
176
     1
290
     0
176
     1
 90
       50
176
     1
 90
       50
176
     1
 90
       50
176
     1
290
     0
176
     1
 90
       50
176
     1
 62
   256
176
     0
 40
1.0
176
     0
 90
        2
176
     1
  1
strokes_ogs.tif
176
     1
290
     0
176
     1
 40
1.0
176
     1
 40
1.0
176
     1
  0
VISUALSTYLE
  5
7F
102
{ACAD_REACTORS
330
2A
102
}
330
2A
100
AcDbVisualStyle
  2
Shaded
 70
    27
177
     3
291
     0
 70
    58
 90
        2
176
     1
 90
        2
176
     1
 90
        1
176
     1
 90
        2
176
     1
 40
0.6
176
     1
 40
30.0
176
     1
 62
     7
420
 16777215
176
     1
 90
        0
176
     1
 90
        4
176
     1
 62
     7
176
     1
 62
   257
176
     1
 90
        1
176
     1
 90
        1
176
     1
 40
1.0
176
     1
 90
        8
176
     1
 62
   257
176
     1
 40
1.0
176
     1
 90
        1
176
     1
 90
        6
176
     1
 90
        2
176
     1
 62
     8
420
  7895160
176
     1
 90
        3
176
     1
 90
        0
176
     1
 90
        0
176
     1
290
     0
176
     1
 90
        5
176
     1
 40
0.0
176
     1
 90
        0
176
     1
290
     0
176
     1
290
     1
176
     1
290
     1
176
     1
290
     0
176
     1
290
     0
176
     1
290
     0
176
     1
290
     0
176
     1
290
     0
176
     1
290
     0
176
     1
 90
       50
176
     1
 40
0.0
176
     1
 40
1.0
176
     1
 90
        0
176
     1
 62
   178
420
        0
176
     1
 90
       50
176
     1
 90
        3
176
     1
 62
     5
420
      255
176
     1
290
     0
176
     1
 90
       50
176
     1
 90
       50
176
     1
 90
       50
176
     1
290
     0
176
     1
 90
       50
176
     1
 62
   256
176
     0
 40
1.0
176
     0
 90
        2
176
     1
  1
strokes_ogs.tif
176
     1
290
     0
176
     1
 40
1.0
176
     1
 40
1.0
176
     1
  0
VISUALSTYLE
  5
7E
102
{ACAD_REACTORS
330
2A
102
}
330
2A
100
AcDbVisualStyle
  2
Shaded with edges
 70
    26
177
     3
291
     0
 70
    58
 90
        2
176
     1
 90
        2
176
     1
 90
        1
176
     1
 90
        2
176
     1
 40
0.6
176
     1
 40
30.0
176
     1
 62
     7
420
 16777215
176
     1
 90
        1
176
     1
 90
       10
176
     1
 62
     7
176
     1
 62
   257
176
     1
 90
        2
176
     1
 90
        1
176
     1
 40
1.0
176
     1
 90
        8
176
     1
 62
   257
176
     1
 40
1.0
176
     1
 90
        1
176
     1
 90
        6
176
     1
 90
        2
176
     1
 62
     7
176
     1
 90
        3
176
     1
 90
        0
176
     1
 90
        0
176
     1
290
     0
176
     1
 90
        5
176
     1
 40
0.0
176
     1
 90
        0
176
     1
290
     0
176
     1
290
     1
176
     1
290
     1
176
     1
290
     0
176
     1
290
     0
176
     1
290
     0
176
     1
290
     0
176
     1
290
     0
176
     1
290
     0
176
     1
 90
       50
176
     1
 40
0.0
176
     1
 40
1.0
176
     1
 90
        0
176
     1
 62
   178
420
        0
176
     1
 90
       50
176
     1
 90
        3
176
     1
 62
     5
420
      255
176
     1
290
     0
176
     1
 90
       50
176
     1
 90
       50
176
     1
 90
       50
176
     1
290
     0
176
     1
 90
       50
176
     1
 62
   256
176
     0
 40
1.0
176
     0
 90
        2
176
     1
  1
strokes_ogs.tif
176
     1
290
     0
176
     1
 40
1.0
176
     1
 40
1.0
176
     1
  0
VISUALSTYLE
  5
7B
102
{ACAD_REACTORS
330
2A
102
}
330
2A
100
AcDbVisualStyle
  2
Shades of Gray
 70
    23
177
     3
291
     0
 70
    58
 90
        2
176
     1
 90
        2
176
     1
 90
        3
176
     1
 90
        0
176
     1
 40
0.6
176
     1
 40
30.0
176
     1
 62
     7
420
 16777215
176
     1
 90
        2
176
     1
 90
        2
176
     1
 62
     7
176
     1
 62
     7
176
     1
 90
        1
176
     1
 90
        1
176
     1
 40
40.0
176
     1
 90
        8
176
     1
 62
     7
176
     1
 40
1.0
176
     1
 90
        1
176
     1
 90
        6
176
     1
 90
        2
176
     1
 62
     7
176
     1
 90
        3
176
     1
 90
        0
176
     1
 90
        0
176
     1
290
     0
176
     1
 90
        1
176
     1
 40
0.0
176
     1
 90
        0
176
     1
290
     0
176
     1
290
     1
176
     1
290
     1
176
     1
290
     0
176
     1
290
     0
176
     1
290
     0
176
     1
290
     0
176
     1
290
     0
176
     1
290
     0
176
     1
 90
       50
176
     1
 40
0.0
176
     1
 40
1.0
176
     1
 90
        0
176
     1
 62
   178
420
        0
176
     1
 90
       50
176
     1
 90
        3
176
     1
 62
     5
420
      255
176
     1
290
     0
176
     1
 90
       50
176
     1
 90
       50
176
     1
 90
       50
176
     1
290
     0
176
     1
 90
       50
176
     1
 62
   256
176
     0
 40
1.0
176
     0
 90
        2
176
     1
  1
strokes_ogs.tif
176
     1
290
     0
176
     1
 40
1.0
176
     1
 40
1.0
176
     1
  0
VISUALSTYLE
  5
7C
102
{ACAD_REACTORS
330
2A
102
}
330
2A
100
AcDbVisualStyle
  2
Sketchy
 70
    24
177
     3
291
     0
 70
    58
 90
        1
176
     1
 90
        2
176
     1
 90
        2
176
     1
 90
        0
176
     1
 40
0.6
176
     1
 40
30.0
176
     1
 62
     7
420
 16777215
176
     1
 90
        2
176
     1
 90
        2
176
     1
 62
     7
176
     1
 62
     7
176
     1
 90
        1
176
     1
 90
        1
176
     1
 40
40.0
176
     1
 90
       11
176
     1
 62
     7
176
     1
 40
1.0
176
     1
 90
        1
176
     1
 90
        6
176
     1
 90
        2
176
     1
 62
     7
176
     1
 90
        6
176
     1
 90
        0
176
     1
 90
        0
176
     1
290
     0
176
     1
 90
        1
176
     1
 40
0.0
176
     1
 90
        0
176
     1
290
     0
176
     1
290
     1
176
     1
290
     1
176
     1
290
     0
176
     1
290
     0
176
     1
290
     0
176
     1
290
     0
176
     1
290
     0
176
     1
290
     0
176
     1
 90
       50
176
     1
 40
0.0
176
     1
 40
1.0
176
     1
 90
        0
176
     1
 62
   178
420
        0
176
     1
 90
       50
176
     1
 90
        3
176
     1
 62
     5
420
      255
176
     1
290
     0
176
     1
 90
       50
176
     1
 90
       50
176
     1
 90
       50
176
     1
290
     0
176
     1
 90
       50
176
     1
 62
   256
176
     0
 40
1.0
176
     0
 90
        2
176
     1
  1
strokes_ogs.tif
176
     1
290
     0
176
     1
 40
1.0
176
     1
 40
1.0
176
     1
  0
VISUALSTYLE
  5
37
102
{ACAD_REACTORS
330
2A
102
}
330
2A
100
AcDbVisualStyle
  2
Thicken
 70
    13
177
     3
291
     1
 70
    58
 90
        2
176
     1
 90
        2
176
     1
 90
        0
176
     1
 90
        0
176
     1
 40
-0.6
176
     1
 40
-30.0
176
     1
 62
     7
420
 16777215
176
     1
 90
        1
176
     1
 90
        4
176
     1
 62
     7
176
     1
 62
   257
176
     1
 90
        1
176
     1
 90
        1
176
     1
 40
1.0
176
     1
 90
       12
176
     1
 62
     7
176
     1
 40
1.0
176
     1
 90
        1
176
     1
 90
        6
176
     1
 90
        2
176
     1
 62
     7
176
     1
 90
        5
176
     1
 90
        0
176
     1
 90
        0
176
     1
290
     0
176
     1
 90
        1
176
     1
 40
0.0
176
     1
 90
        0
176
     1
290
     0
176
     1
290
     1
176
     1
290
     1
176
     1
290
     0
176
     1
290
     0
176
     1
290
     0
176
     1
290
     0
176
     1
290
     0
176
     1
290
     0
176
     1
 90
       50
176
     1
 40
0.0
176
     1
 40
1.0
176
     1
 90
        0
176
     1
 62
   178
420
        0
176
     1
 90
       50
176
     1
 90
        3
176
     1
 62
     5
420
      255
176
     1
290
     0
176
     1
 90
       50
176
     1
 90
       50
176
     1
 90
       50
176
     1
290
     0
176
     1
 90
       50
176
     1
 62
   256
176
     0
 40
1.0
176
     0
 90
        2
176
     1
  1
strokes_ogs.tif
176
     1
290
     0
176
     1
 40
1.0
176
     1
 40
1.0
176
     1
  0
VISUALSTYLE
  5
76
102
{ACAD_REACTORS
330
2A
102
}
330
2A
100
AcDbVisualStyle
  2
Wireframe
 70
     5
177
     3
291
     0
 70
    58
 90
        0
176
     1
 90
        2
176
     1
 90
        0
176
     1
 90
        0
176
     1
 40
0.6
176
     1
 40
30.0
176
     1
 62
     7
420
 16777215
176
     1
 90
        1
176
     1
 90
        4
176
     1
 62
     7
176
     1
 62
   257
176
     1
 90
        1
176
     1
 90
        1
176
     1
 40
1.0
176
     1
 90
        0
176
     1
 62
   257
176
     1
 40
1.0
176
     1
 90
        1
176
     1
 90
        6
176
     1
 90
        2
176
     1
 62
     7
176
     1
 90
        3
176
     1
 90
        0
176
     1
 90
        0
176
     1
290
     0
176
     1
 90
        1
176
     1
 40
0.0
176
     1
 90
        0
176
     1
290
     0
176
     1
290
     1
176
     1
290
     1
176
     1
290
     0
176
     1
290
     0
176
     1
290
     0
176
     1
290
     0
176
     1
290
     0
176
     1
290
     0
176
     1
 90
       50
176
     1
 40
0.0
176
     1
 40
1.0
176
     1
 90
        0
176
     1
 62
   178
420
        0
176
     1
 90
       50
176
     1
 90
        3
176
     1
 62
     5
420
      255
176
     1
290
     0
176
     1
 90
       50
176
     1
 90
       50
176
     1
 90
       50
176
     1
290
     0
176
     1
 90
       50
176
     1
 62
   256
176
     0
 40
1.0
176
     0
 90
        2
176
     1
  1
strokes_ogs.tif
176
     1
290
     0
176
     1
 40
1.0
176
     1
 40
1.0
176
     1
  0
VISUALSTYLE
  5
7D
102
{ACAD_REACTORS
330
2A
102
}
330
2A
100
AcDbVisualStyle
  2
X-Ray
 70
    25
177
     3
291
     0
 70
    58
 90
        2
176
     1
 90
        2
176
     1
 90
        1
176
     1
 90
        1
176
     1
 40
0.5
176
     1
 40
30.0
176
     1
 62
     7
420
 16777215
176
     1
 90
        1
176
     1
 90
        0
176
     1
 62
     7
176
     1
 62
   257
176
     1
 90
        1
176
     1
 90
        1
176
     1
 40
1.0
176
     1
 90
        8
176
     1
 62
     7
176
     1
 40
1.0
176
     1
 90
        1
176
     1
 90
        6
176
     1
 90
        2
176
     1
 62
     7
176
     1
 90
        3
176
     1
 90
        0
176
     1
 90
        0
176
     1
290
     0
176
     1
 90
       13
176
     1
 40
0.0
176
     1
 90
        0
176
     1
290
     0
176
     1
290
     1
176
     1
290
     1
176
     1
290
     0
176
     1
290
     0
176
     1
290
     0
176
     1
290
     0
176
     1
290
     0
176
     1
290
     0
176
     1
 90
       50
176
     1
 40
0.0
176
     1
 40
1.0
176
     1
 90
        0
176
     1
 62
   178
420
        0
176
     1
 90
       50
176
     1
 90
        3
176
     1
 62
     5
420
      255
176
     1
290
     0
176
     1
 90
       50
176
     1
 90
       50
176
     1
 90
       50
176
     1
290
     0
176
     1
 90
       50
176
     1
 62
   256
176
     0
 40
1.0
176
     0
 90
        2
176
     1
  1
strokes_ogs.tif
176
     1
290
     0
176
     1
 40
1.0
176
     1
 40
1.0
176
     1
  0
DICTIONARYVAR
  5
62
102
{ACAD_REACTORS
330
3D
102
}
330
3D
100
DictionaryVariables
280
     0
  1
1:1
  0
DICTIONARYVAR
  5
BB
102
{ACAD_REACTORS
330
3D
102
}
330
3D
100
DictionaryVariables
280
     0
  1
Standard
  0
DICTIONARYVAR
  5
3E
102
{ACAD_REACTORS
330
3D
102
}
330
3D
100
DictionaryVariables
280
     0
  1
Standard
  0
DICTIONARYVAR
  5
6F
102
{ACAD_REACTORS
330
3D
102
}
330
3D
100
DictionaryVariables
280
     0
  1
0
  0
DICTIONARYVAR
  5
70
102
{ACAD_REACTORS
330
3D
102
}
330
3D
100
DictionaryVariables
280
     0
  1
0
  0
DICTIONARY
  5
1186
330
3C
100
AcDbDictionary
280
     1
281
     1
  3
ACAD_ROUNDTRIP_2008_TABLESTYLE_CELLSTYLEMAP
360
1187
  0
CELLSTYLEMAP
  5
1187
102
{ACAD_REACTORS
330
1186
102
}
330
1186
100
AcDbCellStyleMap
 90
        3
300
CELLSTYLE
  1
TABLEFORMAT_BEGIN
 90
        5
170
     1
 91
        0
 92
    32768
 62
   257
 93
        1
300
CONTENTFORMAT
  1
CONTENTFORMAT_BEGIN
 90
        0
 91
        0
 92
      512
 93
        0
300

 40
0.0
140
1.0
 94
        5
 62
     0
340
11
144
6.0
309
CONTENTFORMAT_END
171
     1
301
MARGIN
  1
CELLMARGIN_BEGIN
 40
1.5
 40
1.5
 40
1.5
 40
1.5
 40
0.18
 40
0.18
309
CELLMARGIN_END
 94
        6
 95
        1
302
GRIDFORMAT
  1
GRIDFORMAT_BEGIN
 90
        0
 91
        1
 62
     0
 92
       -2
340
0
 93
        0
 40
0.045
309
GRIDFORMAT_END
 95
        2
302
GRIDFORMAT
  1
GRIDFORMAT_BEGIN
 90
        0
 91
        1
 62
     0
 92
       -2
340
0
 93
        0
 40
0.045
309
GRIDFORMAT_END
 95
        4
302
GRIDFORMAT
  1
GRIDFORMAT_BEGIN
 90
        0
 91
        1
 62
     0
 92
       -2
340
0
 93
        0
 40
0.045
309
GRIDFORMAT_END
 95
        8
302
GRIDFORMAT
  1
GRIDFORMAT_BEGIN
 90
        0
 91
        1
 62
     0
 92
       -2
340
0
 93
        0
 40
0.045
309
GRIDFORMAT_END
 95
       16
302
GRIDFORMAT
  1
GRIDFORMAT_BEGIN
 90
        0
 91
        1
 62
     0
 92
       -2
340
0
 93
        0
 40
0.045
309
GRIDFORMAT_END
 95
       32
302
GRIDFORMAT
  1
GRIDFORMAT_BEGIN
 90
        0
 91
        1
 62
     0
 92
       -2
340
0
 93
        0
 40
0.045
309
GRIDFORMAT_END
309
TABLEFORMAT_END
  1
CELLSTYLE_BEGIN
 90
        1
 91
        1
300
_TITLE
309
CELLSTYLE_END
300
CELLSTYLE
  1
TABLEFORMAT_BEGIN
 90
        5
170
     1
 91
        0
 92
        0
 62
   257
 93
        1
300
CONTENTFORMAT
  1
CONTENTFORMAT_BEGIN
 90
        0
 91
        0
 92
      512
 93
        0
300

 40
0.0
140
1.0
 94
        5
 62
     0
340
11
144
4.5
309
CONTENTFORMAT_END
171
     1
301
MARGIN
  1
CELLMARGIN_BEGIN
 40
1.5
 40
1.5
 40
1.5
 40
1.5
 40
0.18
 40
0.18
309
CELLMARGIN_END
 94
        6
 95
        1
302
GRIDFORMAT
  1
GRIDFORMAT_BEGIN
 90
        0
 91
        1
 62
     0
 92
       -2
340
0
 93
        0
 40
0.045
309
GRIDFORMAT_END
 95
        2
302
GRIDFORMAT
  1
GRIDFORMAT_BEGIN
 90
        0
 91
        1
 62
     0
 92
       -2
340
0
 93
        0
 40
0.045
309
GRIDFORMAT_END
 95
        4
302
GRIDFORMAT
  1
GRIDFORMAT_BEGIN
 90
        0
 91
        1
 62
     0
 92
       -2
340
0
 93
        0
 40
0.045
309
GRIDFORMAT_END
 95
        8
302
GRIDFORMAT
  1
GRIDFORMAT_BEGIN
 90
        0
 91
        1
 62
     0
 92
       -2
340
0
 93
        0
 40
0.045
309
GRIDFORMAT_END
 95
       16
302
GRIDFORMAT
  1
GRIDFORMAT_BEGIN
 90
        0
 91
        1
 62
     0
 92
       -2
340
0
 93
        0
 40
0.045
309
GRIDFORMAT_END
 95
       32
302
GRIDFORMAT
  1
GRIDFORMAT_BEGIN
 90
        0
 91
        1
 62
     0
 92
       -2
340
0
 93
        0
 40
0.045
309
GRIDFORMAT_END
309
TABLEFORMAT_END
  1
CELLSTYLE_BEGIN
 90
        2
 91
        1
300
_HEADER
309
CELLSTYLE_END
300
CELLSTYLE
  1
TABLEFORMAT_BEGIN
 90
        5
170
     1
 91
        0
 92
        0
 62
   257
 93
        1
300
CONTENTFORMAT
  1
CONTENTFORMAT_BEGIN
 90
        0
 91
        0
 92
      512
 93
        0
300

 40
0.0
140
1.0
 94
        2
 62
     0
340
11
144
4.5
309
CONTENTFORMAT_END
171
     1
301
MARGIN
  1
CELLMARGIN_BEGIN
 40
1.5
 40
1.5
 40
1.5
 40
1.5
 40
0.18
 40
0.18
309
CELLMARGIN_END
 94
        6
 95
        1
302
GRIDFORMAT
  1
GRIDFORMAT_BEGIN
 90
        0
 91
        1
 62
     0
 92
       -2
340
0
 93
        0
 40
0.045
309
GRIDFORMAT_END
 95
        2
302
GRIDFORMAT
  1
GRIDFORMAT_BEGIN
 90
        0
 91
        1
 62
     0
 92
       -2
340
0
 93
        0
 40
0.045
309
GRIDFORMAT_END
 95
        4
302
GRIDFORMAT
  1
GRIDFORMAT_BEGIN
 90
        0
 91
        1
 62
     0
 92
       -2
340
0
 93
        0
 40
0.045
309
GRIDFORMAT_END
 95
        8
302
GRIDFORMAT
  1
GRIDFORMAT_BEGIN
 90
        0
 91
        1
 62
     0
 92
       -2
340
0
 93
        0
 40
0.045
309
GRIDFORMAT_END
 95
       16
302
GRIDFORMAT
  1
GRIDFORMAT_BEGIN
 90
        0
 91
        1
 62
     0
 92
       -2
340
0
 93
        0
 40
0.045
309
GRIDFORMAT_END
 95
       32
302
GRIDFORMAT
  1
GRIDFORMAT_BEGIN
 90
        0
 91
        1
 62
     0
 92
       -2
340
0
 93
        0
 40
0.045
309
GRIDFORMAT_END
309
TABLEFORMAT_END
  1
CELLSTYLE_BEGIN
 90
        3
 91
        2
300
_DATA
309
CELLSTYLE_END
  0
ENDSEC
  0
SECTION
  2
ACDSDATA
 70
     2
 71
     2
  0
ACDSSCHEMA
 90
        0
  1
AcDb_Thumbnail_Schema
  2
AcDbDs::ID
280
    10
 91
        8
  2
Thumbnail_Data
280
    15
 91
        0
101
ACDSRECORD
 95
        0
 90
        2
  2
AcDbDs::TreatedAsObjectData
280
     1
291
     1
101
ACDSRECORD
 95
        0
 90
        3
  2
AcDbDs::Legacy
280
     1
291
     1
101
ACDSRECORD
  1
AcDbDs::ID
 90
        4
  2
AcDs:Indexable
280
     1
291
     1
101
ACDSRECORD
  1
AcDbDs::ID
 90
        5
  2
AcDbDs::HandleAttribute
280
     7
282
     1
  0
ACDSSCHEMA
 90
        1
  1
AcDb3DSolid_ASM_Data
  2
AcDbDs::ID
280
    10
 91
        8
  2
ASM_Data
280
    15
 91
        0
101
ACDSRECORD
 95
        1
 90
        2
  2
AcDbDs::TreatedAsObjectData
280
     1
291
     1
101
ACDSRECORD
 95
        1
 90
        3
  2
AcDbDs::Legacy
280
     1
291
     1
101
ACDSRECORD
  1
AcDbDs::ID
 90
        4
  2
AcDs:Indexable
280
     1
291
     1
101
ACDSRECORD
  1
AcDbDs::ID
 90
        5
  2
AcDbDs::HandleAttribute
280
     7
282
     1
  0
ACDSSCHEMA
 90
        2
  1
AcDbDs::TreatedAsObjectDataSchema
  2
AcDbDs::TreatedAsObjectData
280
     1
 91
        0
  0
ACDSSCHEMA
 90
        3
  1
AcDbDs::LegacySchema
  2
AcDbDs::Legacy
280
     1
 91
        0
  0
ACDSSCHEMA
 90
        4
  1
AcDbDs::IndexedPropertySchema
  2
AcDs:Indexable
280
     1
 91
        0
  0
ACDSSCHEMA
 90
        5
  1
AcDbDs::HandleAttributeSchema
  2
AcDbDs::HandleAttribute
280
     7
 91
        1
284
     1
  0
ACDSRECORD
 90
        0
  2
AcDbDs::ID
280
    10
320
1E
  2
Thumbnail_Data
280
    15
 94
     4652
310
89504E470D0A1A0A0000000D49484452000001000000007F080600000000711CC6000000097048597300000EC400000EC401952B0E1B000011DE49444154789CED9DDB53DBD6F6C7BF0273B34DB825607221A15C0B21699A699B6933D39726E7B40FE96BD33FB0E9C339672679E8CCAF9D369326990099E6060462CC2D36B6
310
830906131B838DFD7B60B4C7424ABC2D6D24EF687DDED85B5A5E32B0B4B5B4D7FA2A9313E3451004E14A6A9C76802008E7A00040102EC6E3B4033C4422119C3C751A8D8D8D4EBB42105CCCBE7C89BEBE4F9C76A32C52040000387FFE3C7C3E9FD36E1004170BA179A75DE0821E0108C2C55000200817430180205C0C050082
310
7031140008C2C5500020081723CD6B4095442281603088E6E66600406B6B2B7A7A7AD8FCCCCC0CF6F7F701006D6D6D3873E60C9B9B9E9E46A150000078BD5EF4F7F7B3B9F9F979ECECEC00006A6B6B313A3ACAE682C120B2D92C00C0E3F160646484CDADACAC606B6B8BFD3C3232028FE7E06B5D5E5E462A956273A3A3A3A8
310
ADAD0500C4623124120936D7DFDF0FAFD70B008846A3585F5F6773030303686A6A0200BC7DFB16ABABAB6CAEA7A707ADADAD0080F5F57544A3513677F6EC59B4B4B40000B6B7B7B1B4B4C4E60281003A3B3B0100A9540ACBCBCB6CAEBBBB1B274E9C0000ECEEEEE2D5AB576CAEBDBD1DA74F9F060064B35904834136D7D1D1
310
8153A74E01008AC522A6A6A6D89CDFEFC7279F1CBC172F140A989E9E6673CDCDCDE8EDED653FCFCDCD616F6F0F00505F5F8FE1E16136373B3B8B5C2E0700686868C0D0D0109B5B5C5CC4BB77EFD8CF63636350140500B0B0B080743A0D00501405636363ECB84824828D8D0DF6F3D0D0101A1A1A001CFCBDC5623136373C3C
310
8CFAFA7A00C0DADA1AE2F1389B3BFCB721038A0CB500914804D7FFF56FF87C3EC46231783C1EF6074A10D5C28B172F70E1C20500C0FFFEFB1FCDCDA75AA14700827031D23D02D4D7D7B365344154137EBFDF69172A46BA00D0D1D1E1B40B0461889AE390097A04200817235D0028140A2C934F10D584FAF64926A40B006FDE
310
BCC1DBB76F9D76832074CCCCCC38ED42C5481700088210070500827031D2BD05F0FBFDA8A9B116B742A11032998C208F888F81C33B43CDD0D5D525C81BFB902E00A85B80AD90C964D88EAD724C4E4E72B522AB641BE8A3478FB8BA1B158B455CBC78F183C73C79F2846D3DFE10BBBBBBF8E28B2F6CF54DA5740BF68748A552
310
B87AF56AD9E35EBE7C897C3E5FF6B86C368B2FBFFC92CBC7172F5E701DF72128007C8434363672058B4AFE807C3E9F309B1E8F47A87F227D5329140A426DE6F379E13EBA15E97200D96C16BBBBBBB67FEED2D212B6B7B73563CBCBCB9A829E4A395C840200ABABABBA311E128984A630451D2B2D6411E15B69B151A56C6D6D
310
6165654533964AA534C5469590482434454C80BEE8C94E4A8BC26441BA00904C2635157676E1F17874CB4E8FC7C3B5FC7E1FF97C5E77BED1E7D86DEB7DE75ABD5ED1368DCE35FA1EECE2707093017A04E0A4B4B2AB582C42511456166B9673E7CEE96C9A7D8EECEEEED6D96A6B6B435B5B9B297B814040986F2A3E9F0F7D7D
310
7D1A9B5EAF978D554AE9F589B8663722DD0AC069D2E934EEDCB923DCEEAD5BB784D829168BF8F5D75F85D85211E55B297FFCF187A6E78155EEDCB9C3EAFD097EA45B01385D0CE4F3F9F0E38F3F0AB7FBF3CF3F0BB1A3280A6EDEBC29C4968A28DF4AB97EFDBA507B47F13BA9142A06B281FAFA7AD691C54EA2D1A82EF7108B
310
C52CE523C2E1B0EEAE9548244C6D757EF3E60D92C9A4662C954A994EDA19F961D637956C36AB4BDAEDEEEEEAC67849A552BA24A7956BB68A8CE5C0D20500A7C86432BA77D98542C1D28622A3F37776764C153B158B459DAD4C268362D15CC327A3EB35EBDB876C1A8D59B167F577E236A47B0448A552A8A9A9B13DDA1AED12
310
53FBDF99E5ECD9B3BAB1D2FE8695509AB4FBD0182F227D53696F6F477B7BBB664C54A252A5B5B595F548B49B68348A93274F3AF2D966912E00A4D369783C1EDB02402693E1DA50A2369FE421954A71D9E47985B7BBBBCB658BF7AE28D2379562B1C865F3F023CCFB501445E8358B627D7D9D02C0C7C6952B5784DBE4D9EECA
310
0BCFF6DE4A10E99B0AEF96615E4A3BFA12D6A01C0041B818E95600A51B5E08A29AE02D30AB26680540102E86020041B818E902402291E0CE1613849D94CAA4C982743900B3D56D0471D4A8FA913221DD0A8020087148B702206930A25A91B11640BA00E074352041BC0FAA062408422AA40B00240D46542B240D6603240D46
310
542B324A83499703B09BF5F575AED73B2D2D2DDC9A056B6B6BD8DBDB2B7B9CDFEF2F5BDABAB1B1C155F5D6D8D888E3C78FDBEA9B4A2A95E26A9CE2F178B84A98B7B7B7B93AF0F25EB39BA1005086502884C1C1C1B2C70583415CBE7C99CBE6C2C202868686CA1E373F3F5FB6DA6F7E7E1E0303035CFEF1FC3388F4ADF4B379
310
12647373735C0120180CA2B7B797EB380A001F46BA0020421AAC12BC5EAFAE898511914884DBA6CFE71366B3A9A989CB96D7EBB5DD3795FAFA7A2E9BBCAFD1EAEAEA845EB328645406922E07D0DCDCCC255D259AC78F1F231C0E6BC6C6C7C72D6DFF34B2393D3D6DCAE6CCCC8C4E6063717111CF9E3D33E5DBD4D414E6E7E7
310
3563CF9E3DB374BDB1580C8F1E3DD28CC5E371FCFDF7DFA6EC0583418C8F8F6BC6C2E1301E3F7E6CDA472BC81800A45B0138C5F9F3E7D1D4D4A419BB7CF932EAEAEA4CDBBC70E182EEFC818101533687868674FDFF7A7A7A4CF7041C1C1CD4F93136365651E7A3C30402015DDE20100898DEDB313838885C2EA7193B73E60C
310
2DFB2B40BA158053D260EA3FFFFEFE3E16171701C0D23F3F00343434B0C719F56E5B3A56091E8F0775757528168BCC963A26CAB7DADA5A4B8F5F8AA2B0EF311C0EB3E4AA95EF513D77717191BD863B1CA8ED82A4C16CC0296930955C2E2754D042657373B32A6D1D853D0078F7EE9DD0C2AEF5F575DD6AC06E481ACC053436
310
36724B4E5782A8DE7E8AA208EF1328DA1E007CFAE9A742ED1DC5EFC40D48B702708A8989095DC26E727212A150C892CDD7AF5F6BC65EBC7881E9E9E98A6D3D7DFA147373739AB18585053C7DFAD4946FCF9F3FD725FCCCFAA6128BC5F0F0E143CD583C1EC75F7FFD65CA5E2814C2E4E4A4662C1C0E636262C2B48F6E43BA15
310
8053C540972E5DD229125DBC78D19212EDE79F7FAEAB6C347B671C1D1DD53D9F9F3B77CE741270646444986F2A4609BF40208096961653F67A7B7B35A2ADC04112D0A96CBC59915327912E0038210BF6BECF6D6868B064D328F965362166E49F95B26991BEA9288A62E8A7D9A45D6D6DADE1353AF537E2C4EB69AB481700EC
310
C6EFF77389505472D7696A6AE2B2C9B3D9A5A5A585CB16EF261B91BEA974767672D9E40D305D5D5D42AFD9CD481700EC96063B8A1A6F9EADBBBC1849785941A46F2A8140C0924CD961BABABAAA72D38D8CD260D22501D3E9347676769C768320741CC5EBE1A346BA0040108438280010848B912E0740D26044B542D2600441
310
48050500827031D20500920623AA159206B301920623AA1592062308422AA45B0190341851ADC8B8F558BA00607735603E9FE7AAA8ABA45B0EAFCD9A9A9AB2C16E7F7F9F4B28455114AECA4591BE1D958F8542814B8483D79E28649406932E00D8CDDDBB7771EAD4A9B2C76D6E6EE2EBAFBFE6B2F9E79F7FEACA588D482412
310
F8F6DB6F3F78CCBD7BF7B8F6D947A3517CF7DD77B6FAA6F2E8D123AEE2A1E5E565FCF0C30F658F1B1F1FE7D224585D5DC5B56BD7B87C742BD20500F54E62576BF0AEAE2E8C8C8C943D8EA73A4DA5BBBB5B98CDE3C78F73D9E24D9E8AF44DE5D8B163427DF4FBFD42ED89627F7F5FBAC753E992804E4983DDBF7F5FD711E8C1
310
8307965EFD3C7CF850D747EEC99327BACE3E3C4C4E4EEABAF5CCCFCF9B6E91FDCF3FFFE8DA8C3F79F2C4749B71E0A023D0DDBB773563F1781CBFFDF69B297BC160100F1E3CD08C85C361DCBF7FDFB48F562069B08F98AB57AFEA5A627FF3CD37966C1A3D325CBA74C9942DA3BE7DFDFDFDA66C0107DD8A0E63D63715A3B2E0
310
402080EFBFFFDE94BD8181015DF9F299336770FAF469D33EBA0DE956004EA1FEF3E77239CCCECEB2312B7DF2D5F30B8502BB7B98B5A99E572C1631353565D9BFD27345D83B7CFED2D212DEBD7BC7C6ADDA9B9D9D655D81ADF8E836A45B01D82D0D769862B1C8259E5909FBFBFB425B5A8BDE9072141B5CF2F9BCD067F4BDBD
310
3DD3FD0F45518D4D4ACA215D00E055E03D2AEAEBEB71F1E245A136EBEAEAF0D9679F09B1254B5B70D19D8744FF4ECC206300A047004EEEDDBB87858505CDD8512501CD24DA2626262809888356E8F7EEDD33EDA3DB906E0590CD66A1288AE58EBC9562F4CEFBEAD5AB966C1A25118D926F3C7CF5D557BA312B775923A973B3
310
BEA9747777EBFA39040201AE77FF460C0E0EEAA4DBFBFAFA1C6BCFBDB5B565BAC5B95348170092C9243C1E0F4E9C3861CBE76532196C6C6C943DAE9267F8743ACD6593470371676787CB562693B1DD3795BDBD3D2E9B6A52B01CB95C4EE8358B62656545BAA620D20500BBE9EFEFE7FA433A7C27FA107D7D7D5C3679EEE003
310
03035CB6785F098AF44D657070904BCF91772BEDE0E0209710A795D7A06E810240198E426ABAB3B35398ADF6F6F68A7AF49743A46F2AC78E1DC3B163C784D96B6E6E763C19FCB1205D00E8E8E8A0F7BC445542D26036E094EC134194434669307A0D48102E46BA00904AA5B8B3C5046127D168D469172A46BA0040D26044B5
310
42D260044148050500827031D2BD05206930A25A916D1720402B00827035140008C2C5481700481A8CA856481ACC06481A8CA856649406932E00D8CDF8F838BC5E6FD9E31445C1D8D81897CD070F1E7015C7E4F3F9B235F88F1F3FE6EA8D90C96470E5CA155B7D5379FEFC3957FD463299E4D21A989A9AE26AFFC57BCD6E46
310
BA0060B73498D7EBE5CAEE56DA275F94CD868606A1FE89F44D455114A1368BC5A2701F4520A334987439808E8E0E2E5518D18442216C6E6E6AC6565757118FC74DDB5C5959412291D08CBD7EFD5A37C6433C1EC7EAEA6AD931277C53D9D8D8C0E2E2A2662C994CEAC67831BABECDCD4D844221D33E5A41466930E902805378
310
BD5E5D37624551B81E0FDE474D4D8DEEFCA6A626535D8F8D7CF17ABDA64BA78DAED7AC6F4765D3E8FA8CBE53E2FD48F70860B73498CAC99327B9C62AC14883CF6CAB33A38EB4561A7118F961B50D5B636323CE9D3B57768C17A3EB13DD7CA412481ACC069C92065349A7D3B87DFBB670BBBFFCF28B103BC56211B76EDD1262
310
4B45946FA5FCFEFBEF428B676EDFBE8D743A2DCC9E19481ACC05F87C3EDCB87143B8DD9B376F0AB1A3280A7EFAE92721B65444F956CAB56BD7847676BA71E306758A3281742B00A70887C36C0392FA871689442C6D4A5A5E5E66CD32559B6FDEBCC1DADA5AC5B662B118BBA3AAB692C9A44ED09497783CCEFCB0EA9B4A3A9D
310
66DA0AAACD4C26A3D35BE025994C22128968EC59B96637225D00F0FBFD8E2479F2F93C3C1E8F6ECCCAC6248FC7A33BDFE873ECB6F5BE73AD5EAF689B46E71A7D0F7621A33290748F004E7583EDEDEDD58D994D5EA918A9D89E3A75CA942DD1493B91BEA9B4B4B4E88433AC262A0F5FA3931D8329007C8464B359AE0D2595DC
310
69D3E934974D9EDD6EF97C9ECB16AF908748DF546A6A6AB86CF268070007DF358F3D19B7E6DA8D323931EEACA42A07914804D7FFF56FF87C3E21D260A150C876D518A2BAF17ABD9685444AA5C1FEF7DFFF18BEE6AD36A45B0188900623C518E22890511A4CBA24204110E2A00040102E46BA4700920623AA159206B3019206
310
23AA1592062308422AA40B00240D46542B240D6603240D46542B240D461084544897040480972F5FA2ADAD0D00D0DADA8A9E9E1E3637333383FDFD7D00405B5B9B6637D6F4F4346B287278E7D7FCFC3C5B59D4D6D662747494CD058341B6ADD4E3F160646484CDADACAC606B6B8BFD3C3232C2B6059756FB01C0E8E8286B18
310
118BC534EDB5FAFBFB599153341AD5DC4D060606D0D4D4040078FBF6ADA60D564F4F0F6B91B6BEBEAE59869E3D7B96ED4CDBDEDEC6D2D2129B0B0402E8ECEC0470F058B5BCBCCCE6BABBBBD946ABDDDD5DBC7AF58ACDB5B7B7B33A816C36AB6985DDD1D1C1EA058AC522A6A6A6D89CDFEF672DB30A8502A6A7A7D95C7373B3
310
A6D6626E6E0E7B7B7B000E92BEC3C3C36C6E767616B95C0EC0413FC4A1A12136B7B8B8A8793C1C1B1B636F8C16161658BF80C30D5C239108363636D8CF4343436CA7692291402C166373C3C3C32C11BDB6B6A669092763C76AE9B60213840CC8B215981E0108C2C55000200817430180205C0C0500827031140008C2C55000
310
20081723CD3E805C2EC7DEFF1244B55341C73447912200747575E18FDFFFCF693708821BAB2A4A76214500A8ABABB3DC819720083D9403200817F3FFC72FBD05CD66D1CA0000000049454E44AE426082
  0
ACDSRECORD
 90
        0
  2
AcDbDs::ID
280
    10
320
22
  2
Thumbnail_Data
280
    15
 94
     3191
310
89504E470D0A1A0A0000000D49484452000001000000007F080600000000711CC6000000097048597300000EC400000EC401952B0E1B00000C2949444154789CEDDDDD531A671B06F00B04590101A1188908F8016354ACED984E2636EDB49974A6ED4CA7D3D3B6073DEC61FFC31EF4AC499BB1B56DACD64012F1FB0314A27C
310
F5C061EB82ECF28079DD779FEB37B307EBEEDEDEC93897CBAE7BAF0D401D442425FB4D374044378701402431060091C418004412630010498C01402431060091C418004412630010498C01402431060091C41800441273DC7403F49F542A0597CBA5BB4FA552C19F7FFEA9BBCFECEC2CEC76FD6CAFD7EBF8FDF7DFAFDC168F
310
C7E1F3F9748F77381CF8F5D75FDB6EEFA4465F5F1F9E3E7DAABB4F381C463C1EC7D9D959DB7D5C2E171E3F7EAC5B23168BE1FCFCBCED3EFDFDFD78F2E4896E2F56C400301197CB85DF7EFB4D779F743A6D58C76EB7F754C7E7F3F5DCC775D40000B7DB8DD5D555E4F3F9AEEB783C1EACAEAEA25028F4D48B15F12380092D2D
310
2DE1BDF7DE53D7C3E130BEF9E61BE13A8F1E3DC2DCDC9CBA3E3333834F3EF9A4E3E3E7E6E6F0E8D123CDD77EF8E107A11EE6E6E6B0B8B8A8AEFB7C3E7CF5D5574235808BB3A3CF3FFFBCA75E52A914EEDFBFAFAEF7F7F7E3EBAFBF16EEC56AEA5CCCB1A4D36953EC731DDFE3BAFA8CC7E3759FCFD7539D4422511F1C1CECB9
310
172B2E3C0330B1542A85BB77EFF65C279D4E637E7EBEEBE3A3D1283EFCF0C39E7A8846A39A33816E8D8C8CE0E1C3873DD5884422B877EF5ECFBD5801AF019858269331BC28D889F5F5F59E8EDFDCDC44A954EAB9C6F1F1714F3500606B6B0BD56AB5A71AB95C0EC562B1E75EAC80670026944AA530393989B3B333E4F379F8
310
FD7E2C2D2D09D7999D9D452C1643B15844B158442C16D35C1330128BC5303B3B8B5AAD86FDFD7D00C0679F7D26D4433C1EC7E4E4246AB51A0A8502BC5E6F576735D168543D8BD9DDDDEDAA9768348A542A0500383E3E86D3E9C483070F847BB1129E0198D0C1C1016AB59ABA5E2C16F1EAD5ABAEEA9C9C9C68D62B954AC7C7
310
1F1E1EA25C2E6BBEB6B6B626DC83C3F1DF8FD9E9E92972B99C508D469D66DDF4F2FAF56B75BD5C2E2393C908F762250C001371B95CEA6F280078EBADB734DB53A9140606060CEB783C1EB5CEE0E0202291484B1DAFD7AB5BE3721F8383832DDB028180EEF1369B4D53231C0E0BD768482693EA2DBCCB351BEBC160D0B0C6D4
310
D4144E4F4F01A065FF4E6B58910D175703C904EC76BBE6B7E5552A958AE6ECA0DB3AD56AB5ED67699BCD06A7D3D9F5F1D755A3A1BFBF5F777BAD56333CB3B98E1A56C4002092182F0212498C01402431060091C418004412630010498C01402431060091C418004412630010498C014024313E0C6422D3D3D3867F3F5FABD5
310
B0B2B2A2BB4F27F3ED6C361B969797AFDC363E3E6EF8B090D3E9C42FBFFCD276FB75D40080E1E161C4E371CD537CCD1445C1CF3FFFDC76FBAD5BB7303636A63B58D4A8865531004CC4E9745ECB204D003DD5F17ABD3DF7711D350060606000CF9E3DEB692868A3068782B6E24700137AF8F0A1E607321008E0CB2FBF14AEF3
310
E0C1034C4E4EAAEB131313F8E0830F3A3E7E7171B16560C677DF7D27D4C3E2E222DE7FFF7D753D140AE1DB6FBF15AA0100F3F3F32DA3C0447B999F9FC7C71F7FACAE2B8A82EFBFFF5EB817ABB9F1C1845C2E160E056D5D3814F4CD2E3C0330B13B77EE68C65877EB9D77DEC1BBEFBEDBF5F1C96452689C78BB1A1F7DF4514F
310
3500209148088F026B363E3EDE32EE5C56BC0660627FFFFDB7E145C14EACACACC066B3757DFCDADA5A5763BC9A6BBC7CF9B2A71A00F0FCF973753E61B7363636B0BDBDDD732F56C03300135A585840329944A55241A95442201010FAECDE904EA7914824707E7E8EB3B333241209A1F1E0D3D3D348A7D3A8D7EBEA6CC12FBE
310
F842A8873B77EEA8354AA51282C1605763BD93C9241616160040BD9827DA4B2A95526B148B45B85C2EE11A56C3330013CA66B39AB15F27272778FEFCB9709D9D9D1DCD50D09D9D1DDDDB69CD5EBC78D1722BCFE81664B36C36AB194F76707060F86EC376BD34CFEDEBA617B7DBADAE9F9D9DE9BE5350060C001371B95C9AAB
310
FF6363639AEDE9745AF303DC8ED7EB55EB0C0F0FB76C0F87C32D833E9B5DEEA3B9463A9DEE6888A6DEADB5502884A1A121C31AF57A1D333333EA40CF5028D4F23D9A078EB6ABD17817C0E8E8684B2FCD035865C199804412E33500228931008824C600209218038048620C00228931008824C600209218038048620C002289
310
F14F814D241008B4FCF96FB357AF5EE1E0E040779F70388C919111DD7DB6B6B6B0BBBB7BE5364551904C26758FDFDFDFC7E6E666DBEDD75103B89892343D3DADBBCFD1D1115EBC78F1466B58D98D0F25E072B1702048EBC281206F76E14700139A9C9C44241251D7070606303B3B2B5C279148681E72098542181F1FEFF8F8
310
68348A4422A1F9DADDBB77857A68AEE1F178BA1A4E12894434E3CDBAE9A5B986C3E1C0BD7BF7847BB112068009552A15F4F5F5A9EB76BBBDABC1200E874353C7E170681ECD35522E975BF677B95C423D542A15542A1575BD5AADEA4EE7FD5FF652AFD7851E8FB6225E0330A14C260300F0FBFD70BBDDC8E57278FAF4A9709D
310
B5B5350050CF02B6B7B78526E134F6F7FBFD080683D8D8D8C04F3FFD24D4C3D6D61600686A883EC70F007B7B7BD8DBDB83D7EBC5C8C808D6D6D6847B695CF3B85CA39BFF572BE1198089F9FD7E0402811BAFA3284ACF7D288A22FC1BDBECBD5801CF004C68707010B55A0DD96C1600D0D7D7875028849D9D1DA13A43434328
310
168B585F5F077071CAECF1780CEF2234B85C2EB8DD6ECD99432412119A0FA8280AFAFAFA343542A190F05C3FA7D309BFDFAF9E0974D38BD3E984A2289A1ADDF462253C0330A1442281783CAEAEFB7C3EBCFDF6DBC27526262634B715A3D1282626263A3E7E6C6CAC657FD1D984D16814B1584C5DF7F97C989B9B13AA015C4C
310
F1B98E5E2EFFBFF6F7F763717151B817ABB9F15B115C2E16DE066C5D781BF0CD2EFC086022F97CDEF015558DD9787A4AA592611DBDABDFBBBBBB86C757AB55DDED9DD4B87C45BE9DE3E3634C4D4DA15C2EB7DDA75EAFEBD6383A3AC2D4D494EEF733AA61559C094824315E03209218038048620C00228931008824C6002092
310
18038048620C00228931008824C600209218038048627C16C0446EDFBE8D5028A4BBCFE1E1215EBE7CA9BB4F3C1E87CFE7D3DD279FCFAB83479A0583418C8E8EEA1E5F2A95D481236FAA067031BC636A6A4AF7D983F3F3733C7BF6EC8DD6B0B21B7F2289CBC5C2A7015B173E0DF866177E0430A16432A9195EE9F3F970FFFE
310
7DE13A3333339A67F1C7C6C684868BC66231CCCCCC68BEF6E9A79F0AF5108BC534CFF17BBDDEAE9EC11F1D1D6D79BA50B497D1D151CDA872A7D389A5A525E15EAC841F014CE8E8E84873BAFAFAF56B75B69E689D42A1A059AFD56A1D1F7F7878D8F208EDC6C686700F978779168B45A1B98497EBD8EDDADF57DDF4727E7EAE
310
AE97CB65C38F5356C70030A1C6F0CA482402B7DB8DF5F575FCF3CF3FC2751A2FDD689C0564B3594D201829140A28140A181A1AC2EDDBB7B1B2B282BFFEFA4BA8877C3E0FE0623C593018C4FAFA7A572FE0383D3DC5E9E9297C3E1F128904969797857BB95C63646404ABABAB6DAF83C882016062E572B9A3A1199DD4B1D96C
310
5D1FDF3C4EBBDB1A7A433DFE1F7BB1025E0330A14824825BB76E616F6F0F994C068AA218BEDAEA2AB1580CC16010B95C0E9B9B9B181A1AD2CCC433120C06118BC5502814D42BE40B0B0B423D0483410C0F0FA35028209BCDC2E974B6BCE0A3137EBF1FE3E3E328168BF8E38F3FBAEAC5EFF7231289A0582C6263630376BB1D
310
A9544AB8172BE1198009298AA2B906E07038E0F178BAAA73F9379DA2285014A5E3E35D2E57CBFEA223B91545D15C03E8E5DF721DBD5CAE61B3D90C6F975A1D03C0849A2F6E9D9C9CE0C99327C27556575735EBB95C4E688CF655FBFFF8E38F423D34BFFCB3542A61797959A80670F54B4D447B693EBE5AADE2F1E3C7C2BD58
310
0903C044B6B6B60C0769B67BA3EF65FBFBFB8675F4DE0D90C9640C8F37BA98D8498DC605423D3B3B3B48A552BA772F8C06A56E6F6F23994CEA0EFEEC64D8AA1571282891C478119048620C00228931008824C600209218038048620C00228931008824C600209218038048620C00228931008824C600209218038048620C00
310
228931008824C600209218038048620C00228931008824C600209218038048620C00228931008824C600209218038048620C00228931008824C600209218038048620C00228931008824C600209218038048620C00228931008824C600209218038048620C00228931008824C600209218038048620C002289FD0B5C532972
310
306FEDBC0000000049454E44AE426082
  0
ENDSEC
  0
EOF
