  0
SECTION
  2
HEADER
  9
$ACADVER
  1
AC1027
  9
$ACADMAINTVER
 70
   105
  9
$DWGCODEPAGE
  3
ANSI_1252
  9
$REQUIREDVERSIONS
160
                 0
  9
$LASTSAVEDBY
  1
devel0
  9
$INSBASE
 10
0.0
 20
0.0
 30
0.0
  9
$EXTMIN
 10
17.93874125874123
 20
-2075.106446592023
 30
0.0
  9
$EXTMAX
 10
7054.411111354956
 20
910.8812685949242
 30
0.0
  9
$LIMMIN
 10
0.0
 20
0.0
  9
$LIMMAX
 10
420.0
 20
297.0
  9
$ORTHOMODE
 70
     1
  9
$REGENMODE
 70
     1
  9
$FILLMODE
 70
     1
  9
$QTEXTMODE
 70
     0
  9
$MIRRTEXT
 70
     0
  9
$LTSCALE
 40
1.0
  9
$ATTMODE
 70
     1
  9
$TEXTSIZE
 40
2.5
  9
$TRACEWID
 40
1.0
  9
$TEXTSTYLE
  7
Standard
  9
$CLAYER
  8
0
  9
$CELTYPE
  6
ByLayer
  9
$CECOLOR
 62
   256
  9
$CELTSCALE
 40
1.0
  9
$DISPSILH
 70
     0
  9
$DIMSCALE
 40
10.0
  9
$DIMASZ
 40
1.0
  9
$DIMEXO
 40
0.625
  9
$DIMDLI
 40
3.75
  9
$DIMRND
 40
0.0
  9
$DIMDLE
 40
0.0
  9
$DIMEXE
 40
1.25
  9
$DIMTP
 40
0.0
  9
$DIMTM
 40
0.0
  9
$DIMTXT
 40
2.5
  9
$DIMCEN
 40
2.5
  9
$DIMTSZ
 40
0.0
  9
$DIMTOL
 70
     0
  9
$DIMLIM
 70
     0
  9
$DIMTIH
 70
     0
  9
$DIMTOH
 70
     0
  9
$DIMSE1
 70
     0
  9
$DIMSE2
 70
     0
  9
$DIMTAD
 70
     1
  9
$DIMZIN
 70
     8
  9
$DIMBLK
  1
ARCHTICK
  9
$DIMASO
 70
     1
  9
$DIMSHO
 70
     1
  9
$DIMPOST
  1

  9
$DIMAPOST
  1

  9
$DIMALT
 70
     0
  9
$DIMALTD
 70
     3
  9
$DIMALTF
 40
0.03937007874016
  9
$DIMLFAC
 40
1.0
  9
$DIMTOFL
 70
     1
  9
$DIMTVP
 40
0.0
  9
$DIMTIX
 70
     0
  9
$DIMSOXD
 70
     0
  9
$DIMSAH
 70
     0
  9
$DIMBLK1
  1

  9
$DIMBLK2
  1

  9
$DIMSTYLE
  2
big
  9
$DIMCLRD
 70
     0
  9
$DIMCLRE
 70
     0
  9
$DIMCLRT
 70
     0
  9
$DIMTFAC
 40
1.0
  9
$DIMGAP
 40
0.625
  9
$DIMJUST
 70
     0
  9
$DIMSD1
 70
     0
  9
$DIMSD2
 70
     0
  9
$DIMTOLJ
 70
     0
  9
$DIMTZIN
 70
     8
  9
$DIMALTZ
 70
     0
  9
$DIMALTTZ
 70
     0
  9
$DIMUPT
 70
     0
  9
$DIMDEC
 70
     2
  9
$DIMTDEC
 70
     2
  9
$DIMALTU
 70
     2
  9
$DIMALTTD
 70
     3
  9
$DIMTXSTY
  7
Standard
  9
$DIMAUNIT
 70
     0
  9
$DIMADEC
 70
     0
  9
$DIMALTRND
 40
0.0
  9
$DIMAZIN
 70
     0
  9
$DIMDSEP
 70
    46
  9
$DIMATFIT
 70
     3
  9
$DIMFRAC
 70
     0
  9
$DIMLDRBLK
  1
ARCHTICK
  9
$DIMLUNIT
 70
     2
  9
$DIMLWD
 70
    -2
  9
$DIMLWE
 70
    -2
  9
$DIMTMOVE
 70
     0
  9
$DIMFXL
 40
1.0
  9
$DIMFXLON
 70
     0
  9
$DIMJOGANG
 40
0.7853981633974483
  9
$DIMTFILL
 70
     0
  9
$DIMTFILLCLR
 70
     0
  9
$DIMARCSYM
 70
     0
  9
$DIMLTYPE
  6

  9
$DIMLTEX1
  6
DOTTED
  9
$DIMLTEX2
  6
DOTTED
  9
$DIMTXTDIRECTION
 70
     0
  9
$LUNITS
 70
     2
  9
$LUPREC
 70
     3
  9
$SKETCHINC
 40
1.0
  9
$FILLETRAD
 40
10.0
  9
$AUNITS
 70
     0
  9
$AUPREC
 70
     0
  9
$MENU
  1
.
  9
$ELEVATION
 40
0.0
  9
$PELEVATION
 40
0.0
  9
$THICKNESS
 40
0.0
  9
$LIMCHECK
 70
     0
  9
$CHAMFERA
 40
10.0
  9
$CHAMFERB
 40
10.0
  9
$CHAMFERC
 40
20.0
  9
$CHAMFERD
 40
0.0
  9
$SKPOLY
 70
     0
  9
$TDCREATE
 40
2455022.67902618
  9
$TDUCREATE
 40
2455022.637359514
  9
$TDUPDATE
 40
2458451.613430139
  9
$TDUUPDATE
 40
2458451.571763472
  9
$TDINDWG
 40
0.0000001852
  9
$TDUSRTIMER
 40
0.0012105556
  9
$USRTIMER
 70
     1
  9
$ANGBASE
 50
0.0
  9
$ANGDIR
 70
     0
  9
$PDMODE
 70
     0
  9
$PDSIZE
 40
0.0
  9
$PLINEWID
 40
0.0
  9
$SPLFRAME
 70
     0
  9
$SPLINETYPE
 70
     6
  9
$SPLINESEGS
 70
     8
  9
$HANDSEED
  5
2FF
  9
$SURFTAB1
 70
     6
  9
$SURFTAB2
 70
     6
  9
$SURFTYPE
 70
     6
  9
$SURFU
 70
     6
  9
$SURFV
 70
     6
  9
$UCSBASE
  2

  9
$UCSNAME
  2

  9
$UCSORG
 10
0.0
 20
0.0
 30
0.0
  9
$UCSXDIR
 10
1.0
 20
0.0
 30
0.0
  9
$UCSYDIR
 10
0.0
 20
1.0
 30
0.0
  9
$UCSORTHOREF
  2

  9
$UCSORTHOVIEW
 70
     0
  9
$UCSORGTOP
 10
0.0
 20
0.0
 30
0.0
  9
$UCSORGBOTTOM
 10
0.0
 20
0.0
 30
0.0
  9
$UCSORGLEFT
 10
0.0
 20
0.0
 30
0.0
  9
$UCSORGRIGHT
 10
0.0
 20
0.0
 30
0.0
  9
$UCSORGFRONT
 10
0.0
 20
0.0
 30
0.0
  9
$UCSORGBACK
 10
0.0
 20
0.0
 30
0.0
  9
$PUCSBASE
  2

  9
$PUCSNAME
  2

  9
$PUCSORG
 10
0.0
 20
0.0
 30
0.0
  9
$PUCSXDIR
 10
1.0
 20
0.0
 30
0.0
  9
$PUCSYDIR
 10
0.0
 20
1.0
 30
0.0
  9
$PUCSORTHOREF
  2

  9
$PUCSORTHOVIEW
 70
     0
  9
$PUCSORGTOP
 10
0.0
 20
0.0
 30
0.0
  9
$PUCSORGBOTTOM
 10
0.0
 20
0.0
 30
0.0
  9
$PUCSORGLEFT
 10
0.0
 20
0.0
 30
0.0
  9
$PUCSORGRIGHT
 10
0.0
 20
0.0
 30
0.0
  9
$PUCSORGFRONT
 10
0.0
 20
0.0
 30
0.0
  9
$PUCSORGBACK
 10
0.0
 20
0.0
 30
0.0
  9
$USERI1
 70
     0
  9
$USERI2
 70
     0
  9
$USERI3
 70
     0
  9
$USERI4
 70
     0
  9
$USERI5
 70
     0
  9
$USERR1
 40
0.0
  9
$USERR2
 40
0.0
  9
$USERR3
 40
0.0
  9
$USERR4
 40
0.0
  9
$USERR5
 40
0.0
  9
$WORLDVIEW
 70
     1
  9
$SHADEDGE
 70
     3
  9
$SHADEDIF
 70
    70
  9
$TILEMODE
 70
     1
  9
$MAXACTVP
 70
    64
  9
$PINSBASE
 10
0.0
 20
0.0
 30
0.0
  9
$PLIMCHECK
 70
     0
  9
$PEXTMIN
 10
1.000000000000000E+20
 20
1.000000000000000E+20
 30
1.000000000000000E+20
  9
$PEXTMAX
 10
-1.000000000000000E+20
 20
-1.000000000000000E+20
 30
-1.000000000000000E+20
  9
$PLIMMIN
 10
0.0
 20
0.0
  9
$PLIMMAX
 10
0.0
 20
0.0
  9
$UNITMODE
 70
     0
  9
$VISRETAIN
 70
     1
  9
$PLINEGEN
 70
     0
  9
$PSLTSCALE
 70
     1
  9
$TREEDEPTH
 70
  3020
  9
$CMLSTYLE
  2
Standard
  9
$CMLJUST
 70
     0
  9
$CMLSCALE
 40
20.0
  9
$PROXYGRAPHICS
 70
     1
  9
$MEASUREMENT
 70
     1
  9
$CELWEIGHT
370
    -1
  9
$ENDCAPS
280
     0
  9
$JOINSTYLE
280
     0
  9
$LWDISPLAY
290
     0
  9
$INSUNITS
 70
     4
  9
$HYPERLINKBASE
  1

  9
$STYLESHEET
  1

  9
$XEDIT
290
     1
  9
$CEPSNTYPE
380
     0
  9
$PSTYLEMODE
290
     1
  9
$FINGERPRINTGUID
  2
{EC6BB858-51AA-46EC-B484-6C9CC7AB3E2E}
  9
$VERSIONGUID
  2
{FAEB1C32-E019-11D5-929B-00C0DF256EC4}
  9
$EXTNAMES
290
     1
  9
$PSVPSCALE
 40
0.0
  9
$OLESTARTUP
290
     0
  9
$SORTENTS
280
   127
  9
$INDEXCTL
280
     0
  9
$HIDETEXT
280
     1
  9
$XCLIPFRAME
280
     0
  9
$HALOGAP
280
     0
  9
$OBSCOLOR
 70
   257
  9
$OBSLTYPE
280
     0
  9
$INTERSECTIONDISPLAY
280
     0
  9
$INTERSECTIONCOLOR
 70
   257
  9
$DIMASSOC
280
     2
  9
$PROJECTNAME
  1

  9
$CAMERADISPLAY
290
     0
  9
$LENSLENGTH
 40
50.0
  9
$CAMERAHEIGHT
 40
0.0
  9
$STEPSPERSEC
 40
2.0
  9
$STEPSIZE
 40
6.0
  9
$3DDWFPREC
 40
2.0
  9
$PSOLWIDTH
 40
5.0
  9
$PSOLHEIGHT
 40
80.0
  9
$LOFTANG1
 40
1.570796326794897
  9
$LOFTANG2
 40
1.570796326794897
  9
$LOFTMAG1
 40
0.0
  9
$LOFTMAG2
 40
0.0
  9
$LOFTPARAM
 70
     7
  9
$LOFTNORMALS
280
     1
  9
$LATITUDE
 40
37.795
  9
$LONGITUDE
 40
-122.394
  9
$NORTHDIRECTION
 40
0.0
  9
$TIMEZONE
 70
 -8000
  9
$LIGHTGLYPHDISPLAY
280
     1
  9
$TILEMODELIGHTSYNCH
280
     1
  9
$SOLIDHIST
280
     1
  9
$SHOWHIST
280
     1
  9
$DWFFRAME
280
     2
  9
$DGNFRAME
280
     2
  9
$REALWORLDSCALE
290
     1
  9
$INTERFERECOLOR
 62
   256
  9
$CSHADOW
280
     0
  9
$SHADOWPLANELOCATION
 40
0.0
  0
ENDSEC
  0
SECTION
  2
CLASSES
  0
CLASS
  1
ACDBDICTIONARYWDFLT
  2
AcDbDictionaryWithDefault
  3
ObjectDBX Classes
 90
        0
 91
        4
280
     0
281
     0
  0
CLASS
  1
VISUALSTYLE
  2
AcDbVisualStyle
  3
ObjectDBX Classes
 90
     4095
 91
        4
280
     0
281
     0
  0
CLASS
  1
TABLESTYLE
  2
AcDbTableStyle
  3
ObjectDBX Classes
 90
     4095
 91
        4
280
     0
281
     0
  0
CLASS
  1
DICTIONARYVAR
  2
AcDbDictionaryVar
  3
ObjectDBX Classes
 90
        0
 91
        4
280
     0
281
     0
  0
CLASS
  1
SCALE
  2
AcDbScale
  3
ObjectDBX Classes
 90
     1153
 91
        4
280
     0
281
     0
  0
CLASS
  1
CELLSTYLEMAP
  2
AcDbCellStyleMap
  3
ObjectDBX Classes
 90
     1152
 91
        4
280
     0
281
     0
  0
CLASS
  1
RASTERVARIABLES
  2
AcDbRasterVariables
  3
ISM
 90
        0
 91
        4
280
     0
281
     0
  0
CLASS
  1
MATERIAL
  2
AcDbMaterial
  3
ObjectDBX Classes
 90
     1153
 91
        4
280
     0
281
     0
  0
CLASS
  1
SUN
  2
AcDbSun
  3
SCENEOE
 90
     1153
 91
        4
280
     0
281
     0
  0
CLASS
  1
MLEADERSTYLE
  2
AcDbMLeaderStyle
  3
ACDB_MLEADERSTYLE_CLASS
 90
     4095
 91
        4
280
     0
281
     0
  0
CLASS
  1
DIMASSOC
  2
AcDbDimAssoc
  3
"AcDbDimAssoc|Product Desc:     AcDim ARX App For Dimension|Company:          Autodesk, Inc.|WEB Address:      www.autodesk.com"
 90
        0
 91
        4
280
     0
281
     0
  0
CLASS
  1
SORTENTSTABLE
  2
AcDbSortentsTable
  3
ObjectDBX Classes
 90
        0
 91
        4
280
     0
281
     0
  0
ENDSEC
  0
SECTION
  2
TABLES
  0
TABLE
  2
VPORT
  5
8
330
0
100
AcDbSymbolTable
 70
     1
  0
VPORT
  5
29
330
8
100
AcDbSymbolTableRecord
100
AcDbViewportTableRecord
  2
*Active
 70
     0
 10
0.0
 20
0.0
 11
1.0
 21
1.0
 12
5742.573943272986
 22
13.12687826702188
 13
0.0
 23
0.0
 14
10.0
 24
10.0
 15
10.0
 25
10.0
 16
0.0
 26
0.0
 36
1.0
 17
-134.1869158878499
 27
0.0
 37
0.0
 40
2563.266967241355
 41
1.28167115902965
 42
50.0
 43
0.0
 44
0.0
 50
0.0
 51
0.0
 71
    16
 72
  1000
 73
     1
 74
     3
 75
     0
 76
     0
 77
     0
 78
     0
281
     0
 65
     1
110
0.0
120
0.0
130
0.0
111
1.0
121
0.0
131
0.0
112
0.0
122
1.0
132
0.0
 79
     0
146
0.0
348
2F
 60
     3
 61
     5
292
     1
282
     1
141
0.0
142
0.0
 63
   256
361
80
  0
ENDTAB
  0
TABLE
  2
LTYPE
  5
5
330
0
100
AcDbSymbolTable
 70
     3
  0
LTYPE
  5
14
330
5
100
AcDbSymbolTableRecord
100
AcDbLinetypeTableRecord
  2
ByBlock
 70
     0
  3

 72
    65
 73
     0
 40
0.0
  0
LTYPE
  5
15
330
5
100
AcDbSymbolTableRecord
100
AcDbLinetypeTableRecord
  2
ByLayer
 70
     0
  3

 72
    65
 73
     0
 40
0.0
  0
LTYPE
  5
16
330
5
100
AcDbSymbolTableRecord
100
AcDbLinetypeTableRecord
  2
Continuous
 70
     0
  3
Solid line
 72
    65
 73
     0
 40
0.0
  0
LTYPE
  5
1C1
330
5
100
AcDbSymbolTableRecord
100
AcDbLinetypeTableRecord
  2
DASHED
 70
     0
  3
Dashed __  __  __  __  __  __  __  __  __  __  
 72
    65
 73
     2
 40
19.05
 49
12.7
 74
     0
 49
-6.35
 74
     0
  0
LTYPE
  5
1C2
330
5
100
AcDbSymbolTableRecord
100
AcDbLinetypeTableRecord
  2
DOTTED
 70
     0
  3
Dotted . . . . . . . . . . . . . . . . . . . . 
 72
    65
 73
     2
 40
6.35
 49
0.0
 74
     0
 49
-6.35
 74
     0
  0
ENDTAB
  0
TABLE
  2
LAYER
  5
2
102
{ACAD_XDICTIONARY
360
1FB
102
}
330
0
100
AcDbSymbolTable
 70
     3
  0
LAYER
  5
10
330
2
100
AcDbSymbolTableRecord
100
AcDbLayerTableRecord
  2
0
 70
     0
 62
     7
  6
Continuous
370
    -3
390
F
347
75
348
0
  0
LAYER
  5
CC
330
2
100
AcDbSymbolTableRecord
100
AcDbLayerTableRecord
  2
Defpoints
 70
     0
 62
     7
  6
Continuous
290
     0
370
    -3
390
F
347
75
348
0
  0
LAYER
  5
1BE
330
2
100
AcDbSymbolTableRecord
100
AcDbLayerTableRecord
  2
construction
 70
     0
 62
   252
  6
Continuous
370
    -3
390
F
347
75
348
0
1001
AcAecLayerStandard
1000

1000

  0
ENDTAB
  0
TABLE
  2
STYLE
  5
3
330
0
100
AcDbSymbolTable
 70
     2
  0
STYLE
  5
11
330
3
100
AcDbSymbolTableRecord
100
AcDbTextStyleTableRecord
  2
Standard
 70
     0
 40
0.0
 41
1.0
 50
0.0
 71
     0
 42
2.5
  3
arial.ttf
  4

1001
ACAD
1000
Arial
1071
        0
  0
STYLE
  5
B8
330
3
100
AcDbSymbolTableRecord
100
AcDbTextStyleTableRecord
  2
Annotative
 70
     0
 40
0.0
 41
1.0
 50
0.0
 71
     0
 42
2.5
  3
arial.ttf
  4

1001
ACAD
1000
Arial
1071
        0
1001
AcadAnnotative
1000
AnnotativeData
1002
{
1070
     1
1070
     1
1002
}
  0
ENDTAB
  0
TABLE
  2
VIEW
  5
6
330
0
100
AcDbSymbolTable
 70
     0
  0
ENDTAB
  0
TABLE
  2
UCS
  5
7
330
0
100
AcDbSymbolTable
 70
     0
  0
ENDTAB
  0
TABLE
  2
APPID
  5
9
330
0
100
AcDbSymbolTable
 70
     4
  0
APPID
  5
12
330
9
100
AcDbSymbolTableRecord
100
AcDbRegAppTableRecord
  2
ACAD
 70
     0
  0
APPID
  5
B9
330
9
100
AcDbSymbolTableRecord
100
AcDbRegAppTableRecord
  2
AcadAnnotative
 70
     0
  0
APPID
  5
1C0
330
9
100
AcDbSymbolTableRecord
100
AcDbRegAppTableRecord
  2
AcAecLayerStandard
 70
     0
  0
APPID
  5
1C9
330
9
100
AcDbSymbolTableRecord
100
AcDbRegAppTableRecord
  2
PE_URL
 70
     0
  0
ENDTAB
  0
TABLE
  2
DIMSTYLE
  5
A
330
0
100
AcDbSymbolTable
 70
     3
100
AcDbDimStyleTable
  0
DIMSTYLE
105
27
102
{ACAD_REACTORS
330
CD
330
DE
330
F4
330
104
102
}
330
A
100
AcDbSymbolTableRecord
100
AcDbDimStyleTableRecord
  2
ISO-25
 70
     0
 40
10.0
 41
2.5
 42
0.625
 43
3.75
 44
1.25
 73
     0
 74
     0
 77
     1
 78
     8
140
2.5
141
2.5
143
0.03937007874016
147
0.625
171
     3
172
     1
178
     0
271
     2
272
     2
274
     3
278
    44
283
     0
284
     8
340
11
  0
DIMSTYLE
105
BA
330
A
100
AcDbSymbolTableRecord
100
AcDbDimStyleTableRecord
  2
Annotative
 70
     0
 40
0.0
 41
2.5
 42
0.625
 43
3.75
 44
1.25
 73
     0
 74
     0
 77
     1
 78
     8
140
2.5
141
2.5
143
0.03937007874016
147
0.625
171
     3
172
     1
178
     0
271
     2
272
     2
274
     3
278
    44
283
     0
284
     8
340
11
1001
AcadAnnotative
1000
AnnotativeData
1002
{
1070
     1
1070
     1
1002
}
  0
DIMSTYLE
105
1C3
102
{ACAD_REACTORS
330
156
330
147
330
211
330
220
330
22F
330
23E
330
24F
330
25E
330
26D
330
27C
330
28B
330
29A
330
2A9
330
2B8
102
}
330
A
100
AcDbSymbolTableRecord
100
AcDbDimStyleTableRecord
  2
big
 70
     0
 40
10.0
 41
1.0
 42
0.625
 43
3.75
 44
1.25
 73
     0
 74
     0
 77
     1
 78
     8
140
2.5
141
2.5
143
0.03937007874016
147
0.625
171
     3
172
     1
178
     0
271
     2
272
     2
274
     3
283
     0
284
     8
340
11
341
1C5
342
1C5
346
1C2
347
1C2
  0
ENDTAB
  0
TABLE
  2
BLOCK_RECORD
  5
1
330
0
100
AcDbSymbolTable
 70
    24
  0
BLOCK_RECORD
  5
1F
330
1
100
AcDbSymbolTableRecord
100
AcDbBlockTableRecord
  2
*Model_Space
340
22
 70
     0
280
     1
281
     0
  0
BLOCK_RECORD
  5
1B
330
1
100
AcDbSymbolTableRecord
100
AcDbBlockTableRecord
  2
*Paper_Space
340
1E
 70
     0
280
     1
281
     0
  0
BLOCK_RECORD
  5
23
330
1
100
AcDbSymbolTableRecord
100
AcDbBlockTableRecord
  2
*Paper_Space0
340
26
 70
     0
280
     1
281
     0
  0
BLOCK_RECORD
  5
D0
330
1
100
AcDbSymbolTableRecord
100
AcDbBlockTableRecord
  2
*D1
340
0
 70
     0
280
     1
281
     0
  0
BLOCK_RECORD
  5
E1
330
1
100
AcDbSymbolTableRecord
100
AcDbBlockTableRecord
  2
*D2
340
0
 70
     0
280
     1
281
     0
  0
BLOCK_RECORD
  5
F7
330
1
100
AcDbSymbolTableRecord
100
AcDbBlockTableRecord
  2
*D3
340
0
 70
     0
280
     1
281
     0
  0
BLOCK_RECORD
  5
107
330
1
100
AcDbSymbolTableRecord
100
AcDbBlockTableRecord
  2
*D4
340
0
 70
     0
280
     1
281
     0
  0
BLOCK_RECORD
  5
14A
330
1
100
AcDbSymbolTableRecord
100
AcDbBlockTableRecord
  2
*D5
340
0
 70
     0
280
     1
281
     0
  0
BLOCK_RECORD
  5
159
330
1
100
AcDbSymbolTableRecord
100
AcDbBlockTableRecord
  2
*D6
340
0
 70
     0
280
     1
281
     0
  0
BLOCK_RECORD
  5
192
330
1
100
AcDbSymbolTableRecord
100
AcDbBlockTableRecord
  2
*D7
340
0
 70
     0
280
     1
281
     0
  0
BLOCK_RECORD
  5
1C5
330
1
100
AcDbSymbolTableRecord
100
AcDbBlockTableRecord
  2
_ARCHTICK
340
0
102
{BLKREFS
331
150
331
151
331
15F
331
160
331
1F4
331
1F5
331
20B
331
20C
331
21A
331
21B
331
229
331
22A
331
238
331
239
331
247
331
248
331
258
331
259
331
267
331
268
331
276
331
277
331
285
331
286
331
294
331
295
331
2A3
331
2A4
331
2B2
331
2B3
331
2C1
331
2C2
102
}
 70
     0
280
     1
281
     0
  0
BLOCK_RECORD
  5
1EF
330
1
100
AcDbSymbolTableRecord
100
AcDbBlockTableRecord
  2
*D9
340
0
 70
     0
280
     1
281
     0
  0
BLOCK_RECORD
  5
205
330
1
100
AcDbSymbolTableRecord
100
AcDbBlockTableRecord
  2
*D10
340
0
 70
     0
280
     1
281
     0
  0
BLOCK_RECORD
  5
214
330
1
100
AcDbSymbolTableRecord
100
AcDbBlockTableRecord
  2
*D11
340
0
 70
     0
280
     1
281
     0
  0
BLOCK_RECORD
  5
223
330
1
100
AcDbSymbolTableRecord
100
AcDbBlockTableRecord
  2
*D12
340
0
 70
     0
280
     1
281
     0
  0
BLOCK_RECORD
  5
232
330
1
100
AcDbSymbolTableRecord
100
AcDbBlockTableRecord
  2
*D13
340
0
 70
     0
280
     1
281
     0
  0
BLOCK_RECORD
  5
241
330
1
100
AcDbSymbolTableRecord
100
AcDbBlockTableRecord
  2
*D14
340
0
 70
     0
280
     1
281
     0
  0
BLOCK_RECORD
  5
252
330
1
100
AcDbSymbolTableRecord
100
AcDbBlockTableRecord
  2
*D15
340
0
 70
     0
280
     1
281
     0
  0
BLOCK_RECORD
  5
261
330
1
100
AcDbSymbolTableRecord
100
AcDbBlockTableRecord
  2
*D16
340
0
 70
     0
280
     1
281
     0
  0
BLOCK_RECORD
  5
270
330
1
100
AcDbSymbolTableRecord
100
AcDbBlockTableRecord
  2
*D17
340
0
 70
     0
280
     1
281
     0
  0
BLOCK_RECORD
  5
27F
330
1
100
AcDbSymbolTableRecord
100
AcDbBlockTableRecord
  2
*D18
340
0
 70
     0
280
     1
281
     0
  0
BLOCK_RECORD
  5
28E
330
1
100
AcDbSymbolTableRecord
100
AcDbBlockTableRecord
  2
*D19
340
0
 70
     0
280
     1
281
     0
  0
BLOCK_RECORD
  5
29D
330
1
100
AcDbSymbolTableRecord
100
AcDbBlockTableRecord
  2
*D20
340
0
 70
     0
280
     1
281
     0
  0
BLOCK_RECORD
  5
2AC
330
1
100
AcDbSymbolTableRecord
100
AcDbBlockTableRecord
  2
*D21
340
0
 70
     0
280
     1
281
     0
  0
BLOCK_RECORD
  5
2BB
330
1
100
AcDbSymbolTableRecord
100
AcDbBlockTableRecord
  2
*D22
340
0
 70
     0
280
     1
281
     0
  0
ENDTAB
  0
ENDSEC
  0
SECTION
  2
BLOCKS
  0
BLOCK
  5
20
330
1F
100
AcDbEntity
  8
0
100
AcDbBlockBegin
  2
*Model_Space
 70
     0
 10
0.0
 20
0.0
 30
0.0
  3
*Model_Space
  1

  0
ENDBLK
  5
21
330
1F
100
AcDbEntity
  8
0
100
AcDbBlockEnd
  0
BLOCK
  5
1C
330
1B
100
AcDbEntity
 67
     1
  8
0
100
AcDbBlockBegin
  2
*Paper_Space
 70
     0
 10
0.0
 20
0.0
 30
0.0
  3
*Paper_Space
  1

  0
ENDBLK
  5
1D
330
1B
100
AcDbEntity
 67
     1
  8
0
100
AcDbBlockEnd
  0
BLOCK
  5
24
330
23
100
AcDbEntity
  8
0
100
AcDbBlockBegin
  2
*Paper_Space0
 70
     0
 10
0.0
 20
0.0
 30
0.0
  3
*Paper_Space0
  1

  0
ENDBLK
  5
25
330
23
100
AcDbEntity
  8
0
100
AcDbBlockEnd
  0
BLOCK
  5
D1
330
D0
100
AcDbEntity
  8
0
100
AcDbBlockBegin
  2
*D1
 70
     1
 10
0.0
 20
0.0
 30
0.0
  3
*D1
  1

  0
LINE
  5
D3
330
D0
100
AcDbEntity
  8
0
 62
     0
370
    -2
100
AcDbLine
 10
3494.899698309066
 20
303.7119580419582
 30
0.0
 11
3494.899698309066
 21
359.4670380218886
 31
0.0
  0
LINE
  5
D4
330
D0
100
AcDbEntity
  8
0
 62
     0
370
    -2
100
AcDbLine
 10
3594.899698309066
 20
303.7119580419582
 30
0.0
 11
3594.899698309066
 21
359.4670380218886
 31
0.0
  0
LINE
  5
D5
330
D0
100
AcDbEntity
  8
0
 62
     0
370
    -2
100
AcDbLine
 10
3519.899698309066
 20
346.9670380218886
 30
0.0
 11
3569.899698309066
 21
346.9670380218886
 31
0.0
  0
SOLID
  5
D6
330
D0
100
AcDbEntity
  8
0
 62
     0
100
AcDbTrace
 10
3519.899698309066
 20
351.1337046885553
 30
0.0
 11
3519.899698309066
 21
342.8003713552219
 31
0.0
 12
3494.899698309066
 22
346.9670380218886
 32
0.0
 13
3494.899698309066
 23
346.9670380218886
 33
0.0
  0
SOLID
  5
D7
330
D0
100
AcDbEntity
  8
0
 62
     0
100
AcDbTrace
 10
3569.899698309066
 20
342.8003713552219
 30
0.0
 11
3569.899698309066
 21
351.1337046885553
 31
0.0
 12
3594.899698309066
 22
346.9670380218886
 32
0.0
 13
3594.899698309066
 23
346.9670380218886
 33
0.0
  0
MTEXT
  5
D8
330
D0
100
AcDbEntity
  8
0
 62
     0
100
AcDbMText
 10
3544.899698309066
 20
365.7170380218886
 30
0.0
 40
25.0
 41
0.0
 46
0.0
 71
     5
 72
     1
  1
100
 73
     1
 44
1.0
  0
POINT
  5
D9
330
D0
100
AcDbEntity
  8
Defpoints
 62
     0
100
AcDbPoint
 10
3494.899698309066
 20
297.4619580419582
 30
0.0
  0
POINT
  5
DA
330
D0
100
AcDbEntity
  8
Defpoints
 62
     0
100
AcDbPoint
 10
3594.899698309066
 20
297.4619580419582
 30
0.0
  0
POINT
  5
DB
330
D0
100
AcDbEntity
  8
Defpoints
 62
     0
100
AcDbPoint
 10
3594.899698309066
 20
346.9670380218886
 30
0.0
  0
ENDBLK
  5
D2
330
D0
100
AcDbEntity
  8
0
100
AcDbBlockEnd
  0
BLOCK
  5
E2
330
E1
100
AcDbEntity
  8
0
100
AcDbBlockBegin
  2
*D2
 70
     1
 10
0.0
 20
0.0
 30
0.0
  3
*D2
  1

  0
LINE
  5
E4
330
E1
100
AcDbEntity
  8
0
 62
     0
370
    -2
100
AcDbLine
 10
3538.649698309066
 20
297.4619580419582
 30
0.0
 11
3394.756855549179
 21
297.4619580419583
 31
0.0
  0
LINE
  5
E5
330
E1
100
AcDbEntity
  8
0
 62
     0
370
    -2
100
AcDbLine
 10
3488.649698309066
 20
-532.5380419580417
 30
0.0
 11
3394.756855549179
 21
-532.5380419580417
 31
0.0
  0
LINE
  5
E6
330
E1
100
AcDbEntity
  8
0
 62
     0
370
    -2
100
AcDbLine
 10
3407.256855549179
 20
272.4619580419583
 30
0.0
 11
3407.256855549179
 21
-507.5380419580417
 31
0.0
  0
SOLID
  5
E7
330
E1
100
AcDbEntity
  8
0
 62
     0
100
AcDbTrace
 10
3411.423522215845
 20
272.4619580419583
 30
0.0
 11
3403.090188882512
 21
272.4619580419583
 31
0.0
 12
3407.256855549179
 22
297.4619580419583
 32
0.0
 13
3407.256855549179
 23
297.4619580419583
 33
0.0
  0
SOLID
  5
E8
330
E1
100
AcDbEntity
  8
0
 62
     0
100
AcDbTrace
 10
3403.090188882512
 20
-507.5380419580417
 30
0.0
 11
3411.423522215845
 21
-507.5380419580417
 31
0.0
 12
3407.256855549179
 22
-532.5380419580417
 32
0.0
 13
3407.256855549179
 23
-532.5380419580417
 33
0.0
  0
MTEXT
  5
E9
330
E1
100
AcDbEntity
  8
0
 62
     0
100
AcDbMText
 10
3388.506855549179
 20
-117.5380419580417
 30
0.0
 40
25.0
 41
0.0
 46
0.0
 71
     5
 72
     1
  1
830
 11
0.0
 21
1.0
 31
0.0
 73
     1
 44
1.0
  0
POINT
  5
EA
330
E1
100
AcDbEntity
  8
Defpoints
 62
     0
100
AcDbPoint
 10
3544.899698309066
 20
297.4619580419582
 30
0.0
  0
POINT
  5
EB
330
E1
100
AcDbEntity
  8
Defpoints
 62
     0
100
AcDbPoint
 10
3494.899698309066
 20
-532.5380419580417
 30
0.0
  0
POINT
  5
EC
330
E1
100
AcDbEntity
  8
Defpoints
 62
     0
100
AcDbPoint
 10
3407.256855549179
 20
-532.5380419580417
 30
0.0
  0
ENDBLK
  5
E3
330
E1
100
AcDbEntity
  8
0
100
AcDbBlockEnd
  0
BLOCK
  5
F8
330
F7
100
AcDbEntity
  8
0
100
AcDbBlockBegin
  2
*D3
 70
     1
 10
0.0
 20
0.0
 30
0.0
  3
*D3
  1

  0
LINE
  5
FA
330
F7
100
AcDbEntity
  8
0
 62
     0
370
    -2
100
AcDbLine
 10
3590.480551507857
 20
-1075.106446592023
 30
0.0
 11
3446.58770874797
 21
-1075.106446592023
 31
0.0
  0
LINE
  5
FB
330
F7
100
AcDbEntity
  8
0
 62
     0
370
    -2
100
AcDbLine
 10
3540.480551507857
 20
-1905.106446592022
 30
0.0
 11
3446.58770874797
 21
-1905.106446592022
 31
0.0
  0
LINE
  5
FC
330
F7
100
AcDbEntity
  8
0
 62
     0
370
    -2
100
AcDbLine
 10
3459.08770874797
 20
-1100.106446592023
 30
0.0
 11
3459.08770874797
 21
-1880.106446592022
 31
0.0
  0
SOLID
  5
FD
330
F7
100
AcDbEntity
  8
0
 62
     0
100
AcDbTrace
 10
3463.254375414636
 20
-1100.106446592023
 30
0.0
 11
3454.921042081303
 21
-1100.106446592023
 31
0.0
 12
3459.08770874797
 22
-1075.106446592023
 32
0.0
 13
3459.08770874797
 23
-1075.106446592023
 33
0.0
  0
SOLID
  5
FE
330
F7
100
AcDbEntity
  8
0
 62
     0
100
AcDbTrace
 10
3454.921042081303
 20
-1880.106446592022
 30
0.0
 11
3463.254375414636
 21
-1880.106446592022
 31
0.0
 12
3459.08770874797
 22
-1905.106446592022
 32
0.0
 13
3459.08770874797
 23
-1905.106446592022
 33
0.0
  0
MTEXT
  5
FF
330
F7
100
AcDbEntity
  8
0
 62
     0
100
AcDbMText
 10
3440.33770874797
 20
-1490.106446592023
 30
0.0
 40
25.0
 41
0.0
 46
0.0
 71
     5
 72
     1
  1
830
 11
0.0
 21
1.0
 31
0.0
 73
     1
 44
1.0
  0
POINT
  5
100
330
F7
100
AcDbEntity
  8
Defpoints
 62
     0
100
AcDbPoint
 10
3596.730551507857
 20
-1075.106446592023
 30
0.0
  0
POINT
  5
101
330
F7
100
AcDbEntity
  8
Defpoints
 62
     0
100
AcDbPoint
 10
3546.730551507857
 20
-1905.106446592022
 30
0.0
  0
POINT
  5
102
330
F7
100
AcDbEntity
  8
Defpoints
 62
     0
100
AcDbPoint
 10
3459.08770874797
 20
-1905.106446592022
 30
0.0
  0
ENDBLK
  5
F9
330
F7
100
AcDbEntity
  8
0
100
AcDbBlockEnd
  0
BLOCK
  5
108
330
107
100
AcDbEntity
  8
0
100
AcDbBlockBegin
  2
*D4
 70
     1
 10
0.0
 20
0.0
 30
0.0
  3
*D4
  1

  0
LINE
  5
10A
330
107
100
AcDbEntity
  8
0
 62
     0
370
    -2
100
AcDbLine
 10
3652.980551507857
 20
-1575.106446592023
 30
0.0
 11
3727.880070177492
 21
-1575.106446592023
 31
0.0
  0
LINE
  5
10B
330
107
100
AcDbEntity
  8
0
 62
     0
370
    -2
100
AcDbLine
 10
3652.980551507857
 20
-1905.106446592022
 30
0.0
 11
3727.880070177492
 21
-1905.106446592022
 31
0.0
  0
LINE
  5
10C
330
107
100
AcDbEntity
  8
0
 62
     0
370
    -2
100
AcDbLine
 10
3715.380070177492
 20
-1600.106446592023
 30
0.0
 11
3715.380070177492
 21
-1880.106446592022
 31
0.0
  0
SOLID
  5
10D
330
107
100
AcDbEntity
  8
0
 62
     0
100
AcDbTrace
 10
3719.546736844159
 20
-1600.106446592023
 30
0.0
 11
3711.213403510826
 21
-1600.106446592023
 31
0.0
 12
3715.380070177492
 22
-1575.106446592023
 32
0.0
 13
3715.380070177492
 23
-1575.106446592023
 33
0.0
  0
SOLID
  5
10E
330
107
100
AcDbEntity
  8
0
 62
     0
100
AcDbTrace
 10
3711.213403510826
 20
-1880.106446592022
 30
0.0
 11
3719.546736844159
 21
-1880.106446592022
 31
0.0
 12
3715.380070177492
 22
-1905.106446592022
 32
0.0
 13
3715.380070177492
 23
-1905.106446592022
 33
0.0
  0
MTEXT
  5
10F
330
107
100
AcDbEntity
  8
0
 62
     0
100
AcDbMText
 10
3696.630070177492
 20
-1740.106446592023
 30
0.0
 40
25.0
 41
0.0
 46
0.0
 71
     5
 72
     1
  1
330
 11
0.0
 21
1.0
 31
0.0
 73
     1
 44
1.0
  0
POINT
  5
110
330
107
100
AcDbEntity
  8
Defpoints
 62
     0
100
AcDbPoint
 10
3646.730551507857
 20
-1575.106446592023
 30
0.0
  0
POINT
  5
111
330
107
100
AcDbEntity
  8
Defpoints
 62
     0
100
AcDbPoint
 10
3646.730551507857
 20
-1905.106446592022
 30
0.0
  0
POINT
  5
112
330
107
100
AcDbEntity
  8
Defpoints
 62
     0
100
AcDbPoint
 10
3715.380070177492
 20
-1905.106446592022
 30
0.0
  0
ENDBLK
  5
109
330
107
100
AcDbEntity
  8
0
100
AcDbBlockEnd
  0
BLOCK
  5
14B
330
14A
100
AcDbEntity
  8
0
100
AcDbBlockBegin
  2
*D5
 70
     1
 10
0.0
 20
0.0
 30
0.0
  3
*D5
  1

  0
LINE
  5
14D
330
14A
100
AcDbEntity
  8
0
  6
DOTTED
 62
     0
370
    -2
100
AcDbLine
 10
5620.653188060543
 20
502.4665745346597
 30
0.0
 11
5620.653188060543
 21
687.0948217581182
 31
0.0
  0
LINE
  5
14E
330
14A
100
AcDbEntity
  8
0
  6
DOTTED
 62
     0
370
    -2
100
AcDbLine
 10
6220.653188060543
 20
502.4665745346597
 30
0.0
 11
6220.653188060543
 21
687.0948217581182
 31
0.0
  0
LINE
  5
14F
330
14A
100
AcDbEntity
  8
0
 62
     0
370
    -2
100
AcDbLine
 10
5620.653188060543
 20
674.5948217581182
 30
0.0
 11
6220.653188060543
 21
674.5948217581182
 31
0.0
  0
INSERT
  5
150
330
14A
100
AcDbEntity
  8
0
 62
     0
370
    -2
100
AcDbBlockReference
  2
_ARCHTICK
 10
5620.653188060543
 20
674.5948217581182
 30
0.0
 41
10.0
 42
10.0
 43
10.0
 50
180.0
  0
INSERT
  5
151
330
14A
100
AcDbEntity
  8
0
 62
     0
370
    -2
100
AcDbBlockReference
  2
_ARCHTICK
 10
6220.653188060543
 20
674.5948217581182
 30
0.0
 41
10.0
 42
10.0
 43
10.0
  0
MTEXT
  5
152
330
14A
100
AcDbEntity
  8
0
 62
     0
100
AcDbMText
 10
5920.653188060543
 20
693.3448217581182
 30
0.0
 40
25.0
 41
0.0
 46
0.0
 71
     5
 72
     1
  1
600
 73
     1
 44
1.0
  0
POINT
  5
153
330
14A
100
AcDbEntity
  8
Defpoints
 62
     0
100
AcDbPoint
 10
5620.653188060543
 20
496.2165745346597
 30
0.0
  0
POINT
  5
154
330
14A
100
AcDbEntity
  8
Defpoints
 62
     0
100
AcDbPoint
 10
6220.653188060543
 20
496.2165745346597
 30
0.0
  0
POINT
  5
155
330
14A
100
AcDbEntity
  8
Defpoints
 62
     0
100
AcDbPoint
 10
6220.653188060543
 20
674.5948217581182
 30
0.0
  0
ENDBLK
  5
14C
330
14A
100
AcDbEntity
  8
0
100
AcDbBlockEnd
  0
BLOCK
  5
15A
330
159
100
AcDbEntity
  8
0
100
AcDbBlockBegin
  2
*D6
 70
     1
 10
0.0
 20
0.0
 30
0.0
  3
*D6
  1

  0
LINE
  5
15C
330
159
100
AcDbEntity
  8
0
  6
DOTTED
 62
     0
370
    -2
100
AcDbLine
 10
5614.403188060543
 20
496.2165745346597
 30
0.0
 11
5281.470772686074
 21
496.2165745346597
 31
0.0
  0
LINE
  5
15D
330
159
100
AcDbEntity
  8
0
  6
DOTTED
 62
     0
370
    -2
100
AcDbLine
 10
5614.403188060543
 20
226.2165745346597
 30
0.0
 11
5281.470772686074
 21
226.2165745346597
 31
0.0
  0
LINE
  5
15E
330
159
100
AcDbEntity
  8
0
 62
     0
370
    -2
100
AcDbLine
 10
5293.970772686074
 20
496.2165745346597
 30
0.0
 11
5293.970772686074
 21
226.2165745346597
 31
0.0
  0
INSERT
  5
15F
330
159
100
AcDbEntity
  8
0
 62
     0
370
    -2
100
AcDbBlockReference
  2
_ARCHTICK
 10
5293.970772686074
 20
496.2165745346597
 30
0.0
 41
10.0
 42
10.0
 43
10.0
 50
90.0
  0
INSERT
  5
160
330
159
100
AcDbEntity
  8
0
 62
     0
370
    -2
100
AcDbBlockReference
  2
_ARCHTICK
 10
5293.970772686074
 20
226.2165745346597
 30
0.0
 41
10.0
 42
10.0
 43
10.0
 50
270.0
  0
MTEXT
  5
161
330
159
100
AcDbEntity
  8
0
 62
     0
100
AcDbMText
 10
5275.220772686074
 20
361.2165745346597
 30
0.0
 40
25.0
 41
0.0
 46
0.0
 71
     5
 72
     1
  1
270
 11
0.0
 21
1.0
 31
0.0
 73
     1
 44
1.0
  0
POINT
  5
162
330
159
100
AcDbEntity
  8
Defpoints
 62
     0
100
AcDbPoint
 10
5620.653188060543
 20
496.2165745346597
 30
0.0
  0
POINT
  5
163
330
159
100
AcDbEntity
  8
Defpoints
 62
     0
100
AcDbPoint
 10
5620.653188060543
 20
226.2165745346597
 30
0.0
  0
POINT
  5
164
330
159
100
AcDbEntity
  8
Defpoints
 62
     0
100
AcDbPoint
 10
5293.970772686074
 20
226.2165745346597
 30
0.0
  0
ENDBLK
  5
15B
330
159
100
AcDbEntity
  8
0
100
AcDbBlockEnd
  0
BLOCK
  5
193
330
192
100
AcDbEntity
  8
0
100
AcDbBlockBegin
  2
*D7
 70
     1
 10
0.0
 20
0.0
 30
0.0
  3
*D7
  1

  0
LINE
  5
195
330
192
100
AcDbEntity
  8
0
 62
     0
370
    -2
100
AcDbLine
 10
5614.403188060543
 20
288.2165745346595
 30
0.0
 11
5481.410170467369
 21
288.2165745346595
 31
0.0
  0
LINE
  5
196
330
192
100
AcDbEntity
  8
0
 62
     0
370
    -2
100
AcDbLine
 10
5614.403188060543
 20
226.2165745346597
 30
0.0
 11
5481.410170467369
 21
226.2165745346597
 31
0.0
  0
LINE
  5
197
330
192
100
AcDbEntity
  8
0
 62
     0
370
    -2
100
AcDbLine
 10
5493.910170467369
 20
288.2165745346595
 30
0.0
 11
5493.910170467369
 21
226.2165745346597
 31
0.0
  0
LINE
  5
198
330
192
100
AcDbEntity
  8
0
 62
     0
370
    -2
100
AcDbLine
 10
5493.910170467369
 20
313.2165745346595
 30
0.0
 11
5493.910170467369
 21
338.2165745346595
 31
0.0
  0
LINE
  5
199
330
192
100
AcDbEntity
  8
0
 62
     0
370
    -2
100
AcDbLine
 10
5493.910170467369
 20
201.2165745346597
 30
0.0
 11
5493.910170467369
 21
176.2165745346597
 31
0.0
  0
SOLID
  5
19A
330
192
100
AcDbEntity
  8
0
 62
     0
100
AcDbTrace
 10
5489.743503800702
 20
313.2165745346595
 30
0.0
 11
5498.076837134036
 21
313.2165745346595
 31
0.0
 12
5493.910170467369
 22
288.2165745346595
 32
0.0
 13
5493.910170467369
 23
288.2165745346595
 33
0.0
  0
SOLID
  5
19B
330
192
100
AcDbEntity
  8
0
 62
     0
100
AcDbTrace
 10
5498.076837134036
 20
201.2165745346597
 30
0.0
 11
5489.743503800702
 21
201.2165745346597
 31
0.0
 12
5493.910170467369
 22
226.2165745346597
 32
0.0
 13
5493.910170467369
 23
226.2165745346597
 33
0.0
  0
MTEXT
  5
19C
330
192
100
AcDbEntity
  8
0
 62
     0
100
AcDbMText
 10
5475.160170467369
 20
257.2165745346596
 30
0.0
 40
25.0
 41
0.0
 46
0.0
 71
     5
 72
     1
  1
62
 11
0.0
 21
1.0
 31
0.0
 73
     1
 44
1.0
  0
POINT
  5
19D
330
192
100
AcDbEntity
  8
Defpoints
 62
     0
100
AcDbPoint
 10
5620.653188060543
 20
288.2165745346595
 30
0.0
  0
POINT
  5
19E
330
192
100
AcDbEntity
  8
Defpoints
 62
     0
100
AcDbPoint
 10
5620.653188060543
 20
226.2165745346597
 30
0.0
  0
POINT
  5
19F
330
192
100
AcDbEntity
  8
Defpoints
 62
     0
100
AcDbPoint
 10
5493.910170467369
 20
226.2165745346597
 30
0.0
  0
ENDBLK
  5
194
330
192
100
AcDbEntity
  8
0
100
AcDbBlockEnd
  0
BLOCK
  5
1C6
330
1C5
100
AcDbEntity
  8
0
100
AcDbBlockBegin
  2
_ARCHTICK
 70
     0
 10
0.0
 20
0.0
 30
0.0
  3
_ARCHTICK
  1

  0
LWPOLYLINE
  5
1C7
330
1C5
100
AcDbEntity
  8
0
  6
ByBlock
 62
     0
100
AcDbPolyline
 90
        2
 70
     0
 43
0.15
 10
-0.5
 20
-0.5
 10
0.5
 20
0.5
  0
ENDBLK
  5
1C8
330
1C5
100
AcDbEntity
  8
0
100
AcDbBlockEnd
  0
BLOCK
  5
1F0
330
1EF
100
AcDbEntity
  8
0
100
AcDbBlockBegin
  2
*D9
 70
     1
 10
0.0
 20
0.0
 30
0.0
  3
*D9
  1

  0
LINE
  5
1F1
330
1EF
100
AcDbEntity
  8
0
  6
DOTTED
 62
     0
370
    -2
100
AcDbLine
 10
6.250000000000909
 20
605.53033008589
 30
0.0
 11
123.3453072247199
 21
605.53033008589
 31
0.0
  0
LINE
  5
1F2
330
1EF
100
AcDbEntity
  8
0
  6
DOTTED
 62
     0
370
    -2
100
AcDbLine
 10
6.249999999999545
 20
5.530330085894107
 30
0.0
 11
123.3453072247198
 21
5.530330085894099
 31
0.0
  0
LINE
  5
1F3
330
1EF
100
AcDbEntity
  8
0
 62
     0
370
    -2
100
AcDbLine
 10
110.8453072247199
 20
605.53033008589
 30
0.0
 11
110.8453072247198
 21
5.5303300858941
 31
0.0
  0
INSERT
  5
1F4
330
1EF
100
AcDbEntity
  8
0
 62
     0
370
    -2
100
AcDbBlockReference
  2
_ARCHTICK
 10
110.8453072247199
 20
605.53033008589
 30
0.0
 41
10.0
 42
10.0
 43
10.0
 50
90.0
  0
INSERT
  5
1F5
330
1EF
100
AcDbEntity
  8
0
 62
     0
370
    -2
100
AcDbBlockReference
  2
_ARCHTICK
 10
110.8453072247198
 20
5.5303300858941
 30
0.0
 41
10.0
 42
10.0
 43
10.0
 50
270.0
  0
MTEXT
  5
1F6
330
1EF
100
AcDbEntity
  8
0
 62
     0
100
AcDbMText
 10
92.09530722471985
 20
305.530330085892
 30
0.0
 40
25.0
 41
0.0
 46
0.0
 71
     5
 72
     1
  1
600
 11
7.105427357601050E-17
 21
1.0
 31
0.0
 73
     1
 44
1.0
  0
POINT
  5
1F7
330
1EF
100
AcDbEntity
  8
Defpoints
 62
     0
100
AcDbPoint
 10
0.0000000000009095
 20
605.53033008589
 30
0.0
  0
POINT
  5
1F8
330
1EF
100
AcDbEntity
  8
Defpoints
 62
     0
100
AcDbPoint
 10
-0.0000000000004547
 20
5.530330085894107
 30
0.0
  0
POINT
  5
1F9
330
1EF
100
AcDbEntity
  8
Defpoints
 62
     0
100
AcDbPoint
 10
110.8453072247198
 20
5.5303300858941
 30
0.0
  0
ENDBLK
  5
1FA
330
1EF
100
AcDbEntity
  8
0
100
AcDbBlockEnd
  0
BLOCK
  5
206
330
205
100
AcDbEntity
  8
0
100
AcDbBlockBegin
  2
*D10
 70
     1
 10
0.0
 20
0.0
 30
0.0
  3
*D10
  1

  0
LINE
  5
208
330
205
100
AcDbEntity
  8
0
  6
DOTTED
 62
     0
370
    -2
100
AcDbLine
 10
5407.552982783482
 20
1070.318246077899
 30
0.0
 11
5524.648290008201
 21
1070.318246077899
 31
0.0
  0
LINE
  5
209
330
205
100
AcDbEntity
  8
0
  6
DOTTED
 62
     0
370
    -2
100
AcDbLine
 10
5407.55298278348
 20
470.3182460779032
 30
0.0
 11
5524.648290008201
 21
470.3182460779032
 31
0.0
  0
LINE
  5
20A
330
205
100
AcDbEntity
  8
0
 62
     0
370
    -2
100
AcDbLine
 10
5512.148290008201
 20
1070.318246077899
 30
0.0
 11
5512.148290008201
 21
470.3182460779032
 31
0.0
  0
INSERT
  5
20B
330
205
100
AcDbEntity
  8
0
 62
     0
370
    -2
100
AcDbBlockReference
  2
_ARCHTICK
 10
5512.148290008201
 20
1070.318246077899
 30
0.0
 41
10.0
 42
10.0
 43
10.0
 50
90.0
  0
INSERT
  5
20C
330
205
100
AcDbEntity
  8
0
 62
     0
370
    -2
100
AcDbBlockReference
  2
_ARCHTICK
 10
5512.148290008201
 20
470.3182460779032
 30
0.0
 41
10.0
 42
10.0
 43
10.0
 50
270.0
  0
MTEXT
  5
20D
330
205
100
AcDbEntity
  8
0
 62
     0
100
AcDbMText
 10
5493.398290008201
 20
770.318246077901
 30
0.0
 40
25.0
 41
0.0
 46
0.0
 71
     5
 72
     1
  1
600
 11
0.0
 21
1.0
 31
0.0
 73
     1
 44
1.0
  0
POINT
  5
20E
330
205
100
AcDbEntity
  8
Defpoints
 62
     0
100
AcDbPoint
 10
5401.302982783482
 20
1070.318246077899
 30
0.0
  0
POINT
  5
20F
330
205
100
AcDbEntity
  8
Defpoints
 62
     0
100
AcDbPoint
 10
5401.30298278348
 20
470.3182460779032
 30
0.0
  0
POINT
  5
210
330
205
100
AcDbEntity
  8
Defpoints
 62
     0
100
AcDbPoint
 10
5512.148290008201
 20
470.3182460779032
 30
0.0
  0
ENDBLK
  5
207
330
205
100
AcDbEntity
  8
0
100
AcDbBlockEnd
  0
BLOCK
  5
215
330
214
100
AcDbEntity
  8
0
100
AcDbBlockBegin
  2
*D11
 70
     1
 10
0.0
 20
0.0
 30
0.0
  3
*D11
  1

  0
LINE
  5
217
330
214
100
AcDbEntity
  8
0
  6
DOTTED
 62
     0
370
    -2
100
AcDbLine
 10
5620.653188060543
 20
502.4665745346597
 30
0.0
 11
5620.653188060543
 21
537.8420443715701
 31
0.0
  0
LINE
  5
218
330
214
100
AcDbEntity
  8
0
  6
DOTTED
 62
     0
370
    -2
100
AcDbLine
 10
5975.653188060543
 20
502.4665745346597
 30
0.0
 11
5975.653188060543
 21
537.8420443715701
 31
0.0
  0
LINE
  5
219
330
214
100
AcDbEntity
  8
0
 62
     0
370
    -2
100
AcDbLine
 10
5620.653188060543
 20
525.3420443715701
 30
0.0
 11
5975.653188060543
 21
525.3420443715701
 31
0.0
  0
INSERT
  5
21A
330
214
100
AcDbEntity
  8
0
 62
     0
370
    -2
100
AcDbBlockReference
  2
_ARCHTICK
 10
5620.653188060543
 20
525.3420443715701
 30
0.0
 41
10.0
 42
10.0
 43
10.0
 50
180.0
  0
INSERT
  5
21B
330
214
100
AcDbEntity
  8
0
 62
     0
370
    -2
100
AcDbBlockReference
  2
_ARCHTICK
 10
5975.653188060543
 20
525.3420443715701
 30
0.0
 41
10.0
 42
10.0
 43
10.0
  0
MTEXT
  5
21C
330
214
100
AcDbEntity
  8
0
 62
     0
100
AcDbMText
 10
5798.153188060543
 20
544.0920443715701
 30
0.0
 40
25.0
 41
0.0
 46
0.0
 71
     5
 72
     1
  1
355
 73
     1
 44
1.0
  0
POINT
  5
21D
330
214
100
AcDbEntity
  8
Defpoints
 62
     0
100
AcDbPoint
 10
5620.653188060543
 20
496.2165745346597
 30
0.0
  0
POINT
  5
21E
330
214
100
AcDbEntity
  8
Defpoints
 62
     0
100
AcDbPoint
 10
5975.653188060543
 20
496.2165745346597
 30
0.0
  0
POINT
  5
21F
330
214
100
AcDbEntity
  8
Defpoints
 62
     0
100
AcDbPoint
 10
5975.653188060543
 20
525.3420443715701
 30
0.0
  0
ENDBLK
  5
216
330
214
100
AcDbEntity
  8
0
100
AcDbBlockEnd
  0
BLOCK
  5
224
330
223
100
AcDbEntity
  8
0
100
AcDbBlockBegin
  2
*D12
 70
     1
 10
0.0
 20
0.0
 30
0.0
  3
*D12
  1

  0
LINE
  5
226
330
223
100
AcDbEntity
  8
0
  6
DOTTED
 62
     0
370
    -2
100
AcDbLine
 10
5620.653188060543
 20
502.4665745346597
 30
0.0
 11
5620.653188060543
 21
575.3420443715701
 31
0.0
  0
LINE
  5
227
330
223
100
AcDbEntity
  8
0
  6
DOTTED
 62
     0
370
    -2
100
AcDbLine
 10
6127.653188060543
 20
502.4665745346597
 30
0.0
 11
6127.653188060543
 21
575.3420443715701
 31
0.0
  0
LINE
  5
228
330
223
100
AcDbEntity
  8
0
 62
     0
370
    -2
100
AcDbLine
 10
5620.653188060543
 20
562.8420443715701
 30
0.0
 11
6127.653188060543
 21
562.8420443715701
 31
0.0
  0
INSERT
  5
229
330
223
100
AcDbEntity
  8
0
 62
     0
370
    -2
100
AcDbBlockReference
  2
_ARCHTICK
 10
5620.653188060543
 20
562.8420443715701
 30
0.0
 41
10.0
 42
10.0
 43
10.0
 50
180.0
  0
INSERT
  5
22A
330
223
100
AcDbEntity
  8
0
 62
     0
370
    -2
100
AcDbBlockReference
  2
_ARCHTICK
 10
6127.653188060543
 20
562.8420443715701
 30
0.0
 41
10.0
 42
10.0
 43
10.0
  0
MTEXT
  5
22B
330
223
100
AcDbEntity
  8
0
 62
     0
100
AcDbMText
 10
5874.153188060543
 20
581.5920443715701
 30
0.0
 40
25.0
 41
0.0
 46
0.0
 71
     5
 72
     1
  1
507
 73
     1
 44
1.0
  0
POINT
  5
22C
330
223
100
AcDbEntity
  8
Defpoints
 62
     0
100
AcDbPoint
 10
5620.653188060543
 20
496.2165745346597
 30
0.0
  0
POINT
  5
22D
330
223
100
AcDbEntity
  8
Defpoints
 62
     0
100
AcDbPoint
 10
6127.653188060543
 20
496.2165745346597
 30
0.0
  0
POINT
  5
22E
330
223
100
AcDbEntity
  8
Defpoints
 62
     0
100
AcDbPoint
 10
6127.653188060543
 20
562.8420443715701
 30
0.0
  0
ENDBLK
  5
225
330
223
100
AcDbEntity
  8
0
100
AcDbBlockEnd
  0
BLOCK
  5
233
330
232
100
AcDbEntity
  8
0
100
AcDbBlockBegin
  2
*D13
 70
     1
 10
0.0
 20
0.0
 30
0.0
  3
*D13
  1

  0
LINE
  5
235
330
232
100
AcDbEntity
  8
0
  6
DOTTED
 62
     0
370
    -2
100
AcDbLine
 10
5620.653188060543
 20
502.4665745346597
 30
0.0
 11
5620.653188060543
 21
612.8420443715701
 31
0.0
  0
LINE
  5
236
330
232
100
AcDbEntity
  8
0
  6
DOTTED
 62
     0
370
    -2
100
AcDbLine
 10
6179.653188060541
 20
502.4665745346579
 30
0.0
 11
6179.653188060541
 21
612.8420443715701
 31
0.0
  0
LINE
  5
237
330
232
100
AcDbEntity
  8
0
 62
     0
370
    -2
100
AcDbLine
 10
5620.653188060543
 20
600.3420443715701
 30
0.0
 11
6179.653188060541
 21
600.3420443715701
 31
0.0
  0
INSERT
  5
238
330
232
100
AcDbEntity
  8
0
 62
     0
370
    -2
100
AcDbBlockReference
  2
_ARCHTICK
 10
5620.653188060543
 20
600.3420443715701
 30
0.0
 41
10.0
 42
10.0
 43
10.0
 50
180.0
  0
INSERT
  5
239
330
232
100
AcDbEntity
  8
0
 62
     0
370
    -2
100
AcDbBlockReference
  2
_ARCHTICK
 10
6179.653188060541
 20
600.3420443715701
 30
0.0
 41
10.0
 42
10.0
 43
10.0
  0
MTEXT
  5
23A
330
232
100
AcDbEntity
  8
0
 62
     0
100
AcDbMText
 10
5900.153188060542
 20
619.0920443715701
 30
0.0
 40
25.0
 41
0.0
 46
0.0
 71
     5
 72
     1
  1
559
 73
     1
 44
1.0
  0
POINT
  5
23B
330
232
100
AcDbEntity
  8
Defpoints
 62
     0
100
AcDbPoint
 10
5620.653188060543
 20
496.2165745346597
 30
0.0
  0
POINT
  5
23C
330
232
100
AcDbEntity
  8
Defpoints
 62
     0
100
AcDbPoint
 10
6179.653188060541
 20
496.2165745346579
 30
0.0
  0
POINT
  5
23D
330
232
100
AcDbEntity
  8
Defpoints
 62
     0
100
AcDbPoint
 10
6179.653188060541
 20
600.3420443715701
 30
0.0
  0
ENDBLK
  5
234
330
232
100
AcDbEntity
  8
0
100
AcDbBlockEnd
  0
BLOCK
  5
242
330
241
100
AcDbEntity
  8
0
100
AcDbBlockBegin
  2
*D14
 70
     1
 10
0.0
 20
0.0
 30
0.0
  3
*D14
  1

  0
LINE
  5
244
330
241
100
AcDbEntity
  8
0
  6
DOTTED
 62
     0
370
    -2
100
AcDbLine
 10
5614.403188060543
 20
496.2165745346597
 30
0.0
 11
5571.10497347239
 21
496.2165745346597
 31
0.0
  0
LINE
  5
245
330
241
100
AcDbEntity
  8
0
  6
DOTTED
 62
     0
370
    -2
100
AcDbLine
 10
5614.403188060543
 20
446.2165745346596
 30
0.0
 11
5571.10497347239
 21
446.2165745346596
 31
0.0
  0
LINE
  5
246
330
241
100
AcDbEntity
  8
0
 62
     0
370
    -2
100
AcDbLine
 10
5583.60497347239
 20
496.2165745346597
 30
0.0
 11
5583.60497347239
 21
446.2165745346596
 31
0.0
  0
INSERT
  5
247
330
241
100
AcDbEntity
  8
0
 62
     0
370
    -2
100
AcDbBlockReference
  2
_ARCHTICK
 10
5583.60497347239
 20
496.2165745346597
 30
0.0
 41
10.0
 42
10.0
 43
10.0
 50
90.0
  0
INSERT
  5
248
330
241
100
AcDbEntity
  8
0
 62
     0
370
    -2
100
AcDbBlockReference
  2
_ARCHTICK
 10
5583.60497347239
 20
446.2165745346596
 30
0.0
 41
10.0
 42
10.0
 43
10.0
 50
270.0
  0
MTEXT
  5
249
330
241
100
AcDbEntity
  8
0
 62
     0
100
AcDbMText
 10
5564.85497347239
 20
468.9994350611717
 30
0.0
 40
25.0
 41
0.0
 46
0.0
 71
     5
 72
     1
  1
50
 11
0.0
 21
1.0
 31
0.0
 73
     1
 44
1.0
  0
POINT
  5
24A
330
241
100
AcDbEntity
  8
Defpoints
 62
     0
100
AcDbPoint
 10
5620.653188060543
 20
496.2165745346597
 30
0.0
  0
POINT
  5
24B
330
241
100
AcDbEntity
  8
Defpoints
 62
     0
100
AcDbPoint
 10
5620.653188060543
 20
446.2165745346596
 30
0.0
  0
POINT
  5
24C
330
241
100
AcDbEntity
  8
Defpoints
 62
     0
100
AcDbPoint
 10
5583.60497347239
 20
446.2165745346596
 30
0.0
  0
ENDBLK
  5
243
330
241
100
AcDbEntity
  8
0
100
AcDbBlockEnd
  0
BLOCK
  5
253
330
252
100
AcDbEntity
  8
0
100
AcDbBlockBegin
  2
*D15
 70
     1
 10
0.0
 20
0.0
 30
0.0
  3
*D15
  1

  0
LINE
  5
255
330
252
100
AcDbEntity
  8
0
  6
DOTTED
 62
     0
370
    -2
100
AcDbLine
 10
5614.403188060543
 20
496.2165745346597
 30
0.0
 11
5529.315210327318
 21
496.2165745346597
 31
0.0
  0
LINE
  5
256
330
252
100
AcDbEntity
  8
0
  6
DOTTED
 62
     0
370
    -2
100
AcDbLine
 10
5614.403188060543
 20
394.2165745346596
 30
0.0
 11
5529.315210327318
 21
394.2165745346596
 31
0.0
  0
LINE
  5
257
330
252
100
AcDbEntity
  8
0
 62
     0
370
    -2
100
AcDbLine
 10
5541.815210327318
 20
496.2165745346597
 30
0.0
 11
5541.815210327318
 21
394.2165745346596
 31
0.0
  0
INSERT
  5
258
330
252
100
AcDbEntity
  8
0
 62
     0
370
    -2
100
AcDbBlockReference
  2
_ARCHTICK
 10
5541.815210327318
 20
496.2165745346597
 30
0.0
 41
10.0
 42
10.0
 43
10.0
 50
90.0
  0
INSERT
  5
259
330
252
100
AcDbEntity
  8
0
 62
     0
370
    -2
100
AcDbBlockReference
  2
_ARCHTICK
 10
5541.815210327318
 20
394.2165745346596
 30
0.0
 41
10.0
 42
10.0
 43
10.0
 50
270.0
  0
MTEXT
  5
25A
330
252
100
AcDbEntity
  8
0
 62
     0
100
AcDbMText
 10
5523.065210327318
 20
445.2165745346596
 30
0.0
 40
25.0
 41
0.0
 46
0.0
 71
     5
 72
     1
  1
102
 11
0.0
 21
1.0
 31
0.0
 73
     1
 44
1.0
  0
POINT
  5
25B
330
252
100
AcDbEntity
  8
Defpoints
 62
     0
100
AcDbPoint
 10
5620.653188060543
 20
496.2165745346597
 30
0.0
  0
POINT
  5
25C
330
252
100
AcDbEntity
  8
Defpoints
 62
     0
100
AcDbPoint
 10
5620.653188060543
 20
394.2165745346596
 30
0.0
  0
POINT
  5
25D
330
252
100
AcDbEntity
  8
Defpoints
 62
     0
100
AcDbPoint
 10
5541.815210327318
 20
394.2165745346596
 30
0.0
  0
ENDBLK
  5
254
330
252
100
AcDbEntity
  8
0
100
AcDbBlockEnd
  0
BLOCK
  5
262
330
261
100
AcDbEntity
  8
0
100
AcDbBlockBegin
  2
*D16
 70
     1
 10
0.0
 20
0.0
 30
0.0
  3
*D16
  1

  0
LINE
  5
264
330
261
100
AcDbEntity
  8
0
  6
DOTTED
 62
     0
370
    -2
100
AcDbLine
 10
5614.403188060543
 20
496.2165745346597
 30
0.0
 11
5491.815210327318
 21
496.2165745346597
 31
0.0
  0
LINE
  5
265
330
261
100
AcDbEntity
  8
0
  6
DOTTED
 62
     0
370
    -2
100
AcDbLine
 10
5614.403188060543
 20
342.2165745346595
 30
0.0
 11
5491.815210327318
 21
342.2165745346595
 31
0.0
  0
LINE
  5
266
330
261
100
AcDbEntity
  8
0
 62
     0
370
    -2
100
AcDbLine
 10
5504.315210327318
 20
496.2165745346597
 30
0.0
 11
5504.315210327318
 21
342.2165745346595
 31
0.0
  0
INSERT
  5
267
330
261
100
AcDbEntity
  8
0
 62
     0
370
    -2
100
AcDbBlockReference
  2
_ARCHTICK
 10
5504.315210327318
 20
496.2165745346597
 30
0.0
 41
10.0
 42
10.0
 43
10.0
 50
90.0
  0
INSERT
  5
268
330
261
100
AcDbEntity
  8
0
 62
     0
370
    -2
100
AcDbBlockReference
  2
_ARCHTICK
 10
5504.315210327318
 20
342.2165745346595
 30
0.0
 41
10.0
 42
10.0
 43
10.0
 50
270.0
  0
MTEXT
  5
269
330
261
100
AcDbEntity
  8
0
 62
     0
100
AcDbMText
 10
5485.565210327318
 20
419.2165745346596
 30
0.0
 40
25.0
 41
0.0
 46
0.0
 71
     5
 72
     1
  1
154
 11
0.0
 21
1.0
 31
0.0
 73
     1
 44
1.0
  0
POINT
  5
26A
330
261
100
AcDbEntity
  8
Defpoints
 62
     0
100
AcDbPoint
 10
5620.653188060543
 20
496.2165745346597
 30
0.0
  0
POINT
  5
26B
330
261
100
AcDbEntity
  8
Defpoints
 62
     0
100
AcDbPoint
 10
5620.653188060543
 20
342.2165745346595
 30
0.0
  0
POINT
  5
26C
330
261
100
AcDbEntity
  8
Defpoints
 62
     0
100
AcDbPoint
 10
5504.315210327318
 20
342.2165745346595
 30
0.0
  0
ENDBLK
  5
263
330
261
100
AcDbEntity
  8
0
100
AcDbBlockEnd
  0
BLOCK
  5
271
330
270
100
AcDbEntity
  8
0
100
AcDbBlockBegin
  2
*D17
 70
     1
 10
0.0
 20
0.0
 30
0.0
  3
*D17
  1

  0
LINE
  5
273
330
270
100
AcDbEntity
  8
0
  6
DOTTED
 62
     0
370
    -2
100
AcDbLine
 10
5614.403188060543
 20
496.2165745346597
 30
0.0
 11
5454.315210327318
 21
496.2165745346597
 31
0.0
  0
LINE
  5
274
330
270
100
AcDbEntity
  8
0
  6
DOTTED
 62
     0
370
    -2
100
AcDbLine
 10
5614.403188060543
 20
290.2165745346595
 30
0.0
 11
5454.315210327318
 21
290.2165745346595
 31
0.0
  0
LINE
  5
275
330
270
100
AcDbEntity
  8
0
 62
     0
370
    -2
100
AcDbLine
 10
5466.815210327318
 20
496.2165745346597
 30
0.0
 11
5466.815210327318
 21
290.2165745346595
 31
0.0
  0
INSERT
  5
276
330
270
100
AcDbEntity
  8
0
 62
     0
370
    -2
100
AcDbBlockReference
  2
_ARCHTICK
 10
5466.815210327318
 20
496.2165745346597
 30
0.0
 41
10.0
 42
10.0
 43
10.0
 50
90.0
  0
INSERT
  5
277
330
270
100
AcDbEntity
  8
0
 62
     0
370
    -2
100
AcDbBlockReference
  2
_ARCHTICK
 10
5466.815210327318
 20
290.2165745346595
 30
0.0
 41
10.0
 42
10.0
 43
10.0
 50
270.0
  0
MTEXT
  5
278
330
270
100
AcDbEntity
  8
0
 62
     0
100
AcDbMText
 10
5448.065210327318
 20
393.2165745346596
 30
0.0
 40
25.0
 41
0.0
 46
0.0
 71
     5
 72
     1
  1
206
 11
0.0
 21
1.0
 31
0.0
 73
     1
 44
1.0
  0
POINT
  5
279
330
270
100
AcDbEntity
  8
Defpoints
 62
     0
100
AcDbPoint
 10
5620.653188060543
 20
496.2165745346597
 30
0.0
  0
POINT
  5
27A
330
270
100
AcDbEntity
  8
Defpoints
 62
     0
100
AcDbPoint
 10
5620.653188060543
 20
290.2165745346595
 30
0.0
  0
POINT
  5
27B
330
270
100
AcDbEntity
  8
Defpoints
 62
     0
100
AcDbPoint
 10
5466.815210327318
 20
290.2165745346595
 30
0.0
  0
ENDBLK
  5
272
330
270
100
AcDbEntity
  8
0
100
AcDbBlockEnd
  0
BLOCK
  5
280
330
27F
100
AcDbEntity
  8
0
100
AcDbBlockBegin
  2
*D18
 70
     1
 10
0.0
 20
0.0
 30
0.0
  3
*D18
  1

  0
LINE
  5
282
330
27F
100
AcDbEntity
  8
0
  6
DOTTED
 62
     0
370
    -2
100
AcDbLine
 10
5614.403188060543
 20
496.2165745346597
 30
0.0
 11
5390.62327676555
 21
496.2165745346597
 31
0.0
  0
LINE
  5
283
330
27F
100
AcDbEntity
  8
0
  6
DOTTED
 62
     0
370
    -2
100
AcDbLine
 10
5614.403188060543
 20
238.2165745346613
 30
0.0
 11
5390.62327676555
 21
238.2165745346613
 31
0.0
  0
LINE
  5
284
330
27F
100
AcDbEntity
  8
0
 62
     0
370
    -2
100
AcDbLine
 10
5403.12327676555
 20
496.2165745346597
 30
0.0
 11
5403.12327676555
 21
238.2165745346613
 31
0.0
  0
INSERT
  5
285
330
27F
100
AcDbEntity
  8
0
 62
     0
370
    -2
100
AcDbBlockReference
  2
_ARCHTICK
 10
5403.12327676555
 20
496.2165745346597
 30
0.0
 41
10.0
 42
10.0
 43
10.0
 50
90.0
  0
INSERT
  5
286
330
27F
100
AcDbEntity
  8
0
 62
     0
370
    -2
100
AcDbBlockReference
  2
_ARCHTICK
 10
5403.12327676555
 20
238.2165745346613
 30
0.0
 41
10.0
 42
10.0
 43
10.0
 50
270.0
  0
MTEXT
  5
287
330
27F
100
AcDbEntity
  8
0
 62
     0
100
AcDbMText
 10
5384.37327676555
 20
367.2165745346605
 30
0.0
 40
25.0
 41
0.0
 46
0.0
 71
     5
 72
     1
  1
258
 11
0.0
 21
1.0
 31
0.0
 73
     1
 44
1.0
  0
POINT
  5
288
330
27F
100
AcDbEntity
  8
Defpoints
 62
     0
100
AcDbPoint
 10
5620.653188060543
 20
496.2165745346597
 30
0.0
  0
POINT
  5
289
330
27F
100
AcDbEntity
  8
Defpoints
 62
     0
100
AcDbPoint
 10
5620.653188060543
 20
238.2165745346613
 30
0.0
  0
POINT
  5
28A
330
27F
100
AcDbEntity
  8
Defpoints
 62
     0
100
AcDbPoint
 10
5403.12327676555
 20
238.2165745346613
 30
0.0
  0
ENDBLK
  5
281
330
27F
100
AcDbEntity
  8
0
100
AcDbBlockEnd
  0
BLOCK
  5
28F
330
28E
100
AcDbEntity
  8
0
100
AcDbBlockBegin
  2
*D19
 70
     1
 10
0.0
 20
0.0
 30
0.0
  3
*D19
  1

  0
LINE
  5
291
330
28E
100
AcDbEntity
  8
0
  6
DOTTED
 62
     0
370
    -2
100
AcDbLine
 10
6185.903188060541
 20
496.2165745346579
 30
0.0
 11
6282.373875546443
 21
496.2165745346579
 31
0.0
  0
LINE
  5
292
330
28E
100
AcDbEntity
  8
0
  6
DOTTED
 62
     0
370
    -2
100
AcDbLine
 10
6185.903188060536
 20
346.2165745346579
 30
0.0
 11
6282.373875546443
 21
346.2165745346579
 31
0.0
  0
LINE
  5
293
330
28E
100
AcDbEntity
  8
0
 62
     0
370
    -2
100
AcDbLine
 10
6269.873875546443
 20
496.2165745346579
 30
0.0
 11
6269.873875546443
 21
346.2165745346579
 31
0.0
  0
INSERT
  5
294
330
28E
100
AcDbEntity
  8
0
 62
     0
370
    -2
100
AcDbBlockReference
  2
_ARCHTICK
 10
6269.873875546443
 20
496.2165745346579
 30
0.0
 41
10.0
 42
10.0
 43
10.0
 50
90.0
  0
INSERT
  5
295
330
28E
100
AcDbEntity
  8
0
 62
     0
370
    -2
100
AcDbBlockReference
  2
_ARCHTICK
 10
6269.873875546443
 20
346.2165745346579
 30
0.0
 41
10.0
 42
10.0
 43
10.0
 50
270.0
  0
MTEXT
  5
296
330
28E
100
AcDbEntity
  8
0
 62
     0
100
AcDbMText
 10
6251.123875546443
 20
421.2165745346579
 30
0.0
 40
25.0
 41
0.0
 46
0.0
 71
     5
 72
     1
  1
150
 11
0.0
 21
1.0
 31
0.0
 73
     1
 44
1.0
  0
POINT
  5
297
330
28E
100
AcDbEntity
  8
Defpoints
 62
     0
100
AcDbPoint
 10
6179.653188060541
 20
496.2165745346579
 30
0.0
  0
POINT
  5
298
330
28E
100
AcDbEntity
  8
Defpoints
 62
     0
100
AcDbPoint
 10
6179.653188060536
 20
346.2165745346579
 30
0.0
  0
POINT
  5
299
330
28E
100
AcDbEntity
  8
Defpoints
 62
     0
100
AcDbPoint
 10
6269.873875546443
 20
346.2165745346579
 30
0.0
  0
ENDBLK
  5
290
330
28E
100
AcDbEntity
  8
0
100
AcDbBlockEnd
  0
BLOCK
  5
29E
330
29D
100
AcDbEntity
  8
0
100
AcDbBlockBegin
  2
*D20
 70
     1
 10
0.0
 20
0.0
 30
0.0
  3
*D20
  1

  0
LINE
  5
2A0
330
29D
100
AcDbEntity
  8
0
  6
DOTTED
 62
     0
370
    -2
100
AcDbLine
 10
5620.653188060543
 20
231.9665745346613
 30
0.0
 11
5620.653188060543
 21
162.9477677391581
 31
0.0
  0
LINE
  5
2A1
330
29D
100
AcDbEntity
  8
0
  6
DOTTED
 62
     0
370
    -2
100
AcDbLine
 10
5770.653188060543
 20
231.9665745346613
 30
0.0
 11
5770.653188060543
 21
162.9477677391581
 31
0.0
  0
LINE
  5
2A2
330
29D
100
AcDbEntity
  8
0
 62
     0
370
    -2
100
AcDbLine
 10
5620.653188060543
 20
175.4477677391581
 30
0.0
 11
5770.653188060543
 21
175.4477677391581
 31
0.0
  0
INSERT
  5
2A3
330
29D
100
AcDbEntity
  8
0
 62
     0
370
    -2
100
AcDbBlockReference
  2
_ARCHTICK
 10
5620.653188060543
 20
175.4477677391581
 30
0.0
 41
10.0
 42
10.0
 43
10.0
 50
180.0
  0
INSERT
  5
2A4
330
29D
100
AcDbEntity
  8
0
 62
     0
370
    -2
100
AcDbBlockReference
  2
_ARCHTICK
 10
5770.653188060543
 20
175.4477677391581
 30
0.0
 41
10.0
 42
10.0
 43
10.0
  0
MTEXT
  5
2A5
330
29D
100
AcDbEntity
  8
0
 62
     0
100
AcDbMText
 10
5695.653188060543
 20
194.1977677391581
 30
0.0
 40
25.0
 41
0.0
 46
0.0
 71
     5
 72
     1
  1
150
 73
     1
 44
1.0
  0
POINT
  5
2A6
330
29D
100
AcDbEntity
  8
Defpoints
 62
     0
100
AcDbPoint
 10
5620.653188060543
 20
238.2165745346613
 30
0.0
  0
POINT
  5
2A7
330
29D
100
AcDbEntity
  8
Defpoints
 62
     0
100
AcDbPoint
 10
5770.653188060543
 20
238.2165745346613
 30
0.0
  0
POINT
  5
2A8
330
29D
100
AcDbEntity
  8
Defpoints
 62
     0
100
AcDbPoint
 10
5770.653188060543
 20
175.4477677391581
 30
0.0
  0
ENDBLK
  5
29F
330
29D
100
AcDbEntity
  8
0
100
AcDbBlockEnd
  0
BLOCK
  5
2AD
330
2AC
100
AcDbEntity
  8
0
100
AcDbBlockBegin
  2
*D21
 70
     1
 10
0.0
 20
0.0
 30
0.0
  3
*D21
  1

  0
LINE
  5
2AF
330
2AC
100
AcDbEntity
  8
0
  6
DOTTED
 62
     0
370
    -2
100
AcDbLine
 10
5620.653188060543
 20
231.9665745346613
 30
0.0
 11
5620.653188060543
 21
125.4477677391581
 31
0.0
  0
LINE
  5
2B0
330
2AC
100
AcDbEntity
  8
0
  6
DOTTED
 62
     0
370
    -2
100
AcDbLine
 10
5922.653188060543
 20
231.9665745346613
 30
0.0
 11
5922.653188060543
 21
125.4477677391581
 31
0.0
  0
LINE
  5
2B1
330
2AC
100
AcDbEntity
  8
0
 62
     0
370
    -2
100
AcDbLine
 10
5620.653188060543
 20
137.9477677391581
 30
0.0
 11
5922.653188060543
 21
137.9477677391581
 31
0.0
  0
INSERT
  5
2B2
330
2AC
100
AcDbEntity
  8
0
 62
     0
370
    -2
100
AcDbBlockReference
  2
_ARCHTICK
 10
5620.653188060543
 20
137.9477677391581
 30
0.0
 41
10.0
 42
10.0
 43
10.0
 50
180.0
  0
INSERT
  5
2B3
330
2AC
100
AcDbEntity
  8
0
 62
     0
370
    -2
100
AcDbBlockReference
  2
_ARCHTICK
 10
5922.653188060543
 20
137.9477677391581
 30
0.0
 41
10.0
 42
10.0
 43
10.0
  0
MTEXT
  5
2B4
330
2AC
100
AcDbEntity
  8
0
 62
     0
100
AcDbMText
 10
5771.653188060543
 20
156.6977677391581
 30
0.0
 40
25.0
 41
0.0
 46
0.0
 71
     5
 72
     1
  1
302
 73
     1
 44
1.0
  0
POINT
  5
2B5
330
2AC
100
AcDbEntity
  8
Defpoints
 62
     0
100
AcDbPoint
 10
5620.653188060543
 20
238.2165745346613
 30
0.0
  0
POINT
  5
2B6
330
2AC
100
AcDbEntity
  8
Defpoints
 62
     0
100
AcDbPoint
 10
5922.653188060543
 20
238.2165745346613
 30
0.0
  0
POINT
  5
2B7
330
2AC
100
AcDbEntity
  8
Defpoints
 62
     0
100
AcDbPoint
 10
5922.653188060543
 20
137.9477677391581
 30
0.0
  0
ENDBLK
  5
2AE
330
2AC
100
AcDbEntity
  8
0
100
AcDbBlockEnd
  0
BLOCK
  5
2BC
330
2BB
100
AcDbEntity
  8
0
100
AcDbBlockBegin
  2
*D22
 70
     1
 10
0.0
 20
0.0
 30
0.0
  3
*D22
  1

  0
LINE
  5
2BE
330
2BB
100
AcDbEntity
  8
0
  6
DOTTED
 62
     0
370
    -2
100
AcDbLine
 10
5620.653188060543
 20
231.9665745346613
 30
0.0
 11
5620.653188060543
 21
87.94776773915814
 31
0.0
  0
LINE
  5
2BF
330
2BB
100
AcDbEntity
  8
0
  6
DOTTED
 62
     0
370
    -2
100
AcDbLine
 10
6074.653188060543
 20
231.9665745346613
 30
0.0
 11
6074.653188060543
 21
87.94776773915814
 31
0.0
  0
LINE
  5
2C0
330
2BB
100
AcDbEntity
  8
0
 62
     0
370
    -2
100
AcDbLine
 10
5620.653188060543
 20
100.4477677391581
 30
0.0
 11
6074.653188060543
 21
100.4477677391581
 31
0.0
  0
INSERT
  5
2C1
330
2BB
100
AcDbEntity
  8
0
 62
     0
370
    -2
100
AcDbBlockReference
  2
_ARCHTICK
 10
5620.653188060543
 20
100.4477677391581
 30
0.0
 41
10.0
 42
10.0
 43
10.0
 50
180.0
  0
INSERT
  5
2C2
330
2BB
100
AcDbEntity
  8
0
 62
     0
370
    -2
100
AcDbBlockReference
  2
_ARCHTICK
 10
6074.653188060543
 20
100.4477677391581
 30
0.0
 41
10.0
 42
10.0
 43
10.0
  0
MTEXT
  5
2C3
330
2BB
100
AcDbEntity
  8
0
 62
     0
100
AcDbMText
 10
5847.653188060543
 20
119.1977677391581
 30
0.0
 40
25.0
 41
0.0
 46
0.0
 71
     5
 72
     1
  1
454
 73
     1
 44
1.0
  0
POINT
  5
2C4
330
2BB
100
AcDbEntity
  8
Defpoints
 62
     0
100
AcDbPoint
 10
5620.653188060543
 20
238.2165745346613
 30
0.0
  0
POINT
  5
2C5
330
2BB
100
AcDbEntity
  8
Defpoints
 62
     0
100
AcDbPoint
 10
6074.653188060543
 20
238.2165745346613
 30
0.0
  0
POINT
  5
2C6
330
2BB
100
AcDbEntity
  8
Defpoints
 62
     0
100
AcDbPoint
 10
6074.653188060543
 20
100.4477677391581
 30
0.0
  0
ENDBLK
  5
2BD
330
2BB
100
AcDbEntity
  8
0
100
AcDbBlockEnd
  0
ENDSEC
  0
SECTION
  2
ENTITIES
  0
LWPOLYLINE
  5
C0
330
1F
100
AcDbEntity
  8
0
100
AcDbPolyline
 90
        4
 70
     1
 43
0.0
 10
17.93874125874123
 20
297.461958041958
 10
17.93874125874123
 20
-702.5380419580421
 10
517.9387412587412
 20
-702.5380419580421
 10
517.9387412587412
 20
297.461958041958
  0
TEXT
  5
C1
330
1F
100
AcDbEntity
  8
0
100
AcDbText
 10
23.58451717350044
 20
387.4352337603801
 30
0.0
 40
87.34322928048505
  1
polistirolo
100
AcDbText
  0
LWPOLYLINE
  5
C2
330
1F
100
AcDbEntity
  8
0
 62
     4
100
AcDbPolyline
 90
        4
 70
     1
 43
0.0
 10
893.8056618430401
 20
280.8251156680234
 10
893.8056618430401
 20
-549.1748843319766
 10
1493.80566184304
 20
-549.1748843319766
 10
1493.80566184304
 20
280.8251156680234
  0
TEXT
  5
C3
330
1F
100
AcDbEntity
  8
0
 62
     4
100
AcDbText
 10
893.8056618430401
 20
374.5906412191324
 30
0.0
 40
87.34322928048505
  1
compensato
100
AcDbText
1001
PE_URL
1000

  0
LWPOLYLINE
  5
C4
330
1F
100
AcDbEntity
  8
0
100
AcDbPolyline
 90
        4
 70
     1
 43
0.0
 10
3494.899698309066
 20
297.4619580419582
 10
3494.899698309066
 20
-702.538041958042
 10
3994.899698309066
 20
-702.538041958042
 10
3994.899698309066
 20
297.4619580419582
  0
LWPOLYLINE
  5
C5
330
1F
100
AcDbEntity
  8
0
 62
     4
100
AcDbPolyline
 90
        4
 70
     1
 43
0.0
 10
2482.745806058738
 20
297.461958041958
 10
2482.745806058738
 20
-532.538041958042
 10
3082.745806058738
 20
-532.538041958042
 10
3082.745806058738
 20
297.461958041958
  0
LWPOLYLINE
  5
C7
330
1F
100
AcDbEntity
  8
0
100
AcDbPolyline
 90
        4
 70
     1
 43
0.0
 10
3894.899698309066
 20
297.4619580419582
 10
3894.899698309066
 20
-532.5380419580417
 10
3994.899698309066
 20
-532.5380419580417
 10
3994.899698309066
 20
297.4619580419582
  0
LWPOLYLINE
  5
C8
330
1F
100
AcDbEntity
  8
0
100
AcDbPolyline
 90
        4
 70
     1
 43
0.0
 10
3794.899698309066
 20
297.4619580419582
 10
3794.899698309066
 20
-532.5380419580417
 10
3894.899698309066
 20
-532.5380419580417
 10
3894.899698309066
 20
297.4619580419582
  0
LWPOLYLINE
  5
C9
330
1F
100
AcDbEntity
  8
0
100
AcDbPolyline
 90
        4
 70
     1
 43
0.0
 10
3694.899698309066
 20
297.4619580419582
 10
3694.899698309066
 20
-532.5380419580417
 10
3794.899698309066
 20
-532.5380419580417
 10
3794.899698309066
 20
297.4619580419582
  0
LWPOLYLINE
  5
CA
330
1F
100
AcDbEntity
  8
0
100
AcDbPolyline
 90
        4
 70
     1
 43
0.0
 10
3594.899698309066
 20
297.4619580419582
 10
3594.899698309066
 20
-532.5380419580417
 10
3694.899698309066
 20
-532.5380419580417
 10
3694.899698309066
 20
297.4619580419582
  0
LWPOLYLINE
  5
CB
102
{ACAD_REACTORS
330
CF
330
E0
102
}
330
1F
100
AcDbEntity
  8
0
100
AcDbPolyline
 90
        4
 70
     1
 43
0.0
 10
3494.899698309066
 20
297.4619580419582
 10
3494.899698309066
 20
-532.5380419580417
 10
3594.899698309066
 20
-532.5380419580417
 10
3594.899698309066
 20
297.4619580419582
  0
DIMENSION
  5
CD
102
{ACAD_REACTORS
330
CF
102
}
102
{ACAD_XDICTIONARY
360
CE
102
}
330
1F
100
AcDbEntity
  8
0
100
AcDbDimension
280
     0
  2
*D1
 10
3594.899698309066
 20
346.9670380218886
 30
0.0
 11
3544.899698309066
 21
365.7170380218886
 31
0.0
 70
    32
 71
     5
 42
100.0
 73
     0
 74
     0
 75
     0
  3
ISO-25
100
AcDbAlignedDimension
 13
3494.899698309066
 23
297.4619580419582
 33
0.0
 14
3594.899698309066
 24
297.4619580419582
 34
0.0
100
AcDbRotatedDimension
1001
ACAD
1000
DSTYLE
1002
{
1070
   144
1040
1.0
1002
}
  0
DIMENSION
  5
DE
102
{ACAD_REACTORS
330
E0
102
}
102
{ACAD_XDICTIONARY
360
DF
102
}
330
1F
100
AcDbEntity
  8
0
100
AcDbDimension
280
     0
  2
*D2
 10
3407.256855549179
 20
-532.5380419580417
 30
0.0
 11
3388.506855549179
 21
-117.5380419580417
 31
0.0
 70
    32
 71
     5
 42
830.0
 73
     0
 74
     0
 75
     0
  3
ISO-25
100
AcDbAlignedDimension
 13
3544.899698309066
 23
297.4619580419582
 33
0.0
 14
3494.899698309066
 24
-532.5380419580417
 34
0.0
 50
90.0
100
AcDbRotatedDimension
1001
ACAD
1000
DSTYLE
1002
{
1070
   144
1040
1.0
1002
}
  0
LWPOLYLINE
  5
ED
330
1F
100
AcDbEntity
  8
0
100
AcDbPolyline
 90
        4
 70
     1
 43
0.0
 10
4229.610391668441
 20
297.4619580419582
 10
4229.610391668441
 20
-702.538041958042
 10
4729.610391668441
 20
-702.538041958042
 10
4729.610391668441
 20
297.4619580419582
  0
LWPOLYLINE
  5
F0
330
1F
100
AcDbEntity
  8
0
100
AcDbPolyline
 90
        4
 70
     1
 43
0.0
 10
3494.899698309066
 20
-702.538041958042
 10
3494.899698309066
 20
-602.5380419580422
 10
3994.899698309066
 20
-602.5380419580422
 10
3994.899698309066
 20
-702.538041958042
  0
LWPOLYLINE
  5
F1
330
1F
100
AcDbEntity
  8
0
100
AcDbPolyline
 90
        4
 70
     1
 43
0.0
 10
4229.610391668441
 20
-702.538041958042
 10
4229.610391668441
 20
-602.5380419580422
 10
4729.610391668441
 20
-602.5380419580422
 10
4729.610391668441
 20
-702.538041958042
  0
LWPOLYLINE
  5
F2
102
{ACAD_REACTORS
330
106
102
}
330
1F
100
AcDbEntity
  8
0
100
AcDbPolyline
 90
        4
 70
     1
 43
0.0
 10
3646.730551507857
 20
-2075.106446592023
 10
3546.730551507857
 20
-2075.106446592023
 10
3546.730551507857
 20
-1575.106446592023
 10
3646.730551507857
 20
-1575.106446592023
  0
LWPOLYLINE
  5
F3
330
1F
100
AcDbEntity
  8
0
100
AcDbPolyline
 90
        4
 70
     1
 43
0.0
 10
3646.730551507856
 20
-1575.106446592023
 10
3546.730551507857
 20
-1575.106446592023
 10
3546.730551507857
 20
-1075.106446592023
 10
3646.730551507856
 20
-1075.106446592023
  0
DIMENSION
  5
F4
102
{ACAD_XDICTIONARY
360
F5
102
}
330
1F
100
AcDbEntity
  8
0
100
AcDbDimension
280
     0
  2
*D3
 10
3459.08770874797
 20
-1905.106446592022
 30
0.0
 11
3440.33770874797
 21
-1490.106446592023
 31
0.0
 70
    32
 71
     5
 42
829.9999999999989
 73
     0
 74
     0
 75
     0
  3
ISO-25
100
AcDbAlignedDimension
 13
3596.730551507857
 23
-1075.106446592023
 33
0.0
 14
3546.730551507857
 24
-1905.106446592022
 34
0.0
 50
90.0
100
AcDbRotatedDimension
1001
ACAD
1000
DSTYLE
1002
{
1070
   144
1040
1.0
1002
}
  0
LINE
  5
103
102
{ACAD_REACTORS
330
106
102
}
330
1F
100
AcDbEntity
  8
0
100
AcDbLine
 10
3546.730551507857
 20
-1905.106446592022
 30
0.0
 11
3646.730551507857
 21
-1905.106446592022
 31
0.0
  0
DIMENSION
  5
104
102
{ACAD_REACTORS
330
106
102
}
102
{ACAD_XDICTIONARY
360
105
102
}
330
1F
100
AcDbEntity
  8
0
100
AcDbDimension
280
     0
  2
*D4
 10
3715.380070177492
 20
-1905.106446592022
 30
0.0
 11
3696.630070177492
 21
-1740.106446592023
 31
0.0
 70
    32
 71
     5
 42
329.9999999999989
 73
     0
 74
     0
 75
     0
  3
ISO-25
100
AcDbAlignedDimension
 13
3646.730551507857
 23
-1575.106446592023
 33
0.0
 14
3646.730551507857
 24
-1905.106446592022
 34
0.0
 50
90.0
100
AcDbRotatedDimension
1001
ACAD
1000
DSTYLE
1002
{
1070
   144
1040
1.0
1002
}
  0
LWPOLYLINE
  5
119
330
1F
100
AcDbEntity
  8
0
100
AcDbPolyline
 90
        4
 70
     1
 43
0.0
 10
893.8056618430401
 20
280.8251156680234
 10
893.8056618430401
 20
-719.1748843319767
 10
1393.80566184304
 20
-719.1748843319767
 10
1393.80566184304
 20
280.8251156680234
  0
LWPOLYLINE
  5
11A
330
1F
100
AcDbEntity
  8
0
 62
     4
100
AcDbPolyline
 90
        4
 70
     1
 43
0.0
 10
2482.745806058738
 20
-858.5513706703459
 10
2482.745806058738
 20
-1688.551370670346
 10
3082.745806058738
 20
-1688.551370670346
 10
3082.745806058738
 20
-858.5513706703459
  0
LINE
  5
11B
330
1F
100
AcDbEntity
  8
0
100
AcDbLine
 10
2482.745806058739
 20
-1458.551370670346
 30
0.0
 11
3082.745806058739
 21
-1458.551370670346
 31
0.0
  0
LWPOLYLINE
  5
11F
102
{ACAD_REACTORS
330
149
330
158
330
213
330
222
330
231
330
240
330
251
330
260
330
26F
330
27E
102
}
330
1F
100
AcDbEntity
  8
0
100
AcDbPolyline
 90
        4
 70
     1
 43
0.0
 10
5620.653188060543
 20
226.2165745346597
 10
5620.653188060543
 20
496.2165745346597
 10
6220.653188060543
 20
496.2165745346597
 10
6220.653188060543
 20
226.2165745346597
  0
TEXT
  5
146
330
1F
100
AcDbEntity
  8
0
100
AcDbText
 10
5606.879051091918
 20
823.5380393144391
 30
0.0
 40
87.34322928048505
  1
compensato di risulta
100
AcDbText
  0
DIMENSION
  5
147
102
{ACAD_REACTORS
330
149
102
}
102
{ACAD_XDICTIONARY
360
148
102
}
330
1F
100
AcDbEntity
  8
0
100
AcDbDimension
280
     0
  2
*D5
 10
6220.653188060543
 20
674.5948217581182
 30
0.0
 11
5920.653188060543
 21
693.3448217581182
 31
0.0
 70
    32
 71
     5
 42
600.0
 73
     0
 74
     0
 75
     0
  3
big
100
AcDbAlignedDimension
 13
5620.653188060543
 23
496.2165745346597
 33
0.0
 14
6220.653188060543
 24
496.2165745346597
 34
0.0
100
AcDbRotatedDimension
1001
PE_URL
1000

  0
DIMENSION
  5
156
102
{ACAD_REACTORS
330
158
102
}
102
{ACAD_XDICTIONARY
360
157
102
}
330
1F
100
AcDbEntity
  8
0
100
AcDbDimension
280
     0
  2
*D6
 10
5293.970772686074
 20
226.2165745346597
 30
0.0
 11
5275.220772686074
 21
361.2165745346597
 31
0.0
 70
    32
 71
     5
 42
270.0
 73
     0
 74
     0
 75
     0
  3
big
100
AcDbAlignedDimension
 13
5620.653188060543
 23
496.2165745346597
 33
0.0
 14
5620.653188060543
 24
226.2165745346597
 34
0.0
 50
90.0
100
AcDbRotatedDimension
1001
PE_URL
1000

  0
CIRCLE
  5
166
102
{ACAD_REACTORS
330
175
102
}
330
1F
100
AcDbEntity
  8
0
 62
     6
100
AcDbCircle
 10
5645.653188060543
 20
471.2165745346597
 30
0.0
 40
2.5
  0
LINE
  5
168
102
{ACAD_REACTORS
330
175
102
}
330
1F
100
AcDbEntity
  8
0
 62
     6
100
AcDbLine
 10
5645.653188060543
 20
473.7165745346597
 30
0.0
 11
5950.653188060543
 21
473.7165745346597
 31
0.0
  0
CIRCLE
  5
169
102
{ACAD_REACTORS
330
175
102
}
330
1F
100
AcDbEntity
  8
0
 62
     6
100
AcDbCircle
 10
5950.653188060543
 20
471.2165745346597
 30
0.0
 40
2.5
  0
LWPOLYLINE
  5
171
102
{ACAD_REACTORS
330
175
330
213
330
240
102
}
330
1F
100
AcDbEntity
  8
0
 62
     6
100
AcDbPolyline
 90
        4
 70
     1
 43
0.0
 10
5620.653188060543
 20
496.2165745346597
 10
5620.653188060543
 20
446.2165745346596
 10
5975.653188060543
 20
446.2165745346596
 10
5975.653188060543
 20
496.2165745346597
  0
CIRCLE
  5
17B
102
{ACAD_REACTORS
330
17F
102
}
330
1F
100
AcDbEntity
  8
0
 62
     6
100
AcDbCircle
 10
5645.653188060543
 20
419.2165745346596
 30
0.0
 40
2.5
  0
LINE
  5
17C
102
{ACAD_REACTORS
330
17F
102
}
330
1F
100
AcDbEntity
  8
0
 62
     6
100
AcDbLine
 10
5645.653188060543
 20
421.7165745346596
 30
0.0
 11
5950.653188060543
 21
421.7165745346596
 31
0.0
  0
CIRCLE
  5
17D
102
{ACAD_REACTORS
330
17F
102
}
330
1F
100
AcDbEntity
  8
0
 62
     6
100
AcDbCircle
 10
5950.653188060543
 20
419.2165745346596
 30
0.0
 40
2.5
  0
LWPOLYLINE
  5
17E
102
{ACAD_REACTORS
330
17F
330
251
102
}
330
1F
100
AcDbEntity
  8
0
 62
     6
100
AcDbPolyline
 90
        4
 70
     1
 43
0.0
 10
5620.653188060543
 20
444.2165745346596
 10
5620.653188060543
 20
394.2165745346596
 10
5975.653188060543
 20
394.2165745346596
 10
5975.653188060543
 20
444.2165745346596
  0
CIRCLE
  5
180
102
{ACAD_REACTORS
330
184
102
}
330
1F
100
AcDbEntity
  8
0
 62
     6
100
AcDbCircle
 10
5645.653188060543
 20
367.2165745346596
 30
0.0
 40
2.5
  0
LINE
  5
181
102
{ACAD_REACTORS
330
184
102
}
330
1F
100
AcDbEntity
  8
0
 62
     6
100
AcDbLine
 10
5645.653188060543
 20
369.7165745346596
 30
0.0
 11
5950.653188060543
 21
369.7165745346596
 31
0.0
  0
CIRCLE
  5
182
102
{ACAD_REACTORS
330
184
102
}
330
1F
100
AcDbEntity
  8
0
 62
     6
100
AcDbCircle
 10
5950.653188060543
 20
367.2165745346596
 30
0.0
 40
2.5
  0
LWPOLYLINE
  5
183
102
{ACAD_REACTORS
330
184
330
260
102
}
330
1F
100
AcDbEntity
  8
0
 62
     6
100
AcDbPolyline
 90
        4
 70
     1
 43
0.0
 10
5620.653188060543
 20
392.2165745346596
 10
5620.653188060543
 20
342.2165745346595
 10
5975.653188060543
 20
342.2165745346595
 10
5975.653188060543
 20
392.2165745346596
  0
CIRCLE
  5
185
102
{ACAD_REACTORS
330
189
102
}
330
1F
100
AcDbEntity
  8
0
 62
     6
100
AcDbCircle
 10
5645.653188060543
 20
315.2165745346595
 30
0.0
 40
2.5
  0
LINE
  5
186
102
{ACAD_REACTORS
330
189
102
}
330
1F
100
AcDbEntity
  8
0
 62
     6
100
AcDbLine
 10
5645.653188060543
 20
317.7165745346595
 30
0.0
 11
5950.653188060543
 21
317.7165745346595
 31
0.0
  0
CIRCLE
  5
187
102
{ACAD_REACTORS
330
189
102
}
330
1F
100
AcDbEntity
  8
0
 62
     6
100
AcDbCircle
 10
5950.653188060543
 20
315.2165745346595
 30
0.0
 40
2.5
  0
LWPOLYLINE
  5
188
102
{ACAD_REACTORS
330
189
102
}
330
1F
100
AcDbEntity
  8
0
 62
     6
100
AcDbPolyline
 90
        4
 70
     1
 43
0.0
 10
5620.653188060543
 20
340.2165745346595
 10
5620.653188060543
 20
290.2165745346595
 10
5975.653188060543
 20
290.2165745346595
 10
5975.653188060543
 20
340.2165745346595
  0
CIRCLE
  5
18A
102
{ACAD_REACTORS
330
18E
102
}
330
1F
100
AcDbEntity
  8
0
 62
     6
100
AcDbCircle
 10
5645.653188060544
 20
-70.62188452165344
 30
0.0
 40
2.5
  0
LINE
  5
18B
102
{ACAD_REACTORS
330
18E
102
}
330
1F
100
AcDbEntity
  8
0
 62
     6
100
AcDbLine
 10
5645.653188060544
 20
-68.12188452165344
 30
0.0
 11
5950.653188060544
 21
-68.12188452165344
 31
0.0
  0
CIRCLE
  5
18C
102
{ACAD_REACTORS
330
18E
102
}
330
1F
100
AcDbEntity
  8
0
 62
     6
100
AcDbCircle
 10
5950.653188060544
 20
-70.62188452165344
 30
0.0
 40
2.5
  0
LWPOLYLINE
  5
18D
102
{ACAD_REACTORS
330
18E
102
}
330
1F
100
AcDbEntity
  8
0
 62
     6
100
AcDbPolyline
 90
        4
 70
     1
 43
0.0
 10
5620.653188060543
 20
-45.62188452165344
 10
5620.653188060543
 20
-95.6218845216535
 10
5975.653188060543
 20
-95.6218845216535
 10
5975.653188060543
 20
-45.62188452165344
  0
LWPOLYLINE
  5
1A3
330
1F
100
AcDbEntity
  8
0
 62
     2
100
AcDbPolyline
 90
        4
 70
     1
 43
0.0
 10
5620.653188060543
 20
4.378115478346558
 10
5620.653188060543
 20
-145.6218845216534
 10
5670.653188060543
 20
-145.6218845216534
 10
5670.653188060543
 20
4.378115478346558
  0
LWPOLYLINE
  5
1A4
330
1F
100
AcDbEntity
  8
0
 62
     2
100
AcDbPolyline
 90
        4
 70
     1
 43
0.0
 10
5975.653188060543
 20
4.378115478346558
 10
5975.653188060543
 20
-145.6218845216534
 10
5925.653188060543
 20
-145.6218845216534
 10
5925.653188060543
 20
4.378115478346558
  0
LWPOLYLINE
  5
1AB
102
{ACAD_REACTORS
330
222
102
}
330
1F
100
AcDbEntity
  8
0
 62
     2
100
AcDbPolyline
 90
        4
 70
     1
 43
0.0
 10
6127.653188060543
 20
496.2165745346597
 10
5977.653188060543
 20
496.2165745346597
 10
5977.653188060543
 20
446.2165745346615
 10
6127.653188060543
 20
446.2165745346615
  0
LWPOLYLINE
  5
1B1
330
1F
100
AcDbEntity
  8
0
 62
     2
100
AcDbPolyline
 90
        4
 70
     1
 43
0.0
 10
6127.653188060543
 20
443.8647468828755
 10
5977.653188060543
 20
443.8647468828755
 10
5977.653188060543
 20
393.8647468828773
 10
6127.653188060543
 20
393.8647468828773
  0
LWPOLYLINE
  5
1B2
330
1F
100
AcDbEntity
  8
0
 62
     2
100
AcDbPolyline
 90
        4
 70
     1
 43
0.0
 10
6127.653188060543
 20
339.8647468828754
 10
5977.653188060543
 20
339.8647468828754
 10
5977.653188060543
 20
289.8647468828772
 10
6127.653188060543
 20
289.8647468828772
  0
LWPOLYLINE
  5
1B3
330
1F
100
AcDbEntity
  8
0
 62
     2
100
AcDbPolyline
 90
        4
 70
     1
 43
0.0
 10
6127.653188060543
 20
392.2165745346596
 10
5977.653188060543
 20
392.2165745346596
 10
5977.653188060543
 20
342.2165745346614
 10
6127.653188060543
 20
342.2165745346614
  0
LWPOLYLINE
  5
1B4
102
{ACAD_REACTORS
330
27E
330
29C
330
2AB
330
2BA
102
}
330
1F
100
AcDbEntity
  8
0
 62
     2
100
AcDbPolyline
 90
        4
 70
     1
 43
0.0
 10
5770.653188060543
 20
288.2165745346595
 10
5620.653188060543
 20
288.2165745346595
 10
5620.653188060543
 20
238.2165745346613
 10
5770.653188060543
 20
238.2165745346613
  0
LWPOLYLINE
  5
1B5
102
{ACAD_REACTORS
330
2AB
102
}
330
1F
100
AcDbEntity
  8
0
 62
     2
100
AcDbPolyline
 90
        4
 70
     1
 43
0.0
 10
5922.653188060543
 20
288.2165745346595
 10
5772.653188060543
 20
288.2165745346595
 10
5772.653188060543
 20
238.2165745346613
 10
5922.653188060543
 20
238.2165745346613
  0
LWPOLYLINE
  5
1B8
102
{ACAD_REACTORS
330
231
330
28D
102
}
330
1F
100
AcDbEntity
  8
0
 62
     2
100
AcDbPolyline
 90
        4
 70
     1
 43
0.0
 10
6129.653188060543
 20
496.2165745346597
 10
6129.653188060538
 20
346.2165745346597
 10
6179.653188060536
 20
346.2165745346579
 10
6179.653188060541
 20
496.2165745346579
  0
LWPOLYLINE
  5
1B9
102
{ACAD_REACTORS
330
2BA
102
}
330
1F
100
AcDbEntity
  8
0
 62
     2
100
AcDbPolyline
 90
        4
 70
     1
 43
0.0
 10
6074.653188060543
 20
288.2165745346595
 10
5924.653188060543
 20
288.2165745346595
 10
5924.653188060543
 20
238.2165745346613
 10
6074.653188060543
 20
238.2165745346613
  0
DIMENSION
  5
211
102
{ACAD_REACTORS
330
213
102
}
102
{ACAD_XDICTIONARY
360
212
102
}
330
1F
100
AcDbEntity
  8
0
100
AcDbDimension
280
     0
  2
*D11
 10
5975.653188060543
 20
525.3420443715701
 30
0.0
 11
5798.153188060543
 21
544.0920443715701
 31
0.0
 70
    32
 71
     5
 42
355.0
 73
     0
 74
     0
 75
     0
  3
big
100
AcDbAlignedDimension
 13
5620.653188060543
 23
496.2165745346597
 33
0.0
 14
5975.653188060543
 24
496.2165745346597
 34
0.0
100
AcDbRotatedDimension
1001
ACAD
1000
DSTYLE
1002
{
1070
   144
1040
1.0
1002
}
  0
DIMENSION
  5
220
102
{ACAD_REACTORS
330
222
102
}
102
{ACAD_XDICTIONARY
360
221
102
}
330
1F
100
AcDbEntity
  8
0
100
AcDbDimension
280
     0
  2
*D12
 10
6127.653188060543
 20
562.8420443715701
 30
0.0
 11
5874.153188060543
 21
581.5920443715701
 31
0.0
 70
    32
 71
     5
 42
507.0
 73
     0
 74
     0
 75
     0
  3
big
100
AcDbAlignedDimension
 13
5620.653188060543
 23
496.2165745346597
 33
0.0
 14
6127.653188060543
 24
496.2165745346597
 34
0.0
100
AcDbRotatedDimension
  0
DIMENSION
  5
22F
102
{ACAD_REACTORS
330
231
102
}
102
{ACAD_XDICTIONARY
360
230
102
}
330
1F
100
AcDbEntity
  8
0
100
AcDbDimension
280
     0
  2
*D13
 10
6179.653188060541
 20
600.3420443715701
 30
0.0
 11
5900.153188060542
 21
619.0920443715701
 31
0.0
 70
    32
 71
     5
 42
558.9999999999982
 73
     0
 74
     0
 75
     0
  3
big
100
AcDbAlignedDimension
 13
5620.653188060543
 23
496.2165745346597
 33
0.0
 14
6179.653188060541
 24
496.2165745346579
 34
0.0
100
AcDbRotatedDimension
  0
DIMENSION
  5
23E
102
{ACAD_REACTORS
330
240
102
}
102
{ACAD_XDICTIONARY
360
23F
102
}
330
1F
100
AcDbEntity
  8
0
100
AcDbDimension
280
     0
  2
*D14
 10
5583.60497347239
 20
446.2165745346596
 30
0.0
 11
5583.60497347239
 21
468.9994350611717
 31
0.0
 70
   160
 71
     5
 42
50.00000000000006
 73
     0
 74
     0
 75
     0
  3
big
100
AcDbAlignedDimension
 13
5620.653188060543
 23
496.2165745346597
 33
0.0
 14
5620.653188060543
 24
446.2165745346596
 34
0.0
 50
90.0
100
AcDbRotatedDimension
1001
ACAD
1000
DSTYLE
1002
{
1070
   144
1040
1.0
1002
}
  0
DIMENSION
  5
24F
102
{ACAD_REACTORS
330
251
102
}
102
{ACAD_XDICTIONARY
360
250
102
}
330
1F
100
AcDbEntity
  8
0
100
AcDbDimension
280
     0
  2
*D15
 10
5541.815210327318
 20
394.2165745346596
 30
0.0
 11
5523.065210327318
 21
445.2165745346596
 31
0.0
 70
    32
 71
     5
 42
102.0000000000001
 73
     0
 74
     0
 75
     0
  3
big
100
AcDbAlignedDimension
 13
5620.653188060543
 23
496.2165745346597
 33
0.0
 14
5620.653188060543
 24
394.2165745346596
 34
0.0
 50
90.0
100
AcDbRotatedDimension
  0
DIMENSION
  5
25E
102
{ACAD_REACTORS
330
260
102
}
102
{ACAD_XDICTIONARY
360
25F
102
}
330
1F
100
AcDbEntity
  8
0
100
AcDbDimension
280
     0
  2
*D16
 10
5504.315210327318
 20
342.2165745346595
 30
0.0
 11
5485.565210327318
 21
419.2165745346596
 31
0.0
 70
    32
 71
     5
 42
154.0000000000002
 73
     0
 74
     0
 75
     0
  3
big
100
AcDbAlignedDimension
 13
5620.653188060543
 23
496.2165745346597
 33
0.0
 14
5620.653188060543
 24
342.2165745346595
 34
0.0
 50
90.0
100
AcDbRotatedDimension
  0
DIMENSION
  5
26D
102
{ACAD_REACTORS
330
26F
102
}
102
{ACAD_XDICTIONARY
360
26E
102
}
330
1F
100
AcDbEntity
  8
0
100
AcDbDimension
280
     0
  2
*D17
 10
5466.815210327318
 20
290.2165745346595
 30
0.0
 11
5448.065210327318
 21
393.2165745346596
 31
0.0
 70
    32
 71
     5
 42
206.0000000000002
 73
     0
 74
     0
 75
     0
  3
big
100
AcDbAlignedDimension
 13
5620.653188060543
 23
496.2165745346597
 33
0.0
 14
5620.653188060543
 24
290.2165745346595
 34
0.0
 50
90.0
100
AcDbRotatedDimension
  0
DIMENSION
  5
27C
102
{ACAD_REACTORS
330
27E
102
}
102
{ACAD_XDICTIONARY
360
27D
102
}
330
1F
100
AcDbEntity
  8
0
100
AcDbDimension
280
     0
  2
*D18
 10
5403.12327676555
 20
238.2165745346613
 30
0.0
 11
5384.37327676555
 21
367.2165745346605
 31
0.0
 70
    32
 71
     5
 42
257.9999999999984
 73
     0
 74
     0
 75
     0
  3
big
100
AcDbAlignedDimension
 13
5620.653188060543
 23
496.2165745346597
 33
0.0
 14
5620.653188060543
 24
238.2165745346613
 34
0.0
 50
90.0
100
AcDbRotatedDimension
1001
ACAD
1000
DSTYLE
1002
{
1070
   144
1040
1.0
1002
}
  0
DIMENSION
  5
28B
102
{ACAD_REACTORS
330
28D
102
}
102
{ACAD_XDICTIONARY
360
28C
102
}
330
1F
100
AcDbEntity
  8
0
100
AcDbDimension
280
     0
  2
*D19
 10
6269.873875546443
 20
346.2165745346579
 30
0.0
 11
6251.123875546443
 21
421.2165745346579
 31
0.0
 70
    32
 71
     5
 42
150.0
 73
     0
 74
     0
 75
     0
  3
big
100
AcDbAlignedDimension
 13
6179.653188060541
 23
496.2165745346579
 33
0.0
 14
6179.653188060536
 24
346.2165745346579
 34
0.0
 50
90.0
100
AcDbRotatedDimension
1001
ACAD
1000
DSTYLE
1002
{
1070
   144
1040
1.0
1002
}
  0
DIMENSION
  5
29A
102
{ACAD_REACTORS
330
29C
102
}
102
{ACAD_XDICTIONARY
360
29B
102
}
330
1F
100
AcDbEntity
  8
0
100
AcDbDimension
280
     0
  2
*D20
 10
5770.653188060543
 20
175.4477677391581
 30
0.0
 11
5695.653188060543
 21
194.1977677391581
 31
0.0
 70
    32
 71
     5
 42
150.0
 73
     0
 74
     0
 75
     0
  3
big
100
AcDbAlignedDimension
 13
5620.653188060543
 23
238.2165745346613
 33
0.0
 14
5770.653188060543
 24
238.2165745346613
 34
0.0
100
AcDbRotatedDimension
1001
ACAD
1000
DSTYLE
1002
{
1070
   144
1040
1.0
1002
}
  0
DIMENSION
  5
2A9
102
{ACAD_REACTORS
330
2AB
102
}
102
{ACAD_XDICTIONARY
360
2AA
102
}
330
1F
100
AcDbEntity
  8
0
100
AcDbDimension
280
     0
  2
*D21
 10
5922.653188060543
 20
137.9477677391581
 30
0.0
 11
5771.653188060543
 21
156.6977677391581
 31
0.0
 70
    32
 71
     5
 42
302.0
 73
     0
 74
     0
 75
     0
  3
big
100
AcDbAlignedDimension
 13
5620.653188060543
 23
238.2165745346613
 33
0.0
 14
5922.653188060543
 24
238.2165745346613
 34
0.0
100
AcDbRotatedDimension
  0
DIMENSION
  5
2B8
102
{ACAD_REACTORS
330
2BA
102
}
102
{ACAD_XDICTIONARY
360
2B9
102
}
330
1F
100
AcDbEntity
  8
0
100
AcDbDimension
280
     0
  2
*D22
 10
6074.653188060543
 20
100.4477677391581
 30
0.0
 11
5847.653188060543
 21
119.1977677391581
 31
0.0
 70
    32
 71
     5
 42
454.0
 73
     0
 74
     0
 75
     0
  3
big
100
AcDbAlignedDimension
 13
5620.653188060543
 23
238.2165745346613
 33
0.0
 14
6074.653188060543
 24
238.2165745346613
 34
0.0
100
AcDbRotatedDimension
  0
TEXT
  5
2FB
330
1F
100
AcDbEntity
  8
0
100
AcDbText
 10
5642.515096148978
 20
-250.8859078190934
 30
0.0
 40
87.34322928048505
  1
kantana wire support
100
AcDbText
  0
ENDSEC
  0
SECTION
  2
OBJECTS
  0
DICTIONARY
  5
C
330
0
100
AcDbDictionary
281
     1
  3
ACAD_DETAILVIEWSTYLE
350
B5
  3
ACAD_GROUP
350
D
  3
ACAD_IMAGE_VARS
350
6A
  3
ACAD_LAYOUT
350
1A
  3
ACAD_MATERIAL
350
72
  3
ACAD_MLEADERSTYLE
350
3F
  3
ACAD_MLINESTYLE
350
17
  3
ACAD_PLOTSETTINGS
350
19
  3
ACAD_PLOTSTYLENAME
350
E
  3
ACAD_SCALELIST
350
40
  3
ACAD_SECTIONVIEWSTYLE
350
B6
  3
ACAD_TABLESTYLE
350
3B
  3
ACAD_VISUALSTYLE
350
2A
  3
ACDB_RECOMPOSE_DATA
350
2FE
  3
AcDbVariableDictionary
350
3D
  3
APPDATA
350
71
  0
SUN
  5
80
330
29
100
AcDbSun
 90
        1
290
     0
 63
     7
421
 16777215
 40
1.0
291
     1
 91
  2455826
 92
 54000000
292
     0
 70
     2
 71
   256
280
     1
  0
DICTIONARY
  5
1FB
330
2
100
AcDbDictionary
280
     1
281
     1
  3
ACAD_LAYERSTATES
360
1FC
  0
DICTIONARY
  5
CE
330
CD
100
AcDbDictionary
280
     1
281
     1
  3
ACAD_DIMASSOC
360
CF
  0
DICTIONARY
  5
DF
330
DE
100
AcDbDictionary
280
     1
281
     1
  3
ACAD_DIMASSOC
360
E0
  0
DICTIONARY
  5
F5
330
F4
100
AcDbDictionary
280
     1
281
     1
  3
ACAD_DIMASSOC
360
F6
  0
DICTIONARY
  5
105
330
104
100
AcDbDictionary
280
     1
281
     1
  3
ACAD_DIMASSOC
360
106
  0
DICTIONARY
  5
148
330
147
100
AcDbDictionary
280
     1
281
     1
  3
ACAD_DIMASSOC
360
149
  0
DICTIONARY
  5
157
330
156
100
AcDbDictionary
280
     1
281
     1
  3
ACAD_DIMASSOC
360
158
  0
DICTIONARY
  5
212
330
211
100
AcDbDictionary
280
     1
281
     1
  3
ACAD_DIMASSOC
360
213
  0
DICTIONARY
  5
221
330
220
100
AcDbDictionary
280
     1
281
     1
  3
ACAD_DIMASSOC
360
222
  0
DICTIONARY
  5
230
330
22F
100
AcDbDictionary
280
     1
281
     1
  3
ACAD_DIMASSOC
360
231
  0
DICTIONARY
  5
23F
330
23E
100
AcDbDictionary
280
     1
281
     1
  3
ACAD_DIMASSOC
360
240
  0
DICTIONARY
  5
250
330
24F
100
AcDbDictionary
280
     1
281
     1
  3
ACAD_DIMASSOC
360
251
  0
DICTIONARY
  5
25F
330
25E
100
AcDbDictionary
280
     1
281
     1
  3
ACAD_DIMASSOC
360
260
  0
DICTIONARY
  5
26E
330
26D
100
AcDbDictionary
280
     1
281
     1
  3
ACAD_DIMASSOC
360
26F
  0
DICTIONARY
  5
27D
330
27C
100
AcDbDictionary
280
     1
281
     1
  3
ACAD_DIMASSOC
360
27E
  0
DICTIONARY
  5
28C
330
28B
100
AcDbDictionary
280
     1
281
     1
  3
ACAD_DIMASSOC
360
28D
  0
DICTIONARY
  5
29B
330
29A
100
AcDbDictionary
280
     1
281
     1
  3
ACAD_DIMASSOC
360
29C
  0
DICTIONARY
  5
2AA
330
2A9
100
AcDbDictionary
280
     1
281
     1
  3
ACAD_DIMASSOC
360
2AB
  0
DICTIONARY
  5
2B9
330
2B8
100
AcDbDictionary
280
     1
281
     1
  3
ACAD_DIMASSOC
360
2BA
  0
DICTIONARY
  5
B5
102
{ACAD_REACTORS
330
C
102
}
330
C
100
AcDbDictionary
281
     1
  0
DICTIONARY
  5
D
102
{ACAD_REACTORS
330
C
102
}
330
C
100
AcDbDictionary
281
     1
  3
*A1
350
175
  3
*A3
350
17F
  3
*A4
350
184
  3
*A5
350
189
  3
*A6
350
18E
  0
RASTERVARIABLES
  5
6A
102
{ACAD_REACTORS
330
C
102
}
330
C
100
AcDbRasterVariables
 90
        0
 70
     1
 71
     1
 72
     1
  0
DICTIONARY
  5
1A
102
{ACAD_REACTORS
330
C
102
}
330
C
100
AcDbDictionary
281
     1
  3
Model
350
22
  3
Sheet1
350
1E
  3
Sheet2
350
26
  0
DICTIONARY
  5
72
102
{ACAD_REACTORS
330
C
102
}
330
C
100
AcDbDictionary
281
     1
  3
ByBlock
350
74
  3
ByLayer
350
73
  3
Global
350
75
  0
DICTIONARY
  5
3F
102
{ACAD_REACTORS
330
C
102
}
330
C
100
AcDbDictionary
281
     1
  3
Annotative
350
BC
  3
Standard
350
B7
  0
DICTIONARY
  5
17
102
{ACAD_REACTORS
330
C
102
}
330
C
100
AcDbDictionary
281
     1
  3
Standard
350
18
  0
DICTIONARY
  5
19
102
{ACAD_REACTORS
330
C
102
}
330
C
100
AcDbDictionary
281
     1
  0
ACDBDICTIONARYWDFLT
  5
E
102
{ACAD_REACTORS
330
C
102
}
330
C
100
AcDbDictionary
281
     1
  3
Normal
350
F
100
AcDbDictionaryWithDefault
340
F
  0
DICTIONARY
  5
40
102
{ACAD_REACTORS
330
C
102
}
330
C
100
AcDbDictionary
281
     1
  3
A0
350
41
  3
A1
350
42
  3
A2
350
43
  3
A3
350
44
  3
A4
350
45
  3
A5
350
46
  3
A6
350
47
  3
A7
350
48
  3
A8
350
49
  3
A9
350
4A
  3
B0
350
4B
  3
B1
350
4C
  3
B2
350
4D
  3
B3
350
4E
  3
B4
350
4F
  3
B5
350
50
  3
B6
350
51
  3
B7
350
52
  3
B8
350
53
  3
B9
350
54
  3
C0
350
55
  3
C1
350
56
  3
C2
350
57
  3
C3
350
58
  3
C4
350
59
  3
C5
350
5A
  3
C6
350
5B
  3
C7
350
5C
  3
C8
350
5D
  3
C9
350
5E
  3
D0
350
5F
  3
D1
350
60
  3
D2
350
61
  0
DICTIONARY
  5
B6
102
{ACAD_REACTORS
330
C
102
}
330
C
100
AcDbDictionary
281
     1
  0
DICTIONARY
  5
3B
102
{ACAD_REACTORS
330
C
102
}
330
C
100
AcDbDictionary
281
     1
  3
Standard
350
3C
  0
DICTIONARY
  5
2A
102
{ACAD_REACTORS
330
C
102
}
330
C
100
AcDbDictionary
281
     1
  3
2dWireframe
350
2F
  3
3D Hidden
350
31
  3
3dWireframe
350
30
  3
Basic
350
32
  3
Brighten
350
36
  3
ColorChange
350
3A
  3
Conceptual
350
34
  3
Dim
350
35
  3
EdgeColorOff
350
7A
  3
Facepattern
350
39
  3
Flat
350
2B
  3
FlatWithEdges
350
2C
  3
Gouraud
350
2D
  3
GouraudWithEdges
350
2E
  3
Hidden
350
77
  3
JitterOff
350
78
  3
Linepattern
350
38
  3
OverhangOff
350
79
  3
Realistic
350
33
  3
Shaded
350
7F
  3
Shaded with edges
350
7E
  3
Shades of Gray
350
7B
  3
Sketchy
350
7C
  3
Thicken
350
37
  3
Wireframe
350
76
  3
X-Ray
350
7D
  0
XRECORD
  5
2FE
102
{ACAD_REACTORS
330
C
102
}
330
C
100
AcDbXrecord
280
     1
 90
        1
330
3C
  0
DICTIONARY
  5
3D
102
{ACAD_REACTORS
330
C
102
}
330
C
100
AcDbDictionary
281
     1
  3
CANNOSCALE
350
62
  3
CMLEADERSTYLE
350
BB
  3
CTABLESTYLE
350
3E
  3
LIGHTSINBLOCKS
350
6F
  3
XCLIPFRAME
350
70
  0
DICTIONARY
  5
71
102
{ACAD_REACTORS
330
C
102
}
330
C
100
AcDbDictionary
281
     1
  0
DICTIONARY
  5
1FC
102
{ACAD_REACTORS
330
1FB
102
}
330
1FB
100
AcDbDictionary
281
     1
  0
DIMASSOC
  5
CF
102
{ACAD_REACTORS
330
CE
102
}
330
CE
100
AcDbDimAssoc
330
CD
 90
        3
 70
     0
 71
     1
  1
AcDbOsnapPointRef
 72
    13
331
CB
 73
     2
 91
        1
 40
0.0
 10
0.0
 20
0.0
 30
0.0
 75
     0
  1
AcDbOsnapPointRef
 72
     1
331
CB
 73
     2
 91
        3
 40
1.0
 10
0.0
 20
0.0
 30
0.0
 75
     0
  0
DIMASSOC
  5
E0
102
{ACAD_REACTORS
330
DF
102
}
330
DF
100
AcDbDimAssoc
330
DE
 90
        3
 70
     0
 71
     1
  1
AcDbOsnapPointRef
 72
     2
331
CB
 73
     2
 91
        4
 40
0.5
 10
0.0
 20
0.0
 30
0.0
 75
     0
  1
AcDbOsnapPointRef
 72
     1
331
CB
 73
     2
 91
        1
 40
1.0
 10
0.0
 20
0.0
 30
0.0
 75
     0
  0
DIMASSOC
  5
F6
102
{ACAD_REACTORS
330
F5
102
}
330
F5
100
AcDbDimAssoc
330
F4
 90
        0
 70
     0
 71
     1
  0
DIMASSOC
  5
106
102
{ACAD_REACTORS
330
105
102
}
330
105
100
AcDbDimAssoc
330
104
 90
        3
 70
     0
 71
     1
  1
AcDbOsnapPointRef
 72
     1
331
F2
 73
     2
 91
        3
 40
1.0
 10
0.0
 20
0.0
 30
0.0
 75
     0
  1
AcDbOsnapPointRef
 72
     1
331
103
 73
     0
 91
        0
 40
0.0
 10
0.0
 20
0.0
 30
0.0
 75
     0
  0
DIMASSOC
  5
149
102
{ACAD_REACTORS
330
148
102
}
330
148
100
AcDbDimAssoc
330
147
 90
        3
 70
     0
 71
     1
  1
AcDbOsnapPointRef
 72
     1
331
11F
 73
     2
 91
        1
 40
1.0
 10
0.0
 20
0.0
 30
0.0
 75
     0
  1
AcDbOsnapPointRef
 72
     1
331
11F
 73
     2
 91
        2
 40
1.0
 10
0.0
 20
0.0
 30
0.0
 75
     0
  0
DIMASSOC
  5
158
102
{ACAD_REACTORS
330
157
102
}
330
157
100
AcDbDimAssoc
330
156
 90
        3
 70
     0
 71
     1
  1
AcDbOsnapPointRef
 72
     1
331
11F
 73
     2
 91
        1
 40
1.0
 10
0.0
 20
0.0
 30
0.0
 75
     0
  1
AcDbOsnapPointRef
 72
    13
331
11F
 73
     2
 91
        1
 40
0.0
 10
0.0
 20
0.0
 30
0.0
 75
     0
  0
DIMASSOC
  5
213
102
{ACAD_REACTORS
330
212
102
}
330
212
100
AcDbDimAssoc
330
211
 90
        3
 70
     0
 71
     1
  1
AcDbOsnapPointRef
 72
     1
331
11F
 73
     2
 91
        1
 40
1.0
 10
0.0
 20
0.0
 30
0.0
 75
     0
  1
AcDbOsnapPointRef
 72
     1
331
171
 73
     2
 91
        3
 40
1.0
 10
0.0
 20
0.0
 30
0.0
 75
     0
  0
DIMASSOC
  5
222
102
{ACAD_REACTORS
330
221
102
}
330
221
100
AcDbDimAssoc
330
220
 90
        3
 70
     0
 71
     1
  1
AcDbOsnapPointRef
 72
     1
331
11F
 73
     2
 91
        1
 40
1.0
 10
0.0
 20
0.0
 30
0.0
 75
     0
  1
AcDbOsnapPointRef
 72
    13
331
1AB
 73
     2
 91
        1
 40
0.0
 10
0.0
 20
0.0
 30
0.0
 75
     0
  0
DIMASSOC
  5
231
102
{ACAD_REACTORS
330
230
102
}
330
230
100
AcDbDimAssoc
330
22F
 90
        3
 70
     0
 71
     1
  1
AcDbOsnapPointRef
 72
     1
331
11F
 73
     2
 91
        1
 40
1.0
 10
0.0
 20
0.0
 30
0.0
 75
     0
  1
AcDbOsnapPointRef
 72
     1
331
1B8
 73
     2
 91
        3
 40
1.0
 10
0.0
 20
0.0
 30
0.0
 75
     0
  0
DIMASSOC
  5
240
102
{ACAD_REACTORS
330
23F
102
}
330
23F
100
AcDbDimAssoc
330
23E
 90
        3
 70
     0
 71
     1
  1
AcDbOsnapPointRef
 72
     1
331
11F
 73
     2
 91
        1
 40
1.0
 10
0.0
 20
0.0
 30
0.0
 75
     0
  1
AcDbOsnapPointRef
 72
     1
331
171
 73
     2
 91
        1
 40
1.0
 10
0.0
 20
0.0
 30
0.0
 75
     0
  0
DIMASSOC
  5
251
102
{ACAD_REACTORS
330
250
102
}
330
250
100
AcDbDimAssoc
330
24F
 90
        3
 70
     0
 71
     1
  1
AcDbOsnapPointRef
 72
     1
331
11F
 73
     2
 91
        1
 40
1.0
 10
0.0
 20
0.0
 30
0.0
 75
     0
  1
AcDbOsnapPointRef
 72
     1
331
17E
 73
     2
 91
        1
 40
1.0
 10
0.0
 20
0.0
 30
0.0
 75
     0
  0
DIMASSOC
  5
260
102
{ACAD_REACTORS
330
25F
102
}
330
25F
100
AcDbDimAssoc
330
25E
 90
        3
 70
     0
 71
     1
  1
AcDbOsnapPointRef
 72
     1
331
11F
 73
     2
 91
        1
 40
1.0
 10
0.0
 20
0.0
 30
0.0
 75
     0
  1
AcDbOsnapPointRef
 72
     1
331
183
 73
     2
 91
        1
 40
1.0
 10
0.0
 20
0.0
 30
0.0
 75
     0
  0
DIMASSOC
  5
26F
102
{ACAD_REACTORS
330
26E
102
}
330
26E
100
AcDbDimAssoc
330
26D
 90
        1
 70
     0
 71
     1
  1
AcDbOsnapPointRef
 72
     1
331
11F
 73
     2
 91
        1
 40
1.0
 10
0.0
 20
0.0
 30
0.0
 75
     0
  0
DIMASSOC
  5
27E
102
{ACAD_REACTORS
330
27D
102
}
330
27D
100
AcDbDimAssoc
330
27C
 90
        3
 70
     0
 71
     1
  1
AcDbOsnapPointRef
 72
     1
331
11F
 73
     2
 91
        1
 40
1.0
 10
0.0
 20
0.0
 30
0.0
 75
     0
  1
AcDbOsnapPointRef
 72
     1
331
1B4
 73
     2
 91
        2
 40
1.0
 10
0.0
 20
0.0
 30
0.0
 75
     0
  0
DIMASSOC
  5
28D
102
{ACAD_REACTORS
330
28C
102
}
330
28C
100
AcDbDimAssoc
330
28B
 90
        3
 70
     0
 71
     1
  1
AcDbOsnapPointRef
 72
     1
331
1B8
 73
     2
 91
        3
 40
1.0
 10
0.0
 20
0.0
 30
0.0
 75
     0
  1
AcDbOsnapPointRef
 72
     1
331
1B8
 73
     2
 91
        2
 40
1.0
 10
0.0
 20
0.0
 30
0.0
 75
     0
  0
DIMASSOC
  5
29C
102
{ACAD_REACTORS
330
29B
102
}
330
29B
100
AcDbDimAssoc
330
29A
 90
        3
 70
     0
 71
     1
  1
AcDbOsnapPointRef
 72
     1
331
1B4
 73
     2
 91
        2
 40
1.0
 10
0.0
 20
0.0
 30
0.0
 75
     0
  1
AcDbOsnapPointRef
 72
     1
331
1B4
 73
     2
 91
        3
 40
1.0
 10
0.0
 20
0.0
 30
0.0
 75
     0
  0
DIMASSOC
  5
2AB
102
{ACAD_REACTORS
330
2AA
102
}
330
2AA
100
AcDbDimAssoc
330
2A9
 90
        3
 70
     0
 71
     1
  1
AcDbOsnapPointRef
 72
     1
331
1B4
 73
     2
 91
        2
 40
1.0
 10
0.0
 20
0.0
 30
0.0
 75
     0
  1
AcDbOsnapPointRef
 72
     1
331
1B5
 73
     2
 91
        3
 40
1.0
 10
0.0
 20
0.0
 30
0.0
 75
     0
  0
DIMASSOC
  5
2BA
102
{ACAD_REACTORS
330
2B9
102
}
330
2B9
100
AcDbDimAssoc
330
2B8
 90
        3
 70
     0
 71
     1
  1
AcDbOsnapPointRef
 72
     1
331
1B4
 73
     2
 91
        2
 40
1.0
 10
0.0
 20
0.0
 30
0.0
 75
     0
  1
AcDbOsnapPointRef
 72
     1
331
1B9
 73
     2
 91
        3
 40
1.0
 10
0.0
 20
0.0
 30
0.0
 75
     0
  0
GROUP
  5
175
102
{ACAD_REACTORS
330
D
102
}
330
D
100
AcDbGroup
300

 70
     1
 71
     1
340
168
340
169
340
171
340
166
  0
GROUP
  5
17F
102
{ACAD_REACTORS
330
D
102
}
330
D
100
AcDbGroup
300

 70
     1
 71
     1
340
17B
340
17C
340
17D
340
17E
  0
GROUP
  5
184
102
{ACAD_REACTORS
330
D
102
}
330
D
100
AcDbGroup
300

 70
     1
 71
     1
340
180
340
181
340
182
340
183
  0
GROUP
  5
189
102
{ACAD_REACTORS
330
D
102
}
330
D
100
AcDbGroup
300

 70
     1
 71
     1
340
185
340
186
340
187
340
188
  0
GROUP
  5
18E
102
{ACAD_REACTORS
330
D
102
}
330
D
100
AcDbGroup
300

 70
     1
 71
     1
340
18A
340
18B
340
18C
340
18D
  0
LAYOUT
  5
22
102
{ACAD_REACTORS
330
1A
102
}
330
1A
100
AcDbPlotSettings
  1

  2
none_device
  4
ISO_A3_(420.00_x_297.00_MM)
  6

 40
7.5
 41
20.0
 42
7.5
 43
20.0
 44
420.0
 45
297.0
 46
20.78282828282826
 47
0.0
 48
0.0
 49
0.0
140
0.0
141
0.0
142
1.0
143
1.155642023346303
 70
  1204
 72
     1
 73
     0
 74
     1
  7
monochrome.ctb
 75
     0
 76
     0
 77
     2
 78
   300
147
0.8653198653198654
148
-134.1869158878504
149
0.0
100
AcDbLayout
  1
Model
 70
     1
 71
     0
 10
0.0
 20
0.0
 11
420.0
 21
297.0
 12
0.0
 22
0.0
 32
0.0
 14
17.93874125874123
 24
-2075.106446592023
 34
0.0
 15
7054.411111354956
 25
910.8812685949242
 35
0.0
146
0.0
 13
0.0
 23
0.0
 33
0.0
 16
1.0
 26
0.0
 36
0.0
 17
0.0
 27
1.0
 37
0.0
 76
     0
330
1F
331
29
  0
LAYOUT
  5
1E
102
{ACAD_REACTORS
330
1A
102
}
330
1A
100
AcDbPlotSettings
  1

  2
none_device
  4

  6

 40
0.0
 41
0.0
 42
0.0
 43
0.0
 44
0.0
 45
0.0
 46
0.0
 47
0.0
 48
0.0
 49
0.0
140
0.0
141
0.0
142
1.0
143
1.0
 70
   688
 72
     0
 73
     0
 74
     5
  7

 75
    16
 76
     0
 77
     2
 78
   300
147
1.0
148
0.0
149
0.0
100
AcDbLayout
  1
Sheet1
 70
     1
 71
     1
 10
0.0
 20
0.0
 11
420.0
 21
297.0
 12
0.0
 22
0.0
 32
0.0
 14
1.000000000000000E+20
 24
1.000000000000000E+20
 34
1.000000000000000E+20
 15
-1.000000000000000E+20
 25
-1.000000000000000E+20
 35
-1.000000000000000E+20
146
0.0
 13
0.0
 23
0.0
 33
0.0
 16
1.0
 26
0.0
 36
0.0
 17
0.0
 27
1.0
 37
0.0
 76
     0
330
1B
  0
LAYOUT
  5
26
102
{ACAD_REACTORS
330
1A
102
}
330
1A
100
AcDbPlotSettings
  1

  2
none_device
  4

  6

 40
0.0
 41
0.0
 42
0.0
 43
0.0
 44
0.0
 45
0.0
 46
0.0
 47
0.0
 48
0.0
 49
0.0
140
0.0
141
0.0
142
1.0
143
1.0
 70
   688
 72
     0
 73
     0
 74
     5
  7

 75
    16
 76
     0
 77
     2
 78
   300
147
1.0
148
0.0
149
0.0
100
AcDbLayout
  1
Sheet2
 70
     1
 71
     2
 10
0.0
 20
0.0
 11
0.0
 21
0.0
 12
0.0
 22
0.0
 32
0.0
 14
0.0
 24
0.0
 34
0.0
 15
0.0
 25
0.0
 35
0.0
146
0.0
 13
0.0
 23
0.0
 33
0.0
 16
1.0
 26
0.0
 36
0.0
 17
0.0
 27
1.0
 37
0.0
 76
     0
330
23
  0
MATERIAL
  5
74
102
{ACAD_REACTORS
330
72
102
}
330
72
100
AcDbMaterial
  1
ByBlock
 72
     1
 94
      127
  0
MATERIAL
  5
73
102
{ACAD_REACTORS
330
72
102
}
330
72
100
AcDbMaterial
  1
ByLayer
 72
     1
 94
      127
  0
MATERIAL
  5
75
102
{ACAD_REACTORS
330
72
102
}
330
72
100
AcDbMaterial
  1
Global
 72
     1
 94
      127
  0
MLEADERSTYLE
  5
BC
102
{ACAD_REACTORS
330
3F
102
}
330
3F
100
AcDbMLeaderStyle
179
     2
170
     2
171
     1
172
     0
 90
        2
 40
0.0
 41
0.0
173
     1
 91
-1056964608
340
14
 92
       -2
290
     1
 42
2.0
291
     1
 43
8.0
  3
Annotative
341
0
 44
4.0
300

342
11
174
     1
178
     1
175
     1
176
     0
 93
-1056964608
 45
4.0
292
     0
297
     0
 46
4.0
343
0
 94
-1056964608
 47
1.0
 49
1.0
140
1.0
293
     1
141
0.0
294
     1
177
     0
142
1.0
295
     0
296
     1
143
3.75
271
     0
272
     9
273
     9
298
     0
  0
MLEADERSTYLE
  5
B7
102
{ACAD_REACTORS
330
3F
102
}
330
3F
100
AcDbMLeaderStyle
179
     2
170
     2
171
     1
172
     0
 90
        2
 40
0.0
 41
0.0
173
     1
 91
-1056964608
340
14
 92
       -2
290
     1
 42
2.0
291
     1
 43
8.0
  3
Standard
341
0
 44
4.0
300

342
11
174
     1
178
     6
175
     1
176
     0
 93
-1056964608
 45
4.0
292
     0
297
     0
 46
4.0
343
0
 94
-1056964608
 47
1.0
 49
1.0
140
1.0
293
     1
141
0.0
294
     1
177
     0
142
1.0
295
     0
296
     0
143
3.75
271
     0
272
     9
273
     9
298
     0
  0
MLINESTYLE
  5
18
102
{ACAD_REACTORS
330
17
102
}
330
17
100
AcDbMlineStyle
  2
Standard
 70
     0
  3

 62
   256
 51
90.0
 52
90.0
 71
     2
 49
0.5
 62
   256
  6
BYLAYER
 49
-0.5
 62
   256
  6
BYLAYER
  0
ACDBPLACEHOLDER
  5
F
102
{ACAD_REACTORS
330
E
102
}
330
E
  0
SCALE
  5
41
102
{ACAD_REACTORS
330
40
102
}
330
40
100
AcDbScale
 70
     0
300
1:1
140
1.0
141
1.0
290
     1
  0
SCALE
  5
42
102
{ACAD_REACTORS
330
40
102
}
330
40
100
AcDbScale
 70
     0
300
1:2
140
1.0
141
2.0
290
     0
  0
SCALE
  5
43
102
{ACAD_REACTORS
330
40
102
}
330
40
100
AcDbScale
 70
     0
300
1:4
140
1.0
141
4.0
290
     0
  0
SCALE
  5
44
102
{ACAD_REACTORS
330
40
102
}
330
40
100
AcDbScale
 70
     0
300
1:5
140
1.0
141
5.0
290
     0
  0
SCALE
  5
45
102
{ACAD_REACTORS
330
40
102
}
330
40
100
AcDbScale
 70
     0
300
1:8
140
1.0
141
8.0
290
     0
  0
SCALE
  5
46
102
{ACAD_REACTORS
330
40
102
}
330
40
100
AcDbScale
 70
     0
300
1:10
140
1.0
141
10.0
290
     0
  0
SCALE
  5
47
102
{ACAD_REACTORS
330
40
102
}
330
40
100
AcDbScale
 70
     0
300
1:16
140
1.0
141
16.0
290
     0
  0
SCALE
  5
48
102
{ACAD_REACTORS
330
40
102
}
330
40
100
AcDbScale
 70
     0
300
1:20
140
1.0
141
20.0
290
     0
  0
SCALE
  5
49
102
{ACAD_REACTORS
330
40
102
}
330
40
100
AcDbScale
 70
     0
300
1:30
140
1.0
141
30.0
290
     0
  0
SCALE
  5
4A
102
{ACAD_REACTORS
330
40
102
}
330
40
100
AcDbScale
 70
     0
300
1:40
140
1.0
141
40.0
290
     0
  0
SCALE
  5
4B
102
{ACAD_REACTORS
330
40
102
}
330
40
100
AcDbScale
 70
     0
300
1:50
140
1.0
141
50.0
290
     0
  0
SCALE
  5
4C
102
{ACAD_REACTORS
330
40
102
}
330
40
100
AcDbScale
 70
     0
300
1:100
140
1.0
141
100.0
290
     0
  0
SCALE
  5
4D
102
{ACAD_REACTORS
330
40
102
}
330
40
100
AcDbScale
 70
     0
300
2:1
140
2.0
141
1.0
290
     0
  0
SCALE
  5
4E
102
{ACAD_REACTORS
330
40
102
}
330
40
100
AcDbScale
 70
     0
300
4:1
140
4.0
141
1.0
290
     0
  0
SCALE
  5
4F
102
{ACAD_REACTORS
330
40
102
}
330
40
100
AcDbScale
 70
     0
300
8:1
140
8.0
141
1.0
290
     0
  0
SCALE
  5
50
102
{ACAD_REACTORS
330
40
102
}
330
40
100
AcDbScale
 70
     0
300
10:1
140
10.0
141
1.0
290
     0
  0
SCALE
  5
51
102
{ACAD_REACTORS
330
40
102
}
330
40
100
AcDbScale
 70
     0
300
100:1
140
100.0
141
1.0
290
     0
  0
SCALE
  5
52
102
{ACAD_REACTORS
330
40
102
}
330
40
100
AcDbScale
 70
     0
300
1/128" = 1'-0"
140
0.0078125
141
12.0
290
     0
  0
SCALE
  5
53
102
{ACAD_REACTORS
330
40
102
}
330
40
100
AcDbScale
 70
     0
300
1/64" = 1'-0"
140
0.015625
141
12.0
290
     0
  0
SCALE
  5
54
102
{ACAD_REACTORS
330
40
102
}
330
40
100
AcDbScale
 70
     0
300
1/32" = 1'-0"
140
0.03125
141
12.0
290
     0
  0
SCALE
  5
55
102
{ACAD_REACTORS
330
40
102
}
330
40
100
AcDbScale
 70
     0
300
1/16" = 1'-0"
140
0.0625
141
12.0
290
     0
  0
SCALE
  5
56
102
{ACAD_REACTORS
330
40
102
}
330
40
100
AcDbScale
 70
     0
300
3/32" = 1'-0"
140
0.09375
141
12.0
290
     0
  0
SCALE
  5
57
102
{ACAD_REACTORS
330
40
102
}
330
40
100
AcDbScale
 70
     0
300
1/8" = 1'-0"
140
0.125
141
12.0
290
     0
  0
SCALE
  5
58
102
{ACAD_REACTORS
330
40
102
}
330
40
100
AcDbScale
 70
     0
300
3/16" = 1'-0"
140
0.1875
141
12.0
290
     0
  0
SCALE
  5
59
102
{ACAD_REACTORS
330
40
102
}
330
40
100
AcDbScale
 70
     0
300
1/4" = 1'-0"
140
0.25
141
12.0
290
     0
  0
SCALE
  5
5A
102
{ACAD_REACTORS
330
40
102
}
330
40
100
AcDbScale
 70
     0
300
3/8" = 1'-0"
140
0.375
141
12.0
290
     0
  0
SCALE
  5
5B
102
{ACAD_REACTORS
330
40
102
}
330
40
100
AcDbScale
 70
     0
300
1/2" = 1'-0"
140
0.5
141
12.0
290
     0
  0
SCALE
  5
5C
102
{ACAD_REACTORS
330
40
102
}
330
40
100
AcDbScale
 70
     0
300
3/4" = 1'-0"
140
0.75
141
12.0
290
     0
  0
SCALE
  5
5D
102
{ACAD_REACTORS
330
40
102
}
330
40
100
AcDbScale
 70
     0
300
1" = 1'-0"
140
1.0
141
12.0
290
     0
  0
SCALE
  5
5E
102
{ACAD_REACTORS
330
40
102
}
330
40
100
AcDbScale
 70
     0
300
1-1/2" = 1'-0"
140
1.5
141
12.0
290
     0
  0
SCALE
  5
5F
102
{ACAD_REACTORS
330
40
102
}
330
40
100
AcDbScale
 70
     0
300
3" = 1'-0"
140
3.0
141
12.0
290
     0
  0
SCALE
  5
60
102
{ACAD_REACTORS
330
40
102
}
330
40
100
AcDbScale
 70
     0
300
6" = 1'-0"
140
6.0
141
12.0
290
     0
  0
SCALE
  5
61
102
{ACAD_REACTORS
330
40
102
}
330
40
100
AcDbScale
 70
     0
300
1'-0" = 1'-0"
140
12.0
141
12.0
290
     0
  0
TABLESTYLE
  5
3C
102
{ACAD_REACTORS
330
3B
102
}
102
{ACAD_XDICTIONARY
360
2FC
102
}
330
3B
100
AcDbTableStyle
  3
Standard
 70
     0
 71
     0
 40
1.5
 41
1.5
280
     0
281
     0
  7
Standard
140
4.5
170
     2
 62
     0
 63
   257
283
     0
 90
      512
 91
        0
  1

274
    -2
284
     1
 64
     0
275
    -2
285
     1
 65
     0
276
    -2
286
     1
 66
     0
277
    -2
287
     1
 67
     0
278
    -2
288
     1
 68
     0
279
    -2
289
     1
 69
     0
  7
Standard
140
6.0
170
     5
 62
     0
 63
   257
283
     0
 90
      512
 91
        0
  1

274
    -2
284
     1
 64
     0
275
    -2
285
     1
 65
     0
276
    -2
286
     1
 66
     0
277
    -2
287
     1
 67
     0
278
    -2
288
     1
 68
     0
279
    -2
289
     1
 69
     0
  7
Standard
140
4.5
170
     5
 62
     0
 63
   257
283
     0
 90
      512
 91
        0
  1

274
    -2
284
     1
 64
     0
275
    -2
285
     1
 65
     0
276
    -2
286
     1
 66
     0
277
    -2
287
     1
 67
     0
278
    -2
288
     1
 68
     0
279
    -2
289
     1
 69
     0
  0
VISUALSTYLE
  5
2F
102
{ACAD_REACTORS
330
2A
102
}
330
2A
100
AcDbVisualStyle
  2
2dWireframe
 70
     4
177
     3
291
     0
 70
    58
 90
        0
176
     1
 90
        2
176
     1
 90
        0
176
     1
 90
        0
176
     1
 40
-0.6
176
     1
 40
-30.0
176
     1
 62
     7
420
 16777215
176
     1
 90
        1
176
     1
 90
        4
176
     1
 62
     7
176
     1
 62
   257
176
     1
 90
        1
176
     1
 90
        1
176
     1
 40
1.0
176
     1
 90
        0
176
     1
 62
   257
176
     1
 40
1.0
176
     1
 90
        1
176
     1
 90
        6
176
     1
 90
        2
176
     1
 62
     7
176
     1
 90
        5
176
     1
 90
        0
176
     1
 90
        0
176
     1
290
     0
176
     1
 90
        1
176
     1
 40
0.0
176
     1
 90
        0
176
     1
290
     1
176
     1
290
     1
176
     1
290
     0
176
     1
290
     0
176
     1
290
     0
176
     1
290
     0
176
     1
290
     0
176
     1
290
     0
176
     1
290
     0
176
     1
 90
       50
176
     1
 40
0.0
176
     1
 40
1.0
176
     1
 90
        0
176
     1
 62
   178
420
        0
176
     1
 90
       50
176
     1
 90
        3
176
     1
 62
     5
420
      255
176
     1
290
     0
176
     1
 90
       50
176
     1
 90
       50
176
     1
 90
       50
176
     1
290
     0
176
     1
 90
       50
176
     1
 62
   256
176
     0
 40
1.0
176
     0
 90
        2
176
     1
  1
strokes_ogs.tif
176
     1
290
     0
176
     1
 40
1.0
176
     1
 40
1.0
176
     1
  0
VISUALSTYLE
  5
31
102
{ACAD_REACTORS
330
2A
102
}
330
2A
100
AcDbVisualStyle
  2
3D Hidden
 70
     6
177
     3
291
     0
 70
    58
 90
        1
176
     1
 90
        2
176
     1
 90
        2
176
     1
 90
        0
176
     1
 40
-0.6
176
     1
 40
-30.0
176
     1
 62
     7
420
 16777215
176
     1
 90
        2
176
     1
 90
        2
176
     1
 62
     7
176
     1
 62
   257
176
     1
 90
        2
176
     1
 90
        1
176
     1
 40
40.0
176
     1
 90
        0
176
     1
 62
   257
176
     1
 40
1.0
176
     1
 90
        1
176
     1
 90
        6
176
     1
 90
        2
176
     1
 62
     7
176
     1
 90
        3
176
     1
 90
        0
176
     1
 90
        0
176
     1
290
     0
176
     1
 90
        1
176
     1
 40
0.0
176
     1
 90
        0
176
     1
290
     0
176
     1
290
     1
176
     1
290
     1
176
     1
290
     0
176
     1
290
     0
176
     1
290
     0
176
     1
290
     0
176
     1
290
     0
176
     1
290
     0
176
     1
 90
       50
176
     1
 40
0.0
176
     1
 40
1.0
176
     1
 90
        0
176
     1
 62
   178
420
        0
176
     1
 90
       50
176
     1
 90
        3
176
     1
 62
     5
420
      255
176
     1
290
     0
176
     1
 90
       50
176
     1
 90
       50
176
     1
 90
       50
176
     1
290
     0
176
     1
 90
       50
176
     1
 62
   256
176
     0
 40
1.0
176
     0
 90
        2
176
     1
  1
strokes_ogs.tif
176
     1
290
     0
176
     1
 40
1.0
176
     1
 40
1.0
176
     1
  0
VISUALSTYLE
  5
30
102
{ACAD_REACTORS
330
2A
102
}
330
2A
100
AcDbVisualStyle
  2
3dWireframe
 70
     5
177
     3
291
     0
 70
    58
 90
        0
176
     1
 90
        2
176
     1
 90
        0
176
     1
 90
        0
176
     1
 40
-0.6
176
     1
 40
-30.0
176
     1
 62
     7
420
 16777215
176
     1
 90
        1
176
     1
 90
        4
176
     1
 62
     7
176
     1
 62
   257
176
     1
 90
        1
176
     1
 90
        1
176
     1
 40
1.0
176
     1
 90
        0
176
     1
 62
   257
176
     1
 40
1.0
176
     1
 90
        1
176
     1
 90
        6
176
     1
 90
        2
176
     1
 62
     7
176
     1
 90
        5
176
     1
 90
        0
176
     1
 90
        0
176
     1
290
     0
176
     1
 90
        1
176
     1
 40
0.0
176
     1
 90
        0
176
     1
290
     0
176
     1
290
     1
176
     1
290
     1
176
     1
290
     0
176
     1
290
     0
176
     1
290
     0
176
     1
290
     0
176
     1
290
     0
176
     1
290
     0
176
     1
 90
       50
176
     1
 40
0.0
176
     1
 40
1.0
176
     1
 90
        0
176
     1
 62
   178
420
        0
176
     1
 90
       50
176
     1
 90
        3
176
     1
 62
     5
420
      255
176
     1
290
     0
176
     1
 90
       50
176
     1
 90
       50
176
     1
 90
       50
176
     1
290
     0
176
     1
 90
       50
176
     1
 62
   256
176
     0
 40
1.0
176
     0
 90
        2
176
     1
  1
strokes_ogs.tif
176
     1
290
     0
176
     1
 40
1.0
176
     1
 40
1.0
176
     1
  0
VISUALSTYLE
  5
32
102
{ACAD_REACTORS
330
2A
102
}
330
2A
100
AcDbVisualStyle
  2
Basic
 70
     7
177
     3
291
     1
 70
    58
 90
        1
176
     1
 90
        0
176
     1
 90
        1
176
     1
 90
        0
176
     1
 40
-0.6
176
     1
 40
-30.0
176
     1
 62
     7
420
 16777215
176
     1
 90
        0
176
     1
 90
        4
176
     1
 62
     7
176
     1
 62
   257
176
     1
 90
        1
176
     1
 90
        1
176
     1
 40
1.0
176
     1
 90
        8
176
     1
 62
     7
176
     1
 40
1.0
176
     1
 90
        1
176
     1
 90
        6
176
     1
 90
        2
176
     1
 62
     7
176
     1
 90
        5
176
     1
 90
        0
176
     1
 90
        0
176
     1
290
     0
176
     1
 90
        1
176
     1
 40
0.0
176
     1
 90
        0
176
     1
290
     0
176
     1
290
     1
176
     1
290
     1
176
     1
290
     0
176
     1
290
     0
176
     1
290
     0
176
     1
290
     0
176
     1
290
     0
176
     1
290
     0
176
     1
 90
       50
176
     1
 40
0.0
176
     1
 40
1.0
176
     1
 90
        0
176
     1
 62
   178
420
        0
176
     1
 90
       50
176
     1
 90
        3
176
     1
 62
     5
420
      255
176
     1
290
     0
176
     1
 90
       50
176
     1
 90
       50
176
     1
 90
       50
176
     1
290
     0
176
     1
 90
       50
176
     1
 62
   256
176
     0
 40
1.0
176
     0
 90
        2
176
     1
  1
strokes_ogs.tif
176
     1
290
     0
176
     1
 40
1.0
176
     1
 40
1.0
176
     1
  0
VISUALSTYLE
  5
36
102
{ACAD_REACTORS
330
2A
102
}
330
2A
100
AcDbVisualStyle
  2
Brighten
 70
    12
177
     3
291
     1
 70
    58
 90
        2
176
     1
 90
        2
176
     1
 90
        0
176
     1
 90
        0
176
     1
 40
-0.6
176
     1
 40
-30.0
176
     1
 62
     7
420
 16777215
176
     1
 90
        1
176
     1
 90
        4
176
     1
 62
     7
176
     1
 62
   257
176
     1
 90
        1
176
     1
 90
        1
176
     1
 40
1.0
176
     1
 90
        8
176
     1
 62
     7
176
     1
 40
1.0
176
     1
 90
        1
176
     1
 90
        6
176
     1
 90
        2
176
     1
 62
     7
176
     1
 90
        5
176
     1
 90
        0
176
     1
 90
        0
176
     1
290
     0
176
     1
 90
        1
176
     1
 40
50.0
176
     1
 90
        0
176
     1
290
     0
176
     1
290
     1
176
     1
290
     1
176
     1
290
     0
176
     1
290
     0
176
     1
290
     0
176
     1
290
     0
176
     1
290
     0
176
     1
290
     0
176
     1
 90
       50
176
     1
 40
0.0
176
     1
 40
1.0
176
     1
 90
        0
176
     1
 62
   178
420
        0
176
     1
 90
       50
176
     1
 90
        3
176
     1
 62
     5
420
      255
176
     1
290
     0
176
     1
 90
       50
176
     1
 90
       50
176
     1
 90
       50
176
     1
290
     0
176
     1
 90
       50
176
     1
 62
   256
176
     0
 40
1.0
176
     0
 90
        2
176
     1
  1
strokes_ogs.tif
176
     1
290
     0
176
     1
 40
1.0
176
     1
 40
1.0
176
     1
  0
VISUALSTYLE
  5
3A
102
{ACAD_REACTORS
330
2A
102
}
330
2A
100
AcDbVisualStyle
  2
ColorChange
 70
    16
177
     3
291
     1
 70
    58
 90
        2
176
     1
 90
        2
176
     1
 90
        3
176
     1
 90
        0
176
     1
 40
-0.6
176
     1
 40
-30.0
176
     1
 62
     8
420
  8421504
176
     1
 90
        1
176
     1
 90
        4
176
     1
 62
     7
176
     1
 62
   257
176
     1
 90
        1
176
     1
 90
        1
176
     1
 40
1.0
176
     1
 90
        8
176
     1
 62
     8
420
  8421504
176
     1
 40
1.0
176
     1
 90
        1
176
     1
 90
        6
176
     1
 90
        2
176
     1
 62
     7
176
     1
 90
        5
176
     1
 90
        0
176
     1
 90
        0
176
     1
290
     0
176
     1
 90
        1
176
     1
 40
0.0
176
     1
 90
        0
176
     1
290
     0
176
     1
290
     1
176
     1
290
     1
176
     1
290
     0
176
     1
290
     0
176
     1
290
     0
176
     1
290
     0
176
     1
290
     0
176
     1
290
     0
176
     1
 90
       50
176
     1
 40
0.0
176
     1
 40
1.0
176
     1
 90
        0
176
     1
 62
   178
420
        0
176
     1
 90
       50
176
     1
 90
        3
176
     1
 62
     5
420
      255
176
     1
290
     0
176
     1
 90
       50
176
     1
 90
       50
176
     1
 90
       50
176
     1
290
     0
176
     1
 90
       50
176
     1
 62
   256
176
     0
 40
1.0
176
     0
 90
        2
176
     1
  1
strokes_ogs.tif
176
     1
290
     0
176
     1
 40
1.0
176
     1
 40
1.0
176
     1
  0
VISUALSTYLE
  5
34
102
{ACAD_REACTORS
330
2A
102
}
330
2A
100
AcDbVisualStyle
  2
Conceptual
 70
     9
177
     3
291
     0
 70
    58
 90
        3
176
     1
 90
        2
176
     1
 90
        0
176
     1
 90
        0
176
     1
 40
-0.6
176
     1
 40
-30.0
176
     1
 62
     7
420
 16777215
176
     1
 90
        2
176
     1
 90
        2
176
     1
 62
     7
176
     1
 62
   257
176
     1
 90
        1
176
     1
 90
        1
176
     1
 40
40.0
176
     1
 90
        8
176
     1
 62
     7
176
     1
 40
1.0
176
     1
 90
        1
176
     1
 90
        6
176
     1
 90
        2
176
     1
 62
     7
176
     1
 90
        3
176
     1
 90
        0
176
     1
 90
        0
176
     1
290
     0
176
     1
 90
        1
176
     1
 40
0.0
176
     1
 90
        0
176
     1
290
     0
176
     1
290
     1
176
     1
290
     1
176
     1
290
     0
176
     1
290
     0
176
     1
290
     0
176
     1
290
     0
176
     1
290
     0
176
     1
290
     0
176
     1
 90
       50
176
     1
 40
0.0
176
     1
 40
1.0
176
     1
 90
        0
176
     1
 62
   178
420
        0
176
     1
 90
       50
176
     1
 90
        3
176
     1
 62
     5
420
      255
176
     1
290
     0
176
     1
 90
       50
176
     1
 90
       50
176
     1
 90
       50
176
     1
290
     0
176
     1
 90
       50
176
     1
 62
   256
176
     0
 40
1.0
176
     0
 90
        2
176
     1
  1
strokes_ogs.tif
176
     1
290
     0
176
     1
 40
1.0
176
     1
 40
1.0
176
     1
  0
VISUALSTYLE
  5
35
102
{ACAD_REACTORS
330
2A
102
}
330
2A
100
AcDbVisualStyle
  2
Dim
 70
    11
177
     3
291
     1
 70
    58
 90
        2
176
     1
 90
        2
176
     1
 90
        0
176
     1
 90
        0
176
     1
 40
-0.6
176
     1
 40
-30.0
176
     1
 62
     7
420
 16777215
176
     1
 90
        1
176
     1
 90
        4
176
     1
 62
     7
176
     1
 62
   257
176
     1
 90
        1
176
     1
 90
        1
176
     1
 40
1.0
176
     1
 90
        8
176
     1
 62
     7
176
     1
 40
1.0
176
     1
 90
        1
176
     1
 90
        6
176
     1
 90
        2
176
     1
 62
     7
176
     1
 90
        5
176
     1
 90
        0
176
     1
 90
        0
176
     1
290
     0
176
     1
 90
        1
176
     1
 40
-50.0
176
     1
 90
        0
176
     1
290
     0
176
     1
290
     1
176
     1
290
     1
176
     1
290
     0
176
     1
290
     0
176
     1
290
     0
176
     1
290
     0
176
     1
290
     0
176
     1
290
     0
176
     1
 90
       50
176
     1
 40
0.0
176
     1
 40
1.0
176
     1
 90
        0
176
     1
 62
   178
420
        0
176
     1
 90
       50
176
     1
 90
        3
176
     1
 62
     5
420
      255
176
     1
290
     0
176
     1
 90
       50
176
     1
 90
       50
176
     1
 90
       50
176
     1
290
     0
176
     1
 90
       50
176
     1
 62
   256
176
     0
 40
1.0
176
     0
 90
        2
176
     1
  1
strokes_ogs.tif
176
     1
290
     0
176
     1
 40
1.0
176
     1
 40
1.0
176
     1
  0
VISUALSTYLE
  5
7A
102
{ACAD_REACTORS
330
2A
102
}
330
2A
100
AcDbVisualStyle
  2
EdgeColorOff
 70
    22
177
     3
291
     1
 70
    58
 90
        2
176
     0
 90
        2
176
     0
 90
        0
176
     0
 90
        0
176
     0
 40
0.6
176
     0
 40
30.0
176
     0
 62
     7
420
 16777215
176
     0
 90
        1
176
     0
 90
        4
176
     0
 62
     7
176
     0
 62
   257
176
     0
 90
        1
176
     0
 90
        1
176
     0
 40
1.0
176
     0
 90
        8
176
     2
 62
     7
176
     0
 40
1.0
176
     0
 90
        1
176
     0
 90
        6
176
     0
 90
        2
176
     0
 62
     7
176
     0
 90
        5
176
     0
 90
        0
176
     0
 90
        0
176
     0
290
     0
176
     0
 90
        1
176
     0
 40
0.0
176
     0
 90
        0
176
     0
290
     0
176
     0
290
     1
176
     0
290
     1
176
     0
290
     0
176
     0
290
     0
176
     0
290
     0
176
     0
290
     0
176
     0
290
     0
176
     0
290
     0
176
     0
 90
       50
176
     0
 40
0.0
176
     0
 40
1.0
176
     0
 90
        0
176
     0
 62
   178
420
        0
176
     0
 90
       50
176
     0
 90
        3
176
     0
 62
     5
420
      255
176
     0
290
     0
176
     0
 90
       50
176
     0
 90
       50
176
     0
 90
       50
176
     0
290
     0
176
     0
 90
       50
176
     0
 62
   256
176
     0
 40
1.0
176
     0
 90
        2
176
     0
  1
strokes_ogs.tif
176
     0
290
     0
176
     0
 40
1.0
176
     0
 40
1.0
176
     0
  0
VISUALSTYLE
  5
39
102
{ACAD_REACTORS
330
2A
102
}
330
2A
100
AcDbVisualStyle
  2
Facepattern
 70
    15
177
     3
291
     1
 70
    58
 90
        2
176
     1
 90
        2
176
     1
 90
        0
176
     1
 90
        0
176
     1
 40
-0.6
176
     1
 40
-30.0
176
     1
 62
     7
420
 16777215
176
     1
 90
        1
176
     1
 90
        4
176
     1
 62
     7
176
     1
 62
   257
176
     1
 90
        1
176
     1
 90
        1
176
     1
 40
1.0
176
     1
 90
        8
176
     1
 62
     7
176
     1
 40
1.0
176
     1
 90
        1
176
     1
 90
        6
176
     1
 90
        2
176
     1
 62
     7
176
     1
 90
        5
176
     1
 90
        0
176
     1
 90
        0
176
     1
290
     0
176
     1
 90
        1
176
     1
 40
0.0
176
     1
 90
        0
176
     1
290
     0
176
     1
290
     1
176
     1
290
     1
176
     1
290
     0
176
     1
290
     0
176
     1
290
     0
176
     1
290
     0
176
     1
290
     0
176
     1
290
     0
176
     1
 90
       50
176
     1
 40
0.0
176
     1
 40
1.0
176
     1
 90
        0
176
     1
 62
   178
420
        0
176
     1
 90
       50
176
     1
 90
        3
176
     1
 62
     5
420
      255
176
     1
290
     0
176
     1
 90
       50
176
     1
 90
       50
176
     1
 90
       50
176
     1
290
     0
176
     1
 90
       50
176
     1
 62
   256
176
     0
 40
1.0
176
     0
 90
        2
176
     1
  1
strokes_ogs.tif
176
     1
290
     0
176
     1
 40
1.0
176
     1
 40
1.0
176
     1
  0
VISUALSTYLE
  5
2B
102
{ACAD_REACTORS
330
2A
102
}
330
2A
100
AcDbVisualStyle
  2
Flat
 70
     0
177
     3
291
     1
 70
    58
 90
        2
176
     1
 90
        1
176
     1
 90
        1
176
     1
 90
        2
176
     1
 40
-0.6
176
     1
 40
30.0
176
     1
 62
     7
420
 16777215
176
     1
 90
        0
176
     1
 90
        4
176
     1
 62
     7
176
     1
 62
   257
176
     1
 90
        1
176
     1
 90
        1
176
     1
 40
1.0
176
     1
 90
        8
176
     1
 62
     7
176
     1
 40
1.0
176
     1
 90
        1
176
     1
 90
        6
176
     1
 90
        2
176
     1
 62
     7
176
     1
 90
        5
176
     1
 90
        0
176
     1
 90
        0
176
     1
290
     0
176
     1
 90
       13
176
     1
 40
0.0
176
     1
 90
        0
176
     1
290
     0
176
     1
290
     1
176
     1
290
     1
176
     1
290
     0
176
     1
290
     0
176
     1
290
     0
176
     1
290
     0
176
     1
290
     0
176
     1
290
     0
176
     1
 90
       50
176
     1
 40
0.0
176
     1
 40
1.0
176
     1
 90
        0
176
     1
 62
   178
420
        0
176
     1
 90
       50
176
     1
 90
        3
176
     1
 62
     5
420
      255
176
     1
290
     0
176
     1
 90
       50
176
     1
 90
       50
176
     1
 90
       50
176
     1
290
     0
176
     1
 90
       50
176
     1
 62
   256
176
     0
 40
1.0
176
     0
 90
        2
176
     1
  1
strokes_ogs.tif
176
     1
290
     0
176
     1
 40
1.0
176
     1
 40
1.0
176
     1
  0
VISUALSTYLE
  5
2C
102
{ACAD_REACTORS
330
2A
102
}
330
2A
100
AcDbVisualStyle
  2
FlatWithEdges
 70
     1
177
     3
291
     1
 70
    58
 90
        2
176
     1
 90
        1
176
     1
 90
        1
176
     1
 90
        2
176
     1
 40
-0.6
176
     1
 40
30.0
176
     1
 62
     7
420
 16777215
176
     1
 90
        1
176
     1
 90
        4
176
     1
 62
     7
176
     1
 62
   257
176
     1
 90
        1
176
     1
 90
        1
176
     1
 40
1.0
176
     1
 90
        0
176
     1
 62
   257
176
     1
 40
1.0
176
     1
 90
        1
176
     1
 90
        6
176
     1
 90
        2
176
     1
 62
     7
176
     1
 90
        5
176
     1
 90
        0
176
     1
 90
        0
176
     1
290
     0
176
     1
 90
       13
176
     1
 40
0.0
176
     1
 90
        0
176
     1
290
     0
176
     1
290
     1
176
     1
290
     1
176
     1
290
     0
176
     1
290
     0
176
     1
290
     0
176
     1
290
     0
176
     1
290
     0
176
     1
290
     0
176
     1
 90
       50
176
     1
 40
0.0
176
     1
 40
1.0
176
     1
 90
        0
176
     1
 62
   178
420
        0
176
     1
 90
       50
176
     1
 90
        3
176
     1
 62
     5
420
      255
176
     1
290
     0
176
     1
 90
       50
176
     1
 90
       50
176
     1
 90
       50
176
     1
290
     0
176
     1
 90
       50
176
     1
 62
   256
176
     0
 40
1.0
176
     0
 90
        2
176
     1
  1
strokes_ogs.tif
176
     1
290
     0
176
     1
 40
1.0
176
     1
 40
1.0
176
     1
  0
VISUALSTYLE
  5
2D
102
{ACAD_REACTORS
330
2A
102
}
330
2A
100
AcDbVisualStyle
  2
Gouraud
 70
     2
177
     3
291
     1
 70
    58
 90
        2
176
     1
 90
        2
176
     1
 90
        1
176
     1
 90
        2
176
     1
 40
-0.6
176
     1
 40
30.0
176
     1
 62
     7
420
 16777215
176
     1
 90
        0
176
     1
 90
        4
176
     1
 62
     7
176
     1
 62
   257
176
     1
 90
        1
176
     1
 90
        1
176
     1
 40
1.0
176
     1
 90
        0
176
     1
 62
     7
176
     1
 40
1.0
176
     1
 90
        1
176
     1
 90
        6
176
     1
 90
        2
176
     1
 62
     7
176
     1
 90
        5
176
     1
 90
        0
176
     1
 90
        0
176
     1
290
     0
176
     1
 90
       13
176
     1
 40
0.0
176
     1
 90
        0
176
     1
290
     0
176
     1
290
     1
176
     1
290
     1
176
     1
290
     0
176
     1
290
     0
176
     1
290
     0
176
     1
290
     0
176
     1
290
     0
176
     1
290
     0
176
     1
 90
       50
176
     1
 40
0.0
176
     1
 40
1.0
176
     1
 90
        0
176
     1
 62
   178
420
        0
176
     1
 90
       50
176
     1
 90
        3
176
     1
 62
     5
420
      255
176
     1
290
     0
176
     1
 90
       50
176
     1
 90
       50
176
     1
 90
       50
176
     1
290
     0
176
     1
 90
       50
176
     1
 62
   256
176
     0
 40
1.0
176
     0
 90
        2
176
     1
  1
strokes_ogs.tif
176
     1
290
     0
176
     1
 40
1.0
176
     1
 40
1.0
176
     1
  0
VISUALSTYLE
  5
2E
102
{ACAD_REACTORS
330
2A
102
}
330
2A
100
AcDbVisualStyle
  2
GouraudWithEdges
 70
     3
177
     3
291
     1
 70
    58
 90
        2
176
     1
 90
        2
176
     1
 90
        1
176
     1
 90
        2
176
     1
 40
-0.6
176
     1
 40
30.0
176
     1
 62
     7
420
 16777215
176
     1
 90
        1
176
     1
 90
        4
176
     1
 62
     7
176
     1
 62
   257
176
     1
 90
        1
176
     1
 90
        1
176
     1
 40
1.0
176
     1
 90
        0
176
     1
 62
   257
176
     1
 40
1.0
176
     1
 90
        1
176
     1
 90
        6
176
     1
 90
        2
176
     1
 62
     7
176
     1
 90
        5
176
     1
 90
        0
176
     1
 90
        0
176
     1
290
     0
176
     1
 90
       13
176
     1
 40
0.0
176
     1
 90
        0
176
     1
290
     0
176
     1
290
     1
176
     1
290
     1
176
     1
290
     0
176
     1
290
     0
176
     1
290
     0
176
     1
290
     0
176
     1
290
     0
176
     1
290
     0
176
     1
 90
       50
176
     1
 40
0.0
176
     1
 40
1.0
176
     1
 90
        0
176
     1
 62
   178
420
        0
176
     1
 90
       50
176
     1
 90
        3
176
     1
 62
     5
420
      255
176
     1
290
     0
176
     1
 90
       50
176
     1
 90
       50
176
     1
 90
       50
176
     1
290
     0
176
     1
 90
       50
176
     1
 62
   256
176
     0
 40
1.0
176
     0
 90
        2
176
     1
  1
strokes_ogs.tif
176
     1
290
     0
176
     1
 40
1.0
176
     1
 40
1.0
176
     1
  0
VISUALSTYLE
  5
77
102
{ACAD_REACTORS
330
2A
102
}
330
2A
100
AcDbVisualStyle
  2
Hidden
 70
     6
177
     3
291
     0
 70
    58
 90
        1
176
     1
 90
        2
176
     1
 90
        2
176
     1
 90
        0
176
     1
 40
0.6
176
     1
 40
30.0
176
     1
 62
     7
420
 16777215
176
     1
 90
        2
176
     1
 90
        2
176
     1
 62
     7
176
     1
 62
   257
176
     1
 90
        2
176
     1
 90
        1
176
     1
 40
40.0
176
     1
 90
        0
176
     1
 62
   257
176
     1
 40
1.0
176
     1
 90
        1
176
     1
 90
        6
176
     1
 90
        2
176
     1
 62
     7
176
     1
 90
        3
176
     1
 90
        0
176
     1
 90
        0
176
     1
290
     0
176
     1
 90
        1
176
     1
 40
0.0
176
     1
 90
        0
176
     1
290
     0
176
     1
290
     1
176
     1
290
     1
176
     1
290
     0
176
     1
290
     0
176
     1
290
     0
176
     1
290
     0
176
     1
290
     0
176
     1
290
     0
176
     1
 90
       50
176
     1
 40
0.0
176
     1
 40
1.0
176
     1
 90
        0
176
     1
 62
   178
420
        0
176
     1
 90
       50
176
     1
 90
        3
176
     1
 62
     5
420
      255
176
     1
290
     0
176
     1
 90
       50
176
     1
 90
       50
176
     1
 90
       50
176
     1
290
     0
176
     1
 90
       50
176
     1
 62
   256
176
     0
 40
1.0
176
     0
 90
        2
176
     1
  1
strokes_ogs.tif
176
     1
290
     0
176
     1
 40
1.0
176
     1
 40
1.0
176
     1
  0
VISUALSTYLE
  5
78
102
{ACAD_REACTORS
330
2A
102
}
330
2A
100
AcDbVisualStyle
  2
JitterOff
 70
    20
177
     3
291
     1
 70
    58
 90
        2
176
     0
 90
        2
176
     0
 90
        0
176
     0
 90
        0
176
     0
 40
0.6
176
     0
 40
30.0
176
     0
 62
     7
420
 16777215
176
     0
 90
        1
176
     0
 90
        4
176
     0
 62
     7
176
     0
 62
   257
176
     0
 90
        1
176
     0
 90
        1
176
     0
 40
1.0
176
     0
 90
       10
176
     2
 62
     7
176
     0
 40
1.0
176
     0
 90
        1
176
     0
 90
        6
176
     0
 90
        2
176
     0
 62
     7
176
     0
 90
        5
176
     0
 90
        0
176
     0
 90
        0
176
     0
290
     0
176
     0
 90
        1
176
     0
 40
0.0
176
     0
 90
        0
176
     0
290
     0
176
     0
290
     1
176
     0
290
     1
176
     0
290
     0
176
     0
290
     0
176
     0
290
     0
176
     0
290
     0
176
     0
290
     0
176
     0
290
     0
176
     0
 90
       50
176
     0
 40
0.0
176
     0
 40
1.0
176
     0
 90
        0
176
     0
 62
   178
420
        0
176
     0
 90
       50
176
     0
 90
        3
176
     0
 62
     5
420
      255
176
     0
290
     0
176
     0
 90
       50
176
     0
 90
       50
176
     0
 90
       50
176
     0
290
     0
176
     0
 90
       50
176
     0
 62
   256
176
     0
 40
1.0
176
     0
 90
        2
176
     0
  1
strokes_ogs.tif
176
     0
290
     0
176
     0
 40
1.0
176
     0
 40
1.0
176
     0
  0
VISUALSTYLE
  5
38
102
{ACAD_REACTORS
330
2A
102
}
330
2A
100
AcDbVisualStyle
  2
Linepattern
 70
    14
177
     3
291
     1
 70
    58
 90
        2
176
     1
 90
        2
176
     1
 90
        0
176
     1
 90
        0
176
     1
 40
-0.6
176
     1
 40
-30.0
176
     1
 62
     7
420
 16777215
176
     1
 90
        1
176
     1
 90
        4
176
     1
 62
     7
176
     1
 62
   257
176
     1
 90
        7
176
     1
 90
        7
176
     1
 40
1.0
176
     1
 90
        8
176
     1
 62
     7
176
     1
 40
1.0
176
     1
 90
        1
176
     1
 90
        6
176
     1
 90
        2
176
     1
 62
     7
176
     1
 90
        5
176
     1
 90
        0
176
     1
 90
        0
176
     1
290
     0
176
     1
 90
        1
176
     1
 40
0.0
176
     1
 90
        0
176
     1
290
     0
176
     1
290
     1
176
     1
290
     1
176
     1
290
     0
176
     1
290
     0
176
     1
290
     0
176
     1
290
     0
176
     1
290
     0
176
     1
290
     0
176
     1
 90
       50
176
     1
 40
0.0
176
     1
 40
1.0
176
     1
 90
        0
176
     1
 62
   178
420
        0
176
     1
 90
       50
176
     1
 90
        3
176
     1
 62
     5
420
      255
176
     1
290
     0
176
     1
 90
       50
176
     1
 90
       50
176
     1
 90
       50
176
     1
290
     0
176
     1
 90
       50
176
     1
 62
   256
176
     0
 40
1.0
176
     0
 90
        2
176
     1
  1
strokes_ogs.tif
176
     1
290
     0
176
     1
 40
1.0
176
     1
 40
1.0
176
     1
  0
VISUALSTYLE
  5
79
102
{ACAD_REACTORS
330
2A
102
}
330
2A
100
AcDbVisualStyle
  2
OverhangOff
 70
    21
177
     3
291
     1
 70
    58
 90
        2
176
     0
 90
        2
176
     0
 90
        0
176
     0
 90
        0
176
     0
 40
0.6
176
     0
 40
30.0
176
     0
 62
     7
420
 16777215
176
     0
 90
        1
176
     0
 90
        4
176
     0
 62
     7
176
     0
 62
   257
176
     0
 90
        1
176
     0
 90
        1
176
     0
 40
1.0
176
     0
 90
        9
176
     2
 62
     7
176
     0
 40
1.0
176
     0
 90
        1
176
     0
 90
        6
176
     0
 90
        2
176
     0
 62
     7
176
     0
 90
        5
176
     0
 90
        0
176
     0
 90
        0
176
     0
290
     0
176
     0
 90
        1
176
     0
 40
0.0
176
     0
 90
        0
176
     0
290
     0
176
     0
290
     1
176
     0
290
     1
176
     0
290
     0
176
     0
290
     0
176
     0
290
     0
176
     0
290
     0
176
     0
290
     0
176
     0
290
     0
176
     0
 90
       50
176
     0
 40
0.0
176
     0
 40
1.0
176
     0
 90
        0
176
     0
 62
   178
420
        0
176
     0
 90
       50
176
     0
 90
        3
176
     0
 62
     5
420
      255
176
     0
290
     0
176
     0
 90
       50
176
     0
 90
       50
176
     0
 90
       50
176
     0
290
     0
176
     0
 90
       50
176
     0
 62
   256
176
     0
 40
1.0
176
     0
 90
        2
176
     0
  1
strokes_ogs.tif
176
     0
290
     0
176
     0
 40
1.0
176
     0
 40
1.0
176
     0
  0
VISUALSTYLE
  5
33
102
{ACAD_REACTORS
330
2A
102
}
330
2A
100
AcDbVisualStyle
  2
Realistic
 70
     8
177
     3
291
     0
 70
    58
 90
        2
176
     1
 90
        2
176
     1
 90
        0
176
     1
 90
        0
176
     1
 40
-0.6
176
     1
 40
-30.0
176
     1
 62
     7
420
 16777215
176
     1
 90
        1
176
     1
 90
        0
176
     1
 62
     7
176
     1
 62
   257
176
     1
 90
        1
176
     1
 90
        1
176
     1
 40
1.0
176
     1
 90
        8
176
     1
 62
     8
420
  7895160
176
     1
 40
1.0
176
     1
 90
        1
176
     1
 90
        6
176
     1
 90
        2
176
     1
 62
     7
176
     1
 90
        5
176
     1
 90
        0
176
     1
 90
        0
176
     1
290
     0
176
     1
 90
       13
176
     1
 40
0.0
176
     1
 90
        0
176
     1
290
     0
176
     1
290
     1
176
     1
290
     1
176
     1
290
     0
176
     1
290
     0
176
     1
290
     0
176
     1
290
     0
176
     1
290
     0
176
     1
290
     0
176
     1
 90
       50
176
     1
 40
0.0
176
     1
 40
1.0
176
     1
 90
        0
176
     1
 62
   178
420
        0
176
     1
 90
       50
176
     1
 90
        3
176
     1
 62
     5
420
      255
176
     1
290
     0
176
     1
 90
       50
176
     1
 90
       50
176
     1
 90
       50
176
     1
290
     0
176
     1
 90
       50
176
     1
 62
   256
176
     0
 40
1.0
176
     0
 90
        2
176
     1
  1
strokes_ogs.tif
176
     1
290
     0
176
     1
 40
1.0
176
     1
 40
1.0
176
     1
  0
VISUALSTYLE
  5
7F
102
{ACAD_REACTORS
330
2A
102
}
330
2A
100
AcDbVisualStyle
  2
Shaded
 70
    27
177
     3
291
     0
 70
    58
 90
        2
176
     1
 90
        2
176
     1
 90
        1
176
     1
 90
        2
176
     1
 40
0.6
176
     1
 40
30.0
176
     1
 62
     7
420
 16777215
176
     1
 90
        0
176
     1
 90
        4
176
     1
 62
     7
176
     1
 62
   257
176
     1
 90
        1
176
     1
 90
        1
176
     1
 40
1.0
176
     1
 90
        8
176
     1
 62
   257
176
     1
 40
1.0
176
     1
 90
        1
176
     1
 90
        6
176
     1
 90
        2
176
     1
 62
     8
420
  7895160
176
     1
 90
        3
176
     1
 90
        0
176
     1
 90
        0
176
     1
290
     0
176
     1
 90
        5
176
     1
 40
0.0
176
     1
 90
        0
176
     1
290
     0
176
     1
290
     1
176
     1
290
     1
176
     1
290
     0
176
     1
290
     0
176
     1
290
     0
176
     1
290
     0
176
     1
290
     0
176
     1
290
     0
176
     1
 90
       50
176
     1
 40
0.0
176
     1
 40
1.0
176
     1
 90
        0
176
     1
 62
   178
420
        0
176
     1
 90
       50
176
     1
 90
        3
176
     1
 62
     5
420
      255
176
     1
290
     0
176
     1
 90
       50
176
     1
 90
       50
176
     1
 90
       50
176
     1
290
     0
176
     1
 90
       50
176
     1
 62
   256
176
     0
 40
1.0
176
     0
 90
        2
176
     1
  1
strokes_ogs.tif
176
     1
290
     0
176
     1
 40
1.0
176
     1
 40
1.0
176
     1
  0
VISUALSTYLE
  5
7E
102
{ACAD_REACTORS
330
2A
102
}
330
2A
100
AcDbVisualStyle
  2
Shaded with edges
 70
    26
177
     3
291
     0
 70
    58
 90
        2
176
     1
 90
        2
176
     1
 90
        1
176
     1
 90
        2
176
     1
 40
0.6
176
     1
 40
30.0
176
     1
 62
     7
420
 16777215
176
     1
 90
        1
176
     1
 90
       10
176
     1
 62
     7
176
     1
 62
   257
176
     1
 90
        2
176
     1
 90
        1
176
     1
 40
1.0
176
     1
 90
        8
176
     1
 62
   257
176
     1
 40
1.0
176
     1
 90
        1
176
     1
 90
        6
176
     1
 90
        2
176
     1
 62
     7
176
     1
 90
        3
176
     1
 90
        0
176
     1
 90
        0
176
     1
290
     0
176
     1
 90
        5
176
     1
 40
0.0
176
     1
 90
        0
176
     1
290
     0
176
     1
290
     1
176
     1
290
     1
176
     1
290
     0
176
     1
290
     0
176
     1
290
     0
176
     1
290
     0
176
     1
290
     0
176
     1
290
     0
176
     1
 90
       50
176
     1
 40
0.0
176
     1
 40
1.0
176
     1
 90
        0
176
     1
 62
   178
420
        0
176
     1
 90
       50
176
     1
 90
        3
176
     1
 62
     5
420
      255
176
     1
290
     0
176
     1
 90
       50
176
     1
 90
       50
176
     1
 90
       50
176
     1
290
     0
176
     1
 90
       50
176
     1
 62
   256
176
     0
 40
1.0
176
     0
 90
        2
176
     1
  1
strokes_ogs.tif
176
     1
290
     0
176
     1
 40
1.0
176
     1
 40
1.0
176
     1
  0
VISUALSTYLE
  5
7B
102
{ACAD_REACTORS
330
2A
102
}
330
2A
100
AcDbVisualStyle
  2
Shades of Gray
 70
    23
177
     3
291
     0
 70
    58
 90
        2
176
     1
 90
        2
176
     1
 90
        3
176
     1
 90
        0
176
     1
 40
0.6
176
     1
 40
30.0
176
     1
 62
     7
420
 16777215
176
     1
 90
        2
176
     1
 90
        2
176
     1
 62
     7
176
     1
 62
     7
176
     1
 90
        1
176
     1
 90
        1
176
     1
 40
40.0
176
     1
 90
        8
176
     1
 62
     7
176
     1
 40
1.0
176
     1
 90
        1
176
     1
 90
        6
176
     1
 90
        2
176
     1
 62
     7
176
     1
 90
        3
176
     1
 90
        0
176
     1
 90
        0
176
     1
290
     0
176
     1
 90
        1
176
     1
 40
0.0
176
     1
 90
        0
176
     1
290
     0
176
     1
290
     1
176
     1
290
     1
176
     1
290
     0
176
     1
290
     0
176
     1
290
     0
176
     1
290
     0
176
     1
290
     0
176
     1
290
     0
176
     1
 90
       50
176
     1
 40
0.0
176
     1
 40
1.0
176
     1
 90
        0
176
     1
 62
   178
420
        0
176
     1
 90
       50
176
     1
 90
        3
176
     1
 62
     5
420
      255
176
     1
290
     0
176
     1
 90
       50
176
     1
 90
       50
176
     1
 90
       50
176
     1
290
     0
176
     1
 90
       50
176
     1
 62
   256
176
     0
 40
1.0
176
     0
 90
        2
176
     1
  1
strokes_ogs.tif
176
     1
290
     0
176
     1
 40
1.0
176
     1
 40
1.0
176
     1
  0
VISUALSTYLE
  5
7C
102
{ACAD_REACTORS
330
2A
102
}
330
2A
100
AcDbVisualStyle
  2
Sketchy
 70
    24
177
     3
291
     0
 70
    58
 90
        1
176
     1
 90
        2
176
     1
 90
        2
176
     1
 90
        0
176
     1
 40
0.6
176
     1
 40
30.0
176
     1
 62
     7
420
 16777215
176
     1
 90
        2
176
     1
 90
        2
176
     1
 62
     7
176
     1
 62
     7
176
     1
 90
        1
176
     1
 90
        1
176
     1
 40
40.0
176
     1
 90
       11
176
     1
 62
     7
176
     1
 40
1.0
176
     1
 90
        1
176
     1
 90
        6
176
     1
 90
        2
176
     1
 62
     7
176
     1
 90
        6
176
     1
 90
        0
176
     1
 90
        0
176
     1
290
     0
176
     1
 90
        1
176
     1
 40
0.0
176
     1
 90
        0
176
     1
290
     0
176
     1
290
     1
176
     1
290
     1
176
     1
290
     0
176
     1
290
     0
176
     1
290
     0
176
     1
290
     0
176
     1
290
     0
176
     1
290
     0
176
     1
 90
       50
176
     1
 40
0.0
176
     1
 40
1.0
176
     1
 90
        0
176
     1
 62
   178
420
        0
176
     1
 90
       50
176
     1
 90
        3
176
     1
 62
     5
420
      255
176
     1
290
     0
176
     1
 90
       50
176
     1
 90
       50
176
     1
 90
       50
176
     1
290
     0
176
     1
 90
       50
176
     1
 62
   256
176
     0
 40
1.0
176
     0
 90
        2
176
     1
  1
strokes_ogs.tif
176
     1
290
     0
176
     1
 40
1.0
176
     1
 40
1.0
176
     1
  0
VISUALSTYLE
  5
37
102
{ACAD_REACTORS
330
2A
102
}
330
2A
100
AcDbVisualStyle
  2
Thicken
 70
    13
177
     3
291
     1
 70
    58
 90
        2
176
     1
 90
        2
176
     1
 90
        0
176
     1
 90
        0
176
     1
 40
-0.6
176
     1
 40
-30.0
176
     1
 62
     7
420
 16777215
176
     1
 90
        1
176
     1
 90
        4
176
     1
 62
     7
176
     1
 62
   257
176
     1
 90
        1
176
     1
 90
        1
176
     1
 40
1.0
176
     1
 90
       12
176
     1
 62
     7
176
     1
 40
1.0
176
     1
 90
        1
176
     1
 90
        6
176
     1
 90
        2
176
     1
 62
     7
176
     1
 90
        5
176
     1
 90
        0
176
     1
 90
        0
176
     1
290
     0
176
     1
 90
        1
176
     1
 40
0.0
176
     1
 90
        0
176
     1
290
     0
176
     1
290
     1
176
     1
290
     1
176
     1
290
     0
176
     1
290
     0
176
     1
290
     0
176
     1
290
     0
176
     1
290
     0
176
     1
290
     0
176
     1
 90
       50
176
     1
 40
0.0
176
     1
 40
1.0
176
     1
 90
        0
176
     1
 62
   178
420
        0
176
     1
 90
       50
176
     1
 90
        3
176
     1
 62
     5
420
      255
176
     1
290
     0
176
     1
 90
       50
176
     1
 90
       50
176
     1
 90
       50
176
     1
290
     0
176
     1
 90
       50
176
     1
 62
   256
176
     0
 40
1.0
176
     0
 90
        2
176
     1
  1
strokes_ogs.tif
176
     1
290
     0
176
     1
 40
1.0
176
     1
 40
1.0
176
     1
  0
VISUALSTYLE
  5
76
102
{ACAD_REACTORS
330
2A
102
}
330
2A
100
AcDbVisualStyle
  2
Wireframe
 70
     5
177
     3
291
     0
 70
    58
 90
        0
176
     1
 90
        2
176
     1
 90
        0
176
     1
 90
        0
176
     1
 40
0.6
176
     1
 40
30.0
176
     1
 62
     7
420
 16777215
176
     1
 90
        1
176
     1
 90
        4
176
     1
 62
     7
176
     1
 62
   257
176
     1
 90
        1
176
     1
 90
        1
176
     1
 40
1.0
176
     1
 90
        0
176
     1
 62
   257
176
     1
 40
1.0
176
     1
 90
        1
176
     1
 90
        6
176
     1
 90
        2
176
     1
 62
     7
176
     1
 90
        3
176
     1
 90
        0
176
     1
 90
        0
176
     1
290
     0
176
     1
 90
        1
176
     1
 40
0.0
176
     1
 90
        0
176
     1
290
     0
176
     1
290
     1
176
     1
290
     1
176
     1
290
     0
176
     1
290
     0
176
     1
290
     0
176
     1
290
     0
176
     1
290
     0
176
     1
290
     0
176
     1
 90
       50
176
     1
 40
0.0
176
     1
 40
1.0
176
     1
 90
        0
176
     1
 62
   178
420
        0
176
     1
 90
       50
176
     1
 90
        3
176
     1
 62
     5
420
      255
176
     1
290
     0
176
     1
 90
       50
176
     1
 90
       50
176
     1
 90
       50
176
     1
290
     0
176
     1
 90
       50
176
     1
 62
   256
176
     0
 40
1.0
176
     0
 90
        2
176
     1
  1
strokes_ogs.tif
176
     1
290
     0
176
     1
 40
1.0
176
     1
 40
1.0
176
     1
  0
VISUALSTYLE
  5
7D
102
{ACAD_REACTORS
330
2A
102
}
330
2A
100
AcDbVisualStyle
  2
X-Ray
 70
    25
177
     3
291
     0
 70
    58
 90
        2
176
     1
 90
        2
176
     1
 90
        1
176
     1
 90
        1
176
     1
 40
0.5
176
     1
 40
30.0
176
     1
 62
     7
420
 16777215
176
     1
 90
        1
176
     1
 90
        0
176
     1
 62
     7
176
     1
 62
   257
176
     1
 90
        1
176
     1
 90
        1
176
     1
 40
1.0
176
     1
 90
        8
176
     1
 62
     7
176
     1
 40
1.0
176
     1
 90
        1
176
     1
 90
        6
176
     1
 90
        2
176
     1
 62
     7
176
     1
 90
        3
176
     1
 90
        0
176
     1
 90
        0
176
     1
290
     0
176
     1
 90
       13
176
     1
 40
0.0
176
     1
 90
        0
176
     1
290
     0
176
     1
290
     1
176
     1
290
     1
176
     1
290
     0
176
     1
290
     0
176
     1
290
     0
176
     1
290
     0
176
     1
290
     0
176
     1
290
     0
176
     1
 90
       50
176
     1
 40
0.0
176
     1
 40
1.0
176
     1
 90
        0
176
     1
 62
   178
420
        0
176
     1
 90
       50
176
     1
 90
        3
176
     1
 62
     5
420
      255
176
     1
290
     0
176
     1
 90
       50
176
     1
 90
       50
176
     1
 90
       50
176
     1
290
     0
176
     1
 90
       50
176
     1
 62
   256
176
     0
 40
1.0
176
     0
 90
        2
176
     1
  1
strokes_ogs.tif
176
     1
290
     0
176
     1
 40
1.0
176
     1
 40
1.0
176
     1
  0
DICTIONARYVAR
  5
62
102
{ACAD_REACTORS
330
3D
102
}
330
3D
100
DictionaryVariables
280
     0
  1
1:1
  0
DICTIONARYVAR
  5
BB
102
{ACAD_REACTORS
330
3D
102
}
330
3D
100
DictionaryVariables
280
     0
  1
Standard
  0
DICTIONARYVAR
  5
3E
102
{ACAD_REACTORS
330
3D
102
}
330
3D
100
DictionaryVariables
280
     0
  1
Standard
  0
DICTIONARYVAR
  5
6F
102
{ACAD_REACTORS
330
3D
102
}
330
3D
100
DictionaryVariables
280
     0
  1
0
  0
DICTIONARYVAR
  5
70
102
{ACAD_REACTORS
330
3D
102
}
330
3D
100
DictionaryVariables
280
     0
  1
0
  0
DICTIONARY
  5
2FC
330
3C
100
AcDbDictionary
280
     1
281
     1
  3
ACAD_ROUNDTRIP_2008_TABLESTYLE_CELLSTYLEMAP
360
2FD
  0
CELLSTYLEMAP
  5
2FD
102
{ACAD_REACTORS
330
2FC
102
}
330
2FC
100
AcDbCellStyleMap
 90
        3
300
CELLSTYLE
  1
TABLEFORMAT_BEGIN
 90
        5
170
     1
 91
        0
 92
    32768
 62
   257
 93
        1
300
CONTENTFORMAT
  1
CONTENTFORMAT_BEGIN
 90
        0
 91
        0
 92
      512
 93
        0
300

 40
0.0
140
1.0
 94
        5
 62
     0
340
11
144
6.0
309
CONTENTFORMAT_END
171
     1
301
MARGIN
  1
CELLMARGIN_BEGIN
 40
1.5
 40
1.5
 40
1.5
 40
1.5
 40
0.18
 40
0.18
309
CELLMARGIN_END
 94
        6
 95
        1
302
GRIDFORMAT
  1
GRIDFORMAT_BEGIN
 90
        0
 91
        1
 62
     0
 92
       -2
340
0
 93
        0
 40
0.045
309
GRIDFORMAT_END
 95
        2
302
GRIDFORMAT
  1
GRIDFORMAT_BEGIN
 90
        0
 91
        1
 62
     0
 92
       -2
340
0
 93
        0
 40
0.045
309
GRIDFORMAT_END
 95
        4
302
GRIDFORMAT
  1
GRIDFORMAT_BEGIN
 90
        0
 91
        1
 62
     0
 92
       -2
340
0
 93
        0
 40
0.045
309
GRIDFORMAT_END
 95
        8
302
GRIDFORMAT
  1
GRIDFORMAT_BEGIN
 90
        0
 91
        1
 62
     0
 92
       -2
340
0
 93
        0
 40
0.045
309
GRIDFORMAT_END
 95
       16
302
GRIDFORMAT
  1
GRIDFORMAT_BEGIN
 90
        0
 91
        1
 62
     0
 92
       -2
340
0
 93
        0
 40
0.045
309
GRIDFORMAT_END
 95
       32
302
GRIDFORMAT
  1
GRIDFORMAT_BEGIN
 90
        0
 91
        1
 62
     0
 92
       -2
340
0
 93
        0
 40
0.045
309
GRIDFORMAT_END
309
TABLEFORMAT_END
  1
CELLSTYLE_BEGIN
 90
        1
 91
        1
300
_TITLE
309
CELLSTYLE_END
300
CELLSTYLE
  1
TABLEFORMAT_BEGIN
 90
        5
170
     1
 91
        0
 92
        0
 62
   257
 93
        1
300
CONTENTFORMAT
  1
CONTENTFORMAT_BEGIN
 90
        0
 91
        0
 92
      512
 93
        0
300

 40
0.0
140
1.0
 94
        5
 62
     0
340
11
144
4.5
309
CONTENTFORMAT_END
171
     1
301
MARGIN
  1
CELLMARGIN_BEGIN
 40
1.5
 40
1.5
 40
1.5
 40
1.5
 40
0.18
 40
0.18
309
CELLMARGIN_END
 94
        6
 95
        1
302
GRIDFORMAT
  1
GRIDFORMAT_BEGIN
 90
        0
 91
        1
 62
     0
 92
       -2
340
0
 93
        0
 40
0.045
309
GRIDFORMAT_END
 95
        2
302
GRIDFORMAT
  1
GRIDFORMAT_BEGIN
 90
        0
 91
        1
 62
     0
 92
       -2
340
0
 93
        0
 40
0.045
309
GRIDFORMAT_END
 95
        4
302
GRIDFORMAT
  1
GRIDFORMAT_BEGIN
 90
        0
 91
        1
 62
     0
 92
       -2
340
0
 93
        0
 40
0.045
309
GRIDFORMAT_END
 95
        8
302
GRIDFORMAT
  1
GRIDFORMAT_BEGIN
 90
        0
 91
        1
 62
     0
 92
       -2
340
0
 93
        0
 40
0.045
309
GRIDFORMAT_END
 95
       16
302
GRIDFORMAT
  1
GRIDFORMAT_BEGIN
 90
        0
 91
        1
 62
     0
 92
       -2
340
0
 93
        0
 40
0.045
309
GRIDFORMAT_END
 95
       32
302
GRIDFORMAT
  1
GRIDFORMAT_BEGIN
 90
        0
 91
        1
 62
     0
 92
       -2
340
0
 93
        0
 40
0.045
309
GRIDFORMAT_END
309
TABLEFORMAT_END
  1
CELLSTYLE_BEGIN
 90
        2
 91
        1
300
_HEADER
309
CELLSTYLE_END
300
CELLSTYLE
  1
TABLEFORMAT_BEGIN
 90
        5
170
     1
 91
        0
 92
        0
 62
   257
 93
        1
300
CONTENTFORMAT
  1
CONTENTFORMAT_BEGIN
 90
        0
 91
        0
 92
      512
 93
        0
300

 40
0.0
140
1.0
 94
        2
 62
     0
340
11
144
4.5
309
CONTENTFORMAT_END
171
     1
301
MARGIN
  1
CELLMARGIN_BEGIN
 40
1.5
 40
1.5
 40
1.5
 40
1.5
 40
0.18
 40
0.18
309
CELLMARGIN_END
 94
        6
 95
        1
302
GRIDFORMAT
  1
GRIDFORMAT_BEGIN
 90
        0
 91
        1
 62
     0
 92
       -2
340
0
 93
        0
 40
0.045
309
GRIDFORMAT_END
 95
        2
302
GRIDFORMAT
  1
GRIDFORMAT_BEGIN
 90
        0
 91
        1
 62
     0
 92
       -2
340
0
 93
        0
 40
0.045
309
GRIDFORMAT_END
 95
        4
302
GRIDFORMAT
  1
GRIDFORMAT_BEGIN
 90
        0
 91
        1
 62
     0
 92
       -2
340
0
 93
        0
 40
0.045
309
GRIDFORMAT_END
 95
        8
302
GRIDFORMAT
  1
GRIDFORMAT_BEGIN
 90
        0
 91
        1
 62
     0
 92
       -2
340
0
 93
        0
 40
0.045
309
GRIDFORMAT_END
 95
       16
302
GRIDFORMAT
  1
GRIDFORMAT_BEGIN
 90
        0
 91
        1
 62
     0
 92
       -2
340
0
 93
        0
 40
0.045
309
GRIDFORMAT_END
 95
       32
302
GRIDFORMAT
  1
GRIDFORMAT_BEGIN
 90
        0
 91
        1
 62
     0
 92
       -2
340
0
 93
        0
 40
0.045
309
GRIDFORMAT_END
309
TABLEFORMAT_END
  1
CELLSTYLE_BEGIN
 90
        3
 91
        2
300
_DATA
309
CELLSTYLE_END
  0
ENDSEC
  0
EOF
