solid OpenSCAD_Model
  facet normal -1 0 0
    outer loop
      vertex 0 0 0
      vertex 0 78 18
      vertex 0 78 0
    endloop
  endfacet
  facet normal -1 -0 0
    outer loop
      vertex 0 78 18
      vertex 0 0 0
      vertex 0 0 18
    endloop
  endfacet
  facet normal 0 0 1
    outer loop
      vertex 108 78 18
      vertex 106 76 18
      vertex 108 0 18
    endloop
  endfacet
  facet normal 0 0 1
    outer loop
      vertex 108 78 18
      vertex 2 76 18
      vertex 106 76 18
    endloop
  endfacet
  facet normal 0 0 1
    outer loop
      vertex 2 76 18
      vertex 0 78 18
      vertex 2 2 18
    endloop
  endfacet
  facet normal -0 0 1
    outer loop
      vertex 0 78 18
      vertex 2 76 18
      vertex 108 78 18
    endloop
  endfacet
  facet normal -0 0 1
    outer loop
      vertex 106 2 18
      vertex 108 0 18
      vertex 106 76 18
    endloop
  endfacet
  facet normal -0 0 1
    outer loop
      vertex 2 2 18
      vertex 108 0 18
      vertex 106 2 18
    endloop
  endfacet
  facet normal 0 0 1
    outer loop
      vertex 2 2 18
      vertex 0 0 18
      vertex 108 0 18
    endloop
  endfacet
  facet normal 0 0 1
    outer loop
      vertex 0 0 18
      vertex 2 2 18
      vertex 0 78 18
    endloop
  endfacet
  facet normal 1 -0 0
    outer loop
      vertex 108 0 18
      vertex 108 78 0
      vertex 108 78 18
    endloop
  endfacet
  facet normal 1 0 0
    outer loop
      vertex 108 78 0
      vertex 108 0 18
      vertex 108 0 0
    endloop
  endfacet
  facet normal 0 1 -0
    outer loop
      vertex 108 78 0
      vertex 0 78 18
      vertex 108 78 18
    endloop
  endfacet
  facet normal 0 1 0
    outer loop
      vertex 0 78 18
      vertex 108 78 0
      vertex 0 78 0
    endloop
  endfacet
  facet normal 0 0 -1
    outer loop
      vertex 0 0 0
      vertex 108 78 0
      vertex 108 0 0
    endloop
  endfacet
  facet normal -0 0 -1
    outer loop
      vertex 108 78 0
      vertex 0 0 0
      vertex 0 78 0
    endloop
  endfacet
  facet normal 0 -1 0
    outer loop
      vertex 0 0 0
      vertex 108 0 18
      vertex 0 0 18
    endloop
  endfacet
  facet normal 0 -1 -0
    outer loop
      vertex 108 0 18
      vertex 0 0 0
      vertex 108 0 0
    endloop
  endfacet
  facet normal 1 -0 0
    outer loop
      vertex 2 2 18
      vertex 2 76 6
      vertex 2 76 18
    endloop
  endfacet
  facet normal 1 0 0
    outer loop
      vertex 2 76 6
      vertex 2 2 18
      vertex 2 2 6
    endloop
  endfacet
  facet normal -1 0 0
    outer loop
      vertex 106 2 6
      vertex 106 76 18
      vertex 106 76 6
    endloop
  endfacet
  facet normal -1 -0 0
    outer loop
      vertex 106 76 18
      vertex 106 2 6
      vertex 106 2 18
    endloop
  endfacet
  facet normal -0 0 1
    outer loop
      vertex 7 71 2
      vertex 101 7 2
      vertex 101 71 2
    endloop
  endfacet
  facet normal 0 0 1
    outer loop
      vertex 101 7 2
      vertex 7 71 2
      vertex 7 7 2
    endloop
  endfacet
  facet normal 0 1 -0
    outer loop
      vertex 106 2 6
      vertex 2 2 18
      vertex 106 2 18
    endloop
  endfacet
  facet normal 0 1 0
    outer loop
      vertex 2 2 18
      vertex 106 2 6
      vertex 2 2 6
    endloop
  endfacet
  facet normal 0 -1 0
    outer loop
      vertex 2 76 6
      vertex 106 76 18
      vertex 2 76 18
    endloop
  endfacet
  facet normal 0 -1 -0
    outer loop
      vertex 106 76 18
      vertex 2 76 6
      vertex 106 76 6
    endloop
  endfacet
  facet normal 0 0 1
    outer loop
      vertex 106 76 6
      vertex 101 71 6
      vertex 106 2 6
    endloop
  endfacet
  facet normal 0 0 1
    outer loop
      vertex 106 76 6
      vertex 7 71 6
      vertex 101 71 6
    endloop
  endfacet
  facet normal 0 0 1
    outer loop
      vertex 7 71 6
      vertex 2 76 6
      vertex 7 7 6
    endloop
  endfacet
  facet normal -0 0 1
    outer loop
      vertex 2 76 6
      vertex 7 71 6
      vertex 106 76 6
    endloop
  endfacet
  facet normal -0 0 1
    outer loop
      vertex 101 7 6
      vertex 106 2 6
      vertex 101 71 6
    endloop
  endfacet
  facet normal -0 0 1
    outer loop
      vertex 7 7 6
      vertex 106 2 6
      vertex 101 7 6
    endloop
  endfacet
  facet normal 0 0 1
    outer loop
      vertex 7 7 6
      vertex 2 2 6
      vertex 106 2 6
    endloop
  endfacet
  facet normal 0 0 1
    outer loop
      vertex 2 2 6
      vertex 7 7 6
      vertex 2 76 6
    endloop
  endfacet
  facet normal 1 -0 0
    outer loop
      vertex 7 7 6
      vertex 7 71 2
      vertex 7 71 6
    endloop
  endfacet
  facet normal 1 0 0
    outer loop
      vertex 7 71 2
      vertex 7 7 6
      vertex 7 7 2
    endloop
  endfacet
  facet normal -1 0 0
    outer loop
      vertex 101 7 2
      vertex 101 71 6
      vertex 101 71 2
    endloop
  endfacet
  facet normal -1 -0 0
    outer loop
      vertex 101 71 6
      vertex 101 7 2
      vertex 101 7 6
    endloop
  endfacet
  facet normal 0 -1 0
    outer loop
      vertex 7 71 2
      vertex 101 71 6
      vertex 7 71 6
    endloop
  endfacet
  facet normal 0 -1 -0
    outer loop
      vertex 101 71 6
      vertex 7 71 2
      vertex 101 71 2
    endloop
  endfacet
  facet normal 0 1 -0
    outer loop
      vertex 101 7 2
      vertex 7 7 6
      vertex 101 7 6
    endloop
  endfacet
  facet normal 0 1 0
    outer loop
      vertex 7 7 6
      vertex 101 7 2
      vertex 7 7 2
    endloop
  endfacet
endsolid OpenSCAD_Model
